G04 #@! TF.GenerationSoftware,KiCad,Pcbnew,5.1.0-rc2-unknown-036be7d~80~ubuntu16.04.1*
G04 #@! TF.CreationDate,2023-08-29T11:39:43+03:00*
G04 #@! TF.ProjectId,Neo6502_Rev_B,4e656f36-3530-4325-9f52-65765f422e6b,B*
G04 #@! TF.SameCoordinates,Original*
G04 #@! TF.FileFunction,Soldermask,Top*
G04 #@! TF.FilePolarity,Negative*
%FSLAX46Y46*%
G04 Gerber Fmt 4.6, Leading zero omitted, Abs format (unit mm)*
G04 Created by KiCad (PCBNEW 5.1.0-rc2-unknown-036be7d~80~ubuntu16.04.1) date 2023-08-29 11:39:43*
%MOMM*%
%LPD*%
G04 APERTURE LIST*
%ADD10R,0.401600X1.251600*%
%ADD11O,1.301600X2.301600*%
%ADD12C,0.701600*%
%ADD13O,1.401600X2.101600*%
%ADD14R,0.351600X1.251600*%
%ADD15R,1.201600X2.301600*%
%ADD16R,1.201600X2.101600*%
%ADD17R,1.101600X2.101600*%
%ADD18O,1.901600X2.901600*%
%ADD19O,1.401600X2.401600*%
%ADD20R,0.351600X1.701600*%
%ADD21O,1.401600X2.801600*%
%ADD22C,1.301600*%
%ADD23R,1.101600X4.351600*%
%ADD24R,4.351600X1.101600*%
%ADD25C,1.801600*%
%ADD26R,3.101599X2.201600*%
%ADD27R,3.101599X2.601600*%
%ADD28R,0.651600X0.601600*%
%ADD29C,1.254000*%
%ADD30C,3.401601*%
%ADD31R,0.901600X0.901600*%
%ADD32R,0.601600X0.651600*%
%ADD33R,1.117600X1.117600*%
%ADD34R,1.501600X1.101600*%
%ADD35R,1.151600X0.751600*%
%ADD36C,1.101600*%
%ADD37R,1.901600X1.701600*%
%ADD38R,3.101600X1.701600*%
%ADD39R,1.501600X1.301600*%
%ADD40R,1.117600X0.863600*%
%ADD41R,1.117600X0.609600*%
%ADD42R,1.879600X1.879600*%
%ADD43C,1.879600*%
%ADD44R,2.301600X0.701600*%
%ADD45R,3.301600X3.301600*%
%ADD46C,1.901600*%
%ADD47R,0.976600X0.301600*%
%ADD48R,0.301600X0.976600*%
%ADD49R,1.301600X0.651600*%
%ADD50R,1.501600X0.451600*%
%ADD51R,2.101600X2.101600*%
%ADD52C,2.101600*%
%ADD53R,1.625600X1.879600*%
%ADD54R,2.101600X0.501600*%
%ADD55R,0.501600X2.101600*%
%ADD56R,1.371600X0.861600*%
G04 APERTURE END LIST*
D10*
X168675000Y-71932000D03*
X175325000Y-71932000D03*
X168925000Y-71932000D03*
X175075000Y-71932000D03*
X169475000Y-71932000D03*
X174525000Y-71932000D03*
X169725000Y-71932000D03*
X174275000Y-71932000D03*
D11*
X176320000Y-71030000D03*
D12*
X174890000Y-70530000D03*
D13*
X176320000Y-66850000D03*
X167680000Y-66850000D03*
D11*
X167680000Y-71030000D03*
D14*
X172250000Y-71932000D03*
X171250000Y-71932000D03*
X170750000Y-71932000D03*
X171750000Y-71932000D03*
X170250000Y-71932000D03*
X172750000Y-71932000D03*
X173250000Y-71932000D03*
X173750000Y-71932000D03*
D12*
X169110000Y-70530000D03*
D15*
X176927600Y-71030000D03*
D16*
X176927600Y-66850000D03*
D15*
X167072400Y-71030000D03*
D16*
X167072400Y-66850000D03*
D17*
X133500000Y-73050000D03*
X136000000Y-73050000D03*
X138000000Y-73050000D03*
X140500000Y-73050000D03*
D18*
X130600000Y-70850000D03*
X143400000Y-70850000D03*
D19*
X119300000Y-66800000D03*
D20*
X116500000Y-73800000D03*
X116000000Y-73800000D03*
X115500000Y-73800000D03*
X115000000Y-73800000D03*
X114500000Y-73800000D03*
X114000000Y-73800000D03*
X113500000Y-73800000D03*
X113000000Y-73800000D03*
X112500000Y-73800000D03*
X112000000Y-73800000D03*
X111500000Y-73800000D03*
X111000000Y-73800000D03*
X110500000Y-73800000D03*
X110000000Y-73800000D03*
X109500000Y-73800000D03*
X109000000Y-73800000D03*
X108500000Y-73800000D03*
X108000000Y-73800000D03*
X107500000Y-73800000D03*
D19*
X104700000Y-66800000D03*
D21*
X104700000Y-72850000D03*
X119300000Y-72850000D03*
D22*
X117140000Y-114000000D03*
X162860000Y-114000000D03*
D23*
X115870000Y-117125000D03*
X115870000Y-110875000D03*
X118410000Y-117125000D03*
X118410000Y-110875000D03*
X120950000Y-117125000D03*
X120950000Y-110875000D03*
X123490000Y-117125000D03*
X123490000Y-110875000D03*
X126030000Y-117125000D03*
X126030000Y-110875000D03*
X128570000Y-117125000D03*
X128570000Y-110875000D03*
X131110000Y-117125000D03*
X131110000Y-110875000D03*
X133650000Y-117125000D03*
X133650000Y-110875000D03*
X136190000Y-117125000D03*
X136190000Y-110875000D03*
X138730000Y-117125000D03*
X138730000Y-110875000D03*
X141270000Y-117125000D03*
X141270000Y-110875000D03*
X143810000Y-117125000D03*
X143810000Y-110875000D03*
X146350000Y-117125000D03*
X146350000Y-110875000D03*
X148890000Y-117125000D03*
X148890000Y-110875000D03*
X151430000Y-117125000D03*
X151430000Y-110875000D03*
X153970000Y-117125000D03*
X153970000Y-110875000D03*
X156510000Y-117125000D03*
X156510000Y-110875000D03*
X159050000Y-117125000D03*
X159050000Y-110875000D03*
X161590000Y-117125000D03*
X161590000Y-110875000D03*
X164130000Y-117125000D03*
X164130000Y-110875000D03*
D22*
X106000000Y-98810000D03*
D24*
X102875000Y-89920000D03*
X109125000Y-89920000D03*
X102875000Y-92460000D03*
X109125000Y-92460000D03*
X102875000Y-95000000D03*
X109125000Y-95000000D03*
X102875000Y-97540000D03*
X109125000Y-97540000D03*
X102875000Y-100080000D03*
X109125000Y-100080000D03*
D22*
X106000000Y-91190000D03*
D25*
X156000000Y-74000000D03*
X156000000Y-68000000D03*
D26*
X161300000Y-70900000D03*
X150700000Y-70100000D03*
X161300000Y-74000000D03*
D27*
X150700000Y-74300000D03*
X161300000Y-67800000D03*
D28*
X166497000Y-103505000D03*
X166497000Y-104521000D03*
D29*
X101500000Y-66500000D03*
X178500000Y-118500000D03*
D30*
X104000000Y-116000000D03*
X176000000Y-116000000D03*
X176000000Y-79000000D03*
X104000000Y-79000000D03*
D31*
X176632000Y-85330000D03*
X175108000Y-85330000D03*
D32*
X175387000Y-83740000D03*
X176403000Y-83740000D03*
X114935000Y-97282000D03*
X115951000Y-97282000D03*
X139319000Y-88138000D03*
X140335000Y-88138000D03*
X114935000Y-95758000D03*
X115951000Y-95758000D03*
X165227000Y-84328000D03*
X166243000Y-84328000D03*
D28*
X146431000Y-77724000D03*
X146431000Y-78740000D03*
X144907000Y-77724000D03*
X144907000Y-78740000D03*
D33*
X168402000Y-85979000D03*
X166624000Y-85979000D03*
X149733000Y-77343000D03*
X149733000Y-79121000D03*
D28*
X147955000Y-77724000D03*
X147955000Y-78740000D03*
D34*
X162560000Y-83688000D03*
X162560000Y-79888000D03*
X167477440Y-82610960D03*
X167477440Y-80708500D03*
X165267640Y-81663540D03*
D35*
X106075000Y-110075000D03*
X101925000Y-110075000D03*
X106075000Y-107925000D03*
X101925000Y-107925000D03*
D32*
X124714000Y-107061000D03*
X123698000Y-107061000D03*
D28*
X116586000Y-87122000D03*
X116586000Y-88138000D03*
D32*
X134493000Y-100711000D03*
X133477000Y-100711000D03*
X133477000Y-90424000D03*
X134493000Y-90424000D03*
D28*
X119507000Y-87122000D03*
X119507000Y-86106000D03*
D32*
X114935000Y-94234000D03*
X115951000Y-94234000D03*
X115951000Y-100584000D03*
X114935000Y-100584000D03*
D28*
X123317000Y-104648000D03*
X123317000Y-105664000D03*
X121920000Y-105664000D03*
X121920000Y-104648000D03*
X114935000Y-105664000D03*
X114935000Y-104648000D03*
X116332000Y-105664000D03*
X116332000Y-104648000D03*
X117729000Y-104648000D03*
X117729000Y-105664000D03*
X118237000Y-87122000D03*
X118237000Y-86106000D03*
X124714000Y-105664000D03*
X124714000Y-104648000D03*
X127635000Y-86106000D03*
X127635000Y-87122000D03*
X122301000Y-86106000D03*
X122301000Y-87122000D03*
D33*
X140462000Y-82931000D03*
X140462000Y-81153000D03*
D32*
X174371000Y-95504001D03*
X175387000Y-95504001D03*
D33*
X132461001Y-81026000D03*
X134239001Y-81026000D03*
X134239000Y-79502000D03*
X132461000Y-79502000D03*
D32*
X152146000Y-97663000D03*
X151130000Y-97663000D03*
X151130000Y-99060000D03*
X152146000Y-99060000D03*
X139319000Y-89535000D03*
X140335000Y-89535000D03*
X140335000Y-90932000D03*
X139319000Y-90932000D03*
X139319000Y-98298000D03*
X140335000Y-98298000D03*
X139319000Y-99568000D03*
X140335000Y-99568000D03*
D36*
X124460000Y-67230000D03*
D37*
X120396000Y-79378000D03*
X120396000Y-76578000D03*
D38*
X133350000Y-85274000D03*
X133350000Y-82874000D03*
D39*
X126068000Y-85814000D03*
X123868000Y-87414000D03*
X123868000Y-85814000D03*
X126068000Y-87414000D03*
D32*
X136652000Y-106045000D03*
X135636000Y-106045000D03*
D28*
X115316000Y-88138000D03*
X115316000Y-87122000D03*
X120904000Y-87122000D03*
X120904000Y-86106000D03*
X119126000Y-104648000D03*
X119126000Y-105664000D03*
X120523000Y-105664000D03*
X120523000Y-104648000D03*
D32*
X113538000Y-106934000D03*
X114554000Y-106934000D03*
X171450000Y-73914000D03*
X170434000Y-73914000D03*
X173609000Y-73914000D03*
X172593000Y-73914000D03*
X175387000Y-97028000D03*
X174371000Y-97028000D03*
X136271000Y-79502000D03*
X137287000Y-79502000D03*
X139446000Y-79502000D03*
X140462000Y-79502000D03*
X174371000Y-92456000D03*
X175387000Y-92456000D03*
X175387000Y-90805000D03*
X174371000Y-90805000D03*
X174371000Y-89154000D03*
X175387000Y-89154000D03*
X175387000Y-100203000D03*
X174371000Y-100203000D03*
X174371000Y-98552000D03*
X175387000Y-98552000D03*
D28*
X107823000Y-79883000D03*
X107823000Y-78867000D03*
X109347000Y-78867000D03*
X109347000Y-79883000D03*
X110871000Y-79883000D03*
X110871000Y-78867000D03*
X112395000Y-78867000D03*
X112395000Y-79883000D03*
X113919000Y-79883000D03*
X113919000Y-78867000D03*
X115443000Y-78867000D03*
X115443000Y-79883000D03*
X116967000Y-79883000D03*
X116967000Y-78867000D03*
X118491000Y-78867000D03*
X118491000Y-79883000D03*
D32*
X139319000Y-97028000D03*
X140335000Y-97028000D03*
X152146000Y-100457000D03*
X151130000Y-100457000D03*
D40*
X134747000Y-96520000D03*
X133223000Y-96520000D03*
X134747000Y-99060000D03*
X133223000Y-99060000D03*
D41*
X134747000Y-97409000D03*
X134747000Y-98171000D03*
X133223000Y-97409000D03*
X133223000Y-98171000D03*
X133223000Y-93726000D03*
X133223000Y-92964000D03*
X134747000Y-93726000D03*
X134747000Y-92964000D03*
D40*
X133223000Y-94615000D03*
X134747000Y-94615000D03*
X133223000Y-92075000D03*
X134747000Y-92075000D03*
D42*
X109000000Y-112460000D03*
D43*
X109000000Y-115000000D03*
X109000000Y-117540000D03*
D44*
X133410000Y-106045000D03*
X133410000Y-104775000D03*
X133410000Y-103505000D03*
X133410000Y-102235000D03*
X126940000Y-102235000D03*
X126940000Y-103505000D03*
X126940000Y-104775000D03*
X126940000Y-106045000D03*
D45*
X124460000Y-95626000D03*
D36*
X125660000Y-96826000D03*
X123260000Y-96826000D03*
D46*
X124460000Y-95626000D03*
D36*
X125660000Y-94356000D03*
X123260000Y-94426000D03*
D47*
X127897500Y-98226000D03*
X127897500Y-97826000D03*
X127897500Y-97426000D03*
X127897500Y-97026000D03*
X127897500Y-96626000D03*
X127897500Y-96226000D03*
X127897500Y-95826000D03*
X127897500Y-95426000D03*
X127897500Y-95026000D03*
X127897500Y-94626000D03*
X127897500Y-94226000D03*
X127897500Y-93826000D03*
X127897500Y-93426000D03*
X127897500Y-93026000D03*
D48*
X127060000Y-92188500D03*
X126660000Y-92188500D03*
X126260000Y-92188500D03*
X125860000Y-92188500D03*
X125460000Y-92188500D03*
X125060000Y-92188500D03*
X124660000Y-92188500D03*
X124260000Y-92188500D03*
X123860000Y-92188500D03*
X123460000Y-92188500D03*
X123060000Y-92188500D03*
X122660000Y-92188500D03*
X122260000Y-92188500D03*
X121860000Y-92188500D03*
D47*
X121022500Y-93026000D03*
X121022500Y-93426000D03*
X121022500Y-93826000D03*
X121022500Y-94226000D03*
X121022500Y-94626000D03*
X121022500Y-95026000D03*
X121022500Y-95426000D03*
X121022500Y-95826000D03*
X121022500Y-96226000D03*
X121022500Y-96626000D03*
X121022500Y-97026000D03*
X121022500Y-97426000D03*
X121022500Y-97826000D03*
X121022500Y-98226000D03*
D48*
X121860000Y-99063500D03*
X122260000Y-99063500D03*
X122660000Y-99063500D03*
X123060000Y-99063500D03*
X123460000Y-99063500D03*
X123860000Y-99063500D03*
X124260000Y-99063500D03*
X124660000Y-99063500D03*
X125060000Y-99063500D03*
X125460000Y-99063500D03*
X125860000Y-99063500D03*
X126260000Y-99063500D03*
X126660000Y-99063500D03*
X127060000Y-99063500D03*
D49*
X138841000Y-82992000D03*
X138841000Y-81092000D03*
X136241000Y-82992000D03*
X136241000Y-82042000D03*
X136241000Y-81092000D03*
D50*
X148315000Y-83435000D03*
X148315000Y-84085000D03*
X148315000Y-84735000D03*
X148315000Y-85385000D03*
X148315000Y-86035000D03*
X148315000Y-86685000D03*
X148315000Y-87335000D03*
X148315000Y-87985000D03*
X148315000Y-88635000D03*
X148315000Y-89285000D03*
X142515000Y-89285000D03*
X142515000Y-88635000D03*
X142515000Y-87985000D03*
X142515000Y-87335000D03*
X142515000Y-86685000D03*
X142515000Y-86035000D03*
X142515000Y-85385000D03*
X142515000Y-84735000D03*
X142515000Y-84085000D03*
X142515000Y-83435000D03*
X148315000Y-91690000D03*
X148315000Y-92340000D03*
X148315000Y-92990000D03*
X148315000Y-93640000D03*
X148315000Y-94290000D03*
X148315000Y-94940000D03*
X148315000Y-95590000D03*
X148315000Y-96240000D03*
X148315000Y-96890000D03*
X148315000Y-97540000D03*
X142515000Y-97540000D03*
X142515000Y-96890000D03*
X142515000Y-96240000D03*
X142515000Y-95590000D03*
X142515000Y-94940000D03*
X142515000Y-94290000D03*
X142515000Y-93640000D03*
X142515000Y-92990000D03*
X142515000Y-92340000D03*
X142515000Y-91690000D03*
X148315000Y-105795000D03*
X148315000Y-105145000D03*
X148315000Y-104495000D03*
X148315000Y-103845000D03*
X148315000Y-103195000D03*
X148315000Y-102545000D03*
X148315000Y-101895000D03*
X148315000Y-101245000D03*
X148315000Y-100595000D03*
X148315000Y-99945000D03*
X142515000Y-99945000D03*
X142515000Y-100595000D03*
X142515000Y-101245000D03*
X142515000Y-101895000D03*
X142515000Y-102545000D03*
X142515000Y-103195000D03*
X142515000Y-103845000D03*
X142515000Y-104495000D03*
X142515000Y-105145000D03*
X142515000Y-105795000D03*
D36*
X124460000Y-74850000D03*
X124460000Y-69770000D03*
X124460000Y-72310000D03*
D51*
X156000000Y-80500000D03*
D52*
X156000000Y-84500000D03*
D53*
X167513000Y-78486000D03*
X164719000Y-78486000D03*
D29*
X101500000Y-118500000D03*
D54*
X169930000Y-90615000D03*
X169930000Y-91415000D03*
X169930000Y-92215000D03*
X169930000Y-93015000D03*
X169930000Y-93815000D03*
X169930000Y-94615000D03*
X169930000Y-95415000D03*
X169930000Y-96215000D03*
X169930000Y-97015000D03*
X169930000Y-97815000D03*
X169930000Y-98615000D03*
D55*
X167830000Y-100715000D03*
X167030000Y-100715000D03*
X166230000Y-100715000D03*
X165430000Y-100715000D03*
X164630000Y-100715000D03*
X163830000Y-100715000D03*
X163030000Y-100715000D03*
X162230000Y-100715000D03*
X161430000Y-100715000D03*
X160630000Y-100715000D03*
X159830000Y-100715000D03*
D54*
X157730000Y-98615000D03*
X157730000Y-97815000D03*
X157730000Y-97015000D03*
X157730000Y-96215000D03*
X157730000Y-95415000D03*
X157730000Y-94615000D03*
X157730000Y-93815000D03*
X157730000Y-93015000D03*
X157730000Y-92215000D03*
X157730000Y-91415000D03*
X157730000Y-90615000D03*
D55*
X159830000Y-88515000D03*
X160630000Y-88515000D03*
X161430000Y-88515000D03*
X162230000Y-88515000D03*
X163030000Y-88515000D03*
X163830000Y-88515000D03*
X164630000Y-88515000D03*
X165430000Y-88515000D03*
X166230000Y-88515000D03*
X167030000Y-88515000D03*
X167830000Y-88515000D03*
D56*
X177546000Y-107950000D03*
X177546000Y-106680000D03*
X177546000Y-105410000D03*
X177546000Y-104140000D03*
X169926000Y-104140000D03*
X169926000Y-105410000D03*
X169926000Y-106680000D03*
X169926000Y-107950000D03*
M02*
