G04 #@! TF.GenerationSoftware,KiCad,Pcbnew,5.1.4-e60b266~84~ubuntu18.04.1*
G04 #@! TF.CreationDate,2023-05-25T14:52:21+03:00*
G04 #@! TF.ProjectId,Neo6502_Rev_A,4e656f36-3530-4325-9f52-65765f412e6b,A*
G04 #@! TF.SameCoordinates,Original*
G04 #@! TF.FileFunction,Legend,Top*
G04 #@! TF.FilePolarity,Positive*
%FSLAX46Y46*%
G04 Gerber Fmt 4.6, Leading zero omitted, Abs format (unit mm)*
G04 Created by KiCad (PCBNEW 5.1.4-e60b266~84~ubuntu18.04.1) date 2023-05-25 14:52:21*
%MOMM*%
%LPD*%
G04 APERTURE LIST*
%ADD10C,0.381000*%
%ADD11C,0.317500*%
%ADD12C,0.254000*%
%ADD13C,0.508000*%
%ADD14C,0.762000*%
%ADD15C,0.400000*%
%ADD16C,0.700000*%
%ADD17C,0.500000*%
%ADD18C,0.100000*%
%ADD19C,0.150000*%
%ADD20C,0.050000*%
%ADD21C,0.127000*%
%ADD22C,0.200000*%
%ADD23C,0.349250*%
%ADD24C,0.222250*%
%ADD25C,0.158750*%
%ADD26C,0.203200*%
%ADD27C,0.250000*%
%ADD28C,0.225000*%
G04 APERTURE END LIST*
D10*
X112086571Y-89226571D02*
X112159142Y-89154000D01*
X112304285Y-89081428D01*
X112667142Y-89081428D01*
X112812285Y-89154000D01*
X112884857Y-89226571D01*
X112957428Y-89371714D01*
X112957428Y-89516857D01*
X112884857Y-89734571D01*
X112014000Y-90605428D01*
X112957428Y-90605428D01*
D11*
X101264357Y-87506023D02*
X100538642Y-87506023D01*
X100901500Y-87506023D02*
X100901500Y-86236023D01*
X100780547Y-86417452D01*
X100659595Y-86538404D01*
X100538642Y-86598880D01*
D10*
X167059428Y-108149571D02*
X167059428Y-109020428D01*
X167059428Y-108585000D02*
X165535428Y-108585000D01*
X165753142Y-108730142D01*
X165898285Y-108875285D01*
X165970857Y-109020428D01*
D12*
X123024571Y-79846666D02*
X122976190Y-79798285D01*
X122879428Y-79653142D01*
X122831047Y-79556380D01*
X122782666Y-79411238D01*
X122734285Y-79169333D01*
X122734285Y-78975809D01*
X122782666Y-78733904D01*
X122831047Y-78588761D01*
X122879428Y-78492000D01*
X122976190Y-78346857D01*
X123024571Y-78298476D01*
X123992190Y-79362857D02*
X123943809Y-79411238D01*
X123798666Y-79459619D01*
X123701904Y-79459619D01*
X123556761Y-79411238D01*
X123460000Y-79314476D01*
X123411619Y-79217714D01*
X123363238Y-79024190D01*
X123363238Y-78879047D01*
X123411619Y-78685523D01*
X123460000Y-78588761D01*
X123556761Y-78492000D01*
X123701904Y-78443619D01*
X123798666Y-78443619D01*
X123943809Y-78492000D01*
X123992190Y-78540380D01*
X124330857Y-79846666D02*
X124379238Y-79798285D01*
X124476000Y-79653142D01*
X124524380Y-79556380D01*
X124572761Y-79411238D01*
X124621142Y-79169333D01*
X124621142Y-78975809D01*
X124572761Y-78733904D01*
X124524380Y-78588761D01*
X124476000Y-78492000D01*
X124379238Y-78346857D01*
X124330857Y-78298476D01*
X125830666Y-78540380D02*
X125879047Y-78492000D01*
X125975809Y-78443619D01*
X126217714Y-78443619D01*
X126314476Y-78492000D01*
X126362857Y-78540380D01*
X126411238Y-78637142D01*
X126411238Y-78733904D01*
X126362857Y-78879047D01*
X125782285Y-79459619D01*
X126411238Y-79459619D01*
X127040190Y-78443619D02*
X127136952Y-78443619D01*
X127233714Y-78492000D01*
X127282095Y-78540380D01*
X127330476Y-78637142D01*
X127378857Y-78830666D01*
X127378857Y-79072571D01*
X127330476Y-79266095D01*
X127282095Y-79362857D01*
X127233714Y-79411238D01*
X127136952Y-79459619D01*
X127040190Y-79459619D01*
X126943428Y-79411238D01*
X126895047Y-79362857D01*
X126846666Y-79266095D01*
X126798285Y-79072571D01*
X126798285Y-78830666D01*
X126846666Y-78637142D01*
X126895047Y-78540380D01*
X126943428Y-78492000D01*
X127040190Y-78443619D01*
X127765904Y-78540380D02*
X127814285Y-78492000D01*
X127911047Y-78443619D01*
X128152952Y-78443619D01*
X128249714Y-78492000D01*
X128298095Y-78540380D01*
X128346476Y-78637142D01*
X128346476Y-78733904D01*
X128298095Y-78879047D01*
X127717523Y-79459619D01*
X128346476Y-79459619D01*
X128685142Y-78443619D02*
X129314095Y-78443619D01*
X128975428Y-78830666D01*
X129120571Y-78830666D01*
X129217333Y-78879047D01*
X129265714Y-78927428D01*
X129314095Y-79024190D01*
X129314095Y-79266095D01*
X129265714Y-79362857D01*
X129217333Y-79411238D01*
X129120571Y-79459619D01*
X128830285Y-79459619D01*
X128733523Y-79411238D01*
X128685142Y-79362857D01*
D11*
X156887333Y-107889523D02*
X156464000Y-107284761D01*
X156161619Y-107889523D02*
X156161619Y-106619523D01*
X156645428Y-106619523D01*
X156766380Y-106680000D01*
X156826857Y-106740476D01*
X156887333Y-106861428D01*
X156887333Y-107042857D01*
X156826857Y-107163809D01*
X156766380Y-107224285D01*
X156645428Y-107284761D01*
X156161619Y-107284761D01*
X157915428Y-107829047D02*
X157794476Y-107889523D01*
X157552571Y-107889523D01*
X157431619Y-107829047D01*
X157371142Y-107708095D01*
X157371142Y-107224285D01*
X157431619Y-107103333D01*
X157552571Y-107042857D01*
X157794476Y-107042857D01*
X157915428Y-107103333D01*
X157975904Y-107224285D01*
X157975904Y-107345238D01*
X157371142Y-107466190D01*
X158399238Y-107042857D02*
X158701619Y-107889523D01*
X159004000Y-107042857D01*
X159487809Y-107768571D02*
X159548285Y-107829047D01*
X159487809Y-107889523D01*
X159427333Y-107829047D01*
X159487809Y-107768571D01*
X159487809Y-107889523D01*
X160032095Y-107526666D02*
X160636857Y-107526666D01*
X159911142Y-107889523D02*
X160334476Y-106619523D01*
X160757809Y-107889523D01*
D13*
X150585714Y-105301142D02*
X150585714Y-103015142D01*
X151892000Y-105301142D01*
X151892000Y-103015142D01*
X153851428Y-105192285D02*
X153633714Y-105301142D01*
X153198285Y-105301142D01*
X152980571Y-105192285D01*
X152871714Y-104974571D01*
X152871714Y-104103714D01*
X152980571Y-103886000D01*
X153198285Y-103777142D01*
X153633714Y-103777142D01*
X153851428Y-103886000D01*
X153960285Y-104103714D01*
X153960285Y-104321428D01*
X152871714Y-104539142D01*
X155266571Y-105301142D02*
X155048857Y-105192285D01*
X154940000Y-105083428D01*
X154831142Y-104865714D01*
X154831142Y-104212571D01*
X154940000Y-103994857D01*
X155048857Y-103886000D01*
X155266571Y-103777142D01*
X155593142Y-103777142D01*
X155810857Y-103886000D01*
X155919714Y-103994857D01*
X156028571Y-104212571D01*
X156028571Y-104865714D01*
X155919714Y-105083428D01*
X155810857Y-105192285D01*
X155593142Y-105301142D01*
X155266571Y-105301142D01*
X157988000Y-103015142D02*
X157552571Y-103015142D01*
X157334857Y-103124000D01*
X157226000Y-103232857D01*
X157008285Y-103559428D01*
X156899428Y-103994857D01*
X156899428Y-104865714D01*
X157008285Y-105083428D01*
X157117142Y-105192285D01*
X157334857Y-105301142D01*
X157770285Y-105301142D01*
X157988000Y-105192285D01*
X158096857Y-105083428D01*
X158205714Y-104865714D01*
X158205714Y-104321428D01*
X158096857Y-104103714D01*
X157988000Y-103994857D01*
X157770285Y-103886000D01*
X157334857Y-103886000D01*
X157117142Y-103994857D01*
X157008285Y-104103714D01*
X156899428Y-104321428D01*
X160274000Y-103015142D02*
X159185428Y-103015142D01*
X159076571Y-104103714D01*
X159185428Y-103994857D01*
X159403142Y-103886000D01*
X159947428Y-103886000D01*
X160165142Y-103994857D01*
X160274000Y-104103714D01*
X160382857Y-104321428D01*
X160382857Y-104865714D01*
X160274000Y-105083428D01*
X160165142Y-105192285D01*
X159947428Y-105301142D01*
X159403142Y-105301142D01*
X159185428Y-105192285D01*
X159076571Y-105083428D01*
X161798000Y-103015142D02*
X162015714Y-103015142D01*
X162233428Y-103124000D01*
X162342285Y-103232857D01*
X162451142Y-103450571D01*
X162560000Y-103886000D01*
X162560000Y-104430285D01*
X162451142Y-104865714D01*
X162342285Y-105083428D01*
X162233428Y-105192285D01*
X162015714Y-105301142D01*
X161798000Y-105301142D01*
X161580285Y-105192285D01*
X161471428Y-105083428D01*
X161362571Y-104865714D01*
X161253714Y-104430285D01*
X161253714Y-103886000D01*
X161362571Y-103450571D01*
X161471428Y-103232857D01*
X161580285Y-103124000D01*
X161798000Y-103015142D01*
X163430857Y-103232857D02*
X163539714Y-103124000D01*
X163757428Y-103015142D01*
X164301714Y-103015142D01*
X164519428Y-103124000D01*
X164628285Y-103232857D01*
X164737142Y-103450571D01*
X164737142Y-103668285D01*
X164628285Y-103994857D01*
X163322000Y-105301142D01*
X164737142Y-105301142D01*
D12*
X118398260Y-73848160D02*
X117499100Y-73848160D01*
X117499100Y-73848160D02*
X116899660Y-73848160D01*
X107100340Y-73848160D02*
X106500900Y-73848160D01*
X106500900Y-73848160D02*
X105601740Y-73848160D01*
X104501920Y-70449640D02*
X104501920Y-68298260D01*
X104501920Y-65100400D02*
X104501920Y-62192100D01*
X104501920Y-62192100D02*
X119498080Y-62192100D01*
X119498080Y-62192100D02*
X119498080Y-65100400D01*
X119498080Y-68298260D02*
X119498080Y-70449640D01*
X105126760Y-74348540D02*
X106500900Y-74348540D01*
X106500900Y-74348540D02*
X106500900Y-73848160D01*
X117499100Y-73848160D02*
X117499100Y-74348540D01*
X117499100Y-74348540D02*
X118885940Y-74348540D01*
X110001020Y-63932000D02*
X109000260Y-67932500D01*
X109000260Y-67932500D02*
X108002040Y-67932500D01*
X108002040Y-67932500D02*
X107001280Y-63932000D01*
X113998980Y-63932000D02*
X114999740Y-67932500D01*
X114999740Y-67932500D02*
X115997960Y-67932500D01*
X115997960Y-67932500D02*
X116998720Y-63932000D01*
X129700000Y-62450000D02*
X144300000Y-62450000D01*
X138602740Y-63749840D02*
X137642620Y-68931440D01*
X141770120Y-68885720D02*
X140683000Y-63772700D01*
X138579880Y-63742220D02*
X140660140Y-63742220D01*
X133149360Y-63765080D02*
X135229620Y-63765080D01*
X136339600Y-68908580D02*
X135252480Y-63795560D01*
X133172220Y-63772700D02*
X132212100Y-68954300D01*
X144300000Y-72450000D02*
X144300000Y-72000000D01*
X129700000Y-72450000D02*
X129700000Y-72000000D01*
X144300000Y-72450000D02*
X141500000Y-72450000D01*
X137100000Y-72450000D02*
X136900000Y-72450000D01*
X135100000Y-72450000D02*
X134400000Y-72450000D01*
X139600000Y-72450000D02*
X138900000Y-72450000D01*
X132500000Y-72450000D02*
X129700000Y-72450000D01*
X144300000Y-62450000D02*
X144300000Y-69500000D01*
X129700000Y-62450000D02*
X129700000Y-69500000D01*
X114600000Y-117429000D02*
X114600000Y-117175000D01*
X114600000Y-110825000D02*
X114600000Y-110571000D01*
X165400000Y-110825000D02*
X165400000Y-110571000D01*
X165400000Y-117429000D02*
X165400000Y-117175000D01*
X165400000Y-110825000D02*
X167940000Y-110825000D01*
X169210000Y-109555000D02*
X165400000Y-109555000D01*
X168194000Y-110571000D02*
X165400000Y-110571000D01*
X168194000Y-117429000D02*
X168194000Y-110571000D01*
X165400000Y-117429000D02*
X168194000Y-117429000D01*
X111806000Y-117429000D02*
X114600000Y-117429000D01*
X111806000Y-110571000D02*
X111806000Y-117429000D01*
X114600000Y-110571000D02*
X111806000Y-110571000D01*
X112060000Y-110825000D02*
X114600000Y-110825000D01*
X166670000Y-118445000D02*
X165400000Y-118445000D01*
X166670000Y-118699000D02*
X166670000Y-118445000D01*
X167940000Y-118699000D02*
X167940000Y-118445000D01*
X166670000Y-118699000D02*
X167940000Y-118699000D01*
X114600000Y-118445000D02*
X113330000Y-118445000D01*
X112060000Y-118445000D02*
X110790000Y-118445000D01*
X113330000Y-118445000D02*
X113330000Y-118699000D01*
X112060000Y-118699000D02*
X113330000Y-118699000D01*
X112060000Y-118445000D02*
X112060000Y-118699000D01*
X169210000Y-118445000D02*
X169210000Y-109555000D01*
X110790000Y-109555000D02*
X110790000Y-118445000D01*
X110790000Y-109555000D02*
X114600000Y-109555000D01*
X169210000Y-118445000D02*
X167940000Y-118445000D01*
X167940000Y-117175000D02*
X167940000Y-110825000D01*
X112060000Y-110825000D02*
X112060000Y-117175000D01*
X114600000Y-117175000D02*
X112060000Y-117175000D01*
X167940000Y-117175000D02*
X165400000Y-117175000D01*
X112300000Y-117300000D02*
X111900000Y-117300000D01*
X168100000Y-117300000D02*
X167700000Y-117300000D01*
X168100000Y-110700000D02*
X167700000Y-110700000D01*
X112300000Y-110700000D02*
X111900000Y-110700000D01*
X109175000Y-88650000D02*
X109429000Y-88650000D01*
X102571000Y-88650000D02*
X102825000Y-88650000D01*
X102571000Y-101350000D02*
X102825000Y-101350000D01*
X109175000Y-101350000D02*
X109429000Y-101350000D01*
X101555000Y-88650000D02*
X101555000Y-84840000D01*
X102571000Y-85856000D02*
X102571000Y-88650000D01*
X109429000Y-85856000D02*
X102571000Y-85856000D01*
X109429000Y-88650000D02*
X109429000Y-85856000D01*
X109429000Y-104144000D02*
X109429000Y-101350000D01*
X102571000Y-104144000D02*
X109429000Y-104144000D01*
X102571000Y-101350000D02*
X102571000Y-104144000D01*
X110445000Y-87380000D02*
X110445000Y-88650000D01*
X110699000Y-87380000D02*
X110445000Y-87380000D01*
X110699000Y-86110000D02*
X110445000Y-86110000D01*
X110699000Y-87380000D02*
X110699000Y-86110000D01*
X110445000Y-101350000D02*
X110445000Y-102620000D01*
X110445000Y-103890000D02*
X110445000Y-105160000D01*
X110445000Y-102620000D02*
X110699000Y-102620000D01*
X110699000Y-103890000D02*
X110699000Y-102620000D01*
X110445000Y-103890000D02*
X110699000Y-103890000D01*
X102825000Y-88650000D02*
X102825000Y-86110000D01*
X102825000Y-103890000D02*
X102825000Y-101350000D01*
X110445000Y-84840000D02*
X101555000Y-84840000D01*
X101555000Y-105160000D02*
X110445000Y-105160000D01*
X101555000Y-105160000D02*
X101555000Y-101350000D01*
X110445000Y-84840000D02*
X110445000Y-86110000D01*
X109175000Y-86110000D02*
X102825000Y-86110000D01*
X102825000Y-103890000D02*
X109175000Y-103890000D01*
X109175000Y-101350000D02*
X109175000Y-103890000D01*
X109175000Y-86110000D02*
X109175000Y-88650000D01*
X109302000Y-86364000D02*
X109302000Y-85983000D01*
X102698000Y-86364000D02*
X102698000Y-85983000D01*
X102698000Y-103763000D02*
X102698000Y-104017000D01*
X109302000Y-103636000D02*
X109302000Y-104144000D01*
X172621600Y-108040000D02*
X170121600Y-108040000D01*
X172621600Y-105500000D02*
X170121600Y-105500000D01*
X172621600Y-102960000D02*
X172621600Y-108040000D01*
X170121600Y-108040000D02*
X170121600Y-102960000D01*
X170121600Y-102960000D02*
X172621600Y-102960000D01*
D14*
X172875600Y-104230000D02*
X178769600Y-104230000D01*
X172875600Y-106770000D02*
X178769600Y-106770000D01*
D15*
X112849147Y-82677000D02*
G75*
G03X112849147Y-82677000I-337447J0D01*
G01*
D16*
X112499000Y-81902300D02*
X113007000Y-81394300D01*
X114099200Y-81318100D02*
X114734200Y-81927700D01*
X114708800Y-83883500D02*
X114150000Y-84467700D01*
X116334400Y-84480400D02*
X115877200Y-84023200D01*
X117320200Y-84480400D02*
X116334400Y-84480400D01*
D15*
X118199324Y-84455000D02*
G75*
G03X118199324Y-84455000I-366324J0D01*
G01*
D16*
X117833000Y-81762600D02*
X117833000Y-83362800D01*
D15*
X118219218Y-81229200D02*
G75*
G03X118219218Y-81229200I-373518J0D01*
G01*
X119424559Y-84429600D02*
G75*
G03X119424559Y-84429600I-359659J0D01*
G01*
D16*
X119052200Y-83921600D02*
X119052200Y-81330800D01*
X119052200Y-81330800D02*
X119890400Y-81330800D01*
X119890400Y-81330800D02*
X120500000Y-81838800D01*
X120601600Y-82626200D02*
X120601600Y-81915000D01*
X120677800Y-81838800D02*
X121312800Y-81330800D01*
D15*
X120972518Y-83159600D02*
G75*
G03X120972518Y-83159600I-370918J0D01*
G01*
D16*
X121312800Y-81330800D02*
X122201800Y-81330800D01*
D15*
X122577729Y-84442300D02*
G75*
G03X122577729Y-84442300I-363229J0D01*
G01*
X128373266Y-84531200D02*
G75*
G03X128373266Y-84531200I-329466J0D01*
G01*
D16*
X127713600Y-84175600D02*
X126875400Y-83362800D01*
D17*
X126367400Y-83261200D02*
X126900800Y-83261200D01*
D16*
X125224400Y-84480400D02*
X126367400Y-83362800D01*
X123903600Y-84480400D02*
X125224400Y-84480400D01*
X123471800Y-84048600D02*
X123903600Y-84480400D01*
X123471800Y-81813400D02*
X123471800Y-84048600D01*
X123471800Y-81788000D02*
X123954400Y-81280000D01*
X124002500Y-81305400D02*
X125224400Y-81305400D01*
X125224400Y-81305400D02*
X126316600Y-82372200D01*
D17*
X126342000Y-82486500D02*
X126900800Y-82486500D01*
D16*
X127764400Y-81495900D02*
X126900800Y-82389600D01*
D15*
X128492135Y-81140300D02*
G75*
G03X128492135Y-81140300I-359435J0D01*
G01*
D16*
X124691000Y-82880200D02*
X123471800Y-82880200D01*
D15*
X125558659Y-82880200D02*
G75*
G03X125558659Y-82880200I-359659J0D01*
G01*
D16*
X113070500Y-84493100D02*
X114111900Y-84493100D01*
X112511700Y-83934300D02*
X112511700Y-83172300D01*
X112499000Y-83921600D02*
X113083200Y-84493100D01*
X112499000Y-81953100D02*
X112499000Y-82194400D01*
X114721500Y-81915000D02*
X114721500Y-83845400D01*
X114099200Y-81305400D02*
X113095900Y-81305400D01*
X122214500Y-81318100D02*
X122214500Y-83921600D01*
X115877200Y-84035900D02*
X115877200Y-81305400D01*
D18*
X115877200Y-80962500D02*
X115597800Y-80962500D01*
X115572400Y-80962500D02*
X115572400Y-84112100D01*
X115585100Y-80962500D02*
X115572400Y-80962500D01*
X115597800Y-80962500D02*
X115585100Y-80962500D01*
X115712100Y-81051400D02*
X115648600Y-81038700D01*
X116194700Y-80962500D02*
X116194700Y-83997800D01*
X115889900Y-80962500D02*
X116194700Y-80962500D01*
X116016900Y-81038700D02*
X116131200Y-81038700D01*
X117515500Y-81648300D02*
X117515500Y-83667600D01*
X118150500Y-83667600D02*
X118150500Y-81648300D01*
X118125100Y-83667600D02*
X118150500Y-83667600D01*
X117515500Y-83667600D02*
X118125100Y-83667600D01*
X117655200Y-83604100D02*
X117591700Y-83604100D01*
X117998100Y-83604100D02*
X118087000Y-83604100D01*
X118734700Y-84010500D02*
X118734700Y-81026000D01*
X119979300Y-81013300D02*
X120563500Y-81495900D01*
X118734700Y-81013300D02*
X119979300Y-81013300D01*
X118887100Y-81076800D02*
X118810900Y-81076800D01*
X122544700Y-84035900D02*
X122544700Y-81026000D01*
X121223900Y-81013300D02*
X120601600Y-81508600D01*
X121249300Y-81013300D02*
X121223900Y-81013300D01*
X122544700Y-81013300D02*
X121249300Y-81013300D01*
X122544700Y-81026000D02*
X122544700Y-81013300D01*
X122392300Y-81089500D02*
X122493900Y-81089500D01*
X125338700Y-80975200D02*
X126596000Y-82219800D01*
X125287900Y-80975200D02*
X125338700Y-80975200D01*
X123916300Y-80975200D02*
X125287900Y-80975200D01*
D12*
X154151600Y-62024000D02*
X154151600Y-65034000D01*
X158091600Y-62024000D02*
X154151600Y-62024000D01*
X158091600Y-65034000D02*
X158091600Y-62024000D01*
D19*
X157001249Y-68000000D02*
G75*
G03X157001249Y-68000000I-1001249J0D01*
G01*
X157019727Y-74000000D02*
G75*
G03X157019727Y-74000000I-1019727J0D01*
G01*
D12*
X160800600Y-65053600D02*
X160800600Y-66310900D01*
X156000000Y-65053600D02*
X160800600Y-65053600D01*
X160787900Y-76991600D02*
X160787900Y-75429500D01*
X155987300Y-77004300D02*
X160787900Y-76991600D01*
X156000000Y-65053600D02*
X151199400Y-65053600D01*
X151212100Y-76991600D02*
X151212100Y-75835900D01*
X156000000Y-77004300D02*
X151212100Y-76991600D01*
X151212100Y-65040900D02*
X151212100Y-68673100D01*
X174879000Y-102044500D02*
X175133000Y-102044500D01*
X174879000Y-102044500D02*
X174625000Y-102044500D01*
X174879000Y-101155500D02*
X174625000Y-101155500D01*
X174879000Y-101155500D02*
X175133000Y-101155500D01*
X177267000Y-85812600D02*
X177267000Y-84771200D01*
X177432100Y-84885500D02*
X177432100Y-85711000D01*
X177279700Y-85850700D02*
X177419400Y-85723700D01*
X177279700Y-84758500D02*
X177432100Y-84885500D01*
D20*
X175840800Y-85554600D02*
X175710800Y-85664600D01*
X175700800Y-85684600D02*
X175780800Y-85674600D01*
X175700800Y-85684600D02*
X175700800Y-85604600D01*
X175916200Y-85684600D02*
X175916200Y-85604600D01*
X175916200Y-85684600D02*
X175996200Y-85674600D01*
X176047800Y-85575600D02*
X175917800Y-85685600D01*
D18*
X175970000Y-85220000D02*
X175970000Y-85440000D01*
X175780000Y-85440000D02*
X175880000Y-85340000D01*
X175780000Y-85220000D02*
X175890000Y-85320000D01*
X175780000Y-85220000D02*
X175780000Y-85440000D01*
X175610000Y-85330000D02*
X176130000Y-85330000D01*
D21*
X176251000Y-84695000D02*
X177267000Y-84695000D01*
X177267000Y-85914200D02*
X176251000Y-85914200D01*
D12*
X175895000Y-84184500D02*
X176149000Y-84184500D01*
X175895000Y-84184500D02*
X175641000Y-84184500D01*
X175895000Y-83295500D02*
X175641000Y-83295500D01*
X175895000Y-83295500D02*
X176149000Y-83295500D01*
X115443000Y-97726500D02*
X115697000Y-97726500D01*
X115443000Y-97726500D02*
X115189000Y-97726500D01*
X115443000Y-96837500D02*
X115189000Y-96837500D01*
X115443000Y-96837500D02*
X115697000Y-96837500D01*
X139827000Y-88582500D02*
X140081000Y-88582500D01*
X139827000Y-88582500D02*
X139573000Y-88582500D01*
X139827000Y-87693500D02*
X139573000Y-87693500D01*
X139827000Y-87693500D02*
X140081000Y-87693500D01*
X115443000Y-96202500D02*
X115697000Y-96202500D01*
X115443000Y-96202500D02*
X115189000Y-96202500D01*
X115443000Y-95313500D02*
X115189000Y-95313500D01*
X115443000Y-95313500D02*
X115697000Y-95313500D01*
X165735000Y-84772500D02*
X165989000Y-84772500D01*
X165735000Y-84772500D02*
X165481000Y-84772500D01*
X165735000Y-83883500D02*
X165481000Y-83883500D01*
X165735000Y-83883500D02*
X165989000Y-83883500D01*
X145986500Y-78232000D02*
X145986500Y-78486000D01*
X145986500Y-78232000D02*
X145986500Y-77978000D01*
X146875500Y-78232000D02*
X146875500Y-77978000D01*
X146875500Y-78232000D02*
X146875500Y-78486000D01*
X144462500Y-78232000D02*
X144462500Y-78486000D01*
X144462500Y-78232000D02*
X144462500Y-77978000D01*
X145351500Y-78232000D02*
X145351500Y-77978000D01*
X145351500Y-78232000D02*
X145351500Y-78486000D01*
X167005000Y-86741000D02*
X168021000Y-86741000D01*
X167005000Y-85217000D02*
X168021000Y-85217000D01*
X150495000Y-78740000D02*
X150495000Y-77724000D01*
X148971000Y-78740000D02*
X148971000Y-77724000D01*
X147510500Y-78232000D02*
X147510500Y-78486000D01*
X147510500Y-78232000D02*
X147510500Y-77978000D01*
X148399500Y-78232000D02*
X148399500Y-77978000D01*
X148399500Y-78232000D02*
X148399500Y-78486000D01*
X162804000Y-82193002D02*
X163185000Y-82193002D01*
X162677000Y-82320002D02*
X163312000Y-82320002D01*
X162550000Y-82447002D02*
X163312000Y-82447002D01*
X162550000Y-82574002D02*
X163439000Y-82574002D01*
X163439000Y-82701002D02*
X162296000Y-82701002D01*
X162296000Y-82828002D02*
X163566000Y-82828002D01*
X163693000Y-82955002D02*
X162169000Y-82955002D01*
X161991200Y-81735802D02*
X161991200Y-81558002D01*
X163896200Y-81735802D02*
X163896200Y-81558002D01*
X161991200Y-81558002D02*
X163896200Y-81558002D01*
X161991200Y-83107402D02*
X163896200Y-83107402D01*
X161991200Y-81735802D02*
X163896200Y-81735802D01*
X162905600Y-81735802D02*
X163896200Y-83107402D01*
X161991200Y-83107402D02*
X162905600Y-81735802D01*
X162943700Y-83691602D02*
X162943700Y-81215102D01*
X165735000Y-82372200D02*
X165735000Y-83083400D01*
X166573200Y-83083400D02*
X165735000Y-83083400D01*
X166573200Y-80238600D02*
X165735000Y-80238600D01*
X165735000Y-80238600D02*
X165735000Y-80949800D01*
X101900000Y-109500000D02*
X101900000Y-108500000D01*
X106100000Y-109500000D02*
X106100000Y-108500000D01*
X106100000Y-110700000D02*
X106100000Y-110600000D01*
X101900000Y-110700000D02*
X106100000Y-110700000D01*
X101900000Y-110600000D02*
X101900000Y-110700000D01*
X101900000Y-107300000D02*
X101900000Y-107400000D01*
X106100000Y-107300000D02*
X106100000Y-107400000D01*
X101900000Y-107300000D02*
X106100000Y-107300000D01*
X124206000Y-106616500D02*
X123952000Y-106616500D01*
X124206000Y-106616500D02*
X124460000Y-106616500D01*
X124206000Y-107505500D02*
X124460000Y-107505500D01*
X124206000Y-107505500D02*
X123952000Y-107505500D01*
X116141500Y-87630000D02*
X116141500Y-87884000D01*
X116141500Y-87630000D02*
X116141500Y-87376000D01*
X117030500Y-87630000D02*
X117030500Y-87376000D01*
X117030500Y-87630000D02*
X117030500Y-87884000D01*
X133985000Y-100266500D02*
X133731000Y-100266500D01*
X133985000Y-100266500D02*
X134239000Y-100266500D01*
X133985000Y-101155500D02*
X134239000Y-101155500D01*
X133985000Y-101155500D02*
X133731000Y-101155500D01*
X133985000Y-90868500D02*
X133731000Y-90868500D01*
X133985000Y-90868500D02*
X134239000Y-90868500D01*
X133985000Y-89979500D02*
X134239000Y-89979500D01*
X133985000Y-89979500D02*
X133731000Y-89979500D01*
X119951500Y-86614000D02*
X119951500Y-86868000D01*
X119951500Y-86614000D02*
X119951500Y-86360000D01*
X119062500Y-86614000D02*
X119062500Y-86360000D01*
X119062500Y-86614000D02*
X119062500Y-86868000D01*
X115443000Y-94678500D02*
X115697000Y-94678500D01*
X115443000Y-94678500D02*
X115189000Y-94678500D01*
X115443000Y-93789500D02*
X115189000Y-93789500D01*
X115443000Y-93789500D02*
X115697000Y-93789500D01*
X115443000Y-100139500D02*
X115697000Y-100139500D01*
X115443000Y-100139500D02*
X115189000Y-100139500D01*
X115443000Y-101028500D02*
X115189000Y-101028500D01*
X115443000Y-101028500D02*
X115697000Y-101028500D01*
X122872500Y-105156000D02*
X122872500Y-104902000D01*
X122872500Y-105156000D02*
X122872500Y-105410000D01*
X123761500Y-105156000D02*
X123761500Y-105410000D01*
X123761500Y-105156000D02*
X123761500Y-104902000D01*
X122364500Y-105156000D02*
X122364500Y-104902000D01*
X122364500Y-105156000D02*
X122364500Y-105410000D01*
X121475500Y-105156000D02*
X121475500Y-105410000D01*
X121475500Y-105156000D02*
X121475500Y-104902000D01*
X115379500Y-105156000D02*
X115379500Y-104902000D01*
X115379500Y-105156000D02*
X115379500Y-105410000D01*
X114490500Y-105156000D02*
X114490500Y-105410000D01*
X114490500Y-105156000D02*
X114490500Y-104902000D01*
X116776500Y-105156000D02*
X116776500Y-104902000D01*
X116776500Y-105156000D02*
X116776500Y-105410000D01*
X115887500Y-105156000D02*
X115887500Y-105410000D01*
X115887500Y-105156000D02*
X115887500Y-104902000D01*
X117284500Y-105156000D02*
X117284500Y-104902000D01*
X117284500Y-105156000D02*
X117284500Y-105410000D01*
X118173500Y-105156000D02*
X118173500Y-105410000D01*
X118173500Y-105156000D02*
X118173500Y-104902000D01*
X118681500Y-86614000D02*
X118681500Y-86868000D01*
X118681500Y-86614000D02*
X118681500Y-86360000D01*
X117792500Y-86614000D02*
X117792500Y-86360000D01*
X117792500Y-86614000D02*
X117792500Y-86868000D01*
X125158500Y-105156000D02*
X125158500Y-104902000D01*
X125158500Y-105156000D02*
X125158500Y-105410000D01*
X124269500Y-105156000D02*
X124269500Y-105410000D01*
X124269500Y-105156000D02*
X124269500Y-104902000D01*
X127190500Y-86614000D02*
X127190500Y-86360000D01*
X127190500Y-86614000D02*
X127190500Y-86868000D01*
X128079500Y-86614000D02*
X128079500Y-86868000D01*
X128079500Y-86614000D02*
X128079500Y-86360000D01*
X121856500Y-86614000D02*
X121856500Y-86868000D01*
X121856500Y-86614000D02*
X121856500Y-86360000D01*
X122745500Y-86614000D02*
X122745500Y-86360000D01*
X122745500Y-86614000D02*
X122745500Y-86868000D01*
X139700000Y-82550000D02*
X139700000Y-81534000D01*
X141224000Y-82550000D02*
X141224000Y-81534000D01*
X174879000Y-95948501D02*
X174625000Y-95948501D01*
X174879000Y-95948501D02*
X175133000Y-95948501D01*
X174879000Y-95059501D02*
X175133000Y-95059501D01*
X174879000Y-95059501D02*
X174625000Y-95059501D01*
X132842001Y-80264000D02*
X133858001Y-80264000D01*
X132842001Y-81788000D02*
X133858001Y-81788000D01*
X132842000Y-80264000D02*
X133858000Y-80264000D01*
X132842000Y-78740000D02*
X133858000Y-78740000D01*
X151638000Y-97218500D02*
X151892000Y-97218500D01*
X151638000Y-97218500D02*
X151384000Y-97218500D01*
X151638000Y-98107500D02*
X151384000Y-98107500D01*
X151638000Y-98107500D02*
X151892000Y-98107500D01*
X151638000Y-99504500D02*
X151892000Y-99504500D01*
X151638000Y-99504500D02*
X151384000Y-99504500D01*
X151638000Y-98615500D02*
X151384000Y-98615500D01*
X151638000Y-98615500D02*
X151892000Y-98615500D01*
X139827000Y-89979500D02*
X139573000Y-89979500D01*
X139827000Y-89979500D02*
X140081000Y-89979500D01*
X139827000Y-89090500D02*
X140081000Y-89090500D01*
X139827000Y-89090500D02*
X139573000Y-89090500D01*
X139827000Y-90487500D02*
X139573000Y-90487500D01*
X139827000Y-90487500D02*
X140081000Y-90487500D01*
X139827000Y-91376500D02*
X140081000Y-91376500D01*
X139827000Y-91376500D02*
X139573000Y-91376500D01*
X139827000Y-98742500D02*
X139573000Y-98742500D01*
X139827000Y-98742500D02*
X140081000Y-98742500D01*
X139827000Y-97853500D02*
X140081000Y-97853500D01*
X139827000Y-97853500D02*
X139573000Y-97853500D01*
X139827000Y-100012500D02*
X139573000Y-100012500D01*
X139827000Y-100012500D02*
X140081000Y-100012500D01*
X139827000Y-99123500D02*
X140081000Y-99123500D01*
X139827000Y-99123500D02*
X139573000Y-99123500D01*
X134850000Y-84274000D02*
X134850000Y-83874000D01*
X131850000Y-84274000D02*
X131850000Y-83874000D01*
D22*
X132600000Y-84224000D02*
X132250000Y-84224000D01*
X134100000Y-84224000D02*
X134450000Y-84224000D01*
X133600000Y-84174000D02*
G75*
G02X134100000Y-84174000I250000J0D01*
G01*
X132600000Y-84174000D02*
G75*
G02X133100000Y-84174000I250000J0D01*
G01*
X133100000Y-84174000D02*
G75*
G02X133600000Y-84174000I250000J0D01*
G01*
D12*
X124714000Y-87884000D02*
X125222000Y-87884000D01*
X124714000Y-85344000D02*
X125222000Y-85344000D01*
X136144000Y-105600500D02*
X136398000Y-105600500D01*
X136144000Y-105600500D02*
X135890000Y-105600500D01*
X136144000Y-106489500D02*
X135890000Y-106489500D01*
X136144000Y-106489500D02*
X136398000Y-106489500D01*
X115760500Y-87630000D02*
X115760500Y-87884000D01*
X115760500Y-87630000D02*
X115760500Y-87376000D01*
X114871500Y-87630000D02*
X114871500Y-87376000D01*
X114871500Y-87630000D02*
X114871500Y-87884000D01*
X121348500Y-86614000D02*
X121348500Y-86360000D01*
X121348500Y-86614000D02*
X121348500Y-86868000D01*
X120459500Y-86614000D02*
X120459500Y-86868000D01*
X120459500Y-86614000D02*
X120459500Y-86360000D01*
X118681500Y-105156000D02*
X118681500Y-105410000D01*
X118681500Y-105156000D02*
X118681500Y-104902000D01*
X119570500Y-105156000D02*
X119570500Y-104902000D01*
X119570500Y-105156000D02*
X119570500Y-105410000D01*
X120967500Y-105156000D02*
X120967500Y-105410000D01*
X120967500Y-105156000D02*
X120967500Y-104902000D01*
X120078500Y-105156000D02*
X120078500Y-104902000D01*
X120078500Y-105156000D02*
X120078500Y-105410000D01*
X114046000Y-107378500D02*
X114300000Y-107378500D01*
X114046000Y-107378500D02*
X113792000Y-107378500D01*
X114046000Y-106489500D02*
X113792000Y-106489500D01*
X114046000Y-106489500D02*
X114300000Y-106489500D01*
X170942000Y-73469500D02*
X171196000Y-73469500D01*
X170942000Y-73469500D02*
X170688000Y-73469500D01*
X170942000Y-74358500D02*
X170688000Y-74358500D01*
X170942000Y-74358500D02*
X171196000Y-74358500D01*
X173101000Y-73469500D02*
X172847000Y-73469500D01*
X173101000Y-73469500D02*
X173355000Y-73469500D01*
X173101000Y-74358500D02*
X173355000Y-74358500D01*
X173101000Y-74358500D02*
X172847000Y-74358500D01*
X174879000Y-96583500D02*
X175133000Y-96583500D01*
X174879000Y-96583500D02*
X174625000Y-96583500D01*
X174879000Y-97472500D02*
X174625000Y-97472500D01*
X174879000Y-97472500D02*
X175133000Y-97472500D01*
X136779000Y-79946500D02*
X137033000Y-79946500D01*
X136779000Y-79946500D02*
X136525000Y-79946500D01*
X136779000Y-79057500D02*
X136525000Y-79057500D01*
X136779000Y-79057500D02*
X137033000Y-79057500D01*
X139954000Y-79946500D02*
X139700000Y-79946500D01*
X139954000Y-79946500D02*
X140208000Y-79946500D01*
X139954000Y-79057500D02*
X140208000Y-79057500D01*
X139954000Y-79057500D02*
X139700000Y-79057500D01*
X174879000Y-92900500D02*
X174625000Y-92900500D01*
X174879000Y-92900500D02*
X175133000Y-92900500D01*
X174879000Y-92011500D02*
X175133000Y-92011500D01*
X174879000Y-92011500D02*
X174625000Y-92011500D01*
X174879000Y-90360500D02*
X174625000Y-90360500D01*
X174879000Y-90360500D02*
X175133000Y-90360500D01*
X174879000Y-91249500D02*
X175133000Y-91249500D01*
X174879000Y-91249500D02*
X174625000Y-91249500D01*
X174879000Y-89598500D02*
X174625000Y-89598500D01*
X174879000Y-89598500D02*
X175133000Y-89598500D01*
X174879000Y-88709500D02*
X175133000Y-88709500D01*
X174879000Y-88709500D02*
X174625000Y-88709500D01*
X174879000Y-99631500D02*
X174625000Y-99631500D01*
X174879000Y-99631500D02*
X175133000Y-99631500D01*
X174879000Y-100520500D02*
X175133000Y-100520500D01*
X174879000Y-100520500D02*
X174625000Y-100520500D01*
X174879000Y-98996500D02*
X174625000Y-98996500D01*
X174879000Y-98996500D02*
X175133000Y-98996500D01*
X174879000Y-98107500D02*
X175133000Y-98107500D01*
X174879000Y-98107500D02*
X174625000Y-98107500D01*
X108267500Y-79375000D02*
X108267500Y-79629000D01*
X108267500Y-79375000D02*
X108267500Y-79121000D01*
X107378500Y-79375000D02*
X107378500Y-79121000D01*
X107378500Y-79375000D02*
X107378500Y-79629000D01*
X108902500Y-79375000D02*
X108902500Y-79629000D01*
X108902500Y-79375000D02*
X108902500Y-79121000D01*
X109791500Y-79375000D02*
X109791500Y-79121000D01*
X109791500Y-79375000D02*
X109791500Y-79629000D01*
X111315500Y-79375000D02*
X111315500Y-79629000D01*
X111315500Y-79375000D02*
X111315500Y-79121000D01*
X110426500Y-79375000D02*
X110426500Y-79121000D01*
X110426500Y-79375000D02*
X110426500Y-79629000D01*
X111950500Y-79375000D02*
X111950500Y-79629000D01*
X111950500Y-79375000D02*
X111950500Y-79121000D01*
X112839500Y-79375000D02*
X112839500Y-79121000D01*
X112839500Y-79375000D02*
X112839500Y-79629000D01*
X114363500Y-79375000D02*
X114363500Y-79629000D01*
X114363500Y-79375000D02*
X114363500Y-79121000D01*
X113474500Y-79375000D02*
X113474500Y-79121000D01*
X113474500Y-79375000D02*
X113474500Y-79629000D01*
X114998500Y-79375000D02*
X114998500Y-79629000D01*
X114998500Y-79375000D02*
X114998500Y-79121000D01*
X115887500Y-79375000D02*
X115887500Y-79121000D01*
X115887500Y-79375000D02*
X115887500Y-79629000D01*
X117411500Y-79375000D02*
X117411500Y-79629000D01*
X117411500Y-79375000D02*
X117411500Y-79121000D01*
X116522500Y-79375000D02*
X116522500Y-79121000D01*
X116522500Y-79375000D02*
X116522500Y-79629000D01*
X118046500Y-79375000D02*
X118046500Y-79629000D01*
X118046500Y-79375000D02*
X118046500Y-79121000D01*
X118935500Y-79375000D02*
X118935500Y-79121000D01*
X118935500Y-79375000D02*
X118935500Y-79629000D01*
X139827000Y-97472500D02*
X140081000Y-97472500D01*
X139827000Y-97472500D02*
X139573000Y-97472500D01*
X139827000Y-96583500D02*
X139573000Y-96583500D01*
X139827000Y-96583500D02*
X140081000Y-96583500D01*
X151638000Y-100012500D02*
X151384000Y-100012500D01*
X151638000Y-100012500D02*
X151892000Y-100012500D01*
X151638000Y-100901500D02*
X151892000Y-100901500D01*
X151638000Y-100901500D02*
X151384000Y-100901500D01*
X135458200Y-95796100D02*
X132511800Y-95796100D01*
X135458200Y-95808800D02*
X135458200Y-95986600D01*
X132511800Y-95783400D02*
X132511800Y-95999300D01*
X135458200Y-99606100D02*
X135458200Y-99796600D01*
X135458200Y-99796600D02*
X132511800Y-99796600D01*
X132511800Y-99796600D02*
X132511800Y-99580700D01*
X132511800Y-95351600D02*
X132511800Y-95135700D01*
X135458200Y-95351600D02*
X132511800Y-95351600D01*
X135458200Y-95161100D02*
X135458200Y-95351600D01*
X132511800Y-91338400D02*
X132511800Y-91554300D01*
X135458200Y-91363800D02*
X135458200Y-91541600D01*
X135458200Y-91351100D02*
X132511800Y-91351100D01*
X110270000Y-111190000D02*
X110270000Y-111444000D01*
X110270000Y-111444000D02*
X110270000Y-113476000D01*
X110270000Y-113476000D02*
X110016000Y-113730000D01*
X110016000Y-113730000D02*
X110270000Y-113984000D01*
X110270000Y-113984000D02*
X110270000Y-116016000D01*
X110270000Y-116016000D02*
X110016000Y-116270000D01*
X110016000Y-116270000D02*
X110270000Y-116524000D01*
X110270000Y-116524000D02*
X110270000Y-118556000D01*
X110270000Y-118556000D02*
X110016000Y-118810000D01*
X110016000Y-118810000D02*
X107984000Y-118810000D01*
X107984000Y-118810000D02*
X107730000Y-118556000D01*
X107730000Y-118556000D02*
X107730000Y-116524000D01*
X110016000Y-111190000D02*
X110270000Y-111444000D01*
X107730000Y-111444000D02*
X107984000Y-111190000D01*
X107730000Y-111698000D02*
X107730000Y-111190000D01*
X107730000Y-116016000D02*
X107730000Y-113984000D01*
X107730000Y-113984000D02*
X107984000Y-113730000D01*
X107984000Y-113730000D02*
X107730000Y-113476000D01*
X107730000Y-113476000D02*
X107730000Y-111698000D01*
X107730000Y-116016000D02*
X107984000Y-116270000D01*
X107984000Y-116270000D02*
X107730000Y-116524000D01*
X110270000Y-111190000D02*
X107730000Y-111190000D01*
X128275080Y-106537760D02*
X128275080Y-101742240D01*
X132074920Y-106273600D02*
X131808220Y-106537760D01*
X132074920Y-101742240D02*
X132074920Y-106273600D01*
X128270000Y-106553000D02*
X131826000Y-106553000D01*
X128270000Y-101727000D02*
X132080000Y-101727000D01*
X133760981Y-107061000D02*
G75*
G03X133760981Y-107061000I-283981J0D01*
G01*
X131728981Y-105918000D02*
G75*
G03X131728981Y-105918000I-283981J0D01*
G01*
X120850000Y-92016000D02*
X120850000Y-92578000D01*
X121412000Y-92016000D02*
X120850000Y-92016000D01*
X128070000Y-92016000D02*
X128070000Y-92578000D01*
X127508000Y-92016000D02*
X128070000Y-92016000D01*
X120850000Y-99236000D02*
X120850000Y-98674000D01*
X121412000Y-99236000D02*
X120850000Y-99236000D01*
X129084605Y-98928000D02*
G75*
G03X129084605Y-98928000I-179605J0D01*
G01*
X128143000Y-98928000D02*
X127708000Y-99363000D01*
X138099800Y-83439000D02*
X136969500Y-83439000D01*
X138099800Y-80632300D02*
X136969500Y-80632300D01*
X170133553Y-88665000D02*
G75*
G03X170133553Y-88665000I-353553J0D01*
G01*
X169430000Y-99215000D02*
X169430000Y-100215000D01*
X169430000Y-100215000D02*
X168430000Y-100215000D01*
X159230000Y-100215000D02*
X158230000Y-100215000D01*
X158230000Y-100215000D02*
X158230000Y-99215000D01*
X158230000Y-90015000D02*
X158230000Y-89015000D01*
X158230000Y-89015000D02*
X159230000Y-89015000D01*
X169430000Y-89815000D02*
X168630000Y-88955000D01*
X143165000Y-83060000D02*
X147665000Y-83060000D01*
X143165000Y-89660000D02*
X147665000Y-89660000D01*
X147115000Y-88860000D02*
G75*
G03X147115000Y-88860000I-400000J0D01*
G01*
X143165000Y-91315000D02*
X147665000Y-91315000D01*
X143165000Y-97915000D02*
X147665000Y-97915000D01*
X147115000Y-97115000D02*
G75*
G03X147115000Y-97115000I-400000J0D01*
G01*
X144515000Y-100370000D02*
G75*
G03X144515000Y-100370000I-400000J0D01*
G01*
X147665000Y-99570000D02*
X143165000Y-99570000D01*
X147665000Y-106170000D02*
X143165000Y-106170000D01*
D14*
X156250000Y-82500000D02*
G75*
G03X156250000Y-82500000I-250000J0D01*
G01*
D12*
X159000000Y-80500000D02*
G75*
G03X159000000Y-80500000I-750000J0D01*
G01*
X156571500Y-82500000D02*
G75*
G03X156571500Y-82500000I-571500J0D01*
G01*
X158250000Y-79750000D02*
X158250000Y-81250000D01*
X159000000Y-80500000D02*
X157500000Y-80500000D01*
X160500000Y-82500000D02*
G75*
G03X160500000Y-82500000I-4500000J0D01*
G01*
X165735000Y-79629000D02*
X164211000Y-79629000D01*
X165735000Y-77343000D02*
X164211000Y-77343000D01*
X176470000Y-69550000D02*
X176470000Y-68250000D01*
X167530000Y-69550000D02*
X167530000Y-68250000D01*
X176470000Y-63682000D02*
X167530000Y-63682000D01*
X167530000Y-63682000D02*
X167530000Y-65550000D01*
X176470000Y-65550000D02*
X176470000Y-63682000D01*
D21*
X170250000Y-70000000D02*
X170250000Y-70750000D01*
X169600000Y-70750000D02*
X169600000Y-70000000D01*
X170250000Y-70750000D02*
X170150000Y-70500000D01*
X170250000Y-70750000D02*
X170350000Y-70500000D01*
X169600000Y-70750000D02*
X169700000Y-70500000D01*
X169600000Y-70750000D02*
X169500000Y-70500000D01*
X168650000Y-70750000D02*
X168750000Y-70500000D01*
X168650000Y-70000000D02*
X168650000Y-70750000D01*
X168650000Y-70750000D02*
X168550000Y-70500000D01*
X170750000Y-70750000D02*
X170850000Y-70500000D01*
X170750000Y-68250000D02*
X170750000Y-70750000D01*
X170750000Y-70750000D02*
X170650000Y-70500000D01*
X171250000Y-70750000D02*
X171350000Y-70500000D01*
X171250000Y-70000000D02*
X171250000Y-70750000D01*
X171250000Y-70750000D02*
X171150000Y-70500000D01*
X171750000Y-70750000D02*
X171850000Y-70500000D01*
X171750000Y-70750000D02*
X171650000Y-70500000D01*
X171750000Y-68250000D02*
X171750000Y-70750000D01*
X172250000Y-70750000D02*
X172150000Y-70500000D01*
X172250000Y-70750000D02*
X172350000Y-70500000D01*
X172250000Y-70000000D02*
X172250000Y-70750000D01*
X173250000Y-70750000D02*
X173350000Y-70500000D01*
X172750000Y-70750000D02*
X172650000Y-70500000D01*
X173250000Y-70750000D02*
X173150000Y-70500000D01*
X172750000Y-70750000D02*
X172850000Y-70500000D01*
X172750000Y-68250000D02*
X172750000Y-70750000D01*
X173250000Y-70000000D02*
X173250000Y-70750000D01*
X173750000Y-70750000D02*
X173850000Y-70500000D01*
X173750000Y-68250000D02*
X173750000Y-70750000D01*
X174400000Y-70000000D02*
X174400000Y-70750000D01*
X173750000Y-70750000D02*
X173650000Y-70500000D01*
X174400000Y-70750000D02*
X174500000Y-70500000D01*
X174400000Y-70750000D02*
X174300000Y-70500000D01*
X175350000Y-70000000D02*
X175350000Y-70750000D01*
X175350000Y-70750000D02*
X175450000Y-70500000D01*
X175350000Y-70750000D02*
X175250000Y-70500000D01*
D11*
X102574523Y-73130714D02*
X101304523Y-73130714D01*
X101909285Y-73130714D02*
X101909285Y-72405000D01*
X102574523Y-72405000D02*
X101304523Y-72405000D01*
X102574523Y-71800238D02*
X101304523Y-71800238D01*
X101304523Y-71497857D01*
X101365000Y-71316428D01*
X101485952Y-71195476D01*
X101606904Y-71135000D01*
X101848809Y-71074523D01*
X102030238Y-71074523D01*
X102272142Y-71135000D01*
X102393095Y-71195476D01*
X102514047Y-71316428D01*
X102574523Y-71497857D01*
X102574523Y-71800238D01*
X102574523Y-70530238D02*
X101304523Y-70530238D01*
X102211666Y-70106904D01*
X101304523Y-69683571D01*
X102574523Y-69683571D01*
X102574523Y-69078809D02*
X101304523Y-69078809D01*
X102574523Y-67808809D02*
X102574523Y-68534523D01*
X102574523Y-68171666D02*
X101304523Y-68171666D01*
X101485952Y-68292619D01*
X101606904Y-68413571D01*
X101667380Y-68534523D01*
X131587380Y-75377523D02*
X131587380Y-76405619D01*
X131647857Y-76526571D01*
X131708333Y-76587047D01*
X131829285Y-76647523D01*
X132071190Y-76647523D01*
X132192142Y-76587047D01*
X132252619Y-76526571D01*
X132313095Y-76405619D01*
X132313095Y-75377523D01*
X132857380Y-76587047D02*
X133038809Y-76647523D01*
X133341190Y-76647523D01*
X133462142Y-76587047D01*
X133522619Y-76526571D01*
X133583095Y-76405619D01*
X133583095Y-76284666D01*
X133522619Y-76163714D01*
X133462142Y-76103238D01*
X133341190Y-76042761D01*
X133099285Y-75982285D01*
X132978333Y-75921809D01*
X132917857Y-75861333D01*
X132857380Y-75740380D01*
X132857380Y-75619428D01*
X132917857Y-75498476D01*
X132978333Y-75438000D01*
X133099285Y-75377523D01*
X133401666Y-75377523D01*
X133583095Y-75438000D01*
X134550714Y-75982285D02*
X134732142Y-76042761D01*
X134792619Y-76103238D01*
X134853095Y-76224190D01*
X134853095Y-76405619D01*
X134792619Y-76526571D01*
X134732142Y-76587047D01*
X134611190Y-76647523D01*
X134127380Y-76647523D01*
X134127380Y-75377523D01*
X134550714Y-75377523D01*
X134671666Y-75438000D01*
X134732142Y-75498476D01*
X134792619Y-75619428D01*
X134792619Y-75740380D01*
X134732142Y-75861333D01*
X134671666Y-75921809D01*
X134550714Y-75982285D01*
X134127380Y-75982285D01*
X135397380Y-76163714D02*
X136365000Y-76163714D01*
X136969761Y-76647523D02*
X136969761Y-75377523D01*
X136969761Y-75982285D02*
X137695476Y-75982285D01*
X137695476Y-76647523D02*
X137695476Y-75377523D01*
X138542142Y-75377523D02*
X138784047Y-75377523D01*
X138905000Y-75438000D01*
X139025952Y-75558952D01*
X139086428Y-75800857D01*
X139086428Y-76224190D01*
X139025952Y-76466095D01*
X138905000Y-76587047D01*
X138784047Y-76647523D01*
X138542142Y-76647523D01*
X138421190Y-76587047D01*
X138300238Y-76466095D01*
X138239761Y-76224190D01*
X138239761Y-75800857D01*
X138300238Y-75558952D01*
X138421190Y-75438000D01*
X138542142Y-75377523D01*
X139570238Y-76587047D02*
X139751666Y-76647523D01*
X140054047Y-76647523D01*
X140175000Y-76587047D01*
X140235476Y-76526571D01*
X140295952Y-76405619D01*
X140295952Y-76284666D01*
X140235476Y-76163714D01*
X140175000Y-76103238D01*
X140054047Y-76042761D01*
X139812142Y-75982285D01*
X139691190Y-75921809D01*
X139630714Y-75861333D01*
X139570238Y-75740380D01*
X139570238Y-75619428D01*
X139630714Y-75498476D01*
X139691190Y-75438000D01*
X139812142Y-75377523D01*
X140114523Y-75377523D01*
X140295952Y-75438000D01*
X140658809Y-75377523D02*
X141384523Y-75377523D01*
X141021666Y-76647523D02*
X141021666Y-75377523D01*
X142473095Y-76647523D02*
X141747380Y-76647523D01*
X142110238Y-76647523D02*
X142110238Y-75377523D01*
X141989285Y-75558952D01*
X141868333Y-75679904D01*
X141747380Y-75740380D01*
D10*
X137859142Y-107460142D02*
X138076857Y-107532714D01*
X138149428Y-107605285D01*
X138222000Y-107750428D01*
X138222000Y-107968142D01*
X138149428Y-108113285D01*
X138076857Y-108185857D01*
X137931714Y-108258428D01*
X137351142Y-108258428D01*
X137351142Y-106734428D01*
X137859142Y-106734428D01*
X138004285Y-106807000D01*
X138076857Y-106879571D01*
X138149428Y-107024714D01*
X138149428Y-107169857D01*
X138076857Y-107315000D01*
X138004285Y-107387571D01*
X137859142Y-107460142D01*
X137351142Y-107460142D01*
X138875142Y-106734428D02*
X138875142Y-107968142D01*
X138947714Y-108113285D01*
X139020285Y-108185857D01*
X139165428Y-108258428D01*
X139455714Y-108258428D01*
X139600857Y-108185857D01*
X139673428Y-108113285D01*
X139746000Y-107968142D01*
X139746000Y-106734428D01*
X140399142Y-108185857D02*
X140616857Y-108258428D01*
X140979714Y-108258428D01*
X141124857Y-108185857D01*
X141197428Y-108113285D01*
X141270000Y-107968142D01*
X141270000Y-107823000D01*
X141197428Y-107677857D01*
X141124857Y-107605285D01*
X140979714Y-107532714D01*
X140689428Y-107460142D01*
X140544285Y-107387571D01*
X140471714Y-107315000D01*
X140399142Y-107169857D01*
X140399142Y-107024714D01*
X140471714Y-106879571D01*
X140544285Y-106807000D01*
X140689428Y-106734428D01*
X141052285Y-106734428D01*
X141270000Y-106807000D01*
X142721428Y-108258428D02*
X141850571Y-108258428D01*
X142286000Y-108258428D02*
X142286000Y-106734428D01*
X142140857Y-106952142D01*
X141995714Y-107097285D01*
X141850571Y-107169857D01*
D12*
X165672142Y-114695476D02*
X165732619Y-114635000D01*
X165853571Y-114574523D01*
X166155952Y-114574523D01*
X166276904Y-114635000D01*
X166337380Y-114695476D01*
X166397857Y-114816428D01*
X166397857Y-114937380D01*
X166337380Y-115118809D01*
X165611666Y-115844523D01*
X166397857Y-115844523D01*
X166397857Y-113304523D02*
X165672142Y-113304523D01*
X166035000Y-113304523D02*
X166035000Y-112034523D01*
X165914047Y-112215952D01*
X165793095Y-112336904D01*
X165672142Y-112397380D01*
D10*
X103523142Y-82731428D02*
X103523142Y-83965142D01*
X103595714Y-84110285D01*
X103668285Y-84182857D01*
X103813428Y-84255428D01*
X104103714Y-84255428D01*
X104248857Y-84182857D01*
X104321428Y-84110285D01*
X104394000Y-83965142D01*
X104394000Y-82731428D01*
X105119714Y-83457142D02*
X105627714Y-83457142D01*
X105845428Y-84255428D02*
X105119714Y-84255428D01*
X105119714Y-82731428D01*
X105845428Y-82731428D01*
X106353428Y-82731428D02*
X107369428Y-84255428D01*
X107369428Y-82731428D02*
X106353428Y-84255428D01*
X107732285Y-82731428D02*
X108603142Y-82731428D01*
X108167714Y-84255428D02*
X108167714Y-82731428D01*
X109909428Y-84255428D02*
X109038571Y-84255428D01*
X109474000Y-84255428D02*
X109474000Y-82731428D01*
X109328857Y-82949142D01*
X109183714Y-83094285D01*
X109038571Y-83166857D01*
D12*
X105304523Y-87652142D02*
X105304523Y-88377857D01*
X105304523Y-88015000D02*
X104034523Y-88015000D01*
X104215952Y-88135952D01*
X104336904Y-88256904D01*
X104397380Y-88377857D01*
X106695476Y-88377857D02*
X106635000Y-88317380D01*
X106574523Y-88196428D01*
X106574523Y-87894047D01*
X106635000Y-87773095D01*
X106695476Y-87712619D01*
X106816428Y-87652142D01*
X106937380Y-87652142D01*
X107118809Y-87712619D01*
X107844523Y-88438333D01*
X107844523Y-87652142D01*
D23*
X170766619Y-109120214D02*
X170966190Y-109186738D01*
X171032714Y-109253261D01*
X171099238Y-109386309D01*
X171099238Y-109585880D01*
X171032714Y-109718928D01*
X170966190Y-109785452D01*
X170833142Y-109851976D01*
X170300952Y-109851976D01*
X170300952Y-108454976D01*
X170766619Y-108454976D01*
X170899666Y-108521500D01*
X170966190Y-108588023D01*
X171032714Y-108721071D01*
X171032714Y-108854119D01*
X170966190Y-108987166D01*
X170899666Y-109053690D01*
X170766619Y-109120214D01*
X170300952Y-109120214D01*
X171697952Y-108454976D02*
X171697952Y-109585880D01*
X171764476Y-109718928D01*
X171831000Y-109785452D01*
X171964047Y-109851976D01*
X172230142Y-109851976D01*
X172363190Y-109785452D01*
X172429714Y-109718928D01*
X172496238Y-109585880D01*
X172496238Y-108454976D01*
X173028428Y-108454976D02*
X173959761Y-108454976D01*
X173028428Y-109851976D01*
X173959761Y-109851976D01*
X174159333Y-109985023D02*
X175223714Y-109985023D01*
X175556333Y-109120214D02*
X176022000Y-109120214D01*
X176221571Y-109851976D02*
X175556333Y-109851976D01*
X175556333Y-108454976D01*
X176221571Y-108454976D01*
X176820285Y-109851976D02*
X176820285Y-108454976D01*
X177618571Y-109851976D01*
X177618571Y-108454976D01*
X179015571Y-109851976D02*
X178217285Y-109851976D01*
X178616428Y-109851976D02*
X178616428Y-108454976D01*
X178483380Y-108654547D01*
X178350333Y-108787595D01*
X178217285Y-108854119D01*
D12*
X170718076Y-107132857D02*
X170657600Y-107072380D01*
X170597123Y-106951428D01*
X170597123Y-106649047D01*
X170657600Y-106528095D01*
X170718076Y-106467619D01*
X170839028Y-106407142D01*
X170959980Y-106407142D01*
X171141409Y-106467619D01*
X171867123Y-107193333D01*
X171867123Y-106407142D01*
X171867123Y-103867142D02*
X171867123Y-104592857D01*
X171867123Y-104230000D02*
X170597123Y-104230000D01*
X170778552Y-104350952D01*
X170899504Y-104471904D01*
X170959980Y-104592857D01*
D10*
X147637500Y-73850500D02*
X147637500Y-73124785D01*
X148072928Y-73995642D02*
X146548928Y-73487642D01*
X148072928Y-72979642D01*
X146548928Y-72471642D02*
X147782642Y-72471642D01*
X147927785Y-72399071D01*
X148000357Y-72326500D01*
X148072928Y-72181357D01*
X148072928Y-71891071D01*
X148000357Y-71745928D01*
X147927785Y-71673357D01*
X147782642Y-71600785D01*
X146548928Y-71600785D01*
X148072928Y-70875071D02*
X146548928Y-70875071D01*
X146548928Y-70512214D01*
X146621500Y-70294500D01*
X146766642Y-70149357D01*
X146911785Y-70076785D01*
X147202071Y-70004214D01*
X147419785Y-70004214D01*
X147710071Y-70076785D01*
X147855214Y-70149357D01*
X148000357Y-70294500D01*
X148072928Y-70512214D01*
X148072928Y-70875071D01*
X148072928Y-69351071D02*
X146548928Y-69351071D01*
X146548928Y-68335071D02*
X146548928Y-68044785D01*
X146621500Y-67899642D01*
X146766642Y-67754500D01*
X147056928Y-67681928D01*
X147564928Y-67681928D01*
X147855214Y-67754500D01*
X148000357Y-67899642D01*
X148072928Y-68044785D01*
X148072928Y-68335071D01*
X148000357Y-68480214D01*
X147855214Y-68625357D01*
X147564928Y-68697928D01*
X147056928Y-68697928D01*
X146766642Y-68625357D01*
X146621500Y-68480214D01*
X146548928Y-68335071D01*
X148072928Y-66230500D02*
X148072928Y-67101357D01*
X148072928Y-66665928D02*
X146548928Y-66665928D01*
X146766642Y-66811071D01*
X146911785Y-66956214D01*
X146984357Y-67101357D01*
D12*
X171812857Y-101962857D02*
X171764476Y-102011238D01*
X171619333Y-102059619D01*
X171522571Y-102059619D01*
X171377428Y-102011238D01*
X171280666Y-101914476D01*
X171232285Y-101817714D01*
X171183904Y-101624190D01*
X171183904Y-101479047D01*
X171232285Y-101285523D01*
X171280666Y-101188761D01*
X171377428Y-101092000D01*
X171522571Y-101043619D01*
X171619333Y-101043619D01*
X171764476Y-101092000D01*
X171812857Y-101140380D01*
X172199904Y-101140380D02*
X172248285Y-101092000D01*
X172345047Y-101043619D01*
X172586952Y-101043619D01*
X172683714Y-101092000D01*
X172732095Y-101140380D01*
X172780476Y-101237142D01*
X172780476Y-101333904D01*
X172732095Y-101479047D01*
X172151523Y-102059619D01*
X172780476Y-102059619D01*
X173167523Y-101140380D02*
X173215904Y-101092000D01*
X173312666Y-101043619D01*
X173554571Y-101043619D01*
X173651333Y-101092000D01*
X173699714Y-101140380D01*
X173748095Y-101237142D01*
X173748095Y-101333904D01*
X173699714Y-101479047D01*
X173119142Y-102059619D01*
X173748095Y-102059619D01*
X172290619Y-87200619D02*
X172290619Y-86184619D01*
X172677666Y-86184619D01*
X172774428Y-86233000D01*
X172822809Y-86281380D01*
X172871190Y-86378142D01*
X172871190Y-86523285D01*
X172822809Y-86620047D01*
X172774428Y-86668428D01*
X172677666Y-86716809D01*
X172290619Y-86716809D01*
X173209857Y-86184619D02*
X173451761Y-87200619D01*
X173645285Y-86474904D01*
X173838809Y-87200619D01*
X174080714Y-86184619D01*
X175048333Y-87200619D02*
X174709666Y-86716809D01*
X174467761Y-87200619D02*
X174467761Y-86184619D01*
X174854809Y-86184619D01*
X174951571Y-86233000D01*
X174999952Y-86281380D01*
X175048333Y-86378142D01*
X175048333Y-86523285D01*
X174999952Y-86620047D01*
X174951571Y-86668428D01*
X174854809Y-86716809D01*
X174467761Y-86716809D01*
X175241857Y-87297380D02*
X176015952Y-87297380D01*
X176741666Y-87200619D02*
X176257857Y-87200619D01*
X176257857Y-86184619D01*
X177080333Y-86668428D02*
X177419000Y-86668428D01*
X177564142Y-87200619D02*
X177080333Y-87200619D01*
X177080333Y-86184619D01*
X177564142Y-86184619D01*
X177999571Y-87200619D02*
X177999571Y-86184619D01*
X178241476Y-86184619D01*
X178386619Y-86233000D01*
X178483380Y-86329761D01*
X178531761Y-86426523D01*
X178580142Y-86620047D01*
X178580142Y-86765190D01*
X178531761Y-86958714D01*
X178483380Y-87055476D01*
X178386619Y-87152238D01*
X178241476Y-87200619D01*
X177999571Y-87200619D01*
X179547761Y-87200619D02*
X178967190Y-87200619D01*
X179257476Y-87200619D02*
X179257476Y-86184619D01*
X179160714Y-86329761D01*
X179063952Y-86426523D01*
X178967190Y-86474904D01*
X177654857Y-84199619D02*
X177316190Y-83715809D01*
X177074285Y-84199619D02*
X177074285Y-83183619D01*
X177461333Y-83183619D01*
X177558095Y-83232000D01*
X177606476Y-83280380D01*
X177654857Y-83377142D01*
X177654857Y-83522285D01*
X177606476Y-83619047D01*
X177558095Y-83667428D01*
X177461333Y-83715809D01*
X177074285Y-83715809D01*
X178622476Y-84199619D02*
X178041904Y-84199619D01*
X178332190Y-84199619D02*
X178332190Y-83183619D01*
X178235428Y-83328761D01*
X178138666Y-83425523D01*
X178041904Y-83473904D01*
X178961142Y-83183619D02*
X179590095Y-83183619D01*
X179251428Y-83570666D01*
X179396571Y-83570666D01*
X179493333Y-83619047D01*
X179541714Y-83667428D01*
X179590095Y-83764190D01*
X179590095Y-84006095D01*
X179541714Y-84102857D01*
X179493333Y-84151238D01*
X179396571Y-84199619D01*
X179106285Y-84199619D01*
X179009523Y-84151238D01*
X178961142Y-84102857D01*
X117710857Y-97741619D02*
X117372190Y-97257809D01*
X117130285Y-97741619D02*
X117130285Y-96725619D01*
X117517333Y-96725619D01*
X117614095Y-96774000D01*
X117662476Y-96822380D01*
X117710857Y-96919142D01*
X117710857Y-97064285D01*
X117662476Y-97161047D01*
X117614095Y-97209428D01*
X117517333Y-97257809D01*
X117130285Y-97257809D01*
X118049523Y-96725619D02*
X118678476Y-96725619D01*
X118339809Y-97112666D01*
X118484952Y-97112666D01*
X118581714Y-97161047D01*
X118630095Y-97209428D01*
X118678476Y-97306190D01*
X118678476Y-97548095D01*
X118630095Y-97644857D01*
X118581714Y-97693238D01*
X118484952Y-97741619D01*
X118194666Y-97741619D01*
X118097904Y-97693238D01*
X118049523Y-97644857D01*
X119017142Y-96725619D02*
X119646095Y-96725619D01*
X119307428Y-97112666D01*
X119452571Y-97112666D01*
X119549333Y-97161047D01*
X119597714Y-97209428D01*
X119646095Y-97306190D01*
X119646095Y-97548095D01*
X119597714Y-97644857D01*
X119549333Y-97693238D01*
X119452571Y-97741619D01*
X119162285Y-97741619D01*
X119065523Y-97693238D01*
X119017142Y-97644857D01*
X139237357Y-87391119D02*
X138898690Y-86907309D01*
X138656785Y-87391119D02*
X138656785Y-86375119D01*
X139043833Y-86375119D01*
X139140595Y-86423500D01*
X139188976Y-86471880D01*
X139237357Y-86568642D01*
X139237357Y-86713785D01*
X139188976Y-86810547D01*
X139140595Y-86858928D01*
X139043833Y-86907309D01*
X138656785Y-86907309D01*
X139576023Y-86375119D02*
X140204976Y-86375119D01*
X139866309Y-86762166D01*
X140011452Y-86762166D01*
X140108214Y-86810547D01*
X140156595Y-86858928D01*
X140204976Y-86955690D01*
X140204976Y-87197595D01*
X140156595Y-87294357D01*
X140108214Y-87342738D01*
X140011452Y-87391119D01*
X139721166Y-87391119D01*
X139624404Y-87342738D01*
X139576023Y-87294357D01*
X140833928Y-86375119D02*
X140930690Y-86375119D01*
X141027452Y-86423500D01*
X141075833Y-86471880D01*
X141124214Y-86568642D01*
X141172595Y-86762166D01*
X141172595Y-87004071D01*
X141124214Y-87197595D01*
X141075833Y-87294357D01*
X141027452Y-87342738D01*
X140930690Y-87391119D01*
X140833928Y-87391119D01*
X140737166Y-87342738D01*
X140688785Y-87294357D01*
X140640404Y-87197595D01*
X140592023Y-87004071D01*
X140592023Y-86762166D01*
X140640404Y-86568642D01*
X140688785Y-86471880D01*
X140737166Y-86423500D01*
X140833928Y-86375119D01*
X117710857Y-96217619D02*
X117372190Y-95733809D01*
X117130285Y-96217619D02*
X117130285Y-95201619D01*
X117517333Y-95201619D01*
X117614095Y-95250000D01*
X117662476Y-95298380D01*
X117710857Y-95395142D01*
X117710857Y-95540285D01*
X117662476Y-95637047D01*
X117614095Y-95685428D01*
X117517333Y-95733809D01*
X117130285Y-95733809D01*
X118049523Y-95201619D02*
X118678476Y-95201619D01*
X118339809Y-95588666D01*
X118484952Y-95588666D01*
X118581714Y-95637047D01*
X118630095Y-95685428D01*
X118678476Y-95782190D01*
X118678476Y-96024095D01*
X118630095Y-96120857D01*
X118581714Y-96169238D01*
X118484952Y-96217619D01*
X118194666Y-96217619D01*
X118097904Y-96169238D01*
X118049523Y-96120857D01*
X119549333Y-95540285D02*
X119549333Y-96217619D01*
X119307428Y-95153238D02*
X119065523Y-95878952D01*
X119694476Y-95878952D01*
X168613666Y-84406619D02*
X168275000Y-83922809D01*
X168033095Y-84406619D02*
X168033095Y-83390619D01*
X168420142Y-83390619D01*
X168516904Y-83439000D01*
X168565285Y-83487380D01*
X168613666Y-83584142D01*
X168613666Y-83729285D01*
X168565285Y-83826047D01*
X168516904Y-83874428D01*
X168420142Y-83922809D01*
X168033095Y-83922809D01*
X169194238Y-83826047D02*
X169097476Y-83777666D01*
X169049095Y-83729285D01*
X169000714Y-83632523D01*
X169000714Y-83584142D01*
X169049095Y-83487380D01*
X169097476Y-83439000D01*
X169194238Y-83390619D01*
X169387761Y-83390619D01*
X169484523Y-83439000D01*
X169532904Y-83487380D01*
X169581285Y-83584142D01*
X169581285Y-83632523D01*
X169532904Y-83729285D01*
X169484523Y-83777666D01*
X169387761Y-83826047D01*
X169194238Y-83826047D01*
X169097476Y-83874428D01*
X169049095Y-83922809D01*
X169000714Y-84019571D01*
X169000714Y-84213095D01*
X169049095Y-84309857D01*
X169097476Y-84358238D01*
X169194238Y-84406619D01*
X169387761Y-84406619D01*
X169484523Y-84358238D01*
X169532904Y-84309857D01*
X169581285Y-84213095D01*
X169581285Y-84019571D01*
X169532904Y-83922809D01*
X169484523Y-83874428D01*
X169387761Y-83826047D01*
X146890619Y-80433333D02*
X146406809Y-80772000D01*
X146890619Y-81013904D02*
X145874619Y-81013904D01*
X145874619Y-80626857D01*
X145923000Y-80530095D01*
X145971380Y-80481714D01*
X146068142Y-80433333D01*
X146213285Y-80433333D01*
X146310047Y-80481714D01*
X146358428Y-80530095D01*
X146406809Y-80626857D01*
X146406809Y-81013904D01*
X146890619Y-79949523D02*
X146890619Y-79756000D01*
X146842238Y-79659238D01*
X146793857Y-79610857D01*
X146648714Y-79514095D01*
X146455190Y-79465714D01*
X146068142Y-79465714D01*
X145971380Y-79514095D01*
X145923000Y-79562476D01*
X145874619Y-79659238D01*
X145874619Y-79852761D01*
X145923000Y-79949523D01*
X145971380Y-79997904D01*
X146068142Y-80046285D01*
X146310047Y-80046285D01*
X146406809Y-79997904D01*
X146455190Y-79949523D01*
X146503571Y-79852761D01*
X146503571Y-79659238D01*
X146455190Y-79562476D01*
X146406809Y-79514095D01*
X146310047Y-79465714D01*
X145366619Y-81425142D02*
X144882809Y-81763809D01*
X145366619Y-82005714D02*
X144350619Y-82005714D01*
X144350619Y-81618666D01*
X144399000Y-81521904D01*
X144447380Y-81473523D01*
X144544142Y-81425142D01*
X144689285Y-81425142D01*
X144786047Y-81473523D01*
X144834428Y-81521904D01*
X144882809Y-81618666D01*
X144882809Y-82005714D01*
X145366619Y-80457523D02*
X145366619Y-81038095D01*
X145366619Y-80747809D02*
X144350619Y-80747809D01*
X144495761Y-80844571D01*
X144592523Y-80941333D01*
X144640904Y-81038095D01*
X145366619Y-79489904D02*
X145366619Y-80070476D01*
X145366619Y-79780190D02*
X144350619Y-79780190D01*
X144495761Y-79876952D01*
X144592523Y-79973714D01*
X144640904Y-80070476D01*
X163938857Y-87484857D02*
X163890476Y-87533238D01*
X163745333Y-87581619D01*
X163648571Y-87581619D01*
X163503428Y-87533238D01*
X163406666Y-87436476D01*
X163358285Y-87339714D01*
X163309904Y-87146190D01*
X163309904Y-87001047D01*
X163358285Y-86807523D01*
X163406666Y-86710761D01*
X163503428Y-86614000D01*
X163648571Y-86565619D01*
X163745333Y-86565619D01*
X163890476Y-86614000D01*
X163938857Y-86662380D01*
X164325904Y-86662380D02*
X164374285Y-86614000D01*
X164471047Y-86565619D01*
X164712952Y-86565619D01*
X164809714Y-86614000D01*
X164858095Y-86662380D01*
X164906476Y-86759142D01*
X164906476Y-86855904D01*
X164858095Y-87001047D01*
X164277523Y-87581619D01*
X164906476Y-87581619D01*
X165535428Y-86565619D02*
X165632190Y-86565619D01*
X165728952Y-86614000D01*
X165777333Y-86662380D01*
X165825714Y-86759142D01*
X165874095Y-86952666D01*
X165874095Y-87194571D01*
X165825714Y-87388095D01*
X165777333Y-87484857D01*
X165728952Y-87533238D01*
X165632190Y-87581619D01*
X165535428Y-87581619D01*
X165438666Y-87533238D01*
X165390285Y-87484857D01*
X165341904Y-87388095D01*
X165293523Y-87194571D01*
X165293523Y-86952666D01*
X165341904Y-86759142D01*
X165390285Y-86662380D01*
X165438666Y-86614000D01*
X165535428Y-86565619D01*
X150095857Y-81933142D02*
X150144238Y-81981523D01*
X150192619Y-82126666D01*
X150192619Y-82223428D01*
X150144238Y-82368571D01*
X150047476Y-82465333D01*
X149950714Y-82513714D01*
X149757190Y-82562095D01*
X149612047Y-82562095D01*
X149418523Y-82513714D01*
X149321761Y-82465333D01*
X149225000Y-82368571D01*
X149176619Y-82223428D01*
X149176619Y-82126666D01*
X149225000Y-81981523D01*
X149273380Y-81933142D01*
X150192619Y-80965523D02*
X150192619Y-81546095D01*
X150192619Y-81255809D02*
X149176619Y-81255809D01*
X149321761Y-81352571D01*
X149418523Y-81449333D01*
X149466904Y-81546095D01*
X149176619Y-80626857D02*
X149176619Y-79949523D01*
X150192619Y-80384952D01*
X148317857Y-81425142D02*
X148366238Y-81473523D01*
X148414619Y-81618666D01*
X148414619Y-81715428D01*
X148366238Y-81860571D01*
X148269476Y-81957333D01*
X148172714Y-82005714D01*
X147979190Y-82054095D01*
X147834047Y-82054095D01*
X147640523Y-82005714D01*
X147543761Y-81957333D01*
X147447000Y-81860571D01*
X147398619Y-81715428D01*
X147398619Y-81618666D01*
X147447000Y-81473523D01*
X147495380Y-81425142D01*
X148414619Y-80457523D02*
X148414619Y-81038095D01*
X148414619Y-80747809D02*
X147398619Y-80747809D01*
X147543761Y-80844571D01*
X147640523Y-80941333D01*
X147688904Y-81038095D01*
X147834047Y-79876952D02*
X147785666Y-79973714D01*
X147737285Y-80022095D01*
X147640523Y-80070476D01*
X147592142Y-80070476D01*
X147495380Y-80022095D01*
X147447000Y-79973714D01*
X147398619Y-79876952D01*
X147398619Y-79683428D01*
X147447000Y-79586666D01*
X147495380Y-79538285D01*
X147592142Y-79489904D01*
X147640523Y-79489904D01*
X147737285Y-79538285D01*
X147785666Y-79586666D01*
X147834047Y-79683428D01*
X147834047Y-79876952D01*
X147882428Y-79973714D01*
X147930809Y-80022095D01*
X148027571Y-80070476D01*
X148221095Y-80070476D01*
X148317857Y-80022095D01*
X148366238Y-79973714D01*
X148414619Y-79876952D01*
X148414619Y-79683428D01*
X148366238Y-79586666D01*
X148317857Y-79538285D01*
X148221095Y-79489904D01*
X148027571Y-79489904D01*
X147930809Y-79538285D01*
X147882428Y-79586666D01*
X147834047Y-79683428D01*
X161749619Y-85077904D02*
X160733619Y-85077904D01*
X160733619Y-84836000D01*
X160782000Y-84690857D01*
X160878761Y-84594095D01*
X160975523Y-84545714D01*
X161169047Y-84497333D01*
X161314190Y-84497333D01*
X161507714Y-84545714D01*
X161604476Y-84594095D01*
X161701238Y-84690857D01*
X161749619Y-84836000D01*
X161749619Y-85077904D01*
X161749619Y-83529714D02*
X161749619Y-84110285D01*
X161749619Y-83820000D02*
X160733619Y-83820000D01*
X160878761Y-83916761D01*
X160975523Y-84013523D01*
X161023904Y-84110285D01*
X169186239Y-82263380D02*
X169081477Y-82211000D01*
X168976715Y-82106238D01*
X168819572Y-81949095D01*
X168714810Y-81896714D01*
X168610048Y-81896714D01*
X168662429Y-82158619D02*
X168557667Y-82106238D01*
X168452905Y-82001476D01*
X168400524Y-81791952D01*
X168400524Y-81425285D01*
X168452905Y-81215761D01*
X168557667Y-81111000D01*
X168662429Y-81058619D01*
X168871953Y-81058619D01*
X168976715Y-81111000D01*
X169081477Y-81215761D01*
X169133858Y-81425285D01*
X169133858Y-81791952D01*
X169081477Y-82001476D01*
X168976715Y-82106238D01*
X168871953Y-82158619D01*
X168662429Y-82158619D01*
X169552905Y-81163380D02*
X169605286Y-81111000D01*
X169710048Y-81058619D01*
X169971953Y-81058619D01*
X170076715Y-81111000D01*
X170129096Y-81163380D01*
X170181477Y-81268142D01*
X170181477Y-81372904D01*
X170129096Y-81530047D01*
X169500524Y-82158619D01*
X170181477Y-82158619D01*
D10*
X107569000Y-108349142D02*
X107786714Y-108421714D01*
X107859285Y-108494285D01*
X107931857Y-108639428D01*
X107931857Y-108857142D01*
X107859285Y-109002285D01*
X107786714Y-109074857D01*
X107641571Y-109147428D01*
X107061000Y-109147428D01*
X107061000Y-107623428D01*
X107569000Y-107623428D01*
X107714142Y-107696000D01*
X107786714Y-107768571D01*
X107859285Y-107913714D01*
X107859285Y-108058857D01*
X107786714Y-108204000D01*
X107714142Y-108276571D01*
X107569000Y-108349142D01*
X107061000Y-108349142D01*
X108875285Y-107623428D02*
X109165571Y-107623428D01*
X109310714Y-107696000D01*
X109455857Y-107841142D01*
X109528428Y-108131428D01*
X109528428Y-108639428D01*
X109455857Y-108929714D01*
X109310714Y-109074857D01*
X109165571Y-109147428D01*
X108875285Y-109147428D01*
X108730142Y-109074857D01*
X108585000Y-108929714D01*
X108512428Y-108639428D01*
X108512428Y-108131428D01*
X108585000Y-107841142D01*
X108730142Y-107696000D01*
X108875285Y-107623428D01*
X110471857Y-107623428D02*
X110762142Y-107623428D01*
X110907285Y-107696000D01*
X111052428Y-107841142D01*
X111125000Y-108131428D01*
X111125000Y-108639428D01*
X111052428Y-108929714D01*
X110907285Y-109074857D01*
X110762142Y-109147428D01*
X110471857Y-109147428D01*
X110326714Y-109074857D01*
X110181571Y-108929714D01*
X110109000Y-108639428D01*
X110109000Y-108131428D01*
X110181571Y-107841142D01*
X110326714Y-107696000D01*
X110471857Y-107623428D01*
X111560428Y-107623428D02*
X112431285Y-107623428D01*
X111995857Y-109147428D02*
X111995857Y-107623428D01*
X113737571Y-109147428D02*
X112866714Y-109147428D01*
X113302142Y-109147428D02*
X113302142Y-107623428D01*
X113157000Y-107841142D01*
X113011857Y-107986285D01*
X112866714Y-108058857D01*
D12*
X126449666Y-107677857D02*
X126401285Y-107726238D01*
X126256142Y-107774619D01*
X126159380Y-107774619D01*
X126014238Y-107726238D01*
X125917476Y-107629476D01*
X125869095Y-107532714D01*
X125820714Y-107339190D01*
X125820714Y-107194047D01*
X125869095Y-107000523D01*
X125917476Y-106903761D01*
X126014238Y-106807000D01*
X126159380Y-106758619D01*
X126256142Y-106758619D01*
X126401285Y-106807000D01*
X126449666Y-106855380D01*
X127417285Y-107774619D02*
X126836714Y-107774619D01*
X127127000Y-107774619D02*
X127127000Y-106758619D01*
X127030238Y-106903761D01*
X126933476Y-107000523D01*
X126836714Y-107048904D01*
X116948857Y-89704333D02*
X116997238Y-89752714D01*
X117045619Y-89897857D01*
X117045619Y-89994619D01*
X116997238Y-90139761D01*
X116900476Y-90236523D01*
X116803714Y-90284904D01*
X116610190Y-90333285D01*
X116465047Y-90333285D01*
X116271523Y-90284904D01*
X116174761Y-90236523D01*
X116078000Y-90139761D01*
X116029619Y-89994619D01*
X116029619Y-89897857D01*
X116078000Y-89752714D01*
X116126380Y-89704333D01*
X116126380Y-89317285D02*
X116078000Y-89268904D01*
X116029619Y-89172142D01*
X116029619Y-88930238D01*
X116078000Y-88833476D01*
X116126380Y-88785095D01*
X116223142Y-88736714D01*
X116319904Y-88736714D01*
X116465047Y-88785095D01*
X117045619Y-89365666D01*
X117045619Y-88736714D01*
X135720666Y-101073857D02*
X135672285Y-101122238D01*
X135527142Y-101170619D01*
X135430380Y-101170619D01*
X135285238Y-101122238D01*
X135188476Y-101025476D01*
X135140095Y-100928714D01*
X135091714Y-100735190D01*
X135091714Y-100590047D01*
X135140095Y-100396523D01*
X135188476Y-100299761D01*
X135285238Y-100203000D01*
X135430380Y-100154619D01*
X135527142Y-100154619D01*
X135672285Y-100203000D01*
X135720666Y-100251380D01*
X136059333Y-100154619D02*
X136688285Y-100154619D01*
X136349619Y-100541666D01*
X136494761Y-100541666D01*
X136591523Y-100590047D01*
X136639904Y-100638428D01*
X136688285Y-100735190D01*
X136688285Y-100977095D01*
X136639904Y-101073857D01*
X136591523Y-101122238D01*
X136494761Y-101170619D01*
X136204476Y-101170619D01*
X136107714Y-101122238D01*
X136059333Y-101073857D01*
X131783666Y-90786857D02*
X131735285Y-90835238D01*
X131590142Y-90883619D01*
X131493380Y-90883619D01*
X131348238Y-90835238D01*
X131251476Y-90738476D01*
X131203095Y-90641714D01*
X131154714Y-90448190D01*
X131154714Y-90303047D01*
X131203095Y-90109523D01*
X131251476Y-90012761D01*
X131348238Y-89916000D01*
X131493380Y-89867619D01*
X131590142Y-89867619D01*
X131735285Y-89916000D01*
X131783666Y-89964380D01*
X132654523Y-90206285D02*
X132654523Y-90883619D01*
X132412619Y-89819238D02*
X132170714Y-90544952D01*
X132799666Y-90544952D01*
X119869857Y-89704333D02*
X119918238Y-89752714D01*
X119966619Y-89897857D01*
X119966619Y-89994619D01*
X119918238Y-90139761D01*
X119821476Y-90236523D01*
X119724714Y-90284904D01*
X119531190Y-90333285D01*
X119386047Y-90333285D01*
X119192523Y-90284904D01*
X119095761Y-90236523D01*
X118999000Y-90139761D01*
X118950619Y-89994619D01*
X118950619Y-89897857D01*
X118999000Y-89752714D01*
X119047380Y-89704333D01*
X118950619Y-88785095D02*
X118950619Y-89268904D01*
X119434428Y-89317285D01*
X119386047Y-89268904D01*
X119337666Y-89172142D01*
X119337666Y-88930238D01*
X119386047Y-88833476D01*
X119434428Y-88785095D01*
X119531190Y-88736714D01*
X119773095Y-88736714D01*
X119869857Y-88785095D01*
X119918238Y-88833476D01*
X119966619Y-88930238D01*
X119966619Y-89172142D01*
X119918238Y-89268904D01*
X119869857Y-89317285D01*
X117686666Y-94596857D02*
X117638285Y-94645238D01*
X117493142Y-94693619D01*
X117396380Y-94693619D01*
X117251238Y-94645238D01*
X117154476Y-94548476D01*
X117106095Y-94451714D01*
X117057714Y-94258190D01*
X117057714Y-94113047D01*
X117106095Y-93919523D01*
X117154476Y-93822761D01*
X117251238Y-93726000D01*
X117396380Y-93677619D01*
X117493142Y-93677619D01*
X117638285Y-93726000D01*
X117686666Y-93774380D01*
X118557523Y-93677619D02*
X118364000Y-93677619D01*
X118267238Y-93726000D01*
X118218857Y-93774380D01*
X118122095Y-93919523D01*
X118073714Y-94113047D01*
X118073714Y-94500095D01*
X118122095Y-94596857D01*
X118170476Y-94645238D01*
X118267238Y-94693619D01*
X118460761Y-94693619D01*
X118557523Y-94645238D01*
X118605904Y-94596857D01*
X118654285Y-94500095D01*
X118654285Y-94258190D01*
X118605904Y-94161428D01*
X118557523Y-94113047D01*
X118460761Y-94064666D01*
X118267238Y-94064666D01*
X118170476Y-94113047D01*
X118122095Y-94161428D01*
X118073714Y-94258190D01*
X115273666Y-99676857D02*
X115225285Y-99725238D01*
X115080142Y-99773619D01*
X114983380Y-99773619D01*
X114838238Y-99725238D01*
X114741476Y-99628476D01*
X114693095Y-99531714D01*
X114644714Y-99338190D01*
X114644714Y-99193047D01*
X114693095Y-98999523D01*
X114741476Y-98902761D01*
X114838238Y-98806000D01*
X114983380Y-98757619D01*
X115080142Y-98757619D01*
X115225285Y-98806000D01*
X115273666Y-98854380D01*
X115612333Y-98757619D02*
X116289666Y-98757619D01*
X115854238Y-99773619D01*
X123679857Y-103420333D02*
X123728238Y-103468714D01*
X123776619Y-103613857D01*
X123776619Y-103710619D01*
X123728238Y-103855761D01*
X123631476Y-103952523D01*
X123534714Y-104000904D01*
X123341190Y-104049285D01*
X123196047Y-104049285D01*
X123002523Y-104000904D01*
X122905761Y-103952523D01*
X122809000Y-103855761D01*
X122760619Y-103710619D01*
X122760619Y-103613857D01*
X122809000Y-103468714D01*
X122857380Y-103420333D01*
X123196047Y-102839761D02*
X123147666Y-102936523D01*
X123099285Y-102984904D01*
X123002523Y-103033285D01*
X122954142Y-103033285D01*
X122857380Y-102984904D01*
X122809000Y-102936523D01*
X122760619Y-102839761D01*
X122760619Y-102646238D01*
X122809000Y-102549476D01*
X122857380Y-102501095D01*
X122954142Y-102452714D01*
X123002523Y-102452714D01*
X123099285Y-102501095D01*
X123147666Y-102549476D01*
X123196047Y-102646238D01*
X123196047Y-102839761D01*
X123244428Y-102936523D01*
X123292809Y-102984904D01*
X123389571Y-103033285D01*
X123583095Y-103033285D01*
X123679857Y-102984904D01*
X123728238Y-102936523D01*
X123776619Y-102839761D01*
X123776619Y-102646238D01*
X123728238Y-102549476D01*
X123679857Y-102501095D01*
X123583095Y-102452714D01*
X123389571Y-102452714D01*
X123292809Y-102501095D01*
X123244428Y-102549476D01*
X123196047Y-102646238D01*
X122282857Y-103420333D02*
X122331238Y-103468714D01*
X122379619Y-103613857D01*
X122379619Y-103710619D01*
X122331238Y-103855761D01*
X122234476Y-103952523D01*
X122137714Y-104000904D01*
X121944190Y-104049285D01*
X121799047Y-104049285D01*
X121605523Y-104000904D01*
X121508761Y-103952523D01*
X121412000Y-103855761D01*
X121363619Y-103710619D01*
X121363619Y-103613857D01*
X121412000Y-103468714D01*
X121460380Y-103420333D01*
X122379619Y-102936523D02*
X122379619Y-102743000D01*
X122331238Y-102646238D01*
X122282857Y-102597857D01*
X122137714Y-102501095D01*
X121944190Y-102452714D01*
X121557142Y-102452714D01*
X121460380Y-102501095D01*
X121412000Y-102549476D01*
X121363619Y-102646238D01*
X121363619Y-102839761D01*
X121412000Y-102936523D01*
X121460380Y-102984904D01*
X121557142Y-103033285D01*
X121799047Y-103033285D01*
X121895809Y-102984904D01*
X121944190Y-102936523D01*
X121992571Y-102839761D01*
X121992571Y-102646238D01*
X121944190Y-102549476D01*
X121895809Y-102501095D01*
X121799047Y-102452714D01*
X115043857Y-103523142D02*
X115092238Y-103571523D01*
X115140619Y-103716666D01*
X115140619Y-103813428D01*
X115092238Y-103958571D01*
X114995476Y-104055333D01*
X114898714Y-104103714D01*
X114705190Y-104152095D01*
X114560047Y-104152095D01*
X114366523Y-104103714D01*
X114269761Y-104055333D01*
X114173000Y-103958571D01*
X114124619Y-103813428D01*
X114124619Y-103716666D01*
X114173000Y-103571523D01*
X114221380Y-103523142D01*
X115140619Y-102555523D02*
X115140619Y-103136095D01*
X115140619Y-102845809D02*
X114124619Y-102845809D01*
X114269761Y-102942571D01*
X114366523Y-103039333D01*
X114414904Y-103136095D01*
X114124619Y-101926571D02*
X114124619Y-101829809D01*
X114173000Y-101733047D01*
X114221380Y-101684666D01*
X114318142Y-101636285D01*
X114511666Y-101587904D01*
X114753571Y-101587904D01*
X114947095Y-101636285D01*
X115043857Y-101684666D01*
X115092238Y-101733047D01*
X115140619Y-101829809D01*
X115140619Y-101926571D01*
X115092238Y-102023333D01*
X115043857Y-102071714D01*
X114947095Y-102120095D01*
X114753571Y-102168476D01*
X114511666Y-102168476D01*
X114318142Y-102120095D01*
X114221380Y-102071714D01*
X114173000Y-102023333D01*
X114124619Y-101926571D01*
X116567857Y-103015142D02*
X116616238Y-103063523D01*
X116664619Y-103208666D01*
X116664619Y-103305428D01*
X116616238Y-103450571D01*
X116519476Y-103547333D01*
X116422714Y-103595714D01*
X116229190Y-103644095D01*
X116084047Y-103644095D01*
X115890523Y-103595714D01*
X115793761Y-103547333D01*
X115697000Y-103450571D01*
X115648619Y-103305428D01*
X115648619Y-103208666D01*
X115697000Y-103063523D01*
X115745380Y-103015142D01*
X116664619Y-102047523D02*
X116664619Y-102628095D01*
X116664619Y-102337809D02*
X115648619Y-102337809D01*
X115793761Y-102434571D01*
X115890523Y-102531333D01*
X115938904Y-102628095D01*
X116664619Y-101079904D02*
X116664619Y-101660476D01*
X116664619Y-101370190D02*
X115648619Y-101370190D01*
X115793761Y-101466952D01*
X115890523Y-101563714D01*
X115938904Y-101660476D01*
X118091857Y-103015142D02*
X118140238Y-103063523D01*
X118188619Y-103208666D01*
X118188619Y-103305428D01*
X118140238Y-103450571D01*
X118043476Y-103547333D01*
X117946714Y-103595714D01*
X117753190Y-103644095D01*
X117608047Y-103644095D01*
X117414523Y-103595714D01*
X117317761Y-103547333D01*
X117221000Y-103450571D01*
X117172619Y-103305428D01*
X117172619Y-103208666D01*
X117221000Y-103063523D01*
X117269380Y-103015142D01*
X118188619Y-102047523D02*
X118188619Y-102628095D01*
X118188619Y-102337809D02*
X117172619Y-102337809D01*
X117317761Y-102434571D01*
X117414523Y-102531333D01*
X117462904Y-102628095D01*
X117269380Y-101660476D02*
X117221000Y-101612095D01*
X117172619Y-101515333D01*
X117172619Y-101273428D01*
X117221000Y-101176666D01*
X117269380Y-101128285D01*
X117366142Y-101079904D01*
X117462904Y-101079904D01*
X117608047Y-101128285D01*
X118188619Y-101708857D01*
X118188619Y-101079904D01*
X118472857Y-90696142D02*
X118521238Y-90744523D01*
X118569619Y-90889666D01*
X118569619Y-90986428D01*
X118521238Y-91131571D01*
X118424476Y-91228333D01*
X118327714Y-91276714D01*
X118134190Y-91325095D01*
X117989047Y-91325095D01*
X117795523Y-91276714D01*
X117698761Y-91228333D01*
X117602000Y-91131571D01*
X117553619Y-90986428D01*
X117553619Y-90889666D01*
X117602000Y-90744523D01*
X117650380Y-90696142D01*
X118569619Y-89728523D02*
X118569619Y-90309095D01*
X118569619Y-90018809D02*
X117553619Y-90018809D01*
X117698761Y-90115571D01*
X117795523Y-90212333D01*
X117843904Y-90309095D01*
X117553619Y-89389857D02*
X117553619Y-88760904D01*
X117940666Y-89099571D01*
X117940666Y-88954428D01*
X117989047Y-88857666D01*
X118037428Y-88809285D01*
X118134190Y-88760904D01*
X118376095Y-88760904D01*
X118472857Y-88809285D01*
X118521238Y-88857666D01*
X118569619Y-88954428D01*
X118569619Y-89244714D01*
X118521238Y-89341476D01*
X118472857Y-89389857D01*
X125076857Y-103396142D02*
X125125238Y-103444523D01*
X125173619Y-103589666D01*
X125173619Y-103686428D01*
X125125238Y-103831571D01*
X125028476Y-103928333D01*
X124931714Y-103976714D01*
X124738190Y-104025095D01*
X124593047Y-104025095D01*
X124399523Y-103976714D01*
X124302761Y-103928333D01*
X124206000Y-103831571D01*
X124157619Y-103686428D01*
X124157619Y-103589666D01*
X124206000Y-103444523D01*
X124254380Y-103396142D01*
X125173619Y-102428523D02*
X125173619Y-103009095D01*
X125173619Y-102718809D02*
X124157619Y-102718809D01*
X124302761Y-102815571D01*
X124399523Y-102912333D01*
X124447904Y-103009095D01*
X124496285Y-101557666D02*
X125173619Y-101557666D01*
X124109238Y-101799571D02*
X124834952Y-102041476D01*
X124834952Y-101412523D01*
X127997857Y-90061142D02*
X128046238Y-90109523D01*
X128094619Y-90254666D01*
X128094619Y-90351428D01*
X128046238Y-90496571D01*
X127949476Y-90593333D01*
X127852714Y-90641714D01*
X127659190Y-90690095D01*
X127514047Y-90690095D01*
X127320523Y-90641714D01*
X127223761Y-90593333D01*
X127127000Y-90496571D01*
X127078619Y-90351428D01*
X127078619Y-90254666D01*
X127127000Y-90109523D01*
X127175380Y-90061142D01*
X128094619Y-89093523D02*
X128094619Y-89674095D01*
X128094619Y-89383809D02*
X127078619Y-89383809D01*
X127223761Y-89480571D01*
X127320523Y-89577333D01*
X127368904Y-89674095D01*
X127078619Y-88174285D02*
X127078619Y-88658095D01*
X127562428Y-88706476D01*
X127514047Y-88658095D01*
X127465666Y-88561333D01*
X127465666Y-88319428D01*
X127514047Y-88222666D01*
X127562428Y-88174285D01*
X127659190Y-88125904D01*
X127901095Y-88125904D01*
X127997857Y-88174285D01*
X128046238Y-88222666D01*
X128094619Y-88319428D01*
X128094619Y-88561333D01*
X128046238Y-88658095D01*
X127997857Y-88706476D01*
X122790857Y-90061142D02*
X122839238Y-90109523D01*
X122887619Y-90254666D01*
X122887619Y-90351428D01*
X122839238Y-90496571D01*
X122742476Y-90593333D01*
X122645714Y-90641714D01*
X122452190Y-90690095D01*
X122307047Y-90690095D01*
X122113523Y-90641714D01*
X122016761Y-90593333D01*
X121920000Y-90496571D01*
X121871619Y-90351428D01*
X121871619Y-90254666D01*
X121920000Y-90109523D01*
X121968380Y-90061142D01*
X122887619Y-89093523D02*
X122887619Y-89674095D01*
X122887619Y-89383809D02*
X121871619Y-89383809D01*
X122016761Y-89480571D01*
X122113523Y-89577333D01*
X122161904Y-89674095D01*
X121871619Y-88222666D02*
X121871619Y-88416190D01*
X121920000Y-88512952D01*
X121968380Y-88561333D01*
X122113523Y-88658095D01*
X122307047Y-88706476D01*
X122694095Y-88706476D01*
X122790857Y-88658095D01*
X122839238Y-88609714D01*
X122887619Y-88512952D01*
X122887619Y-88319428D01*
X122839238Y-88222666D01*
X122790857Y-88174285D01*
X122694095Y-88125904D01*
X122452190Y-88125904D01*
X122355428Y-88174285D01*
X122307047Y-88222666D01*
X122258666Y-88319428D01*
X122258666Y-88512952D01*
X122307047Y-88609714D01*
X122355428Y-88658095D01*
X122452190Y-88706476D01*
X142475857Y-81044142D02*
X142524238Y-81092523D01*
X142572619Y-81237666D01*
X142572619Y-81334428D01*
X142524238Y-81479571D01*
X142427476Y-81576333D01*
X142330714Y-81624714D01*
X142137190Y-81673095D01*
X141992047Y-81673095D01*
X141798523Y-81624714D01*
X141701761Y-81576333D01*
X141605000Y-81479571D01*
X141556619Y-81334428D01*
X141556619Y-81237666D01*
X141605000Y-81092523D01*
X141653380Y-81044142D01*
X142572619Y-80076523D02*
X142572619Y-80657095D01*
X142572619Y-80366809D02*
X141556619Y-80366809D01*
X141701761Y-80463571D01*
X141798523Y-80560333D01*
X141846904Y-80657095D01*
X142572619Y-79592714D02*
X142572619Y-79399190D01*
X142524238Y-79302428D01*
X142475857Y-79254047D01*
X142330714Y-79157285D01*
X142137190Y-79108904D01*
X141750142Y-79108904D01*
X141653380Y-79157285D01*
X141605000Y-79205666D01*
X141556619Y-79302428D01*
X141556619Y-79495952D01*
X141605000Y-79592714D01*
X141653380Y-79641095D01*
X141750142Y-79689476D01*
X141992047Y-79689476D01*
X142088809Y-79641095D01*
X142137190Y-79592714D01*
X142185571Y-79495952D01*
X142185571Y-79302428D01*
X142137190Y-79205666D01*
X142088809Y-79157285D01*
X141992047Y-79108904D01*
X176638857Y-95866857D02*
X176590476Y-95915238D01*
X176445333Y-95963619D01*
X176348571Y-95963619D01*
X176203428Y-95915238D01*
X176106666Y-95818476D01*
X176058285Y-95721714D01*
X176009904Y-95528190D01*
X176009904Y-95383047D01*
X176058285Y-95189523D01*
X176106666Y-95092761D01*
X176203428Y-94996000D01*
X176348571Y-94947619D01*
X176445333Y-94947619D01*
X176590476Y-94996000D01*
X176638857Y-95044380D01*
X177025904Y-95044380D02*
X177074285Y-94996000D01*
X177171047Y-94947619D01*
X177412952Y-94947619D01*
X177509714Y-94996000D01*
X177558095Y-95044380D01*
X177606476Y-95141142D01*
X177606476Y-95237904D01*
X177558095Y-95383047D01*
X176977523Y-95963619D01*
X177606476Y-95963619D01*
X178574095Y-95963619D02*
X177993523Y-95963619D01*
X178283809Y-95963619D02*
X178283809Y-94947619D01*
X178187047Y-95092761D01*
X178090285Y-95189523D01*
X177993523Y-95237904D01*
X131299857Y-79901142D02*
X131348238Y-79949523D01*
X131396619Y-80094666D01*
X131396619Y-80191428D01*
X131348238Y-80336571D01*
X131251476Y-80433333D01*
X131154714Y-80481714D01*
X130961190Y-80530095D01*
X130816047Y-80530095D01*
X130622523Y-80481714D01*
X130525761Y-80433333D01*
X130429000Y-80336571D01*
X130380619Y-80191428D01*
X130380619Y-80094666D01*
X130429000Y-79949523D01*
X130477380Y-79901142D01*
X130477380Y-79514095D02*
X130429000Y-79465714D01*
X130380619Y-79368952D01*
X130380619Y-79127047D01*
X130429000Y-79030285D01*
X130477380Y-78981904D01*
X130574142Y-78933523D01*
X130670904Y-78933523D01*
X130816047Y-78981904D01*
X131396619Y-79562476D01*
X131396619Y-78933523D01*
X130380619Y-78594857D02*
X130380619Y-77965904D01*
X130767666Y-78304571D01*
X130767666Y-78159428D01*
X130816047Y-78062666D01*
X130864428Y-78014285D01*
X130961190Y-77965904D01*
X131203095Y-77965904D01*
X131299857Y-78014285D01*
X131348238Y-78062666D01*
X131396619Y-78159428D01*
X131396619Y-78449714D01*
X131348238Y-78546476D01*
X131299857Y-78594857D01*
X132696857Y-78261857D02*
X132648476Y-78310238D01*
X132503333Y-78358619D01*
X132406571Y-78358619D01*
X132261428Y-78310238D01*
X132164666Y-78213476D01*
X132116285Y-78116714D01*
X132067904Y-77923190D01*
X132067904Y-77778047D01*
X132116285Y-77584523D01*
X132164666Y-77487761D01*
X132261428Y-77391000D01*
X132406571Y-77342619D01*
X132503333Y-77342619D01*
X132648476Y-77391000D01*
X132696857Y-77439380D01*
X133083904Y-77439380D02*
X133132285Y-77391000D01*
X133229047Y-77342619D01*
X133470952Y-77342619D01*
X133567714Y-77391000D01*
X133616095Y-77439380D01*
X133664476Y-77536142D01*
X133664476Y-77632904D01*
X133616095Y-77778047D01*
X133035523Y-78358619D01*
X133664476Y-78358619D01*
X134535333Y-77681285D02*
X134535333Y-78358619D01*
X134293428Y-77294238D02*
X134051523Y-78019952D01*
X134680476Y-78019952D01*
X153778857Y-97644857D02*
X153730476Y-97693238D01*
X153585333Y-97741619D01*
X153488571Y-97741619D01*
X153343428Y-97693238D01*
X153246666Y-97596476D01*
X153198285Y-97499714D01*
X153149904Y-97306190D01*
X153149904Y-97161047D01*
X153198285Y-96967523D01*
X153246666Y-96870761D01*
X153343428Y-96774000D01*
X153488571Y-96725619D01*
X153585333Y-96725619D01*
X153730476Y-96774000D01*
X153778857Y-96822380D01*
X154165904Y-96822380D02*
X154214285Y-96774000D01*
X154311047Y-96725619D01*
X154552952Y-96725619D01*
X154649714Y-96774000D01*
X154698095Y-96822380D01*
X154746476Y-96919142D01*
X154746476Y-97015904D01*
X154698095Y-97161047D01*
X154117523Y-97741619D01*
X154746476Y-97741619D01*
X155665714Y-96725619D02*
X155181904Y-96725619D01*
X155133523Y-97209428D01*
X155181904Y-97161047D01*
X155278666Y-97112666D01*
X155520571Y-97112666D01*
X155617333Y-97161047D01*
X155665714Y-97209428D01*
X155714095Y-97306190D01*
X155714095Y-97548095D01*
X155665714Y-97644857D01*
X155617333Y-97693238D01*
X155520571Y-97741619D01*
X155278666Y-97741619D01*
X155181904Y-97693238D01*
X155133523Y-97644857D01*
X153905857Y-99422857D02*
X153857476Y-99471238D01*
X153712333Y-99519619D01*
X153615571Y-99519619D01*
X153470428Y-99471238D01*
X153373666Y-99374476D01*
X153325285Y-99277714D01*
X153276904Y-99084190D01*
X153276904Y-98939047D01*
X153325285Y-98745523D01*
X153373666Y-98648761D01*
X153470428Y-98552000D01*
X153615571Y-98503619D01*
X153712333Y-98503619D01*
X153857476Y-98552000D01*
X153905857Y-98600380D01*
X154292904Y-98600380D02*
X154341285Y-98552000D01*
X154438047Y-98503619D01*
X154679952Y-98503619D01*
X154776714Y-98552000D01*
X154825095Y-98600380D01*
X154873476Y-98697142D01*
X154873476Y-98793904D01*
X154825095Y-98939047D01*
X154244523Y-99519619D01*
X154873476Y-99519619D01*
X155744333Y-98503619D02*
X155550809Y-98503619D01*
X155454047Y-98552000D01*
X155405666Y-98600380D01*
X155308904Y-98745523D01*
X155260523Y-98939047D01*
X155260523Y-99326095D01*
X155308904Y-99422857D01*
X155357285Y-99471238D01*
X155454047Y-99519619D01*
X155647571Y-99519619D01*
X155744333Y-99471238D01*
X155792714Y-99422857D01*
X155841095Y-99326095D01*
X155841095Y-99084190D01*
X155792714Y-98987428D01*
X155744333Y-98939047D01*
X155647571Y-98890666D01*
X155454047Y-98890666D01*
X155357285Y-98939047D01*
X155308904Y-98987428D01*
X155260523Y-99084190D01*
X136887857Y-89897857D02*
X136839476Y-89946238D01*
X136694333Y-89994619D01*
X136597571Y-89994619D01*
X136452428Y-89946238D01*
X136355666Y-89849476D01*
X136307285Y-89752714D01*
X136258904Y-89559190D01*
X136258904Y-89414047D01*
X136307285Y-89220523D01*
X136355666Y-89123761D01*
X136452428Y-89027000D01*
X136597571Y-88978619D01*
X136694333Y-88978619D01*
X136839476Y-89027000D01*
X136887857Y-89075380D01*
X137274904Y-89075380D02*
X137323285Y-89027000D01*
X137420047Y-88978619D01*
X137661952Y-88978619D01*
X137758714Y-89027000D01*
X137807095Y-89075380D01*
X137855476Y-89172142D01*
X137855476Y-89268904D01*
X137807095Y-89414047D01*
X137226523Y-89994619D01*
X137855476Y-89994619D01*
X138194142Y-88978619D02*
X138871476Y-88978619D01*
X138436047Y-89994619D01*
X139173857Y-92691857D02*
X139125476Y-92740238D01*
X138980333Y-92788619D01*
X138883571Y-92788619D01*
X138738428Y-92740238D01*
X138641666Y-92643476D01*
X138593285Y-92546714D01*
X138544904Y-92353190D01*
X138544904Y-92208047D01*
X138593285Y-92014523D01*
X138641666Y-91917761D01*
X138738428Y-91821000D01*
X138883571Y-91772619D01*
X138980333Y-91772619D01*
X139125476Y-91821000D01*
X139173857Y-91869380D01*
X139560904Y-91869380D02*
X139609285Y-91821000D01*
X139706047Y-91772619D01*
X139947952Y-91772619D01*
X140044714Y-91821000D01*
X140093095Y-91869380D01*
X140141476Y-91966142D01*
X140141476Y-92062904D01*
X140093095Y-92208047D01*
X139512523Y-92788619D01*
X140141476Y-92788619D01*
X140722047Y-92208047D02*
X140625285Y-92159666D01*
X140576904Y-92111285D01*
X140528523Y-92014523D01*
X140528523Y-91966142D01*
X140576904Y-91869380D01*
X140625285Y-91821000D01*
X140722047Y-91772619D01*
X140915571Y-91772619D01*
X141012333Y-91821000D01*
X141060714Y-91869380D01*
X141109095Y-91966142D01*
X141109095Y-92014523D01*
X141060714Y-92111285D01*
X141012333Y-92159666D01*
X140915571Y-92208047D01*
X140722047Y-92208047D01*
X140625285Y-92256428D01*
X140576904Y-92304809D01*
X140528523Y-92401571D01*
X140528523Y-92595095D01*
X140576904Y-92691857D01*
X140625285Y-92740238D01*
X140722047Y-92788619D01*
X140915571Y-92788619D01*
X141012333Y-92740238D01*
X141060714Y-92691857D01*
X141109095Y-92595095D01*
X141109095Y-92401571D01*
X141060714Y-92304809D01*
X141012333Y-92256428D01*
X140915571Y-92208047D01*
X136633857Y-98152857D02*
X136585476Y-98201238D01*
X136440333Y-98249619D01*
X136343571Y-98249619D01*
X136198428Y-98201238D01*
X136101666Y-98104476D01*
X136053285Y-98007714D01*
X136004904Y-97814190D01*
X136004904Y-97669047D01*
X136053285Y-97475523D01*
X136101666Y-97378761D01*
X136198428Y-97282000D01*
X136343571Y-97233619D01*
X136440333Y-97233619D01*
X136585476Y-97282000D01*
X136633857Y-97330380D01*
X137020904Y-97330380D02*
X137069285Y-97282000D01*
X137166047Y-97233619D01*
X137407952Y-97233619D01*
X137504714Y-97282000D01*
X137553095Y-97330380D01*
X137601476Y-97427142D01*
X137601476Y-97523904D01*
X137553095Y-97669047D01*
X136972523Y-98249619D01*
X137601476Y-98249619D01*
X138085285Y-98249619D02*
X138278809Y-98249619D01*
X138375571Y-98201238D01*
X138423952Y-98152857D01*
X138520714Y-98007714D01*
X138569095Y-97814190D01*
X138569095Y-97427142D01*
X138520714Y-97330380D01*
X138472333Y-97282000D01*
X138375571Y-97233619D01*
X138182047Y-97233619D01*
X138085285Y-97282000D01*
X138036904Y-97330380D01*
X137988523Y-97427142D01*
X137988523Y-97669047D01*
X138036904Y-97765809D01*
X138085285Y-97814190D01*
X138182047Y-97862571D01*
X138375571Y-97862571D01*
X138472333Y-97814190D01*
X138520714Y-97765809D01*
X138569095Y-97669047D01*
X139173857Y-101327857D02*
X139125476Y-101376238D01*
X138980333Y-101424619D01*
X138883571Y-101424619D01*
X138738428Y-101376238D01*
X138641666Y-101279476D01*
X138593285Y-101182714D01*
X138544904Y-100989190D01*
X138544904Y-100844047D01*
X138593285Y-100650523D01*
X138641666Y-100553761D01*
X138738428Y-100457000D01*
X138883571Y-100408619D01*
X138980333Y-100408619D01*
X139125476Y-100457000D01*
X139173857Y-100505380D01*
X139512523Y-100408619D02*
X140141476Y-100408619D01*
X139802809Y-100795666D01*
X139947952Y-100795666D01*
X140044714Y-100844047D01*
X140093095Y-100892428D01*
X140141476Y-100989190D01*
X140141476Y-101231095D01*
X140093095Y-101327857D01*
X140044714Y-101376238D01*
X139947952Y-101424619D01*
X139657666Y-101424619D01*
X139560904Y-101376238D01*
X139512523Y-101327857D01*
X140770428Y-100408619D02*
X140867190Y-100408619D01*
X140963952Y-100457000D01*
X141012333Y-100505380D01*
X141060714Y-100602142D01*
X141109095Y-100795666D01*
X141109095Y-101037571D01*
X141060714Y-101231095D01*
X141012333Y-101327857D01*
X140963952Y-101376238D01*
X140867190Y-101424619D01*
X140770428Y-101424619D01*
X140673666Y-101376238D01*
X140625285Y-101327857D01*
X140576904Y-101231095D01*
X140528523Y-101037571D01*
X140528523Y-100795666D01*
X140576904Y-100602142D01*
X140625285Y-100505380D01*
X140673666Y-100457000D01*
X140770428Y-100408619D01*
X122210285Y-69039619D02*
X122210285Y-68023619D01*
X122210285Y-68507428D02*
X122790857Y-68507428D01*
X122790857Y-69039619D02*
X122790857Y-68023619D01*
X123855238Y-68942857D02*
X123806857Y-68991238D01*
X123661714Y-69039619D01*
X123564952Y-69039619D01*
X123419809Y-68991238D01*
X123323047Y-68894476D01*
X123274666Y-68797714D01*
X123226285Y-68604190D01*
X123226285Y-68459047D01*
X123274666Y-68265523D01*
X123323047Y-68168761D01*
X123419809Y-68072000D01*
X123564952Y-68023619D01*
X123661714Y-68023619D01*
X123806857Y-68072000D01*
X123855238Y-68120380D01*
X124290666Y-68507428D02*
X124629333Y-68507428D01*
X124774476Y-69039619D02*
X124290666Y-69039619D01*
X124290666Y-68023619D01*
X124774476Y-68023619D01*
X125790476Y-68942857D02*
X125742095Y-68991238D01*
X125596952Y-69039619D01*
X125500190Y-69039619D01*
X125355047Y-68991238D01*
X125258285Y-68894476D01*
X125209904Y-68797714D01*
X125161523Y-68604190D01*
X125161523Y-68459047D01*
X125209904Y-68265523D01*
X125258285Y-68168761D01*
X125355047Y-68072000D01*
X125500190Y-68023619D01*
X125596952Y-68023619D01*
X125742095Y-68072000D01*
X125790476Y-68120380D01*
X126758095Y-69039619D02*
X126177523Y-69039619D01*
X126467809Y-69039619D02*
X126467809Y-68023619D01*
X126371047Y-68168761D01*
X126274285Y-68265523D01*
X126177523Y-68313904D01*
X120927428Y-74814285D02*
X120927428Y-75152952D01*
X121459619Y-75152952D02*
X120443619Y-75152952D01*
X120443619Y-74669142D01*
X120443619Y-74282095D02*
X121266095Y-74282095D01*
X121362857Y-74233714D01*
X121411238Y-74185333D01*
X121459619Y-74088571D01*
X121459619Y-73895047D01*
X121411238Y-73798285D01*
X121362857Y-73749904D01*
X121266095Y-73701523D01*
X120443619Y-73701523D01*
X121411238Y-73266095D02*
X121459619Y-73120952D01*
X121459619Y-72879047D01*
X121411238Y-72782285D01*
X121362857Y-72733904D01*
X121266095Y-72685523D01*
X121169333Y-72685523D01*
X121072571Y-72733904D01*
X121024190Y-72782285D01*
X120975809Y-72879047D01*
X120927428Y-73072571D01*
X120879047Y-73169333D01*
X120830666Y-73217714D01*
X120733904Y-73266095D01*
X120637142Y-73266095D01*
X120540380Y-73217714D01*
X120492000Y-73169333D01*
X120443619Y-73072571D01*
X120443619Y-72830666D01*
X120492000Y-72685523D01*
X120927428Y-72250095D02*
X120927428Y-71911428D01*
X121459619Y-71766285D02*
X121459619Y-72250095D01*
X120443619Y-72250095D01*
X120443619Y-71766285D01*
X121459619Y-70798666D02*
X121459619Y-71379238D01*
X121459619Y-71088952D02*
X120443619Y-71088952D01*
X120588761Y-71185714D01*
X120685523Y-71282476D01*
X120733904Y-71379238D01*
X131269619Y-84243333D02*
X131269619Y-84727142D01*
X130253619Y-84727142D01*
X131269619Y-83372476D02*
X131269619Y-83953047D01*
X131269619Y-83662761D02*
X130253619Y-83662761D01*
X130398761Y-83759523D01*
X130495523Y-83856285D01*
X130543904Y-83953047D01*
D24*
X124756333Y-89513833D02*
X124671666Y-89471500D01*
X124587000Y-89386833D01*
X124460000Y-89259833D01*
X124375333Y-89217500D01*
X124290666Y-89217500D01*
X124333000Y-89429166D02*
X124248333Y-89386833D01*
X124163666Y-89302166D01*
X124121333Y-89132833D01*
X124121333Y-88836500D01*
X124163666Y-88667166D01*
X124248333Y-88582500D01*
X124333000Y-88540166D01*
X124502333Y-88540166D01*
X124587000Y-88582500D01*
X124671666Y-88667166D01*
X124714000Y-88836500D01*
X124714000Y-89132833D01*
X124671666Y-89302166D01*
X124587000Y-89386833D01*
X124502333Y-89429166D01*
X124333000Y-89429166D01*
X125560666Y-89429166D02*
X125052666Y-89429166D01*
X125306666Y-89429166D02*
X125306666Y-88540166D01*
X125222000Y-88667166D01*
X125137333Y-88751833D01*
X125052666Y-88794166D01*
D22*
X127196857Y-85451904D02*
X127120666Y-85413809D01*
X127082571Y-85375714D01*
X127044476Y-85299523D01*
X127044476Y-85070952D01*
X127082571Y-84994761D01*
X127120666Y-84956666D01*
X127196857Y-84918571D01*
X127311142Y-84918571D01*
X127387333Y-84956666D01*
X127425428Y-84994761D01*
X127463523Y-85070952D01*
X127463523Y-85299523D01*
X127425428Y-85375714D01*
X127387333Y-85413809D01*
X127311142Y-85451904D01*
X127196857Y-85451904D01*
D12*
X136355666Y-105234619D02*
X136017000Y-104750809D01*
X135775095Y-105234619D02*
X135775095Y-104218619D01*
X136162142Y-104218619D01*
X136258904Y-104267000D01*
X136307285Y-104315380D01*
X136355666Y-104412142D01*
X136355666Y-104557285D01*
X136307285Y-104654047D01*
X136258904Y-104702428D01*
X136162142Y-104750809D01*
X135775095Y-104750809D01*
X137323285Y-105234619D02*
X136742714Y-105234619D01*
X137033000Y-105234619D02*
X137033000Y-104218619D01*
X136936238Y-104363761D01*
X136839476Y-104460523D01*
X136742714Y-104508904D01*
X115521619Y-89704333D02*
X115037809Y-90043000D01*
X115521619Y-90284904D02*
X114505619Y-90284904D01*
X114505619Y-89897857D01*
X114554000Y-89801095D01*
X114602380Y-89752714D01*
X114699142Y-89704333D01*
X114844285Y-89704333D01*
X114941047Y-89752714D01*
X114989428Y-89801095D01*
X115037809Y-89897857D01*
X115037809Y-90284904D01*
X114602380Y-89317285D02*
X114554000Y-89268904D01*
X114505619Y-89172142D01*
X114505619Y-88930238D01*
X114554000Y-88833476D01*
X114602380Y-88785095D01*
X114699142Y-88736714D01*
X114795904Y-88736714D01*
X114941047Y-88785095D01*
X115521619Y-89365666D01*
X115521619Y-88736714D01*
X121363619Y-89704333D02*
X120879809Y-90043000D01*
X121363619Y-90284904D02*
X120347619Y-90284904D01*
X120347619Y-89897857D01*
X120396000Y-89801095D01*
X120444380Y-89752714D01*
X120541142Y-89704333D01*
X120686285Y-89704333D01*
X120783047Y-89752714D01*
X120831428Y-89801095D01*
X120879809Y-89897857D01*
X120879809Y-90284904D01*
X120347619Y-89365666D02*
X120347619Y-88736714D01*
X120734666Y-89075380D01*
X120734666Y-88930238D01*
X120783047Y-88833476D01*
X120831428Y-88785095D01*
X120928190Y-88736714D01*
X121170095Y-88736714D01*
X121266857Y-88785095D01*
X121315238Y-88833476D01*
X121363619Y-88930238D01*
X121363619Y-89220523D01*
X121315238Y-89317285D01*
X121266857Y-89365666D01*
X119585619Y-103420333D02*
X119101809Y-103759000D01*
X119585619Y-104000904D02*
X118569619Y-104000904D01*
X118569619Y-103613857D01*
X118618000Y-103517095D01*
X118666380Y-103468714D01*
X118763142Y-103420333D01*
X118908285Y-103420333D01*
X119005047Y-103468714D01*
X119053428Y-103517095D01*
X119101809Y-103613857D01*
X119101809Y-104000904D01*
X118908285Y-102549476D02*
X119585619Y-102549476D01*
X118521238Y-102791380D02*
X119246952Y-103033285D01*
X119246952Y-102404333D01*
X120982619Y-103420333D02*
X120498809Y-103759000D01*
X120982619Y-104000904D02*
X119966619Y-104000904D01*
X119966619Y-103613857D01*
X120015000Y-103517095D01*
X120063380Y-103468714D01*
X120160142Y-103420333D01*
X120305285Y-103420333D01*
X120402047Y-103468714D01*
X120450428Y-103517095D01*
X120498809Y-103613857D01*
X120498809Y-104000904D01*
X119966619Y-102501095D02*
X119966619Y-102984904D01*
X120450428Y-103033285D01*
X120402047Y-102984904D01*
X120353666Y-102888142D01*
X120353666Y-102646238D01*
X120402047Y-102549476D01*
X120450428Y-102501095D01*
X120547190Y-102452714D01*
X120789095Y-102452714D01*
X120885857Y-102501095D01*
X120934238Y-102549476D01*
X120982619Y-102646238D01*
X120982619Y-102888142D01*
X120934238Y-102984904D01*
X120885857Y-103033285D01*
X115781666Y-107393619D02*
X115443000Y-106909809D01*
X115201095Y-107393619D02*
X115201095Y-106377619D01*
X115588142Y-106377619D01*
X115684904Y-106426000D01*
X115733285Y-106474380D01*
X115781666Y-106571142D01*
X115781666Y-106716285D01*
X115733285Y-106813047D01*
X115684904Y-106861428D01*
X115588142Y-106909809D01*
X115201095Y-106909809D01*
X116652523Y-106377619D02*
X116459000Y-106377619D01*
X116362238Y-106426000D01*
X116313857Y-106474380D01*
X116217095Y-106619523D01*
X116168714Y-106813047D01*
X116168714Y-107200095D01*
X116217095Y-107296857D01*
X116265476Y-107345238D01*
X116362238Y-107393619D01*
X116555761Y-107393619D01*
X116652523Y-107345238D01*
X116700904Y-107296857D01*
X116749285Y-107200095D01*
X116749285Y-106958190D01*
X116700904Y-106861428D01*
X116652523Y-106813047D01*
X116555761Y-106764666D01*
X116362238Y-106764666D01*
X116265476Y-106813047D01*
X116217095Y-106861428D01*
X116168714Y-106958190D01*
X167875857Y-74373619D02*
X167537190Y-73889809D01*
X167295285Y-74373619D02*
X167295285Y-73357619D01*
X167682333Y-73357619D01*
X167779095Y-73406000D01*
X167827476Y-73454380D01*
X167875857Y-73551142D01*
X167875857Y-73696285D01*
X167827476Y-73793047D01*
X167779095Y-73841428D01*
X167682333Y-73889809D01*
X167295285Y-73889809D01*
X168843476Y-74373619D02*
X168262904Y-74373619D01*
X168553190Y-74373619D02*
X168553190Y-73357619D01*
X168456428Y-73502761D01*
X168359666Y-73599523D01*
X168262904Y-73647904D01*
X169472428Y-73357619D02*
X169569190Y-73357619D01*
X169665952Y-73406000D01*
X169714333Y-73454380D01*
X169762714Y-73551142D01*
X169811095Y-73744666D01*
X169811095Y-73986571D01*
X169762714Y-74180095D01*
X169714333Y-74276857D01*
X169665952Y-74325238D01*
X169569190Y-74373619D01*
X169472428Y-74373619D01*
X169375666Y-74325238D01*
X169327285Y-74276857D01*
X169278904Y-74180095D01*
X169230523Y-73986571D01*
X169230523Y-73744666D01*
X169278904Y-73551142D01*
X169327285Y-73454380D01*
X169375666Y-73406000D01*
X169472428Y-73357619D01*
X174860857Y-74373619D02*
X174522190Y-73889809D01*
X174280285Y-74373619D02*
X174280285Y-73357619D01*
X174667333Y-73357619D01*
X174764095Y-73406000D01*
X174812476Y-73454380D01*
X174860857Y-73551142D01*
X174860857Y-73696285D01*
X174812476Y-73793047D01*
X174764095Y-73841428D01*
X174667333Y-73889809D01*
X174280285Y-73889809D01*
X175828476Y-74373619D02*
X175247904Y-74373619D01*
X175538190Y-74373619D02*
X175538190Y-73357619D01*
X175441428Y-73502761D01*
X175344666Y-73599523D01*
X175247904Y-73647904D01*
X176215523Y-73454380D02*
X176263904Y-73406000D01*
X176360666Y-73357619D01*
X176602571Y-73357619D01*
X176699333Y-73406000D01*
X176747714Y-73454380D01*
X176796095Y-73551142D01*
X176796095Y-73647904D01*
X176747714Y-73793047D01*
X176167142Y-74373619D01*
X176796095Y-74373619D01*
X171812857Y-97360619D02*
X171474190Y-96876809D01*
X171232285Y-97360619D02*
X171232285Y-96344619D01*
X171619333Y-96344619D01*
X171716095Y-96393000D01*
X171764476Y-96441380D01*
X171812857Y-96538142D01*
X171812857Y-96683285D01*
X171764476Y-96780047D01*
X171716095Y-96828428D01*
X171619333Y-96876809D01*
X171232285Y-96876809D01*
X172780476Y-97360619D02*
X172199904Y-97360619D01*
X172490190Y-97360619D02*
X172490190Y-96344619D01*
X172393428Y-96489761D01*
X172296666Y-96586523D01*
X172199904Y-96634904D01*
X173651333Y-96683285D02*
X173651333Y-97360619D01*
X173409428Y-96296238D02*
X173167523Y-97021952D01*
X173796476Y-97021952D01*
X136125857Y-78564619D02*
X135787190Y-78080809D01*
X135545285Y-78564619D02*
X135545285Y-77548619D01*
X135932333Y-77548619D01*
X136029095Y-77597000D01*
X136077476Y-77645380D01*
X136125857Y-77742142D01*
X136125857Y-77887285D01*
X136077476Y-77984047D01*
X136029095Y-78032428D01*
X135932333Y-78080809D01*
X135545285Y-78080809D01*
X137093476Y-78564619D02*
X136512904Y-78564619D01*
X136803190Y-78564619D02*
X136803190Y-77548619D01*
X136706428Y-77693761D01*
X136609666Y-77790523D01*
X136512904Y-77838904D01*
X138012714Y-77548619D02*
X137528904Y-77548619D01*
X137480523Y-78032428D01*
X137528904Y-77984047D01*
X137625666Y-77935666D01*
X137867571Y-77935666D01*
X137964333Y-77984047D01*
X138012714Y-78032428D01*
X138061095Y-78129190D01*
X138061095Y-78371095D01*
X138012714Y-78467857D01*
X137964333Y-78516238D01*
X137867571Y-78564619D01*
X137625666Y-78564619D01*
X137528904Y-78516238D01*
X137480523Y-78467857D01*
X139300857Y-78564619D02*
X138962190Y-78080809D01*
X138720285Y-78564619D02*
X138720285Y-77548619D01*
X139107333Y-77548619D01*
X139204095Y-77597000D01*
X139252476Y-77645380D01*
X139300857Y-77742142D01*
X139300857Y-77887285D01*
X139252476Y-77984047D01*
X139204095Y-78032428D01*
X139107333Y-78080809D01*
X138720285Y-78080809D01*
X140268476Y-78564619D02*
X139687904Y-78564619D01*
X139978190Y-78564619D02*
X139978190Y-77548619D01*
X139881428Y-77693761D01*
X139784666Y-77790523D01*
X139687904Y-77838904D01*
X141139333Y-77548619D02*
X140945809Y-77548619D01*
X140849047Y-77597000D01*
X140800666Y-77645380D01*
X140703904Y-77790523D01*
X140655523Y-77984047D01*
X140655523Y-78371095D01*
X140703904Y-78467857D01*
X140752285Y-78516238D01*
X140849047Y-78564619D01*
X141042571Y-78564619D01*
X141139333Y-78516238D01*
X141187714Y-78467857D01*
X141236095Y-78371095D01*
X141236095Y-78129190D01*
X141187714Y-78032428D01*
X141139333Y-77984047D01*
X141042571Y-77935666D01*
X140849047Y-77935666D01*
X140752285Y-77984047D01*
X140703904Y-78032428D01*
X140655523Y-78129190D01*
X171812857Y-92788619D02*
X171474190Y-92304809D01*
X171232285Y-92788619D02*
X171232285Y-91772619D01*
X171619333Y-91772619D01*
X171716095Y-91821000D01*
X171764476Y-91869380D01*
X171812857Y-91966142D01*
X171812857Y-92111285D01*
X171764476Y-92208047D01*
X171716095Y-92256428D01*
X171619333Y-92304809D01*
X171232285Y-92304809D01*
X172780476Y-92788619D02*
X172199904Y-92788619D01*
X172490190Y-92788619D02*
X172490190Y-91772619D01*
X172393428Y-91917761D01*
X172296666Y-92014523D01*
X172199904Y-92062904D01*
X173119142Y-91772619D02*
X173796476Y-91772619D01*
X173361047Y-92788619D01*
X177527857Y-91772619D02*
X177189190Y-91288809D01*
X176947285Y-91772619D02*
X176947285Y-90756619D01*
X177334333Y-90756619D01*
X177431095Y-90805000D01*
X177479476Y-90853380D01*
X177527857Y-90950142D01*
X177527857Y-91095285D01*
X177479476Y-91192047D01*
X177431095Y-91240428D01*
X177334333Y-91288809D01*
X176947285Y-91288809D01*
X178495476Y-91772619D02*
X177914904Y-91772619D01*
X178205190Y-91772619D02*
X178205190Y-90756619D01*
X178108428Y-90901761D01*
X178011666Y-90998523D01*
X177914904Y-91046904D01*
X179076047Y-91192047D02*
X178979285Y-91143666D01*
X178930904Y-91095285D01*
X178882523Y-90998523D01*
X178882523Y-90950142D01*
X178930904Y-90853380D01*
X178979285Y-90805000D01*
X179076047Y-90756619D01*
X179269571Y-90756619D01*
X179366333Y-90805000D01*
X179414714Y-90853380D01*
X179463095Y-90950142D01*
X179463095Y-90998523D01*
X179414714Y-91095285D01*
X179366333Y-91143666D01*
X179269571Y-91192047D01*
X179076047Y-91192047D01*
X178979285Y-91240428D01*
X178930904Y-91288809D01*
X178882523Y-91385571D01*
X178882523Y-91579095D01*
X178930904Y-91675857D01*
X178979285Y-91724238D01*
X179076047Y-91772619D01*
X179269571Y-91772619D01*
X179366333Y-91724238D01*
X179414714Y-91675857D01*
X179463095Y-91579095D01*
X179463095Y-91385571D01*
X179414714Y-91288809D01*
X179366333Y-91240428D01*
X179269571Y-91192047D01*
X171812857Y-89740619D02*
X171474190Y-89256809D01*
X171232285Y-89740619D02*
X171232285Y-88724619D01*
X171619333Y-88724619D01*
X171716095Y-88773000D01*
X171764476Y-88821380D01*
X171812857Y-88918142D01*
X171812857Y-89063285D01*
X171764476Y-89160047D01*
X171716095Y-89208428D01*
X171619333Y-89256809D01*
X171232285Y-89256809D01*
X172780476Y-89740619D02*
X172199904Y-89740619D01*
X172490190Y-89740619D02*
X172490190Y-88724619D01*
X172393428Y-88869761D01*
X172296666Y-88966523D01*
X172199904Y-89014904D01*
X173264285Y-89740619D02*
X173457809Y-89740619D01*
X173554571Y-89692238D01*
X173602952Y-89643857D01*
X173699714Y-89498714D01*
X173748095Y-89305190D01*
X173748095Y-88918142D01*
X173699714Y-88821380D01*
X173651333Y-88773000D01*
X173554571Y-88724619D01*
X173361047Y-88724619D01*
X173264285Y-88773000D01*
X173215904Y-88821380D01*
X173167523Y-88918142D01*
X173167523Y-89160047D01*
X173215904Y-89256809D01*
X173264285Y-89305190D01*
X173361047Y-89353571D01*
X173554571Y-89353571D01*
X173651333Y-89305190D01*
X173699714Y-89256809D01*
X173748095Y-89160047D01*
X171812857Y-100535619D02*
X171474190Y-100051809D01*
X171232285Y-100535619D02*
X171232285Y-99519619D01*
X171619333Y-99519619D01*
X171716095Y-99568000D01*
X171764476Y-99616380D01*
X171812857Y-99713142D01*
X171812857Y-99858285D01*
X171764476Y-99955047D01*
X171716095Y-100003428D01*
X171619333Y-100051809D01*
X171232285Y-100051809D01*
X172199904Y-99616380D02*
X172248285Y-99568000D01*
X172345047Y-99519619D01*
X172586952Y-99519619D01*
X172683714Y-99568000D01*
X172732095Y-99616380D01*
X172780476Y-99713142D01*
X172780476Y-99809904D01*
X172732095Y-99955047D01*
X172151523Y-100535619D01*
X172780476Y-100535619D01*
X173409428Y-99519619D02*
X173506190Y-99519619D01*
X173602952Y-99568000D01*
X173651333Y-99616380D01*
X173699714Y-99713142D01*
X173748095Y-99906666D01*
X173748095Y-100148571D01*
X173699714Y-100342095D01*
X173651333Y-100438857D01*
X173602952Y-100487238D01*
X173506190Y-100535619D01*
X173409428Y-100535619D01*
X173312666Y-100487238D01*
X173264285Y-100438857D01*
X173215904Y-100342095D01*
X173167523Y-100148571D01*
X173167523Y-99906666D01*
X173215904Y-99713142D01*
X173264285Y-99616380D01*
X173312666Y-99568000D01*
X173409428Y-99519619D01*
X171812857Y-99011619D02*
X171474190Y-98527809D01*
X171232285Y-99011619D02*
X171232285Y-97995619D01*
X171619333Y-97995619D01*
X171716095Y-98044000D01*
X171764476Y-98092380D01*
X171812857Y-98189142D01*
X171812857Y-98334285D01*
X171764476Y-98431047D01*
X171716095Y-98479428D01*
X171619333Y-98527809D01*
X171232285Y-98527809D01*
X172199904Y-98092380D02*
X172248285Y-98044000D01*
X172345047Y-97995619D01*
X172586952Y-97995619D01*
X172683714Y-98044000D01*
X172732095Y-98092380D01*
X172780476Y-98189142D01*
X172780476Y-98285904D01*
X172732095Y-98431047D01*
X172151523Y-99011619D01*
X172780476Y-99011619D01*
X173748095Y-99011619D02*
X173167523Y-99011619D01*
X173457809Y-99011619D02*
X173457809Y-97995619D01*
X173361047Y-98140761D01*
X173264285Y-98237523D01*
X173167523Y-98285904D01*
X108282619Y-77488142D02*
X107798809Y-77826809D01*
X108282619Y-78068714D02*
X107266619Y-78068714D01*
X107266619Y-77681666D01*
X107315000Y-77584904D01*
X107363380Y-77536523D01*
X107460142Y-77488142D01*
X107605285Y-77488142D01*
X107702047Y-77536523D01*
X107750428Y-77584904D01*
X107798809Y-77681666D01*
X107798809Y-78068714D01*
X107363380Y-77101095D02*
X107315000Y-77052714D01*
X107266619Y-76955952D01*
X107266619Y-76714047D01*
X107315000Y-76617285D01*
X107363380Y-76568904D01*
X107460142Y-76520523D01*
X107556904Y-76520523D01*
X107702047Y-76568904D01*
X108282619Y-77149476D01*
X108282619Y-76520523D01*
X107363380Y-76133476D02*
X107315000Y-76085095D01*
X107266619Y-75988333D01*
X107266619Y-75746428D01*
X107315000Y-75649666D01*
X107363380Y-75601285D01*
X107460142Y-75552904D01*
X107556904Y-75552904D01*
X107702047Y-75601285D01*
X108282619Y-76181857D01*
X108282619Y-75552904D01*
X109806619Y-77488142D02*
X109322809Y-77826809D01*
X109806619Y-78068714D02*
X108790619Y-78068714D01*
X108790619Y-77681666D01*
X108839000Y-77584904D01*
X108887380Y-77536523D01*
X108984142Y-77488142D01*
X109129285Y-77488142D01*
X109226047Y-77536523D01*
X109274428Y-77584904D01*
X109322809Y-77681666D01*
X109322809Y-78068714D01*
X108887380Y-77101095D02*
X108839000Y-77052714D01*
X108790619Y-76955952D01*
X108790619Y-76714047D01*
X108839000Y-76617285D01*
X108887380Y-76568904D01*
X108984142Y-76520523D01*
X109080904Y-76520523D01*
X109226047Y-76568904D01*
X109806619Y-77149476D01*
X109806619Y-76520523D01*
X108790619Y-76181857D02*
X108790619Y-75552904D01*
X109177666Y-75891571D01*
X109177666Y-75746428D01*
X109226047Y-75649666D01*
X109274428Y-75601285D01*
X109371190Y-75552904D01*
X109613095Y-75552904D01*
X109709857Y-75601285D01*
X109758238Y-75649666D01*
X109806619Y-75746428D01*
X109806619Y-76036714D01*
X109758238Y-76133476D01*
X109709857Y-76181857D01*
X111330619Y-77488142D02*
X110846809Y-77826809D01*
X111330619Y-78068714D02*
X110314619Y-78068714D01*
X110314619Y-77681666D01*
X110363000Y-77584904D01*
X110411380Y-77536523D01*
X110508142Y-77488142D01*
X110653285Y-77488142D01*
X110750047Y-77536523D01*
X110798428Y-77584904D01*
X110846809Y-77681666D01*
X110846809Y-78068714D01*
X110411380Y-77101095D02*
X110363000Y-77052714D01*
X110314619Y-76955952D01*
X110314619Y-76714047D01*
X110363000Y-76617285D01*
X110411380Y-76568904D01*
X110508142Y-76520523D01*
X110604904Y-76520523D01*
X110750047Y-76568904D01*
X111330619Y-77149476D01*
X111330619Y-76520523D01*
X110653285Y-75649666D02*
X111330619Y-75649666D01*
X110266238Y-75891571D02*
X110991952Y-76133476D01*
X110991952Y-75504523D01*
X112854619Y-77488142D02*
X112370809Y-77826809D01*
X112854619Y-78068714D02*
X111838619Y-78068714D01*
X111838619Y-77681666D01*
X111887000Y-77584904D01*
X111935380Y-77536523D01*
X112032142Y-77488142D01*
X112177285Y-77488142D01*
X112274047Y-77536523D01*
X112322428Y-77584904D01*
X112370809Y-77681666D01*
X112370809Y-78068714D01*
X111935380Y-77101095D02*
X111887000Y-77052714D01*
X111838619Y-76955952D01*
X111838619Y-76714047D01*
X111887000Y-76617285D01*
X111935380Y-76568904D01*
X112032142Y-76520523D01*
X112128904Y-76520523D01*
X112274047Y-76568904D01*
X112854619Y-77149476D01*
X112854619Y-76520523D01*
X111838619Y-75601285D02*
X111838619Y-76085095D01*
X112322428Y-76133476D01*
X112274047Y-76085095D01*
X112225666Y-75988333D01*
X112225666Y-75746428D01*
X112274047Y-75649666D01*
X112322428Y-75601285D01*
X112419190Y-75552904D01*
X112661095Y-75552904D01*
X112757857Y-75601285D01*
X112806238Y-75649666D01*
X112854619Y-75746428D01*
X112854619Y-75988333D01*
X112806238Y-76085095D01*
X112757857Y-76133476D01*
X114378619Y-77488142D02*
X113894809Y-77826809D01*
X114378619Y-78068714D02*
X113362619Y-78068714D01*
X113362619Y-77681666D01*
X113411000Y-77584904D01*
X113459380Y-77536523D01*
X113556142Y-77488142D01*
X113701285Y-77488142D01*
X113798047Y-77536523D01*
X113846428Y-77584904D01*
X113894809Y-77681666D01*
X113894809Y-78068714D01*
X113459380Y-77101095D02*
X113411000Y-77052714D01*
X113362619Y-76955952D01*
X113362619Y-76714047D01*
X113411000Y-76617285D01*
X113459380Y-76568904D01*
X113556142Y-76520523D01*
X113652904Y-76520523D01*
X113798047Y-76568904D01*
X114378619Y-77149476D01*
X114378619Y-76520523D01*
X113362619Y-75649666D02*
X113362619Y-75843190D01*
X113411000Y-75939952D01*
X113459380Y-75988333D01*
X113604523Y-76085095D01*
X113798047Y-76133476D01*
X114185095Y-76133476D01*
X114281857Y-76085095D01*
X114330238Y-76036714D01*
X114378619Y-75939952D01*
X114378619Y-75746428D01*
X114330238Y-75649666D01*
X114281857Y-75601285D01*
X114185095Y-75552904D01*
X113943190Y-75552904D01*
X113846428Y-75601285D01*
X113798047Y-75649666D01*
X113749666Y-75746428D01*
X113749666Y-75939952D01*
X113798047Y-76036714D01*
X113846428Y-76085095D01*
X113943190Y-76133476D01*
X115902619Y-77488142D02*
X115418809Y-77826809D01*
X115902619Y-78068714D02*
X114886619Y-78068714D01*
X114886619Y-77681666D01*
X114935000Y-77584904D01*
X114983380Y-77536523D01*
X115080142Y-77488142D01*
X115225285Y-77488142D01*
X115322047Y-77536523D01*
X115370428Y-77584904D01*
X115418809Y-77681666D01*
X115418809Y-78068714D01*
X114983380Y-77101095D02*
X114935000Y-77052714D01*
X114886619Y-76955952D01*
X114886619Y-76714047D01*
X114935000Y-76617285D01*
X114983380Y-76568904D01*
X115080142Y-76520523D01*
X115176904Y-76520523D01*
X115322047Y-76568904D01*
X115902619Y-77149476D01*
X115902619Y-76520523D01*
X114886619Y-76181857D02*
X114886619Y-75504523D01*
X115902619Y-75939952D01*
X117299619Y-77488142D02*
X116815809Y-77826809D01*
X117299619Y-78068714D02*
X116283619Y-78068714D01*
X116283619Y-77681666D01*
X116332000Y-77584904D01*
X116380380Y-77536523D01*
X116477142Y-77488142D01*
X116622285Y-77488142D01*
X116719047Y-77536523D01*
X116767428Y-77584904D01*
X116815809Y-77681666D01*
X116815809Y-78068714D01*
X116380380Y-77101095D02*
X116332000Y-77052714D01*
X116283619Y-76955952D01*
X116283619Y-76714047D01*
X116332000Y-76617285D01*
X116380380Y-76568904D01*
X116477142Y-76520523D01*
X116573904Y-76520523D01*
X116719047Y-76568904D01*
X117299619Y-77149476D01*
X117299619Y-76520523D01*
X116719047Y-75939952D02*
X116670666Y-76036714D01*
X116622285Y-76085095D01*
X116525523Y-76133476D01*
X116477142Y-76133476D01*
X116380380Y-76085095D01*
X116332000Y-76036714D01*
X116283619Y-75939952D01*
X116283619Y-75746428D01*
X116332000Y-75649666D01*
X116380380Y-75601285D01*
X116477142Y-75552904D01*
X116525523Y-75552904D01*
X116622285Y-75601285D01*
X116670666Y-75649666D01*
X116719047Y-75746428D01*
X116719047Y-75939952D01*
X116767428Y-76036714D01*
X116815809Y-76085095D01*
X116912571Y-76133476D01*
X117106095Y-76133476D01*
X117202857Y-76085095D01*
X117251238Y-76036714D01*
X117299619Y-75939952D01*
X117299619Y-75746428D01*
X117251238Y-75649666D01*
X117202857Y-75601285D01*
X117106095Y-75552904D01*
X116912571Y-75552904D01*
X116815809Y-75601285D01*
X116767428Y-75649666D01*
X116719047Y-75746428D01*
X118950619Y-77488142D02*
X118466809Y-77826809D01*
X118950619Y-78068714D02*
X117934619Y-78068714D01*
X117934619Y-77681666D01*
X117983000Y-77584904D01*
X118031380Y-77536523D01*
X118128142Y-77488142D01*
X118273285Y-77488142D01*
X118370047Y-77536523D01*
X118418428Y-77584904D01*
X118466809Y-77681666D01*
X118466809Y-78068714D01*
X118031380Y-77101095D02*
X117983000Y-77052714D01*
X117934619Y-76955952D01*
X117934619Y-76714047D01*
X117983000Y-76617285D01*
X118031380Y-76568904D01*
X118128142Y-76520523D01*
X118224904Y-76520523D01*
X118370047Y-76568904D01*
X118950619Y-77149476D01*
X118950619Y-76520523D01*
X118950619Y-76036714D02*
X118950619Y-75843190D01*
X118902238Y-75746428D01*
X118853857Y-75698047D01*
X118708714Y-75601285D01*
X118515190Y-75552904D01*
X118128142Y-75552904D01*
X118031380Y-75601285D01*
X117983000Y-75649666D01*
X117934619Y-75746428D01*
X117934619Y-75939952D01*
X117983000Y-76036714D01*
X118031380Y-76085095D01*
X118128142Y-76133476D01*
X118370047Y-76133476D01*
X118466809Y-76085095D01*
X118515190Y-76036714D01*
X118563571Y-75939952D01*
X118563571Y-75746428D01*
X118515190Y-75649666D01*
X118466809Y-75601285D01*
X118370047Y-75552904D01*
X139173857Y-96217619D02*
X138835190Y-95733809D01*
X138593285Y-96217619D02*
X138593285Y-95201619D01*
X138980333Y-95201619D01*
X139077095Y-95250000D01*
X139125476Y-95298380D01*
X139173857Y-95395142D01*
X139173857Y-95540285D01*
X139125476Y-95637047D01*
X139077095Y-95685428D01*
X138980333Y-95733809D01*
X138593285Y-95733809D01*
X139512523Y-95201619D02*
X140141476Y-95201619D01*
X139802809Y-95588666D01*
X139947952Y-95588666D01*
X140044714Y-95637047D01*
X140093095Y-95685428D01*
X140141476Y-95782190D01*
X140141476Y-96024095D01*
X140093095Y-96120857D01*
X140044714Y-96169238D01*
X139947952Y-96217619D01*
X139657666Y-96217619D01*
X139560904Y-96169238D01*
X139512523Y-96120857D01*
X141109095Y-96217619D02*
X140528523Y-96217619D01*
X140818809Y-96217619D02*
X140818809Y-95201619D01*
X140722047Y-95346761D01*
X140625285Y-95443523D01*
X140528523Y-95491904D01*
X153905857Y-101170619D02*
X153567190Y-100686809D01*
X153325285Y-101170619D02*
X153325285Y-100154619D01*
X153712333Y-100154619D01*
X153809095Y-100203000D01*
X153857476Y-100251380D01*
X153905857Y-100348142D01*
X153905857Y-100493285D01*
X153857476Y-100590047D01*
X153809095Y-100638428D01*
X153712333Y-100686809D01*
X153325285Y-100686809D01*
X154244523Y-100154619D02*
X154873476Y-100154619D01*
X154534809Y-100541666D01*
X154679952Y-100541666D01*
X154776714Y-100590047D01*
X154825095Y-100638428D01*
X154873476Y-100735190D01*
X154873476Y-100977095D01*
X154825095Y-101073857D01*
X154776714Y-101122238D01*
X154679952Y-101170619D01*
X154389666Y-101170619D01*
X154292904Y-101122238D01*
X154244523Y-101073857D01*
X155260523Y-100251380D02*
X155308904Y-100203000D01*
X155405666Y-100154619D01*
X155647571Y-100154619D01*
X155744333Y-100203000D01*
X155792714Y-100251380D01*
X155841095Y-100348142D01*
X155841095Y-100444904D01*
X155792714Y-100590047D01*
X155212142Y-101170619D01*
X155841095Y-101170619D01*
X132031619Y-98539904D02*
X131547809Y-98878571D01*
X132031619Y-99120476D02*
X131015619Y-99120476D01*
X131015619Y-98733428D01*
X131064000Y-98636666D01*
X131112380Y-98588285D01*
X131209142Y-98539904D01*
X131354285Y-98539904D01*
X131451047Y-98588285D01*
X131499428Y-98636666D01*
X131547809Y-98733428D01*
X131547809Y-99120476D01*
X132031619Y-98104476D02*
X131015619Y-98104476D01*
X131741333Y-97765809D01*
X131015619Y-97427142D01*
X132031619Y-97427142D01*
X132031619Y-96411142D02*
X132031619Y-96991714D01*
X132031619Y-96701428D02*
X131015619Y-96701428D01*
X131160761Y-96798190D01*
X131257523Y-96894952D01*
X131305904Y-96991714D01*
X132031619Y-94094904D02*
X131547809Y-94433571D01*
X132031619Y-94675476D02*
X131015619Y-94675476D01*
X131015619Y-94288428D01*
X131064000Y-94191666D01*
X131112380Y-94143285D01*
X131209142Y-94094904D01*
X131354285Y-94094904D01*
X131451047Y-94143285D01*
X131499428Y-94191666D01*
X131547809Y-94288428D01*
X131547809Y-94675476D01*
X132031619Y-93659476D02*
X131015619Y-93659476D01*
X131741333Y-93320809D01*
X131015619Y-92982142D01*
X132031619Y-92982142D01*
X131112380Y-92546714D02*
X131064000Y-92498333D01*
X131015619Y-92401571D01*
X131015619Y-92159666D01*
X131064000Y-92062904D01*
X131112380Y-92014523D01*
X131209142Y-91966142D01*
X131305904Y-91966142D01*
X131451047Y-92014523D01*
X132031619Y-92595095D01*
X132031619Y-91966142D01*
D10*
X107169857Y-117983000D02*
X107242428Y-117765285D01*
X107242428Y-117402428D01*
X107169857Y-117257285D01*
X107097285Y-117184714D01*
X106952142Y-117112142D01*
X106807000Y-117112142D01*
X106661857Y-117184714D01*
X106589285Y-117257285D01*
X106516714Y-117402428D01*
X106444142Y-117692714D01*
X106371571Y-117837857D01*
X106299000Y-117910428D01*
X106153857Y-117983000D01*
X106008714Y-117983000D01*
X105863571Y-117910428D01*
X105791000Y-117837857D01*
X105718428Y-117692714D01*
X105718428Y-117329857D01*
X105791000Y-117112142D01*
X105718428Y-116604142D02*
X107242428Y-116241285D01*
X106153857Y-115951000D01*
X107242428Y-115660714D01*
X105718428Y-115297857D01*
X107242428Y-114717285D02*
X105718428Y-114717285D01*
X105718428Y-114354428D01*
X105791000Y-114136714D01*
X105936142Y-113991571D01*
X106081285Y-113919000D01*
X106371571Y-113846428D01*
X106589285Y-113846428D01*
X106879571Y-113919000D01*
X107024714Y-113991571D01*
X107169857Y-114136714D01*
X107242428Y-114354428D01*
X107242428Y-114717285D01*
X107242428Y-112395000D02*
X107242428Y-113265857D01*
X107242428Y-112830428D02*
X105718428Y-112830428D01*
X105936142Y-112975571D01*
X106081285Y-113120714D01*
X106153857Y-113265857D01*
D12*
X134226904Y-106758619D02*
X134226904Y-107581095D01*
X134275285Y-107677857D01*
X134323666Y-107726238D01*
X134420428Y-107774619D01*
X134613952Y-107774619D01*
X134710714Y-107726238D01*
X134759095Y-107677857D01*
X134807476Y-107581095D01*
X134807476Y-106758619D01*
X135823476Y-107774619D02*
X135242904Y-107774619D01*
X135533190Y-107774619D02*
X135533190Y-106758619D01*
X135436428Y-106903761D01*
X135339666Y-107000523D01*
X135242904Y-107048904D01*
D25*
X130776738Y-105286023D02*
X130746500Y-105255785D01*
X130716261Y-105195309D01*
X130716261Y-105044119D01*
X130746500Y-104983642D01*
X130776738Y-104953404D01*
X130837214Y-104923166D01*
X130897690Y-104923166D01*
X130988404Y-104953404D01*
X131351261Y-105316261D01*
X131351261Y-104923166D01*
X130716261Y-104530071D02*
X130716261Y-104469595D01*
X130746500Y-104409119D01*
X130776738Y-104378880D01*
X130837214Y-104348642D01*
X130958166Y-104318404D01*
X131109357Y-104318404D01*
X131230309Y-104348642D01*
X131290785Y-104378880D01*
X131321023Y-104409119D01*
X131351261Y-104469595D01*
X131351261Y-104530071D01*
X131321023Y-104590547D01*
X131290785Y-104620785D01*
X131230309Y-104651023D01*
X131109357Y-104681261D01*
X130958166Y-104681261D01*
X130837214Y-104651023D01*
X130776738Y-104620785D01*
X130746500Y-104590547D01*
X130716261Y-104530071D01*
X130988404Y-103955547D02*
X130958166Y-104016023D01*
X130927928Y-104046261D01*
X130867452Y-104076500D01*
X130837214Y-104076500D01*
X130776738Y-104046261D01*
X130746500Y-104016023D01*
X130716261Y-103955547D01*
X130716261Y-103834595D01*
X130746500Y-103774119D01*
X130776738Y-103743880D01*
X130837214Y-103713642D01*
X130867452Y-103713642D01*
X130927928Y-103743880D01*
X130958166Y-103774119D01*
X130988404Y-103834595D01*
X130988404Y-103955547D01*
X131018642Y-104016023D01*
X131048880Y-104046261D01*
X131109357Y-104076500D01*
X131230309Y-104076500D01*
X131290785Y-104046261D01*
X131321023Y-104016023D01*
X131351261Y-103955547D01*
X131351261Y-103834595D01*
X131321023Y-103774119D01*
X131290785Y-103743880D01*
X131230309Y-103713642D01*
X131109357Y-103713642D01*
X131048880Y-103743880D01*
X131018642Y-103774119D01*
X130988404Y-103834595D01*
X131351261Y-103441500D02*
X130927928Y-103441500D01*
X130988404Y-103441500D02*
X130958166Y-103411261D01*
X130927928Y-103350785D01*
X130927928Y-103260071D01*
X130958166Y-103199595D01*
X131018642Y-103169357D01*
X131351261Y-103169357D01*
X131018642Y-103169357D02*
X130958166Y-103139119D01*
X130927928Y-103078642D01*
X130927928Y-102987928D01*
X130958166Y-102927452D01*
X131018642Y-102897214D01*
X131351261Y-102897214D01*
X131351261Y-102594833D02*
X130927928Y-102594833D01*
X130716261Y-102594833D02*
X130746500Y-102625071D01*
X130776738Y-102594833D01*
X130746500Y-102564595D01*
X130716261Y-102594833D01*
X130776738Y-102594833D01*
X131351261Y-102201738D02*
X131321023Y-102262214D01*
X131260547Y-102292452D01*
X130716261Y-102292452D01*
D26*
X130205238Y-105948238D02*
X130253619Y-105803095D01*
X130253619Y-105561190D01*
X130205238Y-105464428D01*
X130156857Y-105416047D01*
X130060095Y-105367666D01*
X129963333Y-105367666D01*
X129866571Y-105416047D01*
X129818190Y-105464428D01*
X129769809Y-105561190D01*
X129721428Y-105754714D01*
X129673047Y-105851476D01*
X129624666Y-105899857D01*
X129527904Y-105948238D01*
X129431142Y-105948238D01*
X129334380Y-105899857D01*
X129286000Y-105851476D01*
X129237619Y-105754714D01*
X129237619Y-105512809D01*
X129286000Y-105367666D01*
X129237619Y-104738714D02*
X129237619Y-104545190D01*
X129286000Y-104448428D01*
X129382761Y-104351666D01*
X129576285Y-104303285D01*
X129914952Y-104303285D01*
X130108476Y-104351666D01*
X130205238Y-104448428D01*
X130253619Y-104545190D01*
X130253619Y-104738714D01*
X130205238Y-104835476D01*
X130108476Y-104932238D01*
X129914952Y-104980619D01*
X129576285Y-104980619D01*
X129382761Y-104932238D01*
X129286000Y-104835476D01*
X129237619Y-104738714D01*
X129866571Y-103867857D02*
X129866571Y-103093761D01*
X129673047Y-102464809D02*
X129624666Y-102561571D01*
X129576285Y-102609952D01*
X129479523Y-102658333D01*
X129431142Y-102658333D01*
X129334380Y-102609952D01*
X129286000Y-102561571D01*
X129237619Y-102464809D01*
X129237619Y-102271285D01*
X129286000Y-102174523D01*
X129334380Y-102126142D01*
X129431142Y-102077761D01*
X129479523Y-102077761D01*
X129576285Y-102126142D01*
X129624666Y-102174523D01*
X129673047Y-102271285D01*
X129673047Y-102464809D01*
X129721428Y-102561571D01*
X129769809Y-102609952D01*
X129866571Y-102658333D01*
X130060095Y-102658333D01*
X130156857Y-102609952D01*
X130205238Y-102561571D01*
X130253619Y-102464809D01*
X130253619Y-102271285D01*
X130205238Y-102174523D01*
X130156857Y-102126142D01*
X130060095Y-102077761D01*
X129866571Y-102077761D01*
X129769809Y-102126142D01*
X129721428Y-102174523D01*
X129673047Y-102271285D01*
D12*
X128003904Y-99773619D02*
X128003904Y-100596095D01*
X128052285Y-100692857D01*
X128100666Y-100741238D01*
X128197428Y-100789619D01*
X128390952Y-100789619D01*
X128487714Y-100741238D01*
X128536095Y-100692857D01*
X128584476Y-100596095D01*
X128584476Y-99773619D01*
X129019904Y-99870380D02*
X129068285Y-99822000D01*
X129165047Y-99773619D01*
X129406952Y-99773619D01*
X129503714Y-99822000D01*
X129552095Y-99870380D01*
X129600476Y-99967142D01*
X129600476Y-100063904D01*
X129552095Y-100209047D01*
X128971523Y-100789619D01*
X129600476Y-100789619D01*
X136766904Y-83898619D02*
X136766904Y-84721095D01*
X136815285Y-84817857D01*
X136863666Y-84866238D01*
X136960428Y-84914619D01*
X137153952Y-84914619D01*
X137250714Y-84866238D01*
X137299095Y-84817857D01*
X137347476Y-84721095D01*
X137347476Y-83898619D01*
X137734523Y-83898619D02*
X138363476Y-83898619D01*
X138024809Y-84285666D01*
X138169952Y-84285666D01*
X138266714Y-84334047D01*
X138315095Y-84382428D01*
X138363476Y-84479190D01*
X138363476Y-84721095D01*
X138315095Y-84817857D01*
X138266714Y-84866238D01*
X138169952Y-84914619D01*
X137879666Y-84914619D01*
X137782904Y-84866238D01*
X137734523Y-84817857D01*
D27*
X170180095Y-87082380D02*
X170180095Y-87891904D01*
X170227714Y-87987142D01*
X170275333Y-88034761D01*
X170370571Y-88082380D01*
X170561047Y-88082380D01*
X170656285Y-88034761D01*
X170703904Y-87987142D01*
X170751523Y-87891904D01*
X170751523Y-87082380D01*
X171656285Y-87415714D02*
X171656285Y-88082380D01*
X171418190Y-87034761D02*
X171180095Y-87749047D01*
X171799142Y-87749047D01*
D12*
X145783904Y-89994619D02*
X145783904Y-90817095D01*
X145832285Y-90913857D01*
X145880666Y-90962238D01*
X145977428Y-91010619D01*
X146170952Y-91010619D01*
X146267714Y-90962238D01*
X146316095Y-90913857D01*
X146364476Y-90817095D01*
X146364476Y-89994619D01*
X147332095Y-89994619D02*
X146848285Y-89994619D01*
X146799904Y-90478428D01*
X146848285Y-90430047D01*
X146945047Y-90381666D01*
X147186952Y-90381666D01*
X147283714Y-90430047D01*
X147332095Y-90478428D01*
X147380476Y-90575190D01*
X147380476Y-90817095D01*
X147332095Y-90913857D01*
X147283714Y-90962238D01*
X147186952Y-91010619D01*
X146945047Y-91010619D01*
X146848285Y-90962238D01*
X146799904Y-90913857D01*
D28*
X145303142Y-89182857D02*
X145303142Y-88668571D01*
X146203142Y-88925714D02*
X145303142Y-88925714D01*
X146160285Y-88411428D02*
X146203142Y-88282857D01*
X146203142Y-88068571D01*
X146160285Y-87982857D01*
X146117428Y-87940000D01*
X146031714Y-87897142D01*
X145946000Y-87897142D01*
X145860285Y-87940000D01*
X145817428Y-87982857D01*
X145774571Y-88068571D01*
X145731714Y-88240000D01*
X145688857Y-88325714D01*
X145646000Y-88368571D01*
X145560285Y-88411428D01*
X145474571Y-88411428D01*
X145388857Y-88368571D01*
X145346000Y-88325714D01*
X145303142Y-88240000D01*
X145303142Y-88025714D01*
X145346000Y-87897142D01*
X146160285Y-87554285D02*
X146203142Y-87425714D01*
X146203142Y-87211428D01*
X146160285Y-87125714D01*
X146117428Y-87082857D01*
X146031714Y-87040000D01*
X145946000Y-87040000D01*
X145860285Y-87082857D01*
X145817428Y-87125714D01*
X145774571Y-87211428D01*
X145731714Y-87382857D01*
X145688857Y-87468571D01*
X145646000Y-87511428D01*
X145560285Y-87554285D01*
X145474571Y-87554285D01*
X145388857Y-87511428D01*
X145346000Y-87468571D01*
X145303142Y-87382857D01*
X145303142Y-87168571D01*
X145346000Y-87040000D01*
X145303142Y-86482857D02*
X145303142Y-86311428D01*
X145346000Y-86225714D01*
X145431714Y-86140000D01*
X145603142Y-86097142D01*
X145903142Y-86097142D01*
X146074571Y-86140000D01*
X146160285Y-86225714D01*
X146203142Y-86311428D01*
X146203142Y-86482857D01*
X146160285Y-86568571D01*
X146074571Y-86654285D01*
X145903142Y-86697142D01*
X145603142Y-86697142D01*
X145431714Y-86654285D01*
X145346000Y-86568571D01*
X145303142Y-86482857D01*
X146203142Y-85711428D02*
X145303142Y-85711428D01*
X145303142Y-85368571D01*
X145346000Y-85282857D01*
X145388857Y-85240000D01*
X145474571Y-85197142D01*
X145603142Y-85197142D01*
X145688857Y-85240000D01*
X145731714Y-85282857D01*
X145774571Y-85368571D01*
X145774571Y-85711428D01*
X145388857Y-84854285D02*
X145346000Y-84811428D01*
X145303142Y-84725714D01*
X145303142Y-84511428D01*
X145346000Y-84425714D01*
X145388857Y-84382857D01*
X145474571Y-84340000D01*
X145560285Y-84340000D01*
X145688857Y-84382857D01*
X146203142Y-84897142D01*
X146203142Y-84340000D01*
X145303142Y-83782857D02*
X145303142Y-83697142D01*
X145346000Y-83611428D01*
X145388857Y-83568571D01*
X145474571Y-83525714D01*
X145646000Y-83482857D01*
X145860285Y-83482857D01*
X146031714Y-83525714D01*
X146117428Y-83568571D01*
X146160285Y-83611428D01*
X146203142Y-83697142D01*
X146203142Y-83782857D01*
X146160285Y-83868571D01*
X146117428Y-83911428D01*
X146031714Y-83954285D01*
X145860285Y-83997142D01*
X145646000Y-83997142D01*
X145474571Y-83954285D01*
X145388857Y-83911428D01*
X145346000Y-83868571D01*
X145303142Y-83782857D01*
D12*
X148668619Y-90242571D02*
X148620238Y-90339333D01*
X148571857Y-90387714D01*
X148475095Y-90436095D01*
X148184809Y-90436095D01*
X148088047Y-90387714D01*
X148039666Y-90339333D01*
X147991285Y-90242571D01*
X147991285Y-90097428D01*
X148039666Y-90000666D01*
X148088047Y-89952285D01*
X148184809Y-89903904D01*
X148475095Y-89903904D01*
X148571857Y-89952285D01*
X148620238Y-90000666D01*
X148668619Y-90097428D01*
X148668619Y-90242571D01*
X145783904Y-98249619D02*
X145783904Y-99072095D01*
X145832285Y-99168857D01*
X145880666Y-99217238D01*
X145977428Y-99265619D01*
X146170952Y-99265619D01*
X146267714Y-99217238D01*
X146316095Y-99168857D01*
X146364476Y-99072095D01*
X146364476Y-98249619D01*
X147283714Y-98249619D02*
X147090190Y-98249619D01*
X146993428Y-98298000D01*
X146945047Y-98346380D01*
X146848285Y-98491523D01*
X146799904Y-98685047D01*
X146799904Y-99072095D01*
X146848285Y-99168857D01*
X146896666Y-99217238D01*
X146993428Y-99265619D01*
X147186952Y-99265619D01*
X147283714Y-99217238D01*
X147332095Y-99168857D01*
X147380476Y-99072095D01*
X147380476Y-98830190D01*
X147332095Y-98733428D01*
X147283714Y-98685047D01*
X147186952Y-98636666D01*
X146993428Y-98636666D01*
X146896666Y-98685047D01*
X146848285Y-98733428D01*
X146799904Y-98830190D01*
D28*
X144795142Y-97437857D02*
X144795142Y-96923571D01*
X145695142Y-97180714D02*
X144795142Y-97180714D01*
X145652285Y-96666428D02*
X145695142Y-96537857D01*
X145695142Y-96323571D01*
X145652285Y-96237857D01*
X145609428Y-96195000D01*
X145523714Y-96152142D01*
X145438000Y-96152142D01*
X145352285Y-96195000D01*
X145309428Y-96237857D01*
X145266571Y-96323571D01*
X145223714Y-96495000D01*
X145180857Y-96580714D01*
X145138000Y-96623571D01*
X145052285Y-96666428D01*
X144966571Y-96666428D01*
X144880857Y-96623571D01*
X144838000Y-96580714D01*
X144795142Y-96495000D01*
X144795142Y-96280714D01*
X144838000Y-96152142D01*
X145652285Y-95809285D02*
X145695142Y-95680714D01*
X145695142Y-95466428D01*
X145652285Y-95380714D01*
X145609428Y-95337857D01*
X145523714Y-95295000D01*
X145438000Y-95295000D01*
X145352285Y-95337857D01*
X145309428Y-95380714D01*
X145266571Y-95466428D01*
X145223714Y-95637857D01*
X145180857Y-95723571D01*
X145138000Y-95766428D01*
X145052285Y-95809285D01*
X144966571Y-95809285D01*
X144880857Y-95766428D01*
X144838000Y-95723571D01*
X144795142Y-95637857D01*
X144795142Y-95423571D01*
X144838000Y-95295000D01*
X144795142Y-94737857D02*
X144795142Y-94566428D01*
X144838000Y-94480714D01*
X144923714Y-94395000D01*
X145095142Y-94352142D01*
X145395142Y-94352142D01*
X145566571Y-94395000D01*
X145652285Y-94480714D01*
X145695142Y-94566428D01*
X145695142Y-94737857D01*
X145652285Y-94823571D01*
X145566571Y-94909285D01*
X145395142Y-94952142D01*
X145095142Y-94952142D01*
X144923714Y-94909285D01*
X144838000Y-94823571D01*
X144795142Y-94737857D01*
X145695142Y-93966428D02*
X144795142Y-93966428D01*
X144795142Y-93623571D01*
X144838000Y-93537857D01*
X144880857Y-93495000D01*
X144966571Y-93452142D01*
X145095142Y-93452142D01*
X145180857Y-93495000D01*
X145223714Y-93537857D01*
X145266571Y-93623571D01*
X145266571Y-93966428D01*
X144880857Y-93109285D02*
X144838000Y-93066428D01*
X144795142Y-92980714D01*
X144795142Y-92766428D01*
X144838000Y-92680714D01*
X144880857Y-92637857D01*
X144966571Y-92595000D01*
X145052285Y-92595000D01*
X145180857Y-92637857D01*
X145695142Y-93152142D01*
X145695142Y-92595000D01*
X144795142Y-92037857D02*
X144795142Y-91952142D01*
X144838000Y-91866428D01*
X144880857Y-91823571D01*
X144966571Y-91780714D01*
X145138000Y-91737857D01*
X145352285Y-91737857D01*
X145523714Y-91780714D01*
X145609428Y-91823571D01*
X145652285Y-91866428D01*
X145695142Y-91952142D01*
X145695142Y-92037857D01*
X145652285Y-92123571D01*
X145609428Y-92166428D01*
X145523714Y-92209285D01*
X145352285Y-92252142D01*
X145138000Y-92252142D01*
X144966571Y-92209285D01*
X144880857Y-92166428D01*
X144838000Y-92123571D01*
X144795142Y-92037857D01*
D12*
X148668619Y-98497571D02*
X148620238Y-98594333D01*
X148571857Y-98642714D01*
X148475095Y-98691095D01*
X148184809Y-98691095D01*
X148088047Y-98642714D01*
X148039666Y-98594333D01*
X147991285Y-98497571D01*
X147991285Y-98352428D01*
X148039666Y-98255666D01*
X148088047Y-98207285D01*
X148184809Y-98158904D01*
X148475095Y-98158904D01*
X148571857Y-98207285D01*
X148620238Y-98255666D01*
X148668619Y-98352428D01*
X148668619Y-98497571D01*
X145783904Y-106631619D02*
X145783904Y-107454095D01*
X145832285Y-107550857D01*
X145880666Y-107599238D01*
X145977428Y-107647619D01*
X146170952Y-107647619D01*
X146267714Y-107599238D01*
X146316095Y-107550857D01*
X146364476Y-107454095D01*
X146364476Y-106631619D01*
X146751523Y-106631619D02*
X147428857Y-106631619D01*
X146993428Y-107647619D01*
X143080619Y-99132571D02*
X143032238Y-99229333D01*
X142983857Y-99277714D01*
X142887095Y-99326095D01*
X142596809Y-99326095D01*
X142500047Y-99277714D01*
X142451666Y-99229333D01*
X142403285Y-99132571D01*
X142403285Y-98987428D01*
X142451666Y-98890666D01*
X142500047Y-98842285D01*
X142596809Y-98793904D01*
X142887095Y-98793904D01*
X142983857Y-98842285D01*
X143032238Y-98890666D01*
X143080619Y-98987428D01*
X143080619Y-99132571D01*
D28*
X144922142Y-105832857D02*
X144922142Y-105318571D01*
X145822142Y-105575714D02*
X144922142Y-105575714D01*
X145779285Y-105061428D02*
X145822142Y-104932857D01*
X145822142Y-104718571D01*
X145779285Y-104632857D01*
X145736428Y-104590000D01*
X145650714Y-104547142D01*
X145565000Y-104547142D01*
X145479285Y-104590000D01*
X145436428Y-104632857D01*
X145393571Y-104718571D01*
X145350714Y-104890000D01*
X145307857Y-104975714D01*
X145265000Y-105018571D01*
X145179285Y-105061428D01*
X145093571Y-105061428D01*
X145007857Y-105018571D01*
X144965000Y-104975714D01*
X144922142Y-104890000D01*
X144922142Y-104675714D01*
X144965000Y-104547142D01*
X145779285Y-104204285D02*
X145822142Y-104075714D01*
X145822142Y-103861428D01*
X145779285Y-103775714D01*
X145736428Y-103732857D01*
X145650714Y-103690000D01*
X145565000Y-103690000D01*
X145479285Y-103732857D01*
X145436428Y-103775714D01*
X145393571Y-103861428D01*
X145350714Y-104032857D01*
X145307857Y-104118571D01*
X145265000Y-104161428D01*
X145179285Y-104204285D01*
X145093571Y-104204285D01*
X145007857Y-104161428D01*
X144965000Y-104118571D01*
X144922142Y-104032857D01*
X144922142Y-103818571D01*
X144965000Y-103690000D01*
X144922142Y-103132857D02*
X144922142Y-102961428D01*
X144965000Y-102875714D01*
X145050714Y-102790000D01*
X145222142Y-102747142D01*
X145522142Y-102747142D01*
X145693571Y-102790000D01*
X145779285Y-102875714D01*
X145822142Y-102961428D01*
X145822142Y-103132857D01*
X145779285Y-103218571D01*
X145693571Y-103304285D01*
X145522142Y-103347142D01*
X145222142Y-103347142D01*
X145050714Y-103304285D01*
X144965000Y-103218571D01*
X144922142Y-103132857D01*
X145822142Y-102361428D02*
X144922142Y-102361428D01*
X144922142Y-102018571D01*
X144965000Y-101932857D01*
X145007857Y-101890000D01*
X145093571Y-101847142D01*
X145222142Y-101847142D01*
X145307857Y-101890000D01*
X145350714Y-101932857D01*
X145393571Y-102018571D01*
X145393571Y-102361428D01*
X145007857Y-101504285D02*
X144965000Y-101461428D01*
X144922142Y-101375714D01*
X144922142Y-101161428D01*
X144965000Y-101075714D01*
X145007857Y-101032857D01*
X145093571Y-100990000D01*
X145179285Y-100990000D01*
X145307857Y-101032857D01*
X145822142Y-101547142D01*
X145822142Y-100990000D01*
X144922142Y-100432857D02*
X144922142Y-100347142D01*
X144965000Y-100261428D01*
X145007857Y-100218571D01*
X145093571Y-100175714D01*
X145265000Y-100132857D01*
X145479285Y-100132857D01*
X145650714Y-100175714D01*
X145736428Y-100218571D01*
X145779285Y-100261428D01*
X145822142Y-100347142D01*
X145822142Y-100432857D01*
X145779285Y-100518571D01*
X145736428Y-100561428D01*
X145650714Y-100604285D01*
X145479285Y-100647142D01*
X145265000Y-100647142D01*
X145093571Y-100604285D01*
X145007857Y-100561428D01*
X144965000Y-100518571D01*
X144922142Y-100432857D01*
D12*
X122264714Y-76659619D02*
X122264714Y-75643619D01*
X122264714Y-76127428D02*
X122845285Y-76127428D01*
X122845285Y-76659619D02*
X122845285Y-75643619D01*
X123329095Y-76659619D02*
X123329095Y-75643619D01*
X123329095Y-76127428D02*
X123909666Y-76127428D01*
X123909666Y-76659619D02*
X123909666Y-75643619D01*
X124393476Y-76659619D02*
X124393476Y-75643619D01*
X124780523Y-75643619D01*
X124877285Y-75692000D01*
X124925666Y-75740380D01*
X124974047Y-75837142D01*
X124974047Y-75982285D01*
X124925666Y-76079047D01*
X124877285Y-76127428D01*
X124780523Y-76175809D01*
X124393476Y-76175809D01*
X125409476Y-76659619D02*
X125409476Y-75643619D01*
X125651380Y-75643619D01*
X125796523Y-75692000D01*
X125893285Y-75788761D01*
X125941666Y-75885523D01*
X125990047Y-76079047D01*
X125990047Y-76224190D01*
X125941666Y-76417714D01*
X125893285Y-76514476D01*
X125796523Y-76611238D01*
X125651380Y-76659619D01*
X125409476Y-76659619D01*
X126957666Y-76659619D02*
X126377095Y-76659619D01*
X126667380Y-76659619D02*
X126667380Y-75643619D01*
X126570619Y-75788761D01*
X126473857Y-75885523D01*
X126377095Y-75933904D01*
X122282857Y-71579619D02*
X122282857Y-70563619D01*
X122282857Y-71047428D02*
X122863428Y-71047428D01*
X122863428Y-71579619D02*
X122863428Y-70563619D01*
X123298857Y-71531238D02*
X123444000Y-71579619D01*
X123685904Y-71579619D01*
X123782666Y-71531238D01*
X123831047Y-71482857D01*
X123879428Y-71386095D01*
X123879428Y-71289333D01*
X123831047Y-71192571D01*
X123782666Y-71144190D01*
X123685904Y-71095809D01*
X123492380Y-71047428D01*
X123395619Y-70999047D01*
X123347238Y-70950666D01*
X123298857Y-70853904D01*
X123298857Y-70757142D01*
X123347238Y-70660380D01*
X123395619Y-70612000D01*
X123492380Y-70563619D01*
X123734285Y-70563619D01*
X123879428Y-70612000D01*
X124895428Y-71482857D02*
X124847047Y-71531238D01*
X124701904Y-71579619D01*
X124605142Y-71579619D01*
X124460000Y-71531238D01*
X124363238Y-71434476D01*
X124314857Y-71337714D01*
X124266476Y-71144190D01*
X124266476Y-70999047D01*
X124314857Y-70805523D01*
X124363238Y-70708761D01*
X124460000Y-70612000D01*
X124605142Y-70563619D01*
X124701904Y-70563619D01*
X124847047Y-70612000D01*
X124895428Y-70660380D01*
X125814666Y-71579619D02*
X125330857Y-71579619D01*
X125330857Y-70563619D01*
X126685523Y-71579619D02*
X126104952Y-71579619D01*
X126395238Y-71579619D02*
X126395238Y-70563619D01*
X126298476Y-70708761D01*
X126201714Y-70805523D01*
X126104952Y-70853904D01*
X122258666Y-74119619D02*
X122258666Y-73103619D01*
X122258666Y-73587428D02*
X122839238Y-73587428D01*
X122839238Y-74119619D02*
X122839238Y-73103619D01*
X123274666Y-74071238D02*
X123419809Y-74119619D01*
X123661714Y-74119619D01*
X123758476Y-74071238D01*
X123806857Y-74022857D01*
X123855238Y-73926095D01*
X123855238Y-73829333D01*
X123806857Y-73732571D01*
X123758476Y-73684190D01*
X123661714Y-73635809D01*
X123468190Y-73587428D01*
X123371428Y-73539047D01*
X123323047Y-73490666D01*
X123274666Y-73393904D01*
X123274666Y-73297142D01*
X123323047Y-73200380D01*
X123371428Y-73152000D01*
X123468190Y-73103619D01*
X123710095Y-73103619D01*
X123855238Y-73152000D01*
X124290666Y-74119619D02*
X124290666Y-73103619D01*
X124532571Y-73103619D01*
X124677714Y-73152000D01*
X124774476Y-73248761D01*
X124822857Y-73345523D01*
X124871238Y-73539047D01*
X124871238Y-73684190D01*
X124822857Y-73877714D01*
X124774476Y-73974476D01*
X124677714Y-74071238D01*
X124532571Y-74119619D01*
X124290666Y-74119619D01*
X125258285Y-73829333D02*
X125742095Y-73829333D01*
X125161523Y-74119619D02*
X125500190Y-73103619D01*
X125838857Y-74119619D01*
X126709714Y-74119619D02*
X126129142Y-74119619D01*
X126419428Y-74119619D02*
X126419428Y-73103619D01*
X126322666Y-73248761D01*
X126225904Y-73345523D01*
X126129142Y-73393904D01*
D11*
X152829380Y-88652047D02*
X153010809Y-88712523D01*
X153313190Y-88712523D01*
X153434142Y-88652047D01*
X153494619Y-88591571D01*
X153555095Y-88470619D01*
X153555095Y-88349666D01*
X153494619Y-88228714D01*
X153434142Y-88168238D01*
X153313190Y-88107761D01*
X153071285Y-88047285D01*
X152950333Y-87986809D01*
X152889857Y-87926333D01*
X152829380Y-87805380D01*
X152829380Y-87684428D01*
X152889857Y-87563476D01*
X152950333Y-87503000D01*
X153071285Y-87442523D01*
X153373666Y-87442523D01*
X153555095Y-87503000D01*
X154099380Y-88712523D02*
X154099380Y-87442523D01*
X154583190Y-87442523D01*
X154704142Y-87503000D01*
X154764619Y-87563476D01*
X154825095Y-87684428D01*
X154825095Y-87865857D01*
X154764619Y-87986809D01*
X154704142Y-88047285D01*
X154583190Y-88107761D01*
X154099380Y-88107761D01*
X155369380Y-88712523D02*
X155369380Y-87442523D01*
X156095095Y-88712523D02*
X155550809Y-87986809D01*
X156095095Y-87442523D02*
X155369380Y-88168238D01*
X157304619Y-88712523D02*
X156578904Y-88712523D01*
X156941761Y-88712523D02*
X156941761Y-87442523D01*
X156820809Y-87623952D01*
X156699857Y-87744904D01*
X156578904Y-87805380D01*
D10*
X159791857Y-79096571D02*
X159791857Y-77935428D01*
X160372428Y-78516000D02*
X159211285Y-78516000D01*
D12*
X168105666Y-78945619D02*
X167767000Y-78461809D01*
X167525095Y-78945619D02*
X167525095Y-77929619D01*
X167912142Y-77929619D01*
X168008904Y-77978000D01*
X168057285Y-78026380D01*
X168105666Y-78123142D01*
X168105666Y-78268285D01*
X168057285Y-78365047D01*
X168008904Y-78413428D01*
X167912142Y-78461809D01*
X167525095Y-78461809D01*
X168444333Y-77929619D02*
X169121666Y-77929619D01*
X168686238Y-78945619D01*
D11*
X164277523Y-75601285D02*
X165305619Y-75601285D01*
X165426571Y-75540809D01*
X165487047Y-75480333D01*
X165547523Y-75359380D01*
X165547523Y-75117476D01*
X165487047Y-74996523D01*
X165426571Y-74936047D01*
X165305619Y-74875571D01*
X164277523Y-74875571D01*
X165487047Y-74331285D02*
X165547523Y-74149857D01*
X165547523Y-73847476D01*
X165487047Y-73726523D01*
X165426571Y-73666047D01*
X165305619Y-73605571D01*
X165184666Y-73605571D01*
X165063714Y-73666047D01*
X165003238Y-73726523D01*
X164942761Y-73847476D01*
X164882285Y-74089380D01*
X164821809Y-74210333D01*
X164761333Y-74270809D01*
X164640380Y-74331285D01*
X164519428Y-74331285D01*
X164398476Y-74270809D01*
X164338000Y-74210333D01*
X164277523Y-74089380D01*
X164277523Y-73787000D01*
X164338000Y-73605571D01*
X164882285Y-72637952D02*
X164942761Y-72456523D01*
X165003238Y-72396047D01*
X165124190Y-72335571D01*
X165305619Y-72335571D01*
X165426571Y-72396047D01*
X165487047Y-72456523D01*
X165547523Y-72577476D01*
X165547523Y-73061285D01*
X164277523Y-73061285D01*
X164277523Y-72637952D01*
X164338000Y-72517000D01*
X164398476Y-72456523D01*
X164519428Y-72396047D01*
X164640380Y-72396047D01*
X164761333Y-72456523D01*
X164821809Y-72517000D01*
X164882285Y-72637952D01*
X164882285Y-73061285D01*
X165063714Y-71791285D02*
X165063714Y-70823666D01*
X165547523Y-70218904D02*
X164277523Y-70218904D01*
X164277523Y-69735095D01*
X164338000Y-69614142D01*
X164398476Y-69553666D01*
X164519428Y-69493190D01*
X164700857Y-69493190D01*
X164821809Y-69553666D01*
X164882285Y-69614142D01*
X164942761Y-69735095D01*
X164942761Y-70218904D01*
X164277523Y-69069857D02*
X165547523Y-68767476D01*
X164640380Y-68525571D01*
X165547523Y-68283666D01*
X164277523Y-67981285D01*
X165547523Y-66771761D02*
X164942761Y-67195095D01*
X165547523Y-67497476D02*
X164277523Y-67497476D01*
X164277523Y-67013666D01*
X164338000Y-66892714D01*
X164398476Y-66832238D01*
X164519428Y-66771761D01*
X164700857Y-66771761D01*
X164821809Y-66832238D01*
X164882285Y-66892714D01*
X164942761Y-67013666D01*
X164942761Y-67497476D01*
X165547523Y-65562238D02*
X165547523Y-66287952D01*
X165547523Y-65925095D02*
X164277523Y-65925095D01*
X164458952Y-66046047D01*
X164579904Y-66167000D01*
X164640380Y-66287952D01*
D21*
X168056952Y-65616666D02*
X168298857Y-65616666D01*
X168008571Y-65761809D02*
X168177904Y-65253809D01*
X168347238Y-65761809D01*
X168734285Y-65423142D02*
X168734285Y-65761809D01*
X168613333Y-65229619D02*
X168492380Y-65592476D01*
X168806857Y-65592476D01*
X169097142Y-65253809D02*
X169145523Y-65253809D01*
X169193904Y-65278000D01*
X169218095Y-65302190D01*
X169242285Y-65350571D01*
X169266476Y-65447333D01*
X169266476Y-65568285D01*
X169242285Y-65665047D01*
X169218095Y-65713428D01*
X169193904Y-65737619D01*
X169145523Y-65761809D01*
X169097142Y-65761809D01*
X169048761Y-65737619D01*
X169024571Y-65713428D01*
X169000380Y-65665047D01*
X168976190Y-65568285D01*
X168976190Y-65447333D01*
X169000380Y-65350571D01*
X169024571Y-65302190D01*
X169048761Y-65278000D01*
X169097142Y-65253809D01*
X169484190Y-65568285D02*
X169871238Y-65568285D01*
X170209904Y-65253809D02*
X170258285Y-65253809D01*
X170306666Y-65278000D01*
X170330857Y-65302190D01*
X170355047Y-65350571D01*
X170379238Y-65447333D01*
X170379238Y-65568285D01*
X170355047Y-65665047D01*
X170330857Y-65713428D01*
X170306666Y-65737619D01*
X170258285Y-65761809D01*
X170209904Y-65761809D01*
X170161523Y-65737619D01*
X170137333Y-65713428D01*
X170113142Y-65665047D01*
X170088952Y-65568285D01*
X170088952Y-65447333D01*
X170113142Y-65350571D01*
X170137333Y-65302190D01*
X170161523Y-65278000D01*
X170209904Y-65253809D01*
X170693714Y-65253809D02*
X170742095Y-65253809D01*
X170790476Y-65278000D01*
X170814666Y-65302190D01*
X170838857Y-65350571D01*
X170863047Y-65447333D01*
X170863047Y-65568285D01*
X170838857Y-65665047D01*
X170814666Y-65713428D01*
X170790476Y-65737619D01*
X170742095Y-65761809D01*
X170693714Y-65761809D01*
X170645333Y-65737619D01*
X170621142Y-65713428D01*
X170596952Y-65665047D01*
X170572761Y-65568285D01*
X170572761Y-65447333D01*
X170596952Y-65350571D01*
X170621142Y-65302190D01*
X170645333Y-65278000D01*
X170693714Y-65253809D01*
X171346857Y-65761809D02*
X171056571Y-65761809D01*
X171201714Y-65761809D02*
X171201714Y-65253809D01*
X171153333Y-65326380D01*
X171104952Y-65374761D01*
X171056571Y-65398952D01*
X171830666Y-65761809D02*
X171540380Y-65761809D01*
X171685523Y-65761809D02*
X171685523Y-65253809D01*
X171637142Y-65326380D01*
X171588761Y-65374761D01*
X171540380Y-65398952D01*
X172072571Y-65761809D02*
X172169333Y-65761809D01*
X172217714Y-65737619D01*
X172241904Y-65713428D01*
X172290285Y-65640857D01*
X172314476Y-65544095D01*
X172314476Y-65350571D01*
X172290285Y-65302190D01*
X172266095Y-65278000D01*
X172217714Y-65253809D01*
X172120952Y-65253809D01*
X172072571Y-65278000D01*
X172048380Y-65302190D01*
X172024190Y-65350571D01*
X172024190Y-65471523D01*
X172048380Y-65519904D01*
X172072571Y-65544095D01*
X172120952Y-65568285D01*
X172217714Y-65568285D01*
X172266095Y-65544095D01*
X172290285Y-65519904D01*
X172314476Y-65471523D01*
X172532190Y-65568285D02*
X172919238Y-65568285D01*
X173136952Y-65616666D02*
X173378857Y-65616666D01*
X173088571Y-65761809D02*
X173257904Y-65253809D01*
X173427238Y-65761809D01*
X173838476Y-65253809D02*
X173596571Y-65253809D01*
X173572380Y-65495714D01*
X173596571Y-65471523D01*
X173644952Y-65447333D01*
X173765904Y-65447333D01*
X173814285Y-65471523D01*
X173838476Y-65495714D01*
X173862666Y-65544095D01*
X173862666Y-65665047D01*
X173838476Y-65713428D01*
X173814285Y-65737619D01*
X173765904Y-65761809D01*
X173644952Y-65761809D01*
X173596571Y-65737619D01*
X173572380Y-65713428D01*
X174056190Y-65302190D02*
X174080380Y-65278000D01*
X174128761Y-65253809D01*
X174249714Y-65253809D01*
X174298095Y-65278000D01*
X174322285Y-65302190D01*
X174346476Y-65350571D01*
X174346476Y-65398952D01*
X174322285Y-65471523D01*
X174032000Y-65761809D01*
X174346476Y-65761809D01*
X174564190Y-65568285D02*
X174951238Y-65568285D01*
X175459238Y-65761809D02*
X175168952Y-65761809D01*
X175314095Y-65761809D02*
X175314095Y-65253809D01*
X175265714Y-65326380D01*
X175217333Y-65374761D01*
X175168952Y-65398952D01*
X175652761Y-65302190D02*
X175676952Y-65278000D01*
X175725333Y-65253809D01*
X175846285Y-65253809D01*
X175894666Y-65278000D01*
X175918857Y-65302190D01*
X175943047Y-65350571D01*
X175943047Y-65398952D01*
X175918857Y-65471523D01*
X175628571Y-65761809D01*
X175943047Y-65761809D01*
X175641000Y-69387047D02*
X175616809Y-69435428D01*
X175616809Y-69508000D01*
X175641000Y-69580571D01*
X175689380Y-69628952D01*
X175737761Y-69653142D01*
X175834523Y-69677333D01*
X175907095Y-69677333D01*
X176003857Y-69653142D01*
X176052238Y-69628952D01*
X176100619Y-69580571D01*
X176124809Y-69508000D01*
X176124809Y-69459619D01*
X176100619Y-69387047D01*
X176076428Y-69362857D01*
X175907095Y-69362857D01*
X175907095Y-69459619D01*
X176124809Y-69145142D02*
X175616809Y-69145142D01*
X176124809Y-68854857D01*
X175616809Y-68854857D01*
X176124809Y-68612952D02*
X175616809Y-68612952D01*
X175616809Y-68492000D01*
X175641000Y-68419428D01*
X175689380Y-68371047D01*
X175737761Y-68346857D01*
X175834523Y-68322666D01*
X175907095Y-68322666D01*
X176003857Y-68346857D01*
X176052238Y-68371047D01*
X176100619Y-68419428D01*
X176124809Y-68492000D01*
X176124809Y-68612952D01*
X174221809Y-69681333D02*
X174729809Y-69512000D01*
X174221809Y-69342666D01*
X174463714Y-69004000D02*
X174487904Y-68931428D01*
X174512095Y-68907238D01*
X174560476Y-68883047D01*
X174633047Y-68883047D01*
X174681428Y-68907238D01*
X174705619Y-68931428D01*
X174729809Y-68979809D01*
X174729809Y-69173333D01*
X174221809Y-69173333D01*
X174221809Y-69004000D01*
X174246000Y-68955619D01*
X174270190Y-68931428D01*
X174318571Y-68907238D01*
X174366952Y-68907238D01*
X174415333Y-68931428D01*
X174439523Y-68955619D01*
X174463714Y-69004000D01*
X174463714Y-69173333D01*
X174221809Y-68665333D02*
X174633047Y-68665333D01*
X174681428Y-68641142D01*
X174705619Y-68616952D01*
X174729809Y-68568571D01*
X174729809Y-68471809D01*
X174705619Y-68423428D01*
X174681428Y-68399238D01*
X174633047Y-68375047D01*
X174221809Y-68375047D01*
X174705619Y-68157333D02*
X174729809Y-68084761D01*
X174729809Y-67963809D01*
X174705619Y-67915428D01*
X174681428Y-67891238D01*
X174633047Y-67867047D01*
X174584666Y-67867047D01*
X174536285Y-67891238D01*
X174512095Y-67915428D01*
X174487904Y-67963809D01*
X174463714Y-68060571D01*
X174439523Y-68108952D01*
X174415333Y-68133142D01*
X174366952Y-68157333D01*
X174318571Y-68157333D01*
X174270190Y-68133142D01*
X174246000Y-68108952D01*
X174221809Y-68060571D01*
X174221809Y-67939619D01*
X174246000Y-67867047D01*
X173955619Y-67907142D02*
X173979809Y-67834571D01*
X173979809Y-67713619D01*
X173955619Y-67665238D01*
X173931428Y-67641047D01*
X173883047Y-67616857D01*
X173834666Y-67616857D01*
X173786285Y-67641047D01*
X173762095Y-67665238D01*
X173737904Y-67713619D01*
X173713714Y-67810380D01*
X173689523Y-67858761D01*
X173665333Y-67882952D01*
X173616952Y-67907142D01*
X173568571Y-67907142D01*
X173520190Y-67882952D01*
X173496000Y-67858761D01*
X173471809Y-67810380D01*
X173471809Y-67689428D01*
X173496000Y-67616857D01*
X173713714Y-67229809D02*
X173737904Y-67157238D01*
X173762095Y-67133047D01*
X173810476Y-67108857D01*
X173883047Y-67108857D01*
X173931428Y-67133047D01*
X173955619Y-67157238D01*
X173979809Y-67205619D01*
X173979809Y-67399142D01*
X173471809Y-67399142D01*
X173471809Y-67229809D01*
X173496000Y-67181428D01*
X173520190Y-67157238D01*
X173568571Y-67133047D01*
X173616952Y-67133047D01*
X173665333Y-67157238D01*
X173689523Y-67181428D01*
X173713714Y-67229809D01*
X173713714Y-67399142D01*
X173471809Y-66891142D02*
X173883047Y-66891142D01*
X173931428Y-66866952D01*
X173955619Y-66842761D01*
X173979809Y-66794380D01*
X173979809Y-66697619D01*
X173955619Y-66649238D01*
X173931428Y-66625047D01*
X173883047Y-66600857D01*
X173471809Y-66600857D01*
X173520190Y-66383142D02*
X173496000Y-66358952D01*
X173471809Y-66310571D01*
X173471809Y-66189619D01*
X173496000Y-66141238D01*
X173520190Y-66117047D01*
X173568571Y-66092857D01*
X173616952Y-66092857D01*
X173689523Y-66117047D01*
X173979809Y-66407333D01*
X173979809Y-66092857D01*
X173431428Y-69338666D02*
X173455619Y-69362857D01*
X173479809Y-69435428D01*
X173479809Y-69483809D01*
X173455619Y-69556380D01*
X173407238Y-69604761D01*
X173358857Y-69628952D01*
X173262095Y-69653142D01*
X173189523Y-69653142D01*
X173092761Y-69628952D01*
X173044380Y-69604761D01*
X172996000Y-69556380D01*
X172971809Y-69483809D01*
X172971809Y-69435428D01*
X172996000Y-69362857D01*
X173020190Y-69338666D01*
X173431428Y-68830666D02*
X173455619Y-68854857D01*
X173479809Y-68927428D01*
X173479809Y-68975809D01*
X173455619Y-69048380D01*
X173407238Y-69096761D01*
X173358857Y-69120952D01*
X173262095Y-69145142D01*
X173189523Y-69145142D01*
X173092761Y-69120952D01*
X173044380Y-69096761D01*
X172996000Y-69048380D01*
X172971809Y-68975809D01*
X172971809Y-68927428D01*
X172996000Y-68854857D01*
X173020190Y-68830666D01*
X173479809Y-68346857D02*
X173479809Y-68637142D01*
X173479809Y-68492000D02*
X172971809Y-68492000D01*
X173044380Y-68540380D01*
X173092761Y-68588761D01*
X173116952Y-68637142D01*
X172979809Y-67891047D02*
X172471809Y-67891047D01*
X172471809Y-67770095D01*
X172496000Y-67697523D01*
X172544380Y-67649142D01*
X172592761Y-67624952D01*
X172689523Y-67600761D01*
X172762095Y-67600761D01*
X172858857Y-67624952D01*
X172907238Y-67649142D01*
X172955619Y-67697523D01*
X172979809Y-67770095D01*
X172979809Y-67891047D01*
X172979809Y-67383047D02*
X172471809Y-67383047D01*
X172979809Y-67092761D01*
X172471809Y-67092761D01*
X172520190Y-66875047D02*
X172496000Y-66850857D01*
X172471809Y-66802476D01*
X172471809Y-66681523D01*
X172496000Y-66633142D01*
X172520190Y-66608952D01*
X172568571Y-66584761D01*
X172616952Y-66584761D01*
X172689523Y-66608952D01*
X172979809Y-66899238D01*
X172979809Y-66584761D01*
X172479809Y-69628952D02*
X171971809Y-69628952D01*
X171971809Y-69508000D01*
X171996000Y-69435428D01*
X172044380Y-69387047D01*
X172092761Y-69362857D01*
X172189523Y-69338666D01*
X172262095Y-69338666D01*
X172358857Y-69362857D01*
X172407238Y-69387047D01*
X172455619Y-69435428D01*
X172479809Y-69508000D01*
X172479809Y-69628952D01*
X172479809Y-69120952D02*
X171971809Y-69120952D01*
X171971809Y-68927428D01*
X171996000Y-68879047D01*
X172020190Y-68854857D01*
X172068571Y-68830666D01*
X172141142Y-68830666D01*
X172189523Y-68854857D01*
X172213714Y-68879047D01*
X172237904Y-68927428D01*
X172237904Y-69120952D01*
X172479809Y-68346857D02*
X172479809Y-68637142D01*
X172479809Y-68492000D02*
X171971809Y-68492000D01*
X172044380Y-68540380D01*
X172092761Y-68588761D01*
X172116952Y-68637142D01*
X171979809Y-67891047D02*
X171471809Y-67891047D01*
X171471809Y-67770095D01*
X171496000Y-67697523D01*
X171544380Y-67649142D01*
X171592761Y-67624952D01*
X171689523Y-67600761D01*
X171762095Y-67600761D01*
X171858857Y-67624952D01*
X171907238Y-67649142D01*
X171955619Y-67697523D01*
X171979809Y-67770095D01*
X171979809Y-67891047D01*
X171979809Y-67383047D02*
X171471809Y-67383047D01*
X171979809Y-67092761D01*
X171471809Y-67092761D01*
X171979809Y-66584761D02*
X171979809Y-66875047D01*
X171979809Y-66729904D02*
X171471809Y-66729904D01*
X171544380Y-66778285D01*
X171592761Y-66826666D01*
X171616952Y-66875047D01*
X171479809Y-69628952D02*
X170971809Y-69628952D01*
X170971809Y-69508000D01*
X170996000Y-69435428D01*
X171044380Y-69387047D01*
X171092761Y-69362857D01*
X171189523Y-69338666D01*
X171262095Y-69338666D01*
X171358857Y-69362857D01*
X171407238Y-69387047D01*
X171455619Y-69435428D01*
X171479809Y-69508000D01*
X171479809Y-69628952D01*
X171479809Y-69120952D02*
X170971809Y-69120952D01*
X170971809Y-68927428D01*
X170996000Y-68879047D01*
X171020190Y-68854857D01*
X171068571Y-68830666D01*
X171141142Y-68830666D01*
X171189523Y-68854857D01*
X171213714Y-68879047D01*
X171237904Y-68927428D01*
X171237904Y-69120952D01*
X171020190Y-68637142D02*
X170996000Y-68612952D01*
X170971809Y-68564571D01*
X170971809Y-68443619D01*
X170996000Y-68395238D01*
X171020190Y-68371047D01*
X171068571Y-68346857D01*
X171116952Y-68346857D01*
X171189523Y-68371047D01*
X171479809Y-68661333D01*
X171479809Y-68346857D01*
X170955619Y-67907142D02*
X170979809Y-67834571D01*
X170979809Y-67713619D01*
X170955619Y-67665238D01*
X170931428Y-67641047D01*
X170883047Y-67616857D01*
X170834666Y-67616857D01*
X170786285Y-67641047D01*
X170762095Y-67665238D01*
X170737904Y-67713619D01*
X170713714Y-67810380D01*
X170689523Y-67858761D01*
X170665333Y-67882952D01*
X170616952Y-67907142D01*
X170568571Y-67907142D01*
X170520190Y-67882952D01*
X170496000Y-67858761D01*
X170471809Y-67810380D01*
X170471809Y-67689428D01*
X170496000Y-67616857D01*
X170713714Y-67229809D02*
X170737904Y-67157238D01*
X170762095Y-67133047D01*
X170810476Y-67108857D01*
X170883047Y-67108857D01*
X170931428Y-67133047D01*
X170955619Y-67157238D01*
X170979809Y-67205619D01*
X170979809Y-67399142D01*
X170471809Y-67399142D01*
X170471809Y-67229809D01*
X170496000Y-67181428D01*
X170520190Y-67157238D01*
X170568571Y-67133047D01*
X170616952Y-67133047D01*
X170665333Y-67157238D01*
X170689523Y-67181428D01*
X170713714Y-67229809D01*
X170713714Y-67399142D01*
X170471809Y-66891142D02*
X170883047Y-66891142D01*
X170931428Y-66866952D01*
X170955619Y-66842761D01*
X170979809Y-66794380D01*
X170979809Y-66697619D01*
X170955619Y-66649238D01*
X170931428Y-66625047D01*
X170883047Y-66600857D01*
X170471809Y-66600857D01*
X170979809Y-66092857D02*
X170979809Y-66383142D01*
X170979809Y-66238000D02*
X170471809Y-66238000D01*
X170544380Y-66286380D01*
X170592761Y-66334761D01*
X170616952Y-66383142D01*
X170431428Y-69338666D02*
X170455619Y-69362857D01*
X170479809Y-69435428D01*
X170479809Y-69483809D01*
X170455619Y-69556380D01*
X170407238Y-69604761D01*
X170358857Y-69628952D01*
X170262095Y-69653142D01*
X170189523Y-69653142D01*
X170092761Y-69628952D01*
X170044380Y-69604761D01*
X169996000Y-69556380D01*
X169971809Y-69483809D01*
X169971809Y-69435428D01*
X169996000Y-69362857D01*
X170020190Y-69338666D01*
X170431428Y-68830666D02*
X170455619Y-68854857D01*
X170479809Y-68927428D01*
X170479809Y-68975809D01*
X170455619Y-69048380D01*
X170407238Y-69096761D01*
X170358857Y-69120952D01*
X170262095Y-69145142D01*
X170189523Y-69145142D01*
X170092761Y-69120952D01*
X170044380Y-69096761D01*
X169996000Y-69048380D01*
X169971809Y-68975809D01*
X169971809Y-68927428D01*
X169996000Y-68854857D01*
X170020190Y-68830666D01*
X170020190Y-68637142D02*
X169996000Y-68612952D01*
X169971809Y-68564571D01*
X169971809Y-68443619D01*
X169996000Y-68395238D01*
X170020190Y-68371047D01*
X170068571Y-68346857D01*
X170116952Y-68346857D01*
X170189523Y-68371047D01*
X170479809Y-68661333D01*
X170479809Y-68346857D01*
X169221809Y-69681333D02*
X169729809Y-69512000D01*
X169221809Y-69342666D01*
X169463714Y-69004000D02*
X169487904Y-68931428D01*
X169512095Y-68907238D01*
X169560476Y-68883047D01*
X169633047Y-68883047D01*
X169681428Y-68907238D01*
X169705619Y-68931428D01*
X169729809Y-68979809D01*
X169729809Y-69173333D01*
X169221809Y-69173333D01*
X169221809Y-69004000D01*
X169246000Y-68955619D01*
X169270190Y-68931428D01*
X169318571Y-68907238D01*
X169366952Y-68907238D01*
X169415333Y-68931428D01*
X169439523Y-68955619D01*
X169463714Y-69004000D01*
X169463714Y-69173333D01*
X169221809Y-68665333D02*
X169633047Y-68665333D01*
X169681428Y-68641142D01*
X169705619Y-68616952D01*
X169729809Y-68568571D01*
X169729809Y-68471809D01*
X169705619Y-68423428D01*
X169681428Y-68399238D01*
X169633047Y-68375047D01*
X169221809Y-68375047D01*
X169705619Y-68157333D02*
X169729809Y-68084761D01*
X169729809Y-67963809D01*
X169705619Y-67915428D01*
X169681428Y-67891238D01*
X169633047Y-67867047D01*
X169584666Y-67867047D01*
X169536285Y-67891238D01*
X169512095Y-67915428D01*
X169487904Y-67963809D01*
X169463714Y-68060571D01*
X169439523Y-68108952D01*
X169415333Y-68133142D01*
X169366952Y-68157333D01*
X169318571Y-68157333D01*
X169270190Y-68133142D01*
X169246000Y-68108952D01*
X169221809Y-68060571D01*
X169221809Y-67939619D01*
X169246000Y-67867047D01*
X168021000Y-69387047D02*
X167996809Y-69435428D01*
X167996809Y-69508000D01*
X168021000Y-69580571D01*
X168069380Y-69628952D01*
X168117761Y-69653142D01*
X168214523Y-69677333D01*
X168287095Y-69677333D01*
X168383857Y-69653142D01*
X168432238Y-69628952D01*
X168480619Y-69580571D01*
X168504809Y-69508000D01*
X168504809Y-69459619D01*
X168480619Y-69387047D01*
X168456428Y-69362857D01*
X168287095Y-69362857D01*
X168287095Y-69459619D01*
X168504809Y-69145142D02*
X167996809Y-69145142D01*
X168504809Y-68854857D01*
X167996809Y-68854857D01*
X168504809Y-68612952D02*
X167996809Y-68612952D01*
X167996809Y-68492000D01*
X168021000Y-68419428D01*
X168069380Y-68371047D01*
X168117761Y-68346857D01*
X168214523Y-68322666D01*
X168287095Y-68322666D01*
X168383857Y-68346857D01*
X168432238Y-68371047D01*
X168480619Y-68419428D01*
X168504809Y-68492000D01*
X168504809Y-68612952D01*
M02*
