M48
; DRILL file {KiCad 5.1.0-rc2-unknown-036be7d~80~ubuntu16.04.1} date 29.08.2023 (вт) 11:39:45 EEST
; FORMAT={-:-/ absolute / inch / decimal}
; #@! TF.CreationDate,2023-08-29T11:39:45+03:00*
; #@! TF.GenerationSoftware,Kicad,Pcbnew,5.1.0-rc2-unknown-036be7d~80~ubuntu16.04.1
; #@! TF.FileFunction,Plated,1,2,PTH
FMAT,2
INCH
T1C0.0157
T2C0.0236
T3C0.0315
T4C0.0394
T5C0.0472
%
G90
G05
T1
X4.225Y-3.22
X4.34Y-3.185
X4.34Y-3.285
X4.34Y-3.3262
X4.34Y-3.3738
X4.355Y-3.59
X4.355Y-4.255
X4.39Y-4.035
X4.39Y-4.09
X4.395Y-3.69
X4.425Y-3.64
X4.425Y-3.98
X4.45Y-3.185
X4.45Y-3.285
X4.45Y-3.3262
X4.45Y-3.3738
X4.45Y-3.84
X4.45Y-3.915
X4.465Y-3.98
X4.495Y-3.705
X4.54Y-3.395
X4.56Y-4.485
X4.58Y-4.095
X4.5827Y-3.3618
X4.5849Y-3.4001
X4.585Y-3.185
X4.59Y-3.535
X4.59Y-3.71
X4.59Y-3.77
X4.59Y-3.8294
X4.59Y-3.96
X4.6Y-4.365
X4.635Y-4.095
X4.635Y-4.19
X4.655Y-3.36
X4.665Y-3.48
X4.68Y-3.98
X4.6992Y-4.215
X4.7Y-4.485
X4.705Y-3.455
X4.705Y-3.955
X4.73Y-3.93
X4.735Y-3.195
X4.7358Y-4.215
X4.755Y-3.905
X4.765Y-4.485
X4.8Y-4.185
X4.8Y-4.365
X4.815Y-3.365
X4.825Y-3.675
X4.825Y-3.765
X4.825Y-3.85
X4.8275Y-4.12
X4.85Y-4.235
X4.86Y-4.485
X4.895Y-3.495
X4.9Y-3.675
X4.9Y-3.85
X4.9Y-4.335
X4.915Y-4.455
X4.935Y-4.215
X4.955Y-3.505
X4.975Y-3.675
X4.975Y-3.765
X4.975Y-3.85
X4.98Y-3.48
X5.005Y-3.455
X5.005Y-4.31
X5.01Y-4.445
X5.04Y-3.905
X5.05Y-3.62
X5.075Y-3.5975
X5.075Y-4.235
X5.09Y-4.045
X5.09Y-4.105
X5.105Y-4.315
X5.11Y-4.43
X5.12Y-4.25
X5.125Y-3.25
X5.13Y-4.045
X5.13Y-4.1375
X5.135Y-3.975
X5.15Y-3.275
X5.18Y-3.425
X5.18Y-3.475
X5.185Y-3.975
X5.185Y-4.025
X5.195Y-3.765
X5.21Y-4.295
X5.21Y-4.415
X5.225Y-3.425
X5.2849Y-3.1583
X5.29Y-3.425
X5.29Y-3.5984
X5.31Y-4.335
X5.315Y-4.4
X5.32Y-3.13
X5.32Y-3.1583
X5.325Y-4.025
X5.325Y-4.075
X5.3325Y-3.4275
X5.345Y-3.66
X5.345Y-3.765
X5.365Y-3.69
X5.375Y-3.725
X5.375Y-3.9
X5.375Y-4.025
X5.3754Y-2.7978
X5.3828Y-3.4179
X5.39Y-3.595
X5.3901Y-3.4712
X5.395Y-4.31
X5.41Y-4.365
X5.412Y-2.7978
X5.425Y-3.9
X5.4275Y-3.4625
X5.4283Y-3.8587
X5.443Y-3.423
X5.4457Y-3.3877
X5.455Y-4.06
X5.485Y-3.41
X5.485Y-3.555
X5.485Y-3.895
X5.515Y-4.3
X5.515Y-4.355
X5.525Y-3.555
X5.525Y-3.895
X5.5611Y-3.7111
X5.5617Y-3.39
X5.5619Y-3.7644
X5.575Y-3.9
X5.61Y-3.87
X5.6522Y-3.7378
X5.665Y-3.395
X5.665Y-3.44
X5.665Y-3.48
X5.675Y-3.575
X5.705Y-3.325
X5.705Y-3.365
X5.705Y-4.325
X5.715Y-3.575
X5.715Y-3.615
X5.72Y-4.365
X5.73Y-3.48
X5.765Y-3.03
X5.795Y-3.06
X5.82Y-4.205
X5.825Y-3.03
X5.865Y-4.213
X5.8869Y-3.6757
X5.8901Y-3.711
X5.895Y-3.495
X5.895Y-3.815
X5.895Y-4.1385
X5.8988Y-4.1033
X5.9Y-3.955
X5.92Y-4.365
X5.926Y-3.5337
X5.9314Y-4.0894
X5.935Y-3.385
X5.935Y-3.445
X5.9591Y-3.8125
X5.96Y-4.06
X5.9633Y-3.3552
X5.9633Y-3.4719
X5.965Y-4.21
X5.9656Y-3.56
X5.9867Y-3.7882
X5.9892Y-4.0292
X5.995Y-3.29
X5.995Y-3.3317
X5.995Y-3.59
X5.9952Y-3.5
X6.005Y-4.185
X6.0083Y-3.7601
X6.02Y-3.845
X6.02Y-3.9
X6.025Y-3.62
X6.03Y-4.15
X6.065Y-3.865
X6.069Y-4.133
X6.07Y-3.77
X6.0732Y-3.6468
X6.11Y-3.96
X6.1289Y-4.1834
X6.145Y-3.855
X6.15Y-3.985
X6.1509Y-4.1555
X6.16Y-3.905
X6.195Y-3.97
X6.205Y-3.5275
X6.245Y-3.5275
X6.275Y-3.845
X6.315Y-4.63
X6.355Y-3.84
X6.36Y-3.72
X6.36Y-3.79
X6.365Y-4.2
X6.38Y-4.12
X6.391Y-3.7439
X6.405Y-4.63
X6.41Y-4.2
X6.4207Y-3.7245
X6.429Y-3.636
X6.45Y-3.7
X6.4726Y-3.6024
X6.475Y-3.665
X6.52Y-3.61
X6.54Y-4.175
X6.57Y-3.57
X6.57Y-3.615
X6.575Y-4.02
X6.58Y-4.16
X6.605Y-3.57
X6.605Y-3.605
X6.605Y-3.645
X6.605Y-3.68
X6.66Y-3.92
X6.735Y-2.88
X6.7495Y-3.5045
X6.75Y-3.585
X6.753Y-3.662
X6.7725Y-2.91
X6.7755Y-3.8195
X6.78Y-3.47
X6.785Y-4.2
X6.7931Y-3.699
X6.81Y-3.54
X6.8138Y-3.7576
X6.88Y-3.295
X6.885Y-3.91
X6.89Y-4.215
X6.93Y-4.15
X6.935Y-4.195
T2
X3.975Y-2.7
X3.975Y-2.8
X3.975Y-2.9
X3.975Y-3.0
X3.975Y-3.225
X3.975Y-3.3
X3.975Y-3.375
X3.975Y-3.59
X3.975Y-3.69
X3.975Y-3.79
X3.975Y-3.89
X3.975Y-4.0
X3.975Y-4.1
X3.975Y-4.2
X3.975Y-4.3
X3.975Y-4.375
X3.975Y-4.45
X4.05Y-2.7
X4.05Y-3.3
X4.05Y-3.375
X4.05Y-3.465
X4.12Y-3.5
X4.125Y-3.3
X4.175Y-2.6
X4.175Y-2.8
X4.175Y-3.4
X4.175Y-3.465
X4.19Y-2.69
X4.2Y-4.6905
X4.23Y-3.5
X4.23Y-4.34
X4.235Y-3.995
X4.235Y-4.185
X4.275Y-2.6
X4.275Y-2.69
X4.275Y-2.8
X4.285Y-3.48
X4.3Y-4.6905
X4.36Y-4.69
X4.375Y-2.6
X4.375Y-2.69
X4.375Y-2.8
X4.39Y-4.16
X4.395Y-4.35
X4.4Y-4.425
X4.425Y-4.6905
X4.455Y-2.8
X4.475Y-2.6
X4.475Y-2.69
X4.485Y-4.055
X4.5Y-4.6905
X4.51Y-4.29
X4.525Y-4.015
X4.55Y-2.69
X4.575Y-2.6
X4.6125Y-4.6905
X4.7125Y-4.6905
X4.8Y-2.65
X4.8125Y-4.6905
X4.85Y-2.6
X4.85Y-3.0
X4.85Y-3.19
X4.9Y-3.05
X4.9125Y-4.6905
X4.95Y-2.6
X4.95Y-2.69
X4.95Y-2.8
X4.95Y-2.9
X4.95Y-3.0
X5.0Y-2.64
X5.0125Y-4.6905
X5.05Y-2.6
X5.05Y-2.9
X5.05Y-3.0
X5.1Y-2.64
X5.1Y-2.95
X5.1125Y-4.6905
X5.15Y-2.6
X5.15Y-2.9
X5.155Y-3.19
X5.2Y-2.64
X5.2Y-2.95
X5.2125Y-4.6905
X5.25Y-2.6
X5.25Y-2.75
X5.3Y-2.64
X5.3Y-2.95
X5.3125Y-4.6905
X5.35Y-2.6
X5.35Y-2.75
X5.4Y-2.65
X5.4Y-2.95
X5.4125Y-4.6905
X5.415Y-3.25
X5.45Y-2.6
X5.45Y-2.7
X5.475Y-2.95
X5.495Y-4.09
X5.5Y-2.65
X5.5Y-2.75
X5.5125Y-4.6905
X5.53Y-3.04
X5.53Y-3.16
X5.545Y-4.02
X5.545Y-4.07
X5.55Y-2.6
X5.55Y-2.7
X5.585Y-3.24
X5.6Y-2.95
X5.6125Y-4.6905
X5.645Y-3.03
X5.645Y-3.16
X5.65Y-2.6
X5.65Y-2.7
X5.65Y-2.9
X5.7Y-2.95
X5.7125Y-4.6905
X5.75Y-2.6
X5.75Y-2.7
X5.8Y-2.775
X5.8Y-2.95
X5.8125Y-4.6905
X5.85Y-2.6
X5.85Y-2.69
X5.9125Y-4.6905
X5.95Y-2.6
X6.0125Y-4.6905
X6.015Y-3.09
X6.045Y-2.89
X6.05Y-2.69
X6.0643Y-2.5957
X6.1125Y-4.6905
X6.15Y-2.6
X6.205Y-3.09
X6.21Y-3.925
X6.2125Y-4.6905
X6.245Y-2.895
X6.25Y-2.6
X6.25Y-2.69
X6.26Y-3.23
X6.285Y-3.89
X6.3125Y-4.6905
X6.315Y-3.23
X6.35Y-2.6
X6.37Y-3.23
X6.4125Y-4.69
X6.45Y-2.6
X6.46Y-2.89
X6.465Y-2.79
X6.49Y-2.67
X6.49Y-4.49
X6.505Y-4.685
X6.52Y-3.02
X6.52Y-3.385
X6.525Y-2.6
X6.595Y-3.295
X6.6Y-4.685
X6.63Y-3.34
X6.635Y-2.96
X6.65Y-2.6
X6.675Y-3.385
X6.675Y-3.43
X6.69Y-3.02
X6.7Y-4.575
X6.7Y-4.685
X6.715Y-2.685
X6.7357Y-2.5957
X6.765Y-3.18
X6.765Y-3.36
X6.775Y-4.495
X6.8Y-4.685
X6.8057Y-2.5957
X6.815Y-4.1
X6.845Y-2.685
X6.875Y-4.12
X6.9Y-2.6
X6.925Y-4.35
X6.945Y-3.51
X6.945Y-3.575
X6.945Y-3.64
X6.945Y-3.82
X6.945Y-3.88
X6.945Y-3.94
X6.995Y-3.41
X6.995Y-4.065
X7.045Y-2.6
X7.045Y-2.675
X7.045Y-2.775
X7.045Y-2.875
X7.045Y-2.975
X7.045Y-3.25
X7.045Y-3.35
X7.045Y-3.45
X7.045Y-3.55
X7.045Y-3.65
X7.045Y-3.76
X7.045Y-3.85
X7.045Y-3.95
X7.045Y-4.0
X7.045Y-4.05
X7.045Y-4.35
X7.045Y-4.45
X7.05Y-4.15
X7.05Y-4.27
X4.8528Y-3.7176
X4.8528Y-3.812
X4.9472Y-3.7148
X4.9472Y-3.812
T4
X6.1417Y-3.1693
X6.1417Y-3.3268
X4.2913Y-4.4276
X4.2913Y-4.5276
X4.2913Y-4.6276
T5
X4.9Y-3.7648
T3
G00X4.122Y-2.6102
M15
G01X4.122Y-2.6496
M16
G05
G00X4.122Y-2.8406
M15
G01X4.122Y-2.8957
M16
G05
G00X4.6969Y-2.6102
M15
G01X4.6969Y-2.6496
M16
G05
G00X4.6969Y-2.8406
M15
G01X4.6969Y-2.8957
M16
G05
G00X6.6016Y-2.6437
M15
G01X6.6016Y-2.6201
M16
G05
G00X6.6016Y-2.8142
M15
G01X6.6016Y-2.7787
M16
G05
G00X6.9417Y-2.6437
M15
G01X6.9417Y-2.6201
M16
G05
G00X6.9417Y-2.8142
M15
G01X6.9417Y-2.7787
M16
G05
G00X5.1417Y-2.8091
M15
G01X5.1417Y-2.7697
M16
G05
G00X5.6457Y-2.8091
M15
G01X5.6457Y-2.7697
M16
G05
T0
M30
