G04 #@! TF.GenerationSoftware,KiCad,Pcbnew,5.1.0-rc2-unknown-036be7d~80~ubuntu16.04.1*
G04 #@! TF.CreationDate,2023-08-29T14:17:47+03:00*
G04 #@! TF.ProjectId,Neo6502_Rev_B,4e656f36-3530-4325-9f52-65765f422e6b,B*
G04 #@! TF.SameCoordinates,Original*
G04 #@! TF.FileFunction,Legend,Top*
G04 #@! TF.FilePolarity,Positive*
%FSLAX46Y46*%
G04 Gerber Fmt 4.6, Leading zero omitted, Abs format (unit mm)*
G04 Created by KiCad (PCBNEW 5.1.0-rc2-unknown-036be7d~80~ubuntu16.04.1) date 2023-08-29 14:17:47*
%MOMM*%
%LPD*%
G04 APERTURE LIST*
%ADD10C,0.254000*%
%ADD11C,0.381000*%
%ADD12C,0.317500*%
%ADD13C,0.010000*%
%ADD14C,0.400000*%
%ADD15C,0.700000*%
%ADD16C,0.500000*%
%ADD17C,0.100000*%
%ADD18C,0.150000*%
%ADD19C,0.050000*%
%ADD20C,0.127000*%
%ADD21C,0.200000*%
%ADD22C,0.762000*%
%ADD23C,0.222250*%
%ADD24C,0.158750*%
%ADD25C,0.203200*%
%ADD26C,0.225000*%
%ADD27C,0.250000*%
G04 APERTURE END LIST*
D10*
X169623619Y-111076619D02*
X169623619Y-110883095D01*
X169672000Y-110786333D01*
X169768761Y-110689571D01*
X169962285Y-110641190D01*
X170300952Y-110641190D01*
X170494476Y-110689571D01*
X170591238Y-110786333D01*
X170639619Y-110883095D01*
X170639619Y-111076619D01*
X170591238Y-111173380D01*
X170494476Y-111270142D01*
X170300952Y-111318523D01*
X169962285Y-111318523D01*
X169768761Y-111270142D01*
X169672000Y-111173380D01*
X169623619Y-111076619D01*
X170107428Y-109867095D02*
X170107428Y-110205761D01*
X170639619Y-110205761D02*
X169623619Y-110205761D01*
X169623619Y-109721952D01*
X170107428Y-108996238D02*
X170107428Y-109334904D01*
X170639619Y-109334904D02*
X169623619Y-109334904D01*
X169623619Y-108851095D01*
X167718619Y-107018666D02*
X167718619Y-106389714D01*
X168105666Y-106728380D01*
X168105666Y-106583238D01*
X168154047Y-106486476D01*
X168202428Y-106438095D01*
X168299190Y-106389714D01*
X168541095Y-106389714D01*
X168637857Y-106438095D01*
X168686238Y-106486476D01*
X168734619Y-106583238D01*
X168734619Y-106873523D01*
X168686238Y-106970285D01*
X168637857Y-107018666D01*
X167815380Y-105700285D02*
X167767000Y-105651904D01*
X167718619Y-105555142D01*
X167718619Y-105313238D01*
X167767000Y-105216476D01*
X167815380Y-105168095D01*
X167912142Y-105119714D01*
X168008904Y-105119714D01*
X168154047Y-105168095D01*
X168734619Y-105748666D01*
X168734619Y-105119714D01*
D11*
X170760571Y-115769571D02*
X170833142Y-115697000D01*
X170978285Y-115624428D01*
X171341142Y-115624428D01*
X171486285Y-115697000D01*
X171558857Y-115769571D01*
X171631428Y-115914714D01*
X171631428Y-116059857D01*
X171558857Y-116277571D01*
X170688000Y-117148428D01*
X171631428Y-117148428D01*
X111451571Y-87194571D02*
X111524142Y-87122000D01*
X111669285Y-87049428D01*
X112032142Y-87049428D01*
X112177285Y-87122000D01*
X112249857Y-87194571D01*
X112322428Y-87339714D01*
X112322428Y-87484857D01*
X112249857Y-87702571D01*
X111379000Y-88573428D01*
X112322428Y-88573428D01*
D12*
X101200857Y-88585523D02*
X100475142Y-88585523D01*
X100838000Y-88585523D02*
X100838000Y-87315523D01*
X100717047Y-87496952D01*
X100596095Y-87617904D01*
X100475142Y-87678380D01*
D11*
X171631428Y-113338428D02*
X170760571Y-113338428D01*
X171196000Y-113338428D02*
X171196000Y-111814428D01*
X171050857Y-112032142D01*
X170905714Y-112177285D01*
X170760571Y-112249857D01*
D10*
X176470000Y-69550000D02*
X176470000Y-68250000D01*
X167530000Y-69550000D02*
X167530000Y-68250000D01*
X176470000Y-63682000D02*
X167530000Y-63682000D01*
X167530000Y-63682000D02*
X167530000Y-65550000D01*
X176470000Y-65550000D02*
X176470000Y-63682000D01*
D13*
G36*
X156790690Y-100159720D02*
G01*
X157043724Y-100195518D01*
X157286915Y-100256453D01*
X157342114Y-100274372D01*
X157406937Y-100297629D01*
X157471129Y-100322813D01*
X157530670Y-100348028D01*
X157581536Y-100371378D01*
X157619708Y-100390967D01*
X157641164Y-100404899D01*
X157641881Y-100411278D01*
X157631471Y-100410807D01*
X157374439Y-100382686D01*
X157133836Y-100375783D01*
X156905697Y-100390659D01*
X156686054Y-100427878D01*
X156470941Y-100488001D01*
X156256391Y-100571590D01*
X156151943Y-100620459D01*
X155926407Y-100747283D01*
X155718984Y-100896219D01*
X155530730Y-101065890D01*
X155362698Y-101254920D01*
X155215944Y-101461933D01*
X155091524Y-101685552D01*
X154990492Y-101924400D01*
X154913904Y-102177102D01*
X154894788Y-102260400D01*
X154875794Y-102378780D01*
X154864216Y-102514115D01*
X154860050Y-102657628D01*
X154863297Y-102800541D01*
X154873955Y-102934077D01*
X154892022Y-103049458D01*
X154894902Y-103062611D01*
X154957348Y-103274881D01*
X155043865Y-103473402D01*
X155152590Y-103656669D01*
X155281659Y-103823177D01*
X155429211Y-103971423D01*
X155593382Y-104099901D01*
X155772310Y-104207108D01*
X155964130Y-104291539D01*
X156166981Y-104351688D01*
X156378999Y-104386053D01*
X156543531Y-104394000D01*
X156768869Y-104380198D01*
X156984970Y-104339012D01*
X157190985Y-104270770D01*
X157386068Y-104175801D01*
X157569374Y-104054435D01*
X157700790Y-103944282D01*
X157850545Y-103787173D01*
X157977708Y-103613960D01*
X158081099Y-103427318D01*
X158159539Y-103229920D01*
X158211846Y-103024441D01*
X158236841Y-102813555D01*
X158238914Y-102724857D01*
X158225821Y-102524597D01*
X158188196Y-102339410D01*
X158125567Y-102168128D01*
X158037463Y-102009582D01*
X157923409Y-101862602D01*
X157866229Y-101802625D01*
X157720110Y-101677375D01*
X157559045Y-101576544D01*
X157381676Y-101499356D01*
X157276800Y-101466733D01*
X157195206Y-101451214D01*
X157094211Y-101442019D01*
X156982723Y-101439060D01*
X156869653Y-101442250D01*
X156763910Y-101451503D01*
X156674404Y-101466730D01*
X156650591Y-101472866D01*
X156470153Y-101538562D01*
X156304684Y-101626588D01*
X156155898Y-101734754D01*
X156025509Y-101860865D01*
X155915231Y-102002728D01*
X155826777Y-102158151D01*
X155761862Y-102324941D01*
X155722199Y-102500905D01*
X155709472Y-102677074D01*
X155721653Y-102839933D01*
X155758008Y-102987418D01*
X155819113Y-103121066D01*
X155905546Y-103242412D01*
X155933815Y-103273811D01*
X156049418Y-103379283D01*
X156172411Y-103457304D01*
X156305605Y-103509087D01*
X156451809Y-103535845D01*
X156551086Y-103540401D01*
X156642386Y-103538096D01*
X156715106Y-103530361D01*
X156779390Y-103515960D01*
X156797829Y-103510385D01*
X156935371Y-103452418D01*
X157059508Y-103372001D01*
X157167736Y-103272470D01*
X157257554Y-103157164D01*
X157326458Y-103029421D01*
X157371948Y-102892580D01*
X157391519Y-102749978D01*
X157392096Y-102717600D01*
X157378397Y-102606834D01*
X157339968Y-102505961D01*
X157279277Y-102419106D01*
X157198794Y-102350393D01*
X157158458Y-102327322D01*
X157066075Y-102296319D01*
X156964990Y-102287901D01*
X156864848Y-102302158D01*
X156803906Y-102324054D01*
X156712190Y-102382225D01*
X156637870Y-102461125D01*
X156584722Y-102555849D01*
X156559676Y-102641400D01*
X156549770Y-102695828D01*
X156769418Y-102695828D01*
X156989066Y-102695829D01*
X156979468Y-102757514D01*
X156955875Y-102843661D01*
X156915095Y-102926704D01*
X156862818Y-102996157D01*
X156836754Y-103020431D01*
X156764849Y-103072481D01*
X156698001Y-103105045D01*
X156624985Y-103122670D01*
X156570847Y-103128145D01*
X156509102Y-103130242D01*
X156462815Y-103125538D01*
X156418794Y-103111916D01*
X156388756Y-103098937D01*
X156291293Y-103042470D01*
X156216728Y-102971476D01*
X156163410Y-102887150D01*
X156142518Y-102840379D01*
X156130374Y-102798472D01*
X156124845Y-102750327D01*
X156123793Y-102684840D01*
X156123817Y-102681314D01*
X156138878Y-102529525D01*
X156181544Y-102386358D01*
X156251461Y-102252629D01*
X156348277Y-102129151D01*
X156375885Y-102100727D01*
X156496065Y-102001507D01*
X156629573Y-101926808D01*
X156772991Y-101877526D01*
X156922899Y-101854553D01*
X157075881Y-101858783D01*
X157204473Y-101884072D01*
X157307864Y-101918230D01*
X157396427Y-101961259D01*
X157479970Y-102018822D01*
X157561867Y-102090468D01*
X157666331Y-102208258D01*
X157745131Y-102339477D01*
X157798005Y-102483501D01*
X157824689Y-102639709D01*
X157828128Y-102721840D01*
X157814141Y-102905751D01*
X157771966Y-103084809D01*
X157702271Y-103257286D01*
X157605730Y-103421459D01*
X157506680Y-103549044D01*
X157372602Y-103681271D01*
X157220162Y-103791459D01*
X157051028Y-103878573D01*
X156875565Y-103939250D01*
X156706115Y-103971707D01*
X156529166Y-103980649D01*
X156353633Y-103966068D01*
X156228710Y-103939810D01*
X156042435Y-103874985D01*
X155872486Y-103786860D01*
X155720295Y-103676820D01*
X155587293Y-103546253D01*
X155474914Y-103396543D01*
X155384588Y-103229077D01*
X155322983Y-103063148D01*
X155298721Y-102956496D01*
X155282591Y-102830865D01*
X155274966Y-102695251D01*
X155276217Y-102558648D01*
X155286718Y-102430050D01*
X155294579Y-102377082D01*
X155348357Y-102151235D01*
X155429259Y-101934931D01*
X155536538Y-101729606D01*
X155669445Y-101536693D01*
X155825371Y-101359509D01*
X156001317Y-101200201D01*
X156188739Y-101067266D01*
X156388528Y-100960286D01*
X156601577Y-100878846D01*
X156828777Y-100822528D01*
X157034869Y-100793988D01*
X157259993Y-100786538D01*
X157480445Y-100806649D01*
X157697991Y-100854686D01*
X157914397Y-100931018D01*
X158088582Y-101013065D01*
X158282543Y-101130535D01*
X158462009Y-101271595D01*
X158623381Y-101433011D01*
X158763063Y-101611550D01*
X158776922Y-101632053D01*
X158892619Y-101825868D01*
X158981366Y-102020921D01*
X159044728Y-102222079D01*
X159084274Y-102434209D01*
X159100769Y-102637771D01*
X159096458Y-102901241D01*
X159064383Y-103160171D01*
X159005687Y-103412683D01*
X158921510Y-103656895D01*
X158812997Y-103890925D01*
X158681289Y-104112893D01*
X158527529Y-104320919D01*
X158352859Y-104513120D01*
X158158422Y-104687617D01*
X157945360Y-104842528D01*
X157714815Y-104975972D01*
X157665830Y-105000345D01*
X157494784Y-105074998D01*
X157312864Y-105139809D01*
X157133114Y-105190327D01*
X157063761Y-105205736D01*
X157001565Y-105216665D01*
X156923467Y-105227881D01*
X156836329Y-105238669D01*
X156747013Y-105248314D01*
X156662380Y-105256102D01*
X156589292Y-105261318D01*
X156534611Y-105263248D01*
X156516321Y-105262756D01*
X156489446Y-105260853D01*
X156441297Y-105257393D01*
X156379551Y-105252929D01*
X156333371Y-105249578D01*
X156218624Y-105236826D01*
X156087423Y-105214965D01*
X155950090Y-105186111D01*
X155816941Y-105152377D01*
X155725844Y-105125085D01*
X155638509Y-105092521D01*
X155534920Y-105047211D01*
X155422629Y-104993020D01*
X155309186Y-104933815D01*
X155202142Y-104873460D01*
X155109048Y-104815823D01*
X155070629Y-104789614D01*
X154982159Y-104721090D01*
X154883628Y-104635373D01*
X154781076Y-104538507D01*
X154680547Y-104436534D01*
X154588081Y-104335497D01*
X154509720Y-104241439D01*
X154471938Y-104190800D01*
X154331429Y-103967167D01*
X154212169Y-103726654D01*
X154116328Y-103474254D01*
X154046074Y-103214964D01*
X154043860Y-103204676D01*
X154030953Y-103141906D01*
X154021253Y-103087272D01*
X154014310Y-103034855D01*
X154009672Y-102978734D01*
X154006888Y-102912990D01*
X154005506Y-102831702D01*
X154005075Y-102728951D01*
X154005064Y-102695829D01*
X154006283Y-102555686D01*
X154010631Y-102437382D01*
X154019197Y-102333795D01*
X154033074Y-102237806D01*
X154053352Y-102142297D01*
X154081123Y-102040146D01*
X154117478Y-101924234D01*
X154128386Y-101891220D01*
X154226401Y-101641720D01*
X154348864Y-101406259D01*
X154494111Y-101186322D01*
X154660479Y-100983397D01*
X154846306Y-100798971D01*
X155049929Y-100634531D01*
X155269684Y-100491563D01*
X155503909Y-100371554D01*
X155750940Y-100275991D01*
X156009115Y-100206361D01*
X156014057Y-100205312D01*
X156271704Y-100164401D01*
X156531966Y-100149276D01*
X156790690Y-100159720D01*
X156790690Y-100159720D01*
G37*
X156790690Y-100159720D02*
X157043724Y-100195518D01*
X157286915Y-100256453D01*
X157342114Y-100274372D01*
X157406937Y-100297629D01*
X157471129Y-100322813D01*
X157530670Y-100348028D01*
X157581536Y-100371378D01*
X157619708Y-100390967D01*
X157641164Y-100404899D01*
X157641881Y-100411278D01*
X157631471Y-100410807D01*
X157374439Y-100382686D01*
X157133836Y-100375783D01*
X156905697Y-100390659D01*
X156686054Y-100427878D01*
X156470941Y-100488001D01*
X156256391Y-100571590D01*
X156151943Y-100620459D01*
X155926407Y-100747283D01*
X155718984Y-100896219D01*
X155530730Y-101065890D01*
X155362698Y-101254920D01*
X155215944Y-101461933D01*
X155091524Y-101685552D01*
X154990492Y-101924400D01*
X154913904Y-102177102D01*
X154894788Y-102260400D01*
X154875794Y-102378780D01*
X154864216Y-102514115D01*
X154860050Y-102657628D01*
X154863297Y-102800541D01*
X154873955Y-102934077D01*
X154892022Y-103049458D01*
X154894902Y-103062611D01*
X154957348Y-103274881D01*
X155043865Y-103473402D01*
X155152590Y-103656669D01*
X155281659Y-103823177D01*
X155429211Y-103971423D01*
X155593382Y-104099901D01*
X155772310Y-104207108D01*
X155964130Y-104291539D01*
X156166981Y-104351688D01*
X156378999Y-104386053D01*
X156543531Y-104394000D01*
X156768869Y-104380198D01*
X156984970Y-104339012D01*
X157190985Y-104270770D01*
X157386068Y-104175801D01*
X157569374Y-104054435D01*
X157700790Y-103944282D01*
X157850545Y-103787173D01*
X157977708Y-103613960D01*
X158081099Y-103427318D01*
X158159539Y-103229920D01*
X158211846Y-103024441D01*
X158236841Y-102813555D01*
X158238914Y-102724857D01*
X158225821Y-102524597D01*
X158188196Y-102339410D01*
X158125567Y-102168128D01*
X158037463Y-102009582D01*
X157923409Y-101862602D01*
X157866229Y-101802625D01*
X157720110Y-101677375D01*
X157559045Y-101576544D01*
X157381676Y-101499356D01*
X157276800Y-101466733D01*
X157195206Y-101451214D01*
X157094211Y-101442019D01*
X156982723Y-101439060D01*
X156869653Y-101442250D01*
X156763910Y-101451503D01*
X156674404Y-101466730D01*
X156650591Y-101472866D01*
X156470153Y-101538562D01*
X156304684Y-101626588D01*
X156155898Y-101734754D01*
X156025509Y-101860865D01*
X155915231Y-102002728D01*
X155826777Y-102158151D01*
X155761862Y-102324941D01*
X155722199Y-102500905D01*
X155709472Y-102677074D01*
X155721653Y-102839933D01*
X155758008Y-102987418D01*
X155819113Y-103121066D01*
X155905546Y-103242412D01*
X155933815Y-103273811D01*
X156049418Y-103379283D01*
X156172411Y-103457304D01*
X156305605Y-103509087D01*
X156451809Y-103535845D01*
X156551086Y-103540401D01*
X156642386Y-103538096D01*
X156715106Y-103530361D01*
X156779390Y-103515960D01*
X156797829Y-103510385D01*
X156935371Y-103452418D01*
X157059508Y-103372001D01*
X157167736Y-103272470D01*
X157257554Y-103157164D01*
X157326458Y-103029421D01*
X157371948Y-102892580D01*
X157391519Y-102749978D01*
X157392096Y-102717600D01*
X157378397Y-102606834D01*
X157339968Y-102505961D01*
X157279277Y-102419106D01*
X157198794Y-102350393D01*
X157158458Y-102327322D01*
X157066075Y-102296319D01*
X156964990Y-102287901D01*
X156864848Y-102302158D01*
X156803906Y-102324054D01*
X156712190Y-102382225D01*
X156637870Y-102461125D01*
X156584722Y-102555849D01*
X156559676Y-102641400D01*
X156549770Y-102695828D01*
X156769418Y-102695828D01*
X156989066Y-102695829D01*
X156979468Y-102757514D01*
X156955875Y-102843661D01*
X156915095Y-102926704D01*
X156862818Y-102996157D01*
X156836754Y-103020431D01*
X156764849Y-103072481D01*
X156698001Y-103105045D01*
X156624985Y-103122670D01*
X156570847Y-103128145D01*
X156509102Y-103130242D01*
X156462815Y-103125538D01*
X156418794Y-103111916D01*
X156388756Y-103098937D01*
X156291293Y-103042470D01*
X156216728Y-102971476D01*
X156163410Y-102887150D01*
X156142518Y-102840379D01*
X156130374Y-102798472D01*
X156124845Y-102750327D01*
X156123793Y-102684840D01*
X156123817Y-102681314D01*
X156138878Y-102529525D01*
X156181544Y-102386358D01*
X156251461Y-102252629D01*
X156348277Y-102129151D01*
X156375885Y-102100727D01*
X156496065Y-102001507D01*
X156629573Y-101926808D01*
X156772991Y-101877526D01*
X156922899Y-101854553D01*
X157075881Y-101858783D01*
X157204473Y-101884072D01*
X157307864Y-101918230D01*
X157396427Y-101961259D01*
X157479970Y-102018822D01*
X157561867Y-102090468D01*
X157666331Y-102208258D01*
X157745131Y-102339477D01*
X157798005Y-102483501D01*
X157824689Y-102639709D01*
X157828128Y-102721840D01*
X157814141Y-102905751D01*
X157771966Y-103084809D01*
X157702271Y-103257286D01*
X157605730Y-103421459D01*
X157506680Y-103549044D01*
X157372602Y-103681271D01*
X157220162Y-103791459D01*
X157051028Y-103878573D01*
X156875565Y-103939250D01*
X156706115Y-103971707D01*
X156529166Y-103980649D01*
X156353633Y-103966068D01*
X156228710Y-103939810D01*
X156042435Y-103874985D01*
X155872486Y-103786860D01*
X155720295Y-103676820D01*
X155587293Y-103546253D01*
X155474914Y-103396543D01*
X155384588Y-103229077D01*
X155322983Y-103063148D01*
X155298721Y-102956496D01*
X155282591Y-102830865D01*
X155274966Y-102695251D01*
X155276217Y-102558648D01*
X155286718Y-102430050D01*
X155294579Y-102377082D01*
X155348357Y-102151235D01*
X155429259Y-101934931D01*
X155536538Y-101729606D01*
X155669445Y-101536693D01*
X155825371Y-101359509D01*
X156001317Y-101200201D01*
X156188739Y-101067266D01*
X156388528Y-100960286D01*
X156601577Y-100878846D01*
X156828777Y-100822528D01*
X157034869Y-100793988D01*
X157259993Y-100786538D01*
X157480445Y-100806649D01*
X157697991Y-100854686D01*
X157914397Y-100931018D01*
X158088582Y-101013065D01*
X158282543Y-101130535D01*
X158462009Y-101271595D01*
X158623381Y-101433011D01*
X158763063Y-101611550D01*
X158776922Y-101632053D01*
X158892619Y-101825868D01*
X158981366Y-102020921D01*
X159044728Y-102222079D01*
X159084274Y-102434209D01*
X159100769Y-102637771D01*
X159096458Y-102901241D01*
X159064383Y-103160171D01*
X159005687Y-103412683D01*
X158921510Y-103656895D01*
X158812997Y-103890925D01*
X158681289Y-104112893D01*
X158527529Y-104320919D01*
X158352859Y-104513120D01*
X158158422Y-104687617D01*
X157945360Y-104842528D01*
X157714815Y-104975972D01*
X157665830Y-105000345D01*
X157494784Y-105074998D01*
X157312864Y-105139809D01*
X157133114Y-105190327D01*
X157063761Y-105205736D01*
X157001565Y-105216665D01*
X156923467Y-105227881D01*
X156836329Y-105238669D01*
X156747013Y-105248314D01*
X156662380Y-105256102D01*
X156589292Y-105261318D01*
X156534611Y-105263248D01*
X156516321Y-105262756D01*
X156489446Y-105260853D01*
X156441297Y-105257393D01*
X156379551Y-105252929D01*
X156333371Y-105249578D01*
X156218624Y-105236826D01*
X156087423Y-105214965D01*
X155950090Y-105186111D01*
X155816941Y-105152377D01*
X155725844Y-105125085D01*
X155638509Y-105092521D01*
X155534920Y-105047211D01*
X155422629Y-104993020D01*
X155309186Y-104933815D01*
X155202142Y-104873460D01*
X155109048Y-104815823D01*
X155070629Y-104789614D01*
X154982159Y-104721090D01*
X154883628Y-104635373D01*
X154781076Y-104538507D01*
X154680547Y-104436534D01*
X154588081Y-104335497D01*
X154509720Y-104241439D01*
X154471938Y-104190800D01*
X154331429Y-103967167D01*
X154212169Y-103726654D01*
X154116328Y-103474254D01*
X154046074Y-103214964D01*
X154043860Y-103204676D01*
X154030953Y-103141906D01*
X154021253Y-103087272D01*
X154014310Y-103034855D01*
X154009672Y-102978734D01*
X154006888Y-102912990D01*
X154005506Y-102831702D01*
X154005075Y-102728951D01*
X154005064Y-102695829D01*
X154006283Y-102555686D01*
X154010631Y-102437382D01*
X154019197Y-102333795D01*
X154033074Y-102237806D01*
X154053352Y-102142297D01*
X154081123Y-102040146D01*
X154117478Y-101924234D01*
X154128386Y-101891220D01*
X154226401Y-101641720D01*
X154348864Y-101406259D01*
X154494111Y-101186322D01*
X154660479Y-100983397D01*
X154846306Y-100798971D01*
X155049929Y-100634531D01*
X155269684Y-100491563D01*
X155503909Y-100371554D01*
X155750940Y-100275991D01*
X156009115Y-100206361D01*
X156014057Y-100205312D01*
X156271704Y-100164401D01*
X156531966Y-100149276D01*
X156790690Y-100159720D01*
G36*
X162726135Y-106324204D02*
G01*
X162831978Y-106338922D01*
X162857543Y-106344522D01*
X162995735Y-106390365D01*
X163116010Y-106456261D01*
X163216298Y-106540677D01*
X163294524Y-106642078D01*
X163318654Y-106685995D01*
X163341316Y-106734970D01*
X163355076Y-106776190D01*
X163362127Y-106820321D01*
X163364662Y-106878025D01*
X163364913Y-106910966D01*
X163363791Y-106980234D01*
X163358768Y-107031065D01*
X163347944Y-107073983D01*
X163329420Y-107119511D01*
X163325881Y-107127170D01*
X163265083Y-107224412D01*
X163178096Y-107313642D01*
X163067051Y-107393226D01*
X162934078Y-107461535D01*
X162843029Y-107496997D01*
X162795253Y-107513060D01*
X162728338Y-107534799D01*
X162650916Y-107559442D01*
X162571620Y-107584216D01*
X162566428Y-107585820D01*
X162491760Y-107610197D01*
X162422919Y-107635076D01*
X162366904Y-107657769D01*
X162330711Y-107675585D01*
X162327315Y-107677744D01*
X162298996Y-107698986D01*
X162276860Y-107722941D01*
X162255824Y-107756881D01*
X162230802Y-107808080D01*
X162220688Y-107830257D01*
X162199368Y-107877429D01*
X163372800Y-107877429D01*
X163372800Y-108298343D01*
X161747200Y-108298343D01*
X161747200Y-108040135D01*
X161749990Y-107896113D01*
X161759199Y-107776513D01*
X161776085Y-107677192D01*
X161801904Y-107594007D01*
X161837914Y-107522815D01*
X161885373Y-107459472D01*
X161940028Y-107404746D01*
X161988647Y-107363855D01*
X162039304Y-107328023D01*
X162096461Y-107295115D01*
X162164576Y-107262995D01*
X162248111Y-107229527D01*
X162351525Y-107192576D01*
X162456468Y-107157463D01*
X162586500Y-107113216D01*
X162690241Y-107073852D01*
X162769726Y-107037899D01*
X162826988Y-107003885D01*
X162864062Y-106970338D01*
X162882979Y-106935785D01*
X162885776Y-106898754D01*
X162874485Y-106857774D01*
X162873568Y-106855550D01*
X162837392Y-106805860D01*
X162777280Y-106769955D01*
X162695304Y-106748730D01*
X162612625Y-106742905D01*
X162528460Y-106744853D01*
X162462529Y-106752891D01*
X162404308Y-106769177D01*
X162343272Y-106795864D01*
X162335778Y-106799606D01*
X162279174Y-106831563D01*
X162220026Y-106870541D01*
X162165109Y-106911453D01*
X162121196Y-106949210D01*
X162095060Y-106978727D01*
X162093317Y-106981702D01*
X162085991Y-106990832D01*
X162075186Y-106991818D01*
X162057740Y-106982275D01*
X162030490Y-106959820D01*
X161990272Y-106922068D01*
X161933925Y-106866637D01*
X161913029Y-106845832D01*
X161849049Y-106782463D01*
X161803976Y-106735913D01*
X161777346Y-106701384D01*
X161768695Y-106674075D01*
X161777560Y-106649186D01*
X161803475Y-106621917D01*
X161845979Y-106587468D01*
X161885086Y-106556722D01*
X162031894Y-106456274D01*
X162186545Y-106381640D01*
X162276971Y-106351352D01*
X162372856Y-106331901D01*
X162486436Y-106320813D01*
X162607575Y-106318208D01*
X162726135Y-106324204D01*
X162726135Y-106324204D01*
G37*
X162726135Y-106324204D02*
X162831978Y-106338922D01*
X162857543Y-106344522D01*
X162995735Y-106390365D01*
X163116010Y-106456261D01*
X163216298Y-106540677D01*
X163294524Y-106642078D01*
X163318654Y-106685995D01*
X163341316Y-106734970D01*
X163355076Y-106776190D01*
X163362127Y-106820321D01*
X163364662Y-106878025D01*
X163364913Y-106910966D01*
X163363791Y-106980234D01*
X163358768Y-107031065D01*
X163347944Y-107073983D01*
X163329420Y-107119511D01*
X163325881Y-107127170D01*
X163265083Y-107224412D01*
X163178096Y-107313642D01*
X163067051Y-107393226D01*
X162934078Y-107461535D01*
X162843029Y-107496997D01*
X162795253Y-107513060D01*
X162728338Y-107534799D01*
X162650916Y-107559442D01*
X162571620Y-107584216D01*
X162566428Y-107585820D01*
X162491760Y-107610197D01*
X162422919Y-107635076D01*
X162366904Y-107657769D01*
X162330711Y-107675585D01*
X162327315Y-107677744D01*
X162298996Y-107698986D01*
X162276860Y-107722941D01*
X162255824Y-107756881D01*
X162230802Y-107808080D01*
X162220688Y-107830257D01*
X162199368Y-107877429D01*
X163372800Y-107877429D01*
X163372800Y-108298343D01*
X161747200Y-108298343D01*
X161747200Y-108040135D01*
X161749990Y-107896113D01*
X161759199Y-107776513D01*
X161776085Y-107677192D01*
X161801904Y-107594007D01*
X161837914Y-107522815D01*
X161885373Y-107459472D01*
X161940028Y-107404746D01*
X161988647Y-107363855D01*
X162039304Y-107328023D01*
X162096461Y-107295115D01*
X162164576Y-107262995D01*
X162248111Y-107229527D01*
X162351525Y-107192576D01*
X162456468Y-107157463D01*
X162586500Y-107113216D01*
X162690241Y-107073852D01*
X162769726Y-107037899D01*
X162826988Y-107003885D01*
X162864062Y-106970338D01*
X162882979Y-106935785D01*
X162885776Y-106898754D01*
X162874485Y-106857774D01*
X162873568Y-106855550D01*
X162837392Y-106805860D01*
X162777280Y-106769955D01*
X162695304Y-106748730D01*
X162612625Y-106742905D01*
X162528460Y-106744853D01*
X162462529Y-106752891D01*
X162404308Y-106769177D01*
X162343272Y-106795864D01*
X162335778Y-106799606D01*
X162279174Y-106831563D01*
X162220026Y-106870541D01*
X162165109Y-106911453D01*
X162121196Y-106949210D01*
X162095060Y-106978727D01*
X162093317Y-106981702D01*
X162085991Y-106990832D01*
X162075186Y-106991818D01*
X162057740Y-106982275D01*
X162030490Y-106959820D01*
X161990272Y-106922068D01*
X161933925Y-106866637D01*
X161913029Y-106845832D01*
X161849049Y-106782463D01*
X161803976Y-106735913D01*
X161777346Y-106701384D01*
X161768695Y-106674075D01*
X161777560Y-106649186D01*
X161803475Y-106621917D01*
X161845979Y-106587468D01*
X161885086Y-106556722D01*
X162031894Y-106456274D01*
X162186545Y-106381640D01*
X162276971Y-106351352D01*
X162372856Y-106331901D01*
X162486436Y-106320813D01*
X162607575Y-106318208D01*
X162726135Y-106324204D01*
G36*
X150536282Y-106811994D02*
G01*
X150625716Y-106917014D01*
X150712155Y-107019577D01*
X150793104Y-107116646D01*
X150866069Y-107205186D01*
X150928554Y-107282160D01*
X150978065Y-107344533D01*
X151012105Y-107389268D01*
X151021143Y-107401999D01*
X151100971Y-107518924D01*
X151104763Y-106928919D01*
X151108554Y-106338914D01*
X151587200Y-106338914D01*
X151587200Y-108298343D01*
X151186336Y-108298343D01*
X151120767Y-108222143D01*
X150998984Y-108080073D01*
X150881151Y-107941564D01*
X150769022Y-107808735D01*
X150664347Y-107683705D01*
X150568879Y-107568596D01*
X150484371Y-107465526D01*
X150412573Y-107376616D01*
X150355239Y-107303984D01*
X150314121Y-107249751D01*
X150297158Y-107225727D01*
X150215600Y-107103796D01*
X150211810Y-107701070D01*
X150208021Y-108298343D01*
X149729371Y-108298343D01*
X149729371Y-106338914D01*
X150131250Y-106338914D01*
X150536282Y-106811994D01*
X150536282Y-106811994D01*
G37*
X150536282Y-106811994D02*
X150625716Y-106917014D01*
X150712155Y-107019577D01*
X150793104Y-107116646D01*
X150866069Y-107205186D01*
X150928554Y-107282160D01*
X150978065Y-107344533D01*
X151012105Y-107389268D01*
X151021143Y-107401999D01*
X151100971Y-107518924D01*
X151104763Y-106928919D01*
X151108554Y-106338914D01*
X151587200Y-106338914D01*
X151587200Y-108298343D01*
X151186336Y-108298343D01*
X151120767Y-108222143D01*
X150998984Y-108080073D01*
X150881151Y-107941564D01*
X150769022Y-107808735D01*
X150664347Y-107683705D01*
X150568879Y-107568596D01*
X150484371Y-107465526D01*
X150412573Y-107376616D01*
X150355239Y-107303984D01*
X150314121Y-107249751D01*
X150297158Y-107225727D01*
X150215600Y-107103796D01*
X150211810Y-107701070D01*
X150208021Y-108298343D01*
X149729371Y-108298343D01*
X149729371Y-106338914D01*
X150131250Y-106338914D01*
X150536282Y-106811994D01*
G36*
X160667149Y-106317107D02*
G01*
X160740479Y-106327726D01*
X160753271Y-106329864D01*
X160909930Y-106369546D01*
X161049398Y-106432307D01*
X161171020Y-106517367D01*
X161274139Y-106623946D01*
X161358099Y-106751262D01*
X161422244Y-106898537D01*
X161465919Y-107064989D01*
X161484643Y-107199719D01*
X161490571Y-107381355D01*
X161474730Y-107552988D01*
X161438116Y-107712402D01*
X161381725Y-107857384D01*
X161306551Y-107985717D01*
X161213591Y-108095188D01*
X161103841Y-108183581D01*
X161021486Y-108229875D01*
X160871754Y-108285779D01*
X160710429Y-108317796D01*
X160543485Y-108325145D01*
X160399665Y-108311088D01*
X160256942Y-108273397D01*
X160123626Y-108210854D01*
X160003656Y-108126380D01*
X159900972Y-108022895D01*
X159819513Y-107903319D01*
X159800976Y-107867209D01*
X159760147Y-107773177D01*
X159730698Y-107682548D01*
X159711153Y-107587724D01*
X159700035Y-107481106D01*
X159695865Y-107355095D01*
X159695734Y-107325886D01*
X159695803Y-107310217D01*
X160169250Y-107310217D01*
X160174566Y-107430537D01*
X160192193Y-107545680D01*
X160221640Y-107649809D01*
X160262417Y-107737088D01*
X160300239Y-107788084D01*
X160355972Y-107832207D01*
X160429087Y-107868217D01*
X160508048Y-107890504D01*
X160512331Y-107891220D01*
X160554393Y-107896851D01*
X160591896Y-107898132D01*
X160635461Y-107894715D01*
X160695707Y-107886253D01*
X160704128Y-107884949D01*
X160770583Y-107862616D01*
X160838090Y-107819467D01*
X160897619Y-107761908D01*
X160920371Y-107731552D01*
X160957625Y-107655081D01*
X160984591Y-107558032D01*
X161001138Y-107447019D01*
X161007137Y-107328658D01*
X161002459Y-107209563D01*
X160986972Y-107096349D01*
X160960548Y-106995632D01*
X160935981Y-106937098D01*
X160892973Y-106875068D01*
X160833803Y-106818611D01*
X160768427Y-106776320D01*
X160733255Y-106762159D01*
X160663553Y-106749385D01*
X160581137Y-106746071D01*
X160500733Y-106752205D01*
X160452625Y-106762383D01*
X160380925Y-106797329D01*
X160313592Y-106855039D01*
X160257005Y-106929318D01*
X160232068Y-106976556D01*
X160197511Y-107077390D01*
X160176735Y-107190556D01*
X160169250Y-107310217D01*
X159695803Y-107310217D01*
X159696132Y-107236199D01*
X159697995Y-107168222D01*
X159702136Y-107114641D01*
X159709371Y-107068144D01*
X159720514Y-107021418D01*
X159735303Y-106970676D01*
X159796571Y-106808743D01*
X159874710Y-106670348D01*
X159970216Y-106555060D01*
X160083587Y-106462446D01*
X160215319Y-106392075D01*
X160365909Y-106343516D01*
X160481274Y-106322474D01*
X160549963Y-106314819D01*
X160607783Y-106312917D01*
X160667149Y-106317107D01*
X160667149Y-106317107D01*
G37*
X160667149Y-106317107D02*
X160740479Y-106327726D01*
X160753271Y-106329864D01*
X160909930Y-106369546D01*
X161049398Y-106432307D01*
X161171020Y-106517367D01*
X161274139Y-106623946D01*
X161358099Y-106751262D01*
X161422244Y-106898537D01*
X161465919Y-107064989D01*
X161484643Y-107199719D01*
X161490571Y-107381355D01*
X161474730Y-107552988D01*
X161438116Y-107712402D01*
X161381725Y-107857384D01*
X161306551Y-107985717D01*
X161213591Y-108095188D01*
X161103841Y-108183581D01*
X161021486Y-108229875D01*
X160871754Y-108285779D01*
X160710429Y-108317796D01*
X160543485Y-108325145D01*
X160399665Y-108311088D01*
X160256942Y-108273397D01*
X160123626Y-108210854D01*
X160003656Y-108126380D01*
X159900972Y-108022895D01*
X159819513Y-107903319D01*
X159800976Y-107867209D01*
X159760147Y-107773177D01*
X159730698Y-107682548D01*
X159711153Y-107587724D01*
X159700035Y-107481106D01*
X159695865Y-107355095D01*
X159695734Y-107325886D01*
X159695803Y-107310217D01*
X160169250Y-107310217D01*
X160174566Y-107430537D01*
X160192193Y-107545680D01*
X160221640Y-107649809D01*
X160262417Y-107737088D01*
X160300239Y-107788084D01*
X160355972Y-107832207D01*
X160429087Y-107868217D01*
X160508048Y-107890504D01*
X160512331Y-107891220D01*
X160554393Y-107896851D01*
X160591896Y-107898132D01*
X160635461Y-107894715D01*
X160695707Y-107886253D01*
X160704128Y-107884949D01*
X160770583Y-107862616D01*
X160838090Y-107819467D01*
X160897619Y-107761908D01*
X160920371Y-107731552D01*
X160957625Y-107655081D01*
X160984591Y-107558032D01*
X161001138Y-107447019D01*
X161007137Y-107328658D01*
X161002459Y-107209563D01*
X160986972Y-107096349D01*
X160960548Y-106995632D01*
X160935981Y-106937098D01*
X160892973Y-106875068D01*
X160833803Y-106818611D01*
X160768427Y-106776320D01*
X160733255Y-106762159D01*
X160663553Y-106749385D01*
X160581137Y-106746071D01*
X160500733Y-106752205D01*
X160452625Y-106762383D01*
X160380925Y-106797329D01*
X160313592Y-106855039D01*
X160257005Y-106929318D01*
X160232068Y-106976556D01*
X160197511Y-107077390D01*
X160176735Y-107190556D01*
X160169250Y-107310217D01*
X159695803Y-107310217D01*
X159696132Y-107236199D01*
X159697995Y-107168222D01*
X159702136Y-107114641D01*
X159709371Y-107068144D01*
X159720514Y-107021418D01*
X159735303Y-106970676D01*
X159796571Y-106808743D01*
X159874710Y-106670348D01*
X159970216Y-106555060D01*
X160083587Y-106462446D01*
X160215319Y-106392075D01*
X160365909Y-106343516D01*
X160481274Y-106322474D01*
X160549963Y-106314819D01*
X160607783Y-106312917D01*
X160667149Y-106317107D01*
G36*
X159294286Y-106759829D02*
G01*
X158784508Y-106759829D01*
X158647320Y-106759979D01*
X158536658Y-106760495D01*
X158450020Y-106761478D01*
X158384907Y-106763027D01*
X158338817Y-106765241D01*
X158309249Y-106768220D01*
X158293702Y-106772063D01*
X158289675Y-106776871D01*
X158291036Y-106779475D01*
X158299044Y-106806022D01*
X158299699Y-106849137D01*
X158294128Y-106897624D01*
X158283461Y-106940290D01*
X158272652Y-106961917D01*
X158265357Y-106975514D01*
X158279131Y-106975434D01*
X158292800Y-106971606D01*
X158385854Y-106945616D01*
X158463642Y-106929803D01*
X158537468Y-106922648D01*
X158618637Y-106922638D01*
X158648400Y-106923915D01*
X158816413Y-106942793D01*
X158964050Y-106981685D01*
X159092317Y-107040974D01*
X159202222Y-107121040D01*
X159225248Y-107142671D01*
X159317449Y-107252164D01*
X159382813Y-107372181D01*
X159420898Y-107501430D01*
X159431261Y-107638623D01*
X159424097Y-107723454D01*
X159391623Y-107853498D01*
X159333742Y-107971411D01*
X159252149Y-108075471D01*
X159148535Y-108163952D01*
X159024595Y-108235132D01*
X158882022Y-108287286D01*
X158866114Y-108291569D01*
X158804750Y-108303022D01*
X158722991Y-108311982D01*
X158629391Y-108318120D01*
X158532503Y-108321105D01*
X158440881Y-108320608D01*
X158363077Y-108316298D01*
X158329771Y-108312262D01*
X158272406Y-108301782D01*
X158218172Y-108289533D01*
X158191886Y-108282205D01*
X158108384Y-108248482D01*
X158015703Y-108199638D01*
X157924343Y-108141889D01*
X157844807Y-108081453D01*
X157828343Y-108066965D01*
X157734000Y-107980967D01*
X157896544Y-107817534D01*
X158059089Y-107654101D01*
X158139535Y-107730184D01*
X158199480Y-107779390D01*
X158269425Y-107825961D01*
X158317846Y-107852063D01*
X158370388Y-107875011D01*
X158414711Y-107888843D01*
X158462102Y-107895851D01*
X158523848Y-107898328D01*
X158546569Y-107898530D01*
X158657174Y-107893318D01*
X158745398Y-107875442D01*
X158815644Y-107843433D01*
X158872313Y-107795821D01*
X158879840Y-107787330D01*
X158924610Y-107714806D01*
X158942449Y-107636573D01*
X158933518Y-107557342D01*
X158897981Y-107481822D01*
X158868021Y-107444494D01*
X158818222Y-107401123D01*
X158760504Y-107371672D01*
X158687786Y-107353451D01*
X158604857Y-107344510D01*
X158467150Y-107346104D01*
X158343326Y-107371349D01*
X158228454Y-107421793D01*
X158120951Y-107496234D01*
X158057960Y-107547683D01*
X157921380Y-107411671D01*
X157865135Y-107354894D01*
X157826730Y-107313516D01*
X157802882Y-107283023D01*
X157790312Y-107258900D01*
X157785739Y-107236631D01*
X157785428Y-107224572D01*
X157787445Y-107197170D01*
X157792828Y-107145204D01*
X157801082Y-107072881D01*
X157811710Y-106984409D01*
X157824217Y-106883995D01*
X157838107Y-106775845D01*
X157840199Y-106759829D01*
X157894342Y-106346171D01*
X159294286Y-106338635D01*
X159294286Y-106759829D01*
X159294286Y-106759829D01*
G37*
X159294286Y-106759829D02*
X158784508Y-106759829D01*
X158647320Y-106759979D01*
X158536658Y-106760495D01*
X158450020Y-106761478D01*
X158384907Y-106763027D01*
X158338817Y-106765241D01*
X158309249Y-106768220D01*
X158293702Y-106772063D01*
X158289675Y-106776871D01*
X158291036Y-106779475D01*
X158299044Y-106806022D01*
X158299699Y-106849137D01*
X158294128Y-106897624D01*
X158283461Y-106940290D01*
X158272652Y-106961917D01*
X158265357Y-106975514D01*
X158279131Y-106975434D01*
X158292800Y-106971606D01*
X158385854Y-106945616D01*
X158463642Y-106929803D01*
X158537468Y-106922648D01*
X158618637Y-106922638D01*
X158648400Y-106923915D01*
X158816413Y-106942793D01*
X158964050Y-106981685D01*
X159092317Y-107040974D01*
X159202222Y-107121040D01*
X159225248Y-107142671D01*
X159317449Y-107252164D01*
X159382813Y-107372181D01*
X159420898Y-107501430D01*
X159431261Y-107638623D01*
X159424097Y-107723454D01*
X159391623Y-107853498D01*
X159333742Y-107971411D01*
X159252149Y-108075471D01*
X159148535Y-108163952D01*
X159024595Y-108235132D01*
X158882022Y-108287286D01*
X158866114Y-108291569D01*
X158804750Y-108303022D01*
X158722991Y-108311982D01*
X158629391Y-108318120D01*
X158532503Y-108321105D01*
X158440881Y-108320608D01*
X158363077Y-108316298D01*
X158329771Y-108312262D01*
X158272406Y-108301782D01*
X158218172Y-108289533D01*
X158191886Y-108282205D01*
X158108384Y-108248482D01*
X158015703Y-108199638D01*
X157924343Y-108141889D01*
X157844807Y-108081453D01*
X157828343Y-108066965D01*
X157734000Y-107980967D01*
X157896544Y-107817534D01*
X158059089Y-107654101D01*
X158139535Y-107730184D01*
X158199480Y-107779390D01*
X158269425Y-107825961D01*
X158317846Y-107852063D01*
X158370388Y-107875011D01*
X158414711Y-107888843D01*
X158462102Y-107895851D01*
X158523848Y-107898328D01*
X158546569Y-107898530D01*
X158657174Y-107893318D01*
X158745398Y-107875442D01*
X158815644Y-107843433D01*
X158872313Y-107795821D01*
X158879840Y-107787330D01*
X158924610Y-107714806D01*
X158942449Y-107636573D01*
X158933518Y-107557342D01*
X158897981Y-107481822D01*
X158868021Y-107444494D01*
X158818222Y-107401123D01*
X158760504Y-107371672D01*
X158687786Y-107353451D01*
X158604857Y-107344510D01*
X158467150Y-107346104D01*
X158343326Y-107371349D01*
X158228454Y-107421793D01*
X158120951Y-107496234D01*
X158057960Y-107547683D01*
X157921380Y-107411671D01*
X157865135Y-107354894D01*
X157826730Y-107313516D01*
X157802882Y-107283023D01*
X157790312Y-107258900D01*
X157785739Y-107236631D01*
X157785428Y-107224572D01*
X157787445Y-107197170D01*
X157792828Y-107145204D01*
X157801082Y-107072881D01*
X157811710Y-106984409D01*
X157824217Y-106883995D01*
X157838107Y-106775845D01*
X157840199Y-106759829D01*
X157894342Y-106346171D01*
X159294286Y-106338635D01*
X159294286Y-106759829D01*
G36*
X156807253Y-106325212D02*
G01*
X156935438Y-106346282D01*
X157059007Y-106379592D01*
X157172249Y-106422871D01*
X157269453Y-106473845D01*
X157344907Y-106530240D01*
X157359958Y-106545191D01*
X157392247Y-106579560D01*
X157234908Y-106736411D01*
X157077570Y-106893261D01*
X157006642Y-106843443D01*
X156945903Y-106804075D01*
X156890756Y-106777702D01*
X156829736Y-106759996D01*
X156751380Y-106746629D01*
X156749561Y-106746377D01*
X156623760Y-106740450D01*
X156510077Y-106758295D01*
X156410689Y-106798949D01*
X156327773Y-106861453D01*
X156263507Y-106944846D01*
X156252115Y-106965846D01*
X156216266Y-107036591D01*
X156286741Y-107000879D01*
X156385091Y-106958921D01*
X156485854Y-106933326D01*
X156597559Y-106922513D01*
X156703486Y-106923575D01*
X156866322Y-106942269D01*
X157013987Y-106981945D01*
X157144786Y-107041309D01*
X157257026Y-107119073D01*
X157349014Y-107213944D01*
X157419057Y-107324633D01*
X157465461Y-107449849D01*
X157478816Y-107514571D01*
X157485814Y-107648332D01*
X157465651Y-107777645D01*
X157420154Y-107899565D01*
X157351152Y-108011148D01*
X157260473Y-108109449D01*
X157149944Y-108191523D01*
X157021394Y-108254425D01*
X157018961Y-108255350D01*
X156902125Y-108289955D01*
X156768895Y-108313506D01*
X156630173Y-108324833D01*
X156496858Y-108322766D01*
X156442229Y-108317247D01*
X156300642Y-108284982D01*
X156166949Y-108228401D01*
X156045332Y-108150467D01*
X155939971Y-108054146D01*
X155855048Y-107942403D01*
X155818268Y-107874811D01*
X155780719Y-107790073D01*
X155753404Y-107713549D01*
X155736015Y-107642452D01*
X156236146Y-107642452D01*
X156252347Y-107715342D01*
X156291194Y-107781525D01*
X156331423Y-107818484D01*
X156389446Y-107854659D01*
X156454533Y-107883864D01*
X156485771Y-107893760D01*
X156552830Y-107902427D01*
X156634432Y-107899629D01*
X156719101Y-107886774D01*
X156795363Y-107865271D01*
X156826227Y-107851983D01*
X156908649Y-107798154D01*
X156964705Y-107733108D01*
X156994035Y-107657306D01*
X156997463Y-107633661D01*
X156991797Y-107555278D01*
X156960940Y-107486123D01*
X156907833Y-107428253D01*
X156835415Y-107383729D01*
X156746625Y-107354609D01*
X156644404Y-107342955D01*
X156584919Y-107344628D01*
X156484065Y-107362236D01*
X156397536Y-107396767D01*
X156327407Y-107445139D01*
X156275749Y-107504266D01*
X156244638Y-107571065D01*
X156236146Y-107642452D01*
X155736015Y-107642452D01*
X155734832Y-107637616D01*
X155723513Y-107554649D01*
X155717957Y-107457025D01*
X155716651Y-107354914D01*
X155717250Y-107261876D01*
X155719573Y-107190660D01*
X155724323Y-107134079D01*
X155732204Y-107084945D01*
X155743920Y-107036069D01*
X155749982Y-107014483D01*
X155810647Y-106851706D01*
X155891984Y-106708645D01*
X155992493Y-106586278D01*
X156110676Y-106485580D01*
X156245035Y-106407529D01*
X156394070Y-106353103D01*
X156556282Y-106323278D01*
X156730173Y-106319031D01*
X156807253Y-106325212D01*
X156807253Y-106325212D01*
G37*
X156807253Y-106325212D02*
X156935438Y-106346282D01*
X157059007Y-106379592D01*
X157172249Y-106422871D01*
X157269453Y-106473845D01*
X157344907Y-106530240D01*
X157359958Y-106545191D01*
X157392247Y-106579560D01*
X157234908Y-106736411D01*
X157077570Y-106893261D01*
X157006642Y-106843443D01*
X156945903Y-106804075D01*
X156890756Y-106777702D01*
X156829736Y-106759996D01*
X156751380Y-106746629D01*
X156749561Y-106746377D01*
X156623760Y-106740450D01*
X156510077Y-106758295D01*
X156410689Y-106798949D01*
X156327773Y-106861453D01*
X156263507Y-106944846D01*
X156252115Y-106965846D01*
X156216266Y-107036591D01*
X156286741Y-107000879D01*
X156385091Y-106958921D01*
X156485854Y-106933326D01*
X156597559Y-106922513D01*
X156703486Y-106923575D01*
X156866322Y-106942269D01*
X157013987Y-106981945D01*
X157144786Y-107041309D01*
X157257026Y-107119073D01*
X157349014Y-107213944D01*
X157419057Y-107324633D01*
X157465461Y-107449849D01*
X157478816Y-107514571D01*
X157485814Y-107648332D01*
X157465651Y-107777645D01*
X157420154Y-107899565D01*
X157351152Y-108011148D01*
X157260473Y-108109449D01*
X157149944Y-108191523D01*
X157021394Y-108254425D01*
X157018961Y-108255350D01*
X156902125Y-108289955D01*
X156768895Y-108313506D01*
X156630173Y-108324833D01*
X156496858Y-108322766D01*
X156442229Y-108317247D01*
X156300642Y-108284982D01*
X156166949Y-108228401D01*
X156045332Y-108150467D01*
X155939971Y-108054146D01*
X155855048Y-107942403D01*
X155818268Y-107874811D01*
X155780719Y-107790073D01*
X155753404Y-107713549D01*
X155736015Y-107642452D01*
X156236146Y-107642452D01*
X156252347Y-107715342D01*
X156291194Y-107781525D01*
X156331423Y-107818484D01*
X156389446Y-107854659D01*
X156454533Y-107883864D01*
X156485771Y-107893760D01*
X156552830Y-107902427D01*
X156634432Y-107899629D01*
X156719101Y-107886774D01*
X156795363Y-107865271D01*
X156826227Y-107851983D01*
X156908649Y-107798154D01*
X156964705Y-107733108D01*
X156994035Y-107657306D01*
X156997463Y-107633661D01*
X156991797Y-107555278D01*
X156960940Y-107486123D01*
X156907833Y-107428253D01*
X156835415Y-107383729D01*
X156746625Y-107354609D01*
X156644404Y-107342955D01*
X156584919Y-107344628D01*
X156484065Y-107362236D01*
X156397536Y-107396767D01*
X156327407Y-107445139D01*
X156275749Y-107504266D01*
X156244638Y-107571065D01*
X156236146Y-107642452D01*
X155736015Y-107642452D01*
X155734832Y-107637616D01*
X155723513Y-107554649D01*
X155717957Y-107457025D01*
X155716651Y-107354914D01*
X155717250Y-107261876D01*
X155719573Y-107190660D01*
X155724323Y-107134079D01*
X155732204Y-107084945D01*
X155743920Y-107036069D01*
X155749982Y-107014483D01*
X155810647Y-106851706D01*
X155891984Y-106708645D01*
X155992493Y-106586278D01*
X156110676Y-106485580D01*
X156245035Y-106407529D01*
X156394070Y-106353103D01*
X156556282Y-106323278D01*
X156730173Y-106319031D01*
X156807253Y-106325212D01*
G36*
X154739249Y-106753111D02*
G01*
X154891326Y-106777926D01*
X155030757Y-106824120D01*
X155154925Y-106890448D01*
X155261214Y-106975666D01*
X155347005Y-107078529D01*
X155379435Y-107132490D01*
X155417509Y-107220528D01*
X155448540Y-107324442D01*
X155469354Y-107431338D01*
X155476776Y-107527779D01*
X155463649Y-107685717D01*
X155425901Y-107829888D01*
X155364684Y-107958755D01*
X155281150Y-108070782D01*
X155176452Y-108164434D01*
X155051742Y-108238174D01*
X154908172Y-108290467D01*
X154903714Y-108291654D01*
X154826525Y-108306457D01*
X154731757Y-108316402D01*
X154630536Y-108320981D01*
X154533984Y-108319685D01*
X154454457Y-108312200D01*
X154308172Y-108276780D01*
X154175302Y-108219543D01*
X154058811Y-108142513D01*
X153961663Y-108047715D01*
X153886822Y-107937174D01*
X153876834Y-107917586D01*
X153831265Y-107804197D01*
X153804860Y-107686812D01*
X153796110Y-107557177D01*
X153796621Y-107536343D01*
X154272626Y-107536343D01*
X154274195Y-107607782D01*
X154280040Y-107660452D01*
X154291870Y-107704498D01*
X154307090Y-107740987D01*
X154354695Y-107816200D01*
X154418424Y-107869960D01*
X154500127Y-107903190D01*
X154601654Y-107916810D01*
X154659693Y-107916585D01*
X154724716Y-107912427D01*
X154771356Y-107904471D01*
X154810238Y-107890015D01*
X154848379Y-107868598D01*
X154910980Y-107819911D01*
X154954469Y-107760617D01*
X154981480Y-107685484D01*
X154994647Y-107589281D01*
X154995392Y-107576653D01*
X154995178Y-107472204D01*
X154981352Y-107388273D01*
X154952503Y-107319035D01*
X154922627Y-107276207D01*
X154855870Y-107216913D01*
X154772712Y-107176617D01*
X154679263Y-107155988D01*
X154581634Y-107155695D01*
X154485934Y-107176406D01*
X154398272Y-107218789D01*
X154398242Y-107218809D01*
X154341246Y-107270547D01*
X154301898Y-107340619D01*
X154279326Y-107431229D01*
X154272626Y-107536343D01*
X153796621Y-107536343D01*
X153797867Y-107485543D01*
X153813881Y-107340784D01*
X153847789Y-107215731D01*
X153901612Y-107105785D01*
X153977372Y-107006348D01*
X154032825Y-106951069D01*
X154137805Y-106871857D01*
X154258190Y-106812943D01*
X154396477Y-106773409D01*
X154555163Y-106752335D01*
X154577143Y-106750920D01*
X154739249Y-106753111D01*
X154739249Y-106753111D01*
G37*
X154739249Y-106753111D02*
X154891326Y-106777926D01*
X155030757Y-106824120D01*
X155154925Y-106890448D01*
X155261214Y-106975666D01*
X155347005Y-107078529D01*
X155379435Y-107132490D01*
X155417509Y-107220528D01*
X155448540Y-107324442D01*
X155469354Y-107431338D01*
X155476776Y-107527779D01*
X155463649Y-107685717D01*
X155425901Y-107829888D01*
X155364684Y-107958755D01*
X155281150Y-108070782D01*
X155176452Y-108164434D01*
X155051742Y-108238174D01*
X154908172Y-108290467D01*
X154903714Y-108291654D01*
X154826525Y-108306457D01*
X154731757Y-108316402D01*
X154630536Y-108320981D01*
X154533984Y-108319685D01*
X154454457Y-108312200D01*
X154308172Y-108276780D01*
X154175302Y-108219543D01*
X154058811Y-108142513D01*
X153961663Y-108047715D01*
X153886822Y-107937174D01*
X153876834Y-107917586D01*
X153831265Y-107804197D01*
X153804860Y-107686812D01*
X153796110Y-107557177D01*
X153796621Y-107536343D01*
X154272626Y-107536343D01*
X154274195Y-107607782D01*
X154280040Y-107660452D01*
X154291870Y-107704498D01*
X154307090Y-107740987D01*
X154354695Y-107816200D01*
X154418424Y-107869960D01*
X154500127Y-107903190D01*
X154601654Y-107916810D01*
X154659693Y-107916585D01*
X154724716Y-107912427D01*
X154771356Y-107904471D01*
X154810238Y-107890015D01*
X154848379Y-107868598D01*
X154910980Y-107819911D01*
X154954469Y-107760617D01*
X154981480Y-107685484D01*
X154994647Y-107589281D01*
X154995392Y-107576653D01*
X154995178Y-107472204D01*
X154981352Y-107388273D01*
X154952503Y-107319035D01*
X154922627Y-107276207D01*
X154855870Y-107216913D01*
X154772712Y-107176617D01*
X154679263Y-107155988D01*
X154581634Y-107155695D01*
X154485934Y-107176406D01*
X154398272Y-107218789D01*
X154398242Y-107218809D01*
X154341246Y-107270547D01*
X154301898Y-107340619D01*
X154279326Y-107431229D01*
X154272626Y-107536343D01*
X153796621Y-107536343D01*
X153797867Y-107485543D01*
X153813881Y-107340784D01*
X153847789Y-107215731D01*
X153901612Y-107105785D01*
X153977372Y-107006348D01*
X154032825Y-106951069D01*
X154137805Y-106871857D01*
X154258190Y-106812943D01*
X154396477Y-106773409D01*
X154555163Y-106752335D01*
X154577143Y-106750920D01*
X154739249Y-106753111D01*
G36*
X152882943Y-106759081D02*
G01*
X153010772Y-106778138D01*
X153122418Y-106812994D01*
X153222984Y-106865498D01*
X153317574Y-106937502D01*
X153366287Y-106983461D01*
X153422123Y-107042616D01*
X153461916Y-107094068D01*
X153492626Y-107147816D01*
X153513726Y-107195257D01*
X153552132Y-107311116D01*
X153576947Y-107434274D01*
X153586375Y-107553596D01*
X153583161Y-107626125D01*
X153573347Y-107717771D01*
X152383046Y-107717771D01*
X152430173Y-107777273D01*
X152508394Y-107853811D01*
X152601630Y-107907755D01*
X152705987Y-107938537D01*
X152817575Y-107945590D01*
X152932502Y-107928349D01*
X153046877Y-107886246D01*
X153075821Y-107871280D01*
X153165291Y-107822101D01*
X153299425Y-107956794D01*
X153433559Y-108091488D01*
X153364864Y-108143940D01*
X153248860Y-108217209D01*
X153117812Y-108270526D01*
X152968969Y-108304755D01*
X152802070Y-108320659D01*
X152699275Y-108321177D01*
X152604553Y-108314722D01*
X152552400Y-108306966D01*
X152396561Y-108264420D01*
X152260186Y-108201691D01*
X152144208Y-108119589D01*
X152049563Y-108018922D01*
X151977182Y-107900502D01*
X151928165Y-107765766D01*
X151915073Y-107691022D01*
X151908319Y-107599010D01*
X151907904Y-107500775D01*
X151913828Y-107407362D01*
X151924419Y-107340400D01*
X152383542Y-107340400D01*
X153099467Y-107340400D01*
X153048603Y-107271457D01*
X152987294Y-107204455D01*
X152916680Y-107160169D01*
X152831514Y-107136182D01*
X152741473Y-107129943D01*
X152677846Y-107131360D01*
X152632700Y-107137102D01*
X152595563Y-107149409D01*
X152558428Y-107169063D01*
X152509635Y-107204162D01*
X152459805Y-107249790D01*
X152437713Y-107274291D01*
X152383542Y-107340400D01*
X151924419Y-107340400D01*
X151926094Y-107329814D01*
X151928127Y-107321578D01*
X151978513Y-107181432D01*
X152051706Y-107059052D01*
X152147031Y-106955142D01*
X152263811Y-106870404D01*
X152401368Y-106805542D01*
X152436286Y-106793374D01*
X152492907Y-106776297D01*
X152544363Y-106765009D01*
X152599760Y-106758303D01*
X152668201Y-106754975D01*
X152733829Y-106753968D01*
X152882943Y-106759081D01*
X152882943Y-106759081D01*
G37*
X152882943Y-106759081D02*
X153010772Y-106778138D01*
X153122418Y-106812994D01*
X153222984Y-106865498D01*
X153317574Y-106937502D01*
X153366287Y-106983461D01*
X153422123Y-107042616D01*
X153461916Y-107094068D01*
X153492626Y-107147816D01*
X153513726Y-107195257D01*
X153552132Y-107311116D01*
X153576947Y-107434274D01*
X153586375Y-107553596D01*
X153583161Y-107626125D01*
X153573347Y-107717771D01*
X152383046Y-107717771D01*
X152430173Y-107777273D01*
X152508394Y-107853811D01*
X152601630Y-107907755D01*
X152705987Y-107938537D01*
X152817575Y-107945590D01*
X152932502Y-107928349D01*
X153046877Y-107886246D01*
X153075821Y-107871280D01*
X153165291Y-107822101D01*
X153299425Y-107956794D01*
X153433559Y-108091488D01*
X153364864Y-108143940D01*
X153248860Y-108217209D01*
X153117812Y-108270526D01*
X152968969Y-108304755D01*
X152802070Y-108320659D01*
X152699275Y-108321177D01*
X152604553Y-108314722D01*
X152552400Y-108306966D01*
X152396561Y-108264420D01*
X152260186Y-108201691D01*
X152144208Y-108119589D01*
X152049563Y-108018922D01*
X151977182Y-107900502D01*
X151928165Y-107765766D01*
X151915073Y-107691022D01*
X151908319Y-107599010D01*
X151907904Y-107500775D01*
X151913828Y-107407362D01*
X151924419Y-107340400D01*
X152383542Y-107340400D01*
X153099467Y-107340400D01*
X153048603Y-107271457D01*
X152987294Y-107204455D01*
X152916680Y-107160169D01*
X152831514Y-107136182D01*
X152741473Y-107129943D01*
X152677846Y-107131360D01*
X152632700Y-107137102D01*
X152595563Y-107149409D01*
X152558428Y-107169063D01*
X152509635Y-107204162D01*
X152459805Y-107249790D01*
X152437713Y-107274291D01*
X152383542Y-107340400D01*
X151924419Y-107340400D01*
X151926094Y-107329814D01*
X151928127Y-107321578D01*
X151978513Y-107181432D01*
X152051706Y-107059052D01*
X152147031Y-106955142D01*
X152263811Y-106870404D01*
X152401368Y-106805542D01*
X152436286Y-106793374D01*
X152492907Y-106776297D01*
X152544363Y-106765009D01*
X152599760Y-106758303D01*
X152668201Y-106754975D01*
X152733829Y-106753968D01*
X152882943Y-106759081D01*
D10*
X129700000Y-62450000D02*
X144300000Y-62450000D01*
X138602740Y-63749840D02*
X137642620Y-68931440D01*
X141770120Y-68885720D02*
X140683000Y-63772700D01*
X138579880Y-63742220D02*
X140660140Y-63742220D01*
X133149360Y-63765080D02*
X135229620Y-63765080D01*
X136339600Y-68908580D02*
X135252480Y-63795560D01*
X133172220Y-63772700D02*
X132212100Y-68954300D01*
X144300000Y-72450000D02*
X144300000Y-72000000D01*
X129700000Y-72450000D02*
X129700000Y-72000000D01*
X144300000Y-72450000D02*
X141500000Y-72450000D01*
X137100000Y-72450000D02*
X136900000Y-72450000D01*
X135100000Y-72450000D02*
X134400000Y-72450000D01*
X139600000Y-72450000D02*
X138900000Y-72450000D01*
X132500000Y-72450000D02*
X129700000Y-72450000D01*
X144300000Y-62450000D02*
X144300000Y-69500000D01*
X129700000Y-62450000D02*
X129700000Y-69500000D01*
X118398260Y-73848160D02*
X117499100Y-73848160D01*
X117499100Y-73848160D02*
X116899660Y-73848160D01*
X107100340Y-73848160D02*
X106500900Y-73848160D01*
X106500900Y-73848160D02*
X105601740Y-73848160D01*
X104501920Y-70449640D02*
X104501920Y-68298260D01*
X104501920Y-65100400D02*
X104501920Y-62192100D01*
X104501920Y-62192100D02*
X119498080Y-62192100D01*
X119498080Y-62192100D02*
X119498080Y-65100400D01*
X119498080Y-68298260D02*
X119498080Y-70449640D01*
X105126760Y-74348540D02*
X106500900Y-74348540D01*
X106500900Y-74348540D02*
X106500900Y-73848160D01*
X117499100Y-73848160D02*
X117499100Y-74348540D01*
X117499100Y-74348540D02*
X118885940Y-74348540D01*
X110001020Y-63932000D02*
X109000260Y-67932500D01*
X109000260Y-67932500D02*
X108002040Y-67932500D01*
X108002040Y-67932500D02*
X107001280Y-63932000D01*
X113998980Y-63932000D02*
X114999740Y-67932500D01*
X114999740Y-67932500D02*
X115997960Y-67932500D01*
X115997960Y-67932500D02*
X116998720Y-63932000D01*
X114600000Y-117429000D02*
X114600000Y-117175000D01*
X114600000Y-110825000D02*
X114600000Y-110571000D01*
X165400000Y-110825000D02*
X165400000Y-110571000D01*
X165400000Y-117429000D02*
X165400000Y-117175000D01*
X165400000Y-110825000D02*
X167940000Y-110825000D01*
X169210000Y-109555000D02*
X165400000Y-109555000D01*
X168194000Y-110571000D02*
X165400000Y-110571000D01*
X168194000Y-117429000D02*
X168194000Y-110571000D01*
X165400000Y-117429000D02*
X168194000Y-117429000D01*
X111806000Y-117429000D02*
X114600000Y-117429000D01*
X111806000Y-110571000D02*
X111806000Y-117429000D01*
X114600000Y-110571000D02*
X111806000Y-110571000D01*
X112060000Y-110825000D02*
X114600000Y-110825000D01*
X166670000Y-118445000D02*
X165400000Y-118445000D01*
X166670000Y-118699000D02*
X166670000Y-118445000D01*
X167940000Y-118699000D02*
X167940000Y-118445000D01*
X166670000Y-118699000D02*
X167940000Y-118699000D01*
X114600000Y-118445000D02*
X113330000Y-118445000D01*
X112060000Y-118445000D02*
X110790000Y-118445000D01*
X113330000Y-118445000D02*
X113330000Y-118699000D01*
X112060000Y-118699000D02*
X113330000Y-118699000D01*
X112060000Y-118445000D02*
X112060000Y-118699000D01*
X169210000Y-118445000D02*
X169210000Y-109555000D01*
X110790000Y-109555000D02*
X110790000Y-118445000D01*
X110790000Y-109555000D02*
X114600000Y-109555000D01*
X169210000Y-118445000D02*
X167940000Y-118445000D01*
X167940000Y-117175000D02*
X167940000Y-110825000D01*
X112060000Y-110825000D02*
X112060000Y-117175000D01*
X114600000Y-117175000D02*
X112060000Y-117175000D01*
X167940000Y-117175000D02*
X165400000Y-117175000D01*
X112300000Y-117300000D02*
X111900000Y-117300000D01*
X168100000Y-117300000D02*
X167700000Y-117300000D01*
X168100000Y-110700000D02*
X167700000Y-110700000D01*
X112300000Y-110700000D02*
X111900000Y-110700000D01*
X109175000Y-88650000D02*
X109429000Y-88650000D01*
X102571000Y-88650000D02*
X102825000Y-88650000D01*
X102571000Y-101350000D02*
X102825000Y-101350000D01*
X109175000Y-101350000D02*
X109429000Y-101350000D01*
X101555000Y-88650000D02*
X101555000Y-84840000D01*
X102571000Y-85856000D02*
X102571000Y-88650000D01*
X109429000Y-85856000D02*
X102571000Y-85856000D01*
X109429000Y-88650000D02*
X109429000Y-85856000D01*
X109429000Y-104144000D02*
X109429000Y-101350000D01*
X102571000Y-104144000D02*
X109429000Y-104144000D01*
X102571000Y-101350000D02*
X102571000Y-104144000D01*
X110445000Y-87380000D02*
X110445000Y-88650000D01*
X110699000Y-87380000D02*
X110445000Y-87380000D01*
X110699000Y-86110000D02*
X110445000Y-86110000D01*
X110699000Y-87380000D02*
X110699000Y-86110000D01*
X110445000Y-101350000D02*
X110445000Y-102620000D01*
X110445000Y-103890000D02*
X110445000Y-105160000D01*
X110445000Y-102620000D02*
X110699000Y-102620000D01*
X110699000Y-103890000D02*
X110699000Y-102620000D01*
X110445000Y-103890000D02*
X110699000Y-103890000D01*
X102825000Y-88650000D02*
X102825000Y-86110000D01*
X102825000Y-103890000D02*
X102825000Y-101350000D01*
X110445000Y-84840000D02*
X101555000Y-84840000D01*
X101555000Y-105160000D02*
X110445000Y-105160000D01*
X101555000Y-105160000D02*
X101555000Y-101350000D01*
X110445000Y-84840000D02*
X110445000Y-86110000D01*
X109175000Y-86110000D02*
X102825000Y-86110000D01*
X102825000Y-103890000D02*
X109175000Y-103890000D01*
X109175000Y-101350000D02*
X109175000Y-103890000D01*
X109175000Y-86110000D02*
X109175000Y-88650000D01*
X109302000Y-86364000D02*
X109302000Y-85983000D01*
X102698000Y-86364000D02*
X102698000Y-85983000D01*
X102698000Y-103763000D02*
X102698000Y-104017000D01*
X109302000Y-103636000D02*
X109302000Y-104144000D01*
D14*
X112849147Y-82677000D02*
G75*
G03X112849147Y-82677000I-337447J0D01*
G01*
D15*
X112499000Y-81902300D02*
X113007000Y-81394300D01*
X114099200Y-81318100D02*
X114734200Y-81927700D01*
X114708800Y-83883500D02*
X114150000Y-84467700D01*
X116334400Y-84480400D02*
X115877200Y-84023200D01*
X117320200Y-84480400D02*
X116334400Y-84480400D01*
D14*
X118199324Y-84455000D02*
G75*
G03X118199324Y-84455000I-366324J0D01*
G01*
D15*
X117833000Y-81762600D02*
X117833000Y-83362800D01*
D14*
X118219218Y-81229200D02*
G75*
G03X118219218Y-81229200I-373518J0D01*
G01*
X119424559Y-84429600D02*
G75*
G03X119424559Y-84429600I-359659J0D01*
G01*
D15*
X119052200Y-83921600D02*
X119052200Y-81330800D01*
X119052200Y-81330800D02*
X119890400Y-81330800D01*
X119890400Y-81330800D02*
X120500000Y-81838800D01*
X120601600Y-82626200D02*
X120601600Y-81915000D01*
X120677800Y-81838800D02*
X121312800Y-81330800D01*
D14*
X120972518Y-83159600D02*
G75*
G03X120972518Y-83159600I-370918J0D01*
G01*
D15*
X121312800Y-81330800D02*
X122201800Y-81330800D01*
D14*
X122577729Y-84442300D02*
G75*
G03X122577729Y-84442300I-363229J0D01*
G01*
X128373266Y-84531200D02*
G75*
G03X128373266Y-84531200I-329466J0D01*
G01*
D15*
X127713600Y-84175600D02*
X126875400Y-83362800D01*
D16*
X126367400Y-83261200D02*
X126900800Y-83261200D01*
D15*
X125224400Y-84480400D02*
X126367400Y-83362800D01*
X123903600Y-84480400D02*
X125224400Y-84480400D01*
X123471800Y-84048600D02*
X123903600Y-84480400D01*
X123471800Y-81813400D02*
X123471800Y-84048600D01*
X123471800Y-81788000D02*
X123954400Y-81280000D01*
X124002500Y-81305400D02*
X125224400Y-81305400D01*
X125224400Y-81305400D02*
X126316600Y-82372200D01*
D16*
X126342000Y-82486500D02*
X126900800Y-82486500D01*
D15*
X127764400Y-81495900D02*
X126900800Y-82389600D01*
D14*
X128492135Y-81140300D02*
G75*
G03X128492135Y-81140300I-359435J0D01*
G01*
D15*
X124691000Y-82880200D02*
X123471800Y-82880200D01*
D14*
X125558659Y-82880200D02*
G75*
G03X125558659Y-82880200I-359659J0D01*
G01*
D15*
X113070500Y-84493100D02*
X114111900Y-84493100D01*
X112511700Y-83934300D02*
X112511700Y-83172300D01*
X112499000Y-83921600D02*
X113083200Y-84493100D01*
X112499000Y-81953100D02*
X112499000Y-82194400D01*
X114721500Y-81915000D02*
X114721500Y-83845400D01*
X114099200Y-81305400D02*
X113095900Y-81305400D01*
X122214500Y-81318100D02*
X122214500Y-83921600D01*
X115877200Y-84035900D02*
X115877200Y-81305400D01*
D17*
X115877200Y-80962500D02*
X115597800Y-80962500D01*
X115572400Y-80962500D02*
X115572400Y-84112100D01*
X115585100Y-80962500D02*
X115572400Y-80962500D01*
X115597800Y-80962500D02*
X115585100Y-80962500D01*
X115712100Y-81051400D02*
X115648600Y-81038700D01*
X116194700Y-80962500D02*
X116194700Y-83997800D01*
X115889900Y-80962500D02*
X116194700Y-80962500D01*
X116016900Y-81038700D02*
X116131200Y-81038700D01*
X117515500Y-81648300D02*
X117515500Y-83667600D01*
X118150500Y-83667600D02*
X118150500Y-81648300D01*
X118125100Y-83667600D02*
X118150500Y-83667600D01*
X117515500Y-83667600D02*
X118125100Y-83667600D01*
X117655200Y-83604100D02*
X117591700Y-83604100D01*
X117998100Y-83604100D02*
X118087000Y-83604100D01*
X118734700Y-84010500D02*
X118734700Y-81026000D01*
X119979300Y-81013300D02*
X120563500Y-81495900D01*
X118734700Y-81013300D02*
X119979300Y-81013300D01*
X118887100Y-81076800D02*
X118810900Y-81076800D01*
X122544700Y-84035900D02*
X122544700Y-81026000D01*
X121223900Y-81013300D02*
X120601600Y-81508600D01*
X121249300Y-81013300D02*
X121223900Y-81013300D01*
X122544700Y-81013300D02*
X121249300Y-81013300D01*
X122544700Y-81026000D02*
X122544700Y-81013300D01*
X122392300Y-81089500D02*
X122493900Y-81089500D01*
X125338700Y-80975200D02*
X126596000Y-82219800D01*
X125287900Y-80975200D02*
X125338700Y-80975200D01*
X123916300Y-80975200D02*
X125287900Y-80975200D01*
D10*
X154151600Y-62024000D02*
X154151600Y-65034000D01*
X158091600Y-62024000D02*
X154151600Y-62024000D01*
X158091600Y-65034000D02*
X158091600Y-62024000D01*
D18*
X157001249Y-68000000D02*
G75*
G03X157001249Y-68000000I-1001249J0D01*
G01*
X157019727Y-74000000D02*
G75*
G03X157019727Y-74000000I-1019727J0D01*
G01*
D10*
X160800600Y-65053600D02*
X160800600Y-66310900D01*
X156000000Y-65053600D02*
X160800600Y-65053600D01*
X160787900Y-76991600D02*
X160787900Y-75429500D01*
X155987300Y-77004300D02*
X160787900Y-76991600D01*
X156000000Y-65053600D02*
X151199400Y-65053600D01*
X151212100Y-76991600D02*
X151212100Y-75835900D01*
X156000000Y-77004300D02*
X151212100Y-76991600D01*
X151212100Y-65040900D02*
X151212100Y-68673100D01*
X166052500Y-104013000D02*
X166052500Y-104267000D01*
X166052500Y-104013000D02*
X166052500Y-103759000D01*
X166941500Y-104013000D02*
X166941500Y-103759000D01*
X166941500Y-104013000D02*
X166941500Y-104267000D01*
X177267000Y-85812600D02*
X177267000Y-84771200D01*
X177432100Y-84885500D02*
X177432100Y-85711000D01*
X177279700Y-85850700D02*
X177419400Y-85723700D01*
X177279700Y-84758500D02*
X177432100Y-84885500D01*
D19*
X175840800Y-85554600D02*
X175710800Y-85664600D01*
X175700800Y-85684600D02*
X175780800Y-85674600D01*
X175700800Y-85684600D02*
X175700800Y-85604600D01*
X175916200Y-85684600D02*
X175916200Y-85604600D01*
X175916200Y-85684600D02*
X175996200Y-85674600D01*
X176047800Y-85575600D02*
X175917800Y-85685600D01*
D17*
X175970000Y-85220000D02*
X175970000Y-85440000D01*
X175780000Y-85440000D02*
X175880000Y-85340000D01*
X175780000Y-85220000D02*
X175890000Y-85320000D01*
X175780000Y-85220000D02*
X175780000Y-85440000D01*
X175610000Y-85330000D02*
X176130000Y-85330000D01*
D20*
X176251000Y-84695000D02*
X177267000Y-84695000D01*
X177267000Y-85914200D02*
X176251000Y-85914200D01*
D10*
X175895000Y-84184500D02*
X176149000Y-84184500D01*
X175895000Y-84184500D02*
X175641000Y-84184500D01*
X175895000Y-83295500D02*
X175641000Y-83295500D01*
X175895000Y-83295500D02*
X176149000Y-83295500D01*
X115443000Y-97726500D02*
X115697000Y-97726500D01*
X115443000Y-97726500D02*
X115189000Y-97726500D01*
X115443000Y-96837500D02*
X115189000Y-96837500D01*
X115443000Y-96837500D02*
X115697000Y-96837500D01*
X139827000Y-88582500D02*
X140081000Y-88582500D01*
X139827000Y-88582500D02*
X139573000Y-88582500D01*
X139827000Y-87693500D02*
X139573000Y-87693500D01*
X139827000Y-87693500D02*
X140081000Y-87693500D01*
X115443000Y-96202500D02*
X115697000Y-96202500D01*
X115443000Y-96202500D02*
X115189000Y-96202500D01*
X115443000Y-95313500D02*
X115189000Y-95313500D01*
X115443000Y-95313500D02*
X115697000Y-95313500D01*
X165735000Y-84772500D02*
X165989000Y-84772500D01*
X165735000Y-84772500D02*
X165481000Y-84772500D01*
X165735000Y-83883500D02*
X165481000Y-83883500D01*
X165735000Y-83883500D02*
X165989000Y-83883500D01*
X145986500Y-78232000D02*
X145986500Y-78486000D01*
X145986500Y-78232000D02*
X145986500Y-77978000D01*
X146875500Y-78232000D02*
X146875500Y-77978000D01*
X146875500Y-78232000D02*
X146875500Y-78486000D01*
X144462500Y-78232000D02*
X144462500Y-78486000D01*
X144462500Y-78232000D02*
X144462500Y-77978000D01*
X145351500Y-78232000D02*
X145351500Y-77978000D01*
X145351500Y-78232000D02*
X145351500Y-78486000D01*
X167005000Y-86741000D02*
X168021000Y-86741000D01*
X167005000Y-85217000D02*
X168021000Y-85217000D01*
X150495000Y-78740000D02*
X150495000Y-77724000D01*
X148971000Y-78740000D02*
X148971000Y-77724000D01*
X147510500Y-78232000D02*
X147510500Y-78486000D01*
X147510500Y-78232000D02*
X147510500Y-77978000D01*
X148399500Y-78232000D02*
X148399500Y-77978000D01*
X148399500Y-78232000D02*
X148399500Y-78486000D01*
X162433000Y-81534000D02*
X162814000Y-81534000D01*
X162306000Y-81661000D02*
X162941000Y-81661000D01*
X162179000Y-81788000D02*
X162941000Y-81788000D01*
X162179000Y-81915000D02*
X163068000Y-81915000D01*
X163068000Y-82042000D02*
X161925000Y-82042000D01*
X161925000Y-82169000D02*
X163195000Y-82169000D01*
X163322000Y-82296000D02*
X161798000Y-82296000D01*
X161620200Y-81076800D02*
X161620200Y-80899000D01*
X163525200Y-81076800D02*
X163525200Y-80899000D01*
X161620200Y-80899000D02*
X163525200Y-80899000D01*
X161620200Y-82448400D02*
X163525200Y-82448400D01*
X161620200Y-81076800D02*
X163525200Y-81076800D01*
X162534600Y-81076800D02*
X163525200Y-82448400D01*
X161620200Y-82448400D02*
X162534600Y-81076800D01*
X162572700Y-83032600D02*
X162572700Y-80556100D01*
X165735000Y-82372200D02*
X165735000Y-83083400D01*
X166573200Y-83083400D02*
X165735000Y-83083400D01*
X166573200Y-80238600D02*
X165735000Y-80238600D01*
X165735000Y-80238600D02*
X165735000Y-80949800D01*
X101900000Y-109500000D02*
X101900000Y-108500000D01*
X106100000Y-109500000D02*
X106100000Y-108500000D01*
X106100000Y-110700000D02*
X106100000Y-110600000D01*
X101900000Y-110700000D02*
X106100000Y-110700000D01*
X101900000Y-110600000D02*
X101900000Y-110700000D01*
X101900000Y-107300000D02*
X101900000Y-107400000D01*
X106100000Y-107300000D02*
X106100000Y-107400000D01*
X101900000Y-107300000D02*
X106100000Y-107300000D01*
X124206000Y-106616500D02*
X123952000Y-106616500D01*
X124206000Y-106616500D02*
X124460000Y-106616500D01*
X124206000Y-107505500D02*
X124460000Y-107505500D01*
X124206000Y-107505500D02*
X123952000Y-107505500D01*
X116141500Y-87630000D02*
X116141500Y-87884000D01*
X116141500Y-87630000D02*
X116141500Y-87376000D01*
X117030500Y-87630000D02*
X117030500Y-87376000D01*
X117030500Y-87630000D02*
X117030500Y-87884000D01*
X133985000Y-100266500D02*
X133731000Y-100266500D01*
X133985000Y-100266500D02*
X134239000Y-100266500D01*
X133985000Y-101155500D02*
X134239000Y-101155500D01*
X133985000Y-101155500D02*
X133731000Y-101155500D01*
X133985000Y-90868500D02*
X133731000Y-90868500D01*
X133985000Y-90868500D02*
X134239000Y-90868500D01*
X133985000Y-89979500D02*
X134239000Y-89979500D01*
X133985000Y-89979500D02*
X133731000Y-89979500D01*
X119951500Y-86614000D02*
X119951500Y-86868000D01*
X119951500Y-86614000D02*
X119951500Y-86360000D01*
X119062500Y-86614000D02*
X119062500Y-86360000D01*
X119062500Y-86614000D02*
X119062500Y-86868000D01*
X115443000Y-94678500D02*
X115697000Y-94678500D01*
X115443000Y-94678500D02*
X115189000Y-94678500D01*
X115443000Y-93789500D02*
X115189000Y-93789500D01*
X115443000Y-93789500D02*
X115697000Y-93789500D01*
X115443000Y-100139500D02*
X115697000Y-100139500D01*
X115443000Y-100139500D02*
X115189000Y-100139500D01*
X115443000Y-101028500D02*
X115189000Y-101028500D01*
X115443000Y-101028500D02*
X115697000Y-101028500D01*
X122872500Y-105156000D02*
X122872500Y-104902000D01*
X122872500Y-105156000D02*
X122872500Y-105410000D01*
X123761500Y-105156000D02*
X123761500Y-105410000D01*
X123761500Y-105156000D02*
X123761500Y-104902000D01*
X122364500Y-105156000D02*
X122364500Y-104902000D01*
X122364500Y-105156000D02*
X122364500Y-105410000D01*
X121475500Y-105156000D02*
X121475500Y-105410000D01*
X121475500Y-105156000D02*
X121475500Y-104902000D01*
X115379500Y-105156000D02*
X115379500Y-104902000D01*
X115379500Y-105156000D02*
X115379500Y-105410000D01*
X114490500Y-105156000D02*
X114490500Y-105410000D01*
X114490500Y-105156000D02*
X114490500Y-104902000D01*
X116776500Y-105156000D02*
X116776500Y-104902000D01*
X116776500Y-105156000D02*
X116776500Y-105410000D01*
X115887500Y-105156000D02*
X115887500Y-105410000D01*
X115887500Y-105156000D02*
X115887500Y-104902000D01*
X117284500Y-105156000D02*
X117284500Y-104902000D01*
X117284500Y-105156000D02*
X117284500Y-105410000D01*
X118173500Y-105156000D02*
X118173500Y-105410000D01*
X118173500Y-105156000D02*
X118173500Y-104902000D01*
X118681500Y-86614000D02*
X118681500Y-86868000D01*
X118681500Y-86614000D02*
X118681500Y-86360000D01*
X117792500Y-86614000D02*
X117792500Y-86360000D01*
X117792500Y-86614000D02*
X117792500Y-86868000D01*
X125158500Y-105156000D02*
X125158500Y-104902000D01*
X125158500Y-105156000D02*
X125158500Y-105410000D01*
X124269500Y-105156000D02*
X124269500Y-105410000D01*
X124269500Y-105156000D02*
X124269500Y-104902000D01*
X127190500Y-86614000D02*
X127190500Y-86360000D01*
X127190500Y-86614000D02*
X127190500Y-86868000D01*
X128079500Y-86614000D02*
X128079500Y-86868000D01*
X128079500Y-86614000D02*
X128079500Y-86360000D01*
X121856500Y-86614000D02*
X121856500Y-86868000D01*
X121856500Y-86614000D02*
X121856500Y-86360000D01*
X122745500Y-86614000D02*
X122745500Y-86360000D01*
X122745500Y-86614000D02*
X122745500Y-86868000D01*
X139700000Y-82550000D02*
X139700000Y-81534000D01*
X141224000Y-82550000D02*
X141224000Y-81534000D01*
X174879000Y-95948501D02*
X174625000Y-95948501D01*
X174879000Y-95948501D02*
X175133000Y-95948501D01*
X174879000Y-95059501D02*
X175133000Y-95059501D01*
X174879000Y-95059501D02*
X174625000Y-95059501D01*
X132842001Y-80264000D02*
X133858001Y-80264000D01*
X132842001Y-81788000D02*
X133858001Y-81788000D01*
X132842000Y-80264000D02*
X133858000Y-80264000D01*
X132842000Y-78740000D02*
X133858000Y-78740000D01*
X151638000Y-97218500D02*
X151892000Y-97218500D01*
X151638000Y-97218500D02*
X151384000Y-97218500D01*
X151638000Y-98107500D02*
X151384000Y-98107500D01*
X151638000Y-98107500D02*
X151892000Y-98107500D01*
X151638000Y-99504500D02*
X151892000Y-99504500D01*
X151638000Y-99504500D02*
X151384000Y-99504500D01*
X151638000Y-98615500D02*
X151384000Y-98615500D01*
X151638000Y-98615500D02*
X151892000Y-98615500D01*
X139827000Y-89979500D02*
X139573000Y-89979500D01*
X139827000Y-89979500D02*
X140081000Y-89979500D01*
X139827000Y-89090500D02*
X140081000Y-89090500D01*
X139827000Y-89090500D02*
X139573000Y-89090500D01*
X139827000Y-90487500D02*
X139573000Y-90487500D01*
X139827000Y-90487500D02*
X140081000Y-90487500D01*
X139827000Y-91376500D02*
X140081000Y-91376500D01*
X139827000Y-91376500D02*
X139573000Y-91376500D01*
X139827000Y-98742500D02*
X139573000Y-98742500D01*
X139827000Y-98742500D02*
X140081000Y-98742500D01*
X139827000Y-97853500D02*
X140081000Y-97853500D01*
X139827000Y-97853500D02*
X139573000Y-97853500D01*
X139827000Y-100012500D02*
X139573000Y-100012500D01*
X139827000Y-100012500D02*
X140081000Y-100012500D01*
X139827000Y-99123500D02*
X140081000Y-99123500D01*
X139827000Y-99123500D02*
X139573000Y-99123500D01*
X134850000Y-84274000D02*
X134850000Y-83874000D01*
X131850000Y-84274000D02*
X131850000Y-83874000D01*
D21*
X132600000Y-84224000D02*
X132250000Y-84224000D01*
X134100000Y-84224000D02*
X134450000Y-84224000D01*
X133600000Y-84174000D02*
G75*
G02X134100000Y-84174000I250000J0D01*
G01*
X132600000Y-84174000D02*
G75*
G02X133100000Y-84174000I250000J0D01*
G01*
X133100000Y-84174000D02*
G75*
G02X133600000Y-84174000I250000J0D01*
G01*
D10*
X124714000Y-87884000D02*
X125222000Y-87884000D01*
X124714000Y-85344000D02*
X125222000Y-85344000D01*
X136144000Y-105600500D02*
X136398000Y-105600500D01*
X136144000Y-105600500D02*
X135890000Y-105600500D01*
X136144000Y-106489500D02*
X135890000Y-106489500D01*
X136144000Y-106489500D02*
X136398000Y-106489500D01*
X115760500Y-87630000D02*
X115760500Y-87884000D01*
X115760500Y-87630000D02*
X115760500Y-87376000D01*
X114871500Y-87630000D02*
X114871500Y-87376000D01*
X114871500Y-87630000D02*
X114871500Y-87884000D01*
X121348500Y-86614000D02*
X121348500Y-86360000D01*
X121348500Y-86614000D02*
X121348500Y-86868000D01*
X120459500Y-86614000D02*
X120459500Y-86868000D01*
X120459500Y-86614000D02*
X120459500Y-86360000D01*
X118681500Y-105156000D02*
X118681500Y-105410000D01*
X118681500Y-105156000D02*
X118681500Y-104902000D01*
X119570500Y-105156000D02*
X119570500Y-104902000D01*
X119570500Y-105156000D02*
X119570500Y-105410000D01*
X120967500Y-105156000D02*
X120967500Y-105410000D01*
X120967500Y-105156000D02*
X120967500Y-104902000D01*
X120078500Y-105156000D02*
X120078500Y-104902000D01*
X120078500Y-105156000D02*
X120078500Y-105410000D01*
X114046000Y-107378500D02*
X114300000Y-107378500D01*
X114046000Y-107378500D02*
X113792000Y-107378500D01*
X114046000Y-106489500D02*
X113792000Y-106489500D01*
X114046000Y-106489500D02*
X114300000Y-106489500D01*
X170942000Y-73469500D02*
X171196000Y-73469500D01*
X170942000Y-73469500D02*
X170688000Y-73469500D01*
X170942000Y-74358500D02*
X170688000Y-74358500D01*
X170942000Y-74358500D02*
X171196000Y-74358500D01*
X173101000Y-73469500D02*
X172847000Y-73469500D01*
X173101000Y-73469500D02*
X173355000Y-73469500D01*
X173101000Y-74358500D02*
X173355000Y-74358500D01*
X173101000Y-74358500D02*
X172847000Y-74358500D01*
X174879000Y-96583500D02*
X175133000Y-96583500D01*
X174879000Y-96583500D02*
X174625000Y-96583500D01*
X174879000Y-97472500D02*
X174625000Y-97472500D01*
X174879000Y-97472500D02*
X175133000Y-97472500D01*
X136779000Y-79946500D02*
X137033000Y-79946500D01*
X136779000Y-79946500D02*
X136525000Y-79946500D01*
X136779000Y-79057500D02*
X136525000Y-79057500D01*
X136779000Y-79057500D02*
X137033000Y-79057500D01*
X139954000Y-79946500D02*
X139700000Y-79946500D01*
X139954000Y-79946500D02*
X140208000Y-79946500D01*
X139954000Y-79057500D02*
X140208000Y-79057500D01*
X139954000Y-79057500D02*
X139700000Y-79057500D01*
X174879000Y-92900500D02*
X174625000Y-92900500D01*
X174879000Y-92900500D02*
X175133000Y-92900500D01*
X174879000Y-92011500D02*
X175133000Y-92011500D01*
X174879000Y-92011500D02*
X174625000Y-92011500D01*
X174879000Y-90360500D02*
X174625000Y-90360500D01*
X174879000Y-90360500D02*
X175133000Y-90360500D01*
X174879000Y-91249500D02*
X175133000Y-91249500D01*
X174879000Y-91249500D02*
X174625000Y-91249500D01*
X174879000Y-89598500D02*
X174625000Y-89598500D01*
X174879000Y-89598500D02*
X175133000Y-89598500D01*
X174879000Y-88709500D02*
X175133000Y-88709500D01*
X174879000Y-88709500D02*
X174625000Y-88709500D01*
X174879000Y-99758500D02*
X174625000Y-99758500D01*
X174879000Y-99758500D02*
X175133000Y-99758500D01*
X174879000Y-100647500D02*
X175133000Y-100647500D01*
X174879000Y-100647500D02*
X174625000Y-100647500D01*
X174879000Y-98996500D02*
X174625000Y-98996500D01*
X174879000Y-98996500D02*
X175133000Y-98996500D01*
X174879000Y-98107500D02*
X175133000Y-98107500D01*
X174879000Y-98107500D02*
X174625000Y-98107500D01*
X108267500Y-79375000D02*
X108267500Y-79629000D01*
X108267500Y-79375000D02*
X108267500Y-79121000D01*
X107378500Y-79375000D02*
X107378500Y-79121000D01*
X107378500Y-79375000D02*
X107378500Y-79629000D01*
X108902500Y-79375000D02*
X108902500Y-79629000D01*
X108902500Y-79375000D02*
X108902500Y-79121000D01*
X109791500Y-79375000D02*
X109791500Y-79121000D01*
X109791500Y-79375000D02*
X109791500Y-79629000D01*
X111315500Y-79375000D02*
X111315500Y-79629000D01*
X111315500Y-79375000D02*
X111315500Y-79121000D01*
X110426500Y-79375000D02*
X110426500Y-79121000D01*
X110426500Y-79375000D02*
X110426500Y-79629000D01*
X111950500Y-79375000D02*
X111950500Y-79629000D01*
X111950500Y-79375000D02*
X111950500Y-79121000D01*
X112839500Y-79375000D02*
X112839500Y-79121000D01*
X112839500Y-79375000D02*
X112839500Y-79629000D01*
X114363500Y-79375000D02*
X114363500Y-79629000D01*
X114363500Y-79375000D02*
X114363500Y-79121000D01*
X113474500Y-79375000D02*
X113474500Y-79121000D01*
X113474500Y-79375000D02*
X113474500Y-79629000D01*
X114998500Y-79375000D02*
X114998500Y-79629000D01*
X114998500Y-79375000D02*
X114998500Y-79121000D01*
X115887500Y-79375000D02*
X115887500Y-79121000D01*
X115887500Y-79375000D02*
X115887500Y-79629000D01*
X117411500Y-79375000D02*
X117411500Y-79629000D01*
X117411500Y-79375000D02*
X117411500Y-79121000D01*
X116522500Y-79375000D02*
X116522500Y-79121000D01*
X116522500Y-79375000D02*
X116522500Y-79629000D01*
X118046500Y-79375000D02*
X118046500Y-79629000D01*
X118046500Y-79375000D02*
X118046500Y-79121000D01*
X118935500Y-79375000D02*
X118935500Y-79121000D01*
X118935500Y-79375000D02*
X118935500Y-79629000D01*
X139827000Y-97472500D02*
X140081000Y-97472500D01*
X139827000Y-97472500D02*
X139573000Y-97472500D01*
X139827000Y-96583500D02*
X139573000Y-96583500D01*
X139827000Y-96583500D02*
X140081000Y-96583500D01*
X151638000Y-100012500D02*
X151384000Y-100012500D01*
X151638000Y-100012500D02*
X151892000Y-100012500D01*
X151638000Y-100901500D02*
X151892000Y-100901500D01*
X151638000Y-100901500D02*
X151384000Y-100901500D01*
X135458200Y-95796100D02*
X132511800Y-95796100D01*
X135458200Y-95808800D02*
X135458200Y-95986600D01*
X132511800Y-95783400D02*
X132511800Y-95999300D01*
X135458200Y-99606100D02*
X135458200Y-99796600D01*
X135458200Y-99796600D02*
X132511800Y-99796600D01*
X132511800Y-99796600D02*
X132511800Y-99580700D01*
X132511800Y-95351600D02*
X132511800Y-95135700D01*
X135458200Y-95351600D02*
X132511800Y-95351600D01*
X135458200Y-95161100D02*
X135458200Y-95351600D01*
X132511800Y-91338400D02*
X132511800Y-91554300D01*
X135458200Y-91363800D02*
X135458200Y-91541600D01*
X135458200Y-91351100D02*
X132511800Y-91351100D01*
X110270000Y-111190000D02*
X110270000Y-111444000D01*
X110270000Y-111444000D02*
X110270000Y-113476000D01*
X110270000Y-113476000D02*
X110016000Y-113730000D01*
X110016000Y-113730000D02*
X110270000Y-113984000D01*
X110270000Y-113984000D02*
X110270000Y-116016000D01*
X110270000Y-116016000D02*
X110016000Y-116270000D01*
X110016000Y-116270000D02*
X110270000Y-116524000D01*
X110270000Y-116524000D02*
X110270000Y-118556000D01*
X110270000Y-118556000D02*
X110016000Y-118810000D01*
X110016000Y-118810000D02*
X107984000Y-118810000D01*
X107984000Y-118810000D02*
X107730000Y-118556000D01*
X107730000Y-118556000D02*
X107730000Y-116524000D01*
X110016000Y-111190000D02*
X110270000Y-111444000D01*
X107730000Y-111444000D02*
X107984000Y-111190000D01*
X107730000Y-111698000D02*
X107730000Y-111190000D01*
X107730000Y-116016000D02*
X107730000Y-113984000D01*
X107730000Y-113984000D02*
X107984000Y-113730000D01*
X107984000Y-113730000D02*
X107730000Y-113476000D01*
X107730000Y-113476000D02*
X107730000Y-111698000D01*
X107730000Y-116016000D02*
X107984000Y-116270000D01*
X107984000Y-116270000D02*
X107730000Y-116524000D01*
X110270000Y-111190000D02*
X107730000Y-111190000D01*
X128275080Y-106537760D02*
X128275080Y-101742240D01*
X132074920Y-106273600D02*
X131808220Y-106537760D01*
X132074920Y-101742240D02*
X132074920Y-106273600D01*
X128270000Y-106553000D02*
X131826000Y-106553000D01*
X128270000Y-101727000D02*
X132080000Y-101727000D01*
X133760981Y-107061000D02*
G75*
G03X133760981Y-107061000I-283981J0D01*
G01*
X131728981Y-105918000D02*
G75*
G03X131728981Y-105918000I-283981J0D01*
G01*
X120850000Y-92016000D02*
X120850000Y-92578000D01*
X121412000Y-92016000D02*
X120850000Y-92016000D01*
X128070000Y-92016000D02*
X128070000Y-92578000D01*
X127508000Y-92016000D02*
X128070000Y-92016000D01*
X120850000Y-99236000D02*
X120850000Y-98674000D01*
X121412000Y-99236000D02*
X120850000Y-99236000D01*
X129084605Y-98928000D02*
G75*
G03X129084605Y-98928000I-179605J0D01*
G01*
X128143000Y-98928000D02*
X127708000Y-99363000D01*
X138099800Y-83439000D02*
X136969500Y-83439000D01*
X138099800Y-80632300D02*
X136969500Y-80632300D01*
X143165000Y-83060000D02*
X147665000Y-83060000D01*
X143165000Y-89660000D02*
X147665000Y-89660000D01*
X147115000Y-88860000D02*
G75*
G03X147115000Y-88860000I-400000J0D01*
G01*
X143165000Y-91315000D02*
X147665000Y-91315000D01*
X143165000Y-97915000D02*
X147665000Y-97915000D01*
X147115000Y-97115000D02*
G75*
G03X147115000Y-97115000I-400000J0D01*
G01*
X144515000Y-100370000D02*
G75*
G03X144515000Y-100370000I-400000J0D01*
G01*
X147665000Y-99570000D02*
X143165000Y-99570000D01*
X147665000Y-106170000D02*
X143165000Y-106170000D01*
D22*
X156250000Y-82500000D02*
G75*
G03X156250000Y-82500000I-250000J0D01*
G01*
D10*
X159000000Y-80500000D02*
G75*
G03X159000000Y-80500000I-750000J0D01*
G01*
X156571500Y-82500000D02*
G75*
G03X156571500Y-82500000I-571500J0D01*
G01*
X158250000Y-79750000D02*
X158250000Y-81250000D01*
X159000000Y-80500000D02*
X157500000Y-80500000D01*
X160500000Y-82500000D02*
G75*
G03X160500000Y-82500000I-4500000J0D01*
G01*
X166878000Y-77343000D02*
X165354000Y-77343000D01*
X166878000Y-79629000D02*
X165354000Y-79629000D01*
X169430000Y-89815000D02*
X168630000Y-88955000D01*
X158230000Y-89015000D02*
X159230000Y-89015000D01*
X158230000Y-90015000D02*
X158230000Y-89015000D01*
X158230000Y-100215000D02*
X158230000Y-99215000D01*
X159230000Y-100215000D02*
X158230000Y-100215000D01*
X169430000Y-100215000D02*
X168430000Y-100215000D01*
X169430000Y-99215000D02*
X169430000Y-100215000D01*
X176403000Y-109474000D02*
X176403000Y-102616000D01*
X171069000Y-102616000D02*
X171069000Y-109474000D01*
X171069000Y-102616000D02*
X176403000Y-102616000D01*
X171069000Y-109474000D02*
X176403000Y-109474000D01*
D12*
X164277523Y-75601285D02*
X165305619Y-75601285D01*
X165426571Y-75540809D01*
X165487047Y-75480333D01*
X165547523Y-75359380D01*
X165547523Y-75117476D01*
X165487047Y-74996523D01*
X165426571Y-74936047D01*
X165305619Y-74875571D01*
X164277523Y-74875571D01*
X165487047Y-74331285D02*
X165547523Y-74149857D01*
X165547523Y-73847476D01*
X165487047Y-73726523D01*
X165426571Y-73666047D01*
X165305619Y-73605571D01*
X165184666Y-73605571D01*
X165063714Y-73666047D01*
X165003238Y-73726523D01*
X164942761Y-73847476D01*
X164882285Y-74089380D01*
X164821809Y-74210333D01*
X164761333Y-74270809D01*
X164640380Y-74331285D01*
X164519428Y-74331285D01*
X164398476Y-74270809D01*
X164338000Y-74210333D01*
X164277523Y-74089380D01*
X164277523Y-73787000D01*
X164338000Y-73605571D01*
X164882285Y-72637952D02*
X164942761Y-72456523D01*
X165003238Y-72396047D01*
X165124190Y-72335571D01*
X165305619Y-72335571D01*
X165426571Y-72396047D01*
X165487047Y-72456523D01*
X165547523Y-72577476D01*
X165547523Y-73061285D01*
X164277523Y-73061285D01*
X164277523Y-72637952D01*
X164338000Y-72517000D01*
X164398476Y-72456523D01*
X164519428Y-72396047D01*
X164640380Y-72396047D01*
X164761333Y-72456523D01*
X164821809Y-72517000D01*
X164882285Y-72637952D01*
X164882285Y-73061285D01*
X165063714Y-71791285D02*
X165063714Y-70823666D01*
X165547523Y-70218904D02*
X164277523Y-70218904D01*
X164277523Y-69735095D01*
X164338000Y-69614142D01*
X164398476Y-69553666D01*
X164519428Y-69493190D01*
X164700857Y-69493190D01*
X164821809Y-69553666D01*
X164882285Y-69614142D01*
X164942761Y-69735095D01*
X164942761Y-70218904D01*
X164277523Y-69069857D02*
X165547523Y-68767476D01*
X164640380Y-68525571D01*
X165547523Y-68283666D01*
X164277523Y-67981285D01*
X165547523Y-66771761D02*
X164942761Y-67195095D01*
X165547523Y-67497476D02*
X164277523Y-67497476D01*
X164277523Y-67013666D01*
X164338000Y-66892714D01*
X164398476Y-66832238D01*
X164519428Y-66771761D01*
X164700857Y-66771761D01*
X164821809Y-66832238D01*
X164882285Y-66892714D01*
X164942761Y-67013666D01*
X164942761Y-67497476D01*
X165547523Y-65562238D02*
X165547523Y-66287952D01*
X165547523Y-65925095D02*
X164277523Y-65925095D01*
X164458952Y-66046047D01*
X164579904Y-66167000D01*
X164640380Y-66287952D01*
X131587380Y-75377523D02*
X131587380Y-76405619D01*
X131647857Y-76526571D01*
X131708333Y-76587047D01*
X131829285Y-76647523D01*
X132071190Y-76647523D01*
X132192142Y-76587047D01*
X132252619Y-76526571D01*
X132313095Y-76405619D01*
X132313095Y-75377523D01*
X132857380Y-76587047D02*
X133038809Y-76647523D01*
X133341190Y-76647523D01*
X133462142Y-76587047D01*
X133522619Y-76526571D01*
X133583095Y-76405619D01*
X133583095Y-76284666D01*
X133522619Y-76163714D01*
X133462142Y-76103238D01*
X133341190Y-76042761D01*
X133099285Y-75982285D01*
X132978333Y-75921809D01*
X132917857Y-75861333D01*
X132857380Y-75740380D01*
X132857380Y-75619428D01*
X132917857Y-75498476D01*
X132978333Y-75438000D01*
X133099285Y-75377523D01*
X133401666Y-75377523D01*
X133583095Y-75438000D01*
X134550714Y-75982285D02*
X134732142Y-76042761D01*
X134792619Y-76103238D01*
X134853095Y-76224190D01*
X134853095Y-76405619D01*
X134792619Y-76526571D01*
X134732142Y-76587047D01*
X134611190Y-76647523D01*
X134127380Y-76647523D01*
X134127380Y-75377523D01*
X134550714Y-75377523D01*
X134671666Y-75438000D01*
X134732142Y-75498476D01*
X134792619Y-75619428D01*
X134792619Y-75740380D01*
X134732142Y-75861333D01*
X134671666Y-75921809D01*
X134550714Y-75982285D01*
X134127380Y-75982285D01*
X135397380Y-76163714D02*
X136365000Y-76163714D01*
X136969761Y-76647523D02*
X136969761Y-75377523D01*
X136969761Y-75982285D02*
X137695476Y-75982285D01*
X137695476Y-76647523D02*
X137695476Y-75377523D01*
X138542142Y-75377523D02*
X138784047Y-75377523D01*
X138905000Y-75438000D01*
X139025952Y-75558952D01*
X139086428Y-75800857D01*
X139086428Y-76224190D01*
X139025952Y-76466095D01*
X138905000Y-76587047D01*
X138784047Y-76647523D01*
X138542142Y-76647523D01*
X138421190Y-76587047D01*
X138300238Y-76466095D01*
X138239761Y-76224190D01*
X138239761Y-75800857D01*
X138300238Y-75558952D01*
X138421190Y-75438000D01*
X138542142Y-75377523D01*
X139570238Y-76587047D02*
X139751666Y-76647523D01*
X140054047Y-76647523D01*
X140175000Y-76587047D01*
X140235476Y-76526571D01*
X140295952Y-76405619D01*
X140295952Y-76284666D01*
X140235476Y-76163714D01*
X140175000Y-76103238D01*
X140054047Y-76042761D01*
X139812142Y-75982285D01*
X139691190Y-75921809D01*
X139630714Y-75861333D01*
X139570238Y-75740380D01*
X139570238Y-75619428D01*
X139630714Y-75498476D01*
X139691190Y-75438000D01*
X139812142Y-75377523D01*
X140114523Y-75377523D01*
X140295952Y-75438000D01*
X140658809Y-75377523D02*
X141384523Y-75377523D01*
X141021666Y-76647523D02*
X141021666Y-75377523D01*
X142473095Y-76647523D02*
X141747380Y-76647523D01*
X142110238Y-76647523D02*
X142110238Y-75377523D01*
X141989285Y-75558952D01*
X141868333Y-75679904D01*
X141747380Y-75740380D01*
X102936523Y-72904047D02*
X101666523Y-72904047D01*
X101666523Y-72601666D01*
X101727000Y-72420238D01*
X101847952Y-72299285D01*
X101968904Y-72238809D01*
X102210809Y-72178333D01*
X102392238Y-72178333D01*
X102634142Y-72238809D01*
X102755095Y-72299285D01*
X102876047Y-72420238D01*
X102936523Y-72601666D01*
X102936523Y-72904047D01*
X101666523Y-71815476D02*
X102936523Y-71392142D01*
X101666523Y-70968809D01*
X102936523Y-70545476D02*
X101666523Y-70545476D01*
X102936523Y-69275476D02*
X102936523Y-70001190D01*
X102936523Y-69638333D02*
X101666523Y-69638333D01*
X101847952Y-69759285D01*
X101968904Y-69880238D01*
X102029380Y-70001190D01*
D11*
X137859142Y-107460142D02*
X138076857Y-107532714D01*
X138149428Y-107605285D01*
X138222000Y-107750428D01*
X138222000Y-107968142D01*
X138149428Y-108113285D01*
X138076857Y-108185857D01*
X137931714Y-108258428D01*
X137351142Y-108258428D01*
X137351142Y-106734428D01*
X137859142Y-106734428D01*
X138004285Y-106807000D01*
X138076857Y-106879571D01*
X138149428Y-107024714D01*
X138149428Y-107169857D01*
X138076857Y-107315000D01*
X138004285Y-107387571D01*
X137859142Y-107460142D01*
X137351142Y-107460142D01*
X138875142Y-106734428D02*
X138875142Y-107968142D01*
X138947714Y-108113285D01*
X139020285Y-108185857D01*
X139165428Y-108258428D01*
X139455714Y-108258428D01*
X139600857Y-108185857D01*
X139673428Y-108113285D01*
X139746000Y-107968142D01*
X139746000Y-106734428D01*
X140399142Y-108185857D02*
X140616857Y-108258428D01*
X140979714Y-108258428D01*
X141124857Y-108185857D01*
X141197428Y-108113285D01*
X141270000Y-107968142D01*
X141270000Y-107823000D01*
X141197428Y-107677857D01*
X141124857Y-107605285D01*
X140979714Y-107532714D01*
X140689428Y-107460142D01*
X140544285Y-107387571D01*
X140471714Y-107315000D01*
X140399142Y-107169857D01*
X140399142Y-107024714D01*
X140471714Y-106879571D01*
X140544285Y-106807000D01*
X140689428Y-106734428D01*
X141052285Y-106734428D01*
X141270000Y-106807000D01*
X142721428Y-108258428D02*
X141850571Y-108258428D01*
X142286000Y-108258428D02*
X142286000Y-106734428D01*
X142140857Y-106952142D01*
X141995714Y-107097285D01*
X141850571Y-107169857D01*
D10*
X165672142Y-114695476D02*
X165732619Y-114635000D01*
X165853571Y-114574523D01*
X166155952Y-114574523D01*
X166276904Y-114635000D01*
X166337380Y-114695476D01*
X166397857Y-114816428D01*
X166397857Y-114937380D01*
X166337380Y-115118809D01*
X165611666Y-115844523D01*
X166397857Y-115844523D01*
X166397857Y-113304523D02*
X165672142Y-113304523D01*
X166035000Y-113304523D02*
X166035000Y-112034523D01*
X165914047Y-112215952D01*
X165793095Y-112336904D01*
X165672142Y-112397380D01*
D11*
X103523142Y-82731428D02*
X103523142Y-83965142D01*
X103595714Y-84110285D01*
X103668285Y-84182857D01*
X103813428Y-84255428D01*
X104103714Y-84255428D01*
X104248857Y-84182857D01*
X104321428Y-84110285D01*
X104394000Y-83965142D01*
X104394000Y-82731428D01*
X105119714Y-83457142D02*
X105627714Y-83457142D01*
X105845428Y-84255428D02*
X105119714Y-84255428D01*
X105119714Y-82731428D01*
X105845428Y-82731428D01*
X106353428Y-82731428D02*
X107369428Y-84255428D01*
X107369428Y-82731428D02*
X106353428Y-84255428D01*
X107732285Y-82731428D02*
X108603142Y-82731428D01*
X108167714Y-84255428D02*
X108167714Y-82731428D01*
X109909428Y-84255428D02*
X109038571Y-84255428D01*
X109474000Y-84255428D02*
X109474000Y-82731428D01*
X109328857Y-82949142D01*
X109183714Y-83094285D01*
X109038571Y-83166857D01*
D10*
X105304523Y-87652142D02*
X105304523Y-88377857D01*
X105304523Y-88015000D02*
X104034523Y-88015000D01*
X104215952Y-88135952D01*
X104336904Y-88256904D01*
X104397380Y-88377857D01*
X106695476Y-88377857D02*
X106635000Y-88317380D01*
X106574523Y-88196428D01*
X106574523Y-87894047D01*
X106635000Y-87773095D01*
X106695476Y-87712619D01*
X106816428Y-87652142D01*
X106937380Y-87652142D01*
X107118809Y-87712619D01*
X107844523Y-88438333D01*
X107844523Y-87652142D01*
D11*
X147637500Y-73850500D02*
X147637500Y-73124785D01*
X148072928Y-73995642D02*
X146548928Y-73487642D01*
X148072928Y-72979642D01*
X146548928Y-72471642D02*
X147782642Y-72471642D01*
X147927785Y-72399071D01*
X148000357Y-72326500D01*
X148072928Y-72181357D01*
X148072928Y-71891071D01*
X148000357Y-71745928D01*
X147927785Y-71673357D01*
X147782642Y-71600785D01*
X146548928Y-71600785D01*
X148072928Y-70875071D02*
X146548928Y-70875071D01*
X146548928Y-70512214D01*
X146621500Y-70294500D01*
X146766642Y-70149357D01*
X146911785Y-70076785D01*
X147202071Y-70004214D01*
X147419785Y-70004214D01*
X147710071Y-70076785D01*
X147855214Y-70149357D01*
X148000357Y-70294500D01*
X148072928Y-70512214D01*
X148072928Y-70875071D01*
X148072928Y-69351071D02*
X146548928Y-69351071D01*
X146548928Y-68335071D02*
X146548928Y-68044785D01*
X146621500Y-67899642D01*
X146766642Y-67754500D01*
X147056928Y-67681928D01*
X147564928Y-67681928D01*
X147855214Y-67754500D01*
X148000357Y-67899642D01*
X148072928Y-68044785D01*
X148072928Y-68335071D01*
X148000357Y-68480214D01*
X147855214Y-68625357D01*
X147564928Y-68697928D01*
X147056928Y-68697928D01*
X146766642Y-68625357D01*
X146621500Y-68480214D01*
X146548928Y-68335071D01*
X148072928Y-66230500D02*
X148072928Y-67101357D01*
X148072928Y-66665928D02*
X146548928Y-66665928D01*
X146766642Y-66811071D01*
X146911785Y-66956214D01*
X146984357Y-67101357D01*
D10*
X165335857Y-104666142D02*
X165384238Y-104714523D01*
X165432619Y-104859666D01*
X165432619Y-104956428D01*
X165384238Y-105101571D01*
X165287476Y-105198333D01*
X165190714Y-105246714D01*
X164997190Y-105295095D01*
X164852047Y-105295095D01*
X164658523Y-105246714D01*
X164561761Y-105198333D01*
X164465000Y-105101571D01*
X164416619Y-104956428D01*
X164416619Y-104859666D01*
X164465000Y-104714523D01*
X164513380Y-104666142D01*
X164513380Y-104279095D02*
X164465000Y-104230714D01*
X164416619Y-104133952D01*
X164416619Y-103892047D01*
X164465000Y-103795285D01*
X164513380Y-103746904D01*
X164610142Y-103698523D01*
X164706904Y-103698523D01*
X164852047Y-103746904D01*
X165432619Y-104327476D01*
X165432619Y-103698523D01*
X164513380Y-103311476D02*
X164465000Y-103263095D01*
X164416619Y-103166333D01*
X164416619Y-102924428D01*
X164465000Y-102827666D01*
X164513380Y-102779285D01*
X164610142Y-102730904D01*
X164706904Y-102730904D01*
X164852047Y-102779285D01*
X165432619Y-103359857D01*
X165432619Y-102730904D01*
X172290619Y-87200619D02*
X172290619Y-86184619D01*
X172677666Y-86184619D01*
X172774428Y-86233000D01*
X172822809Y-86281380D01*
X172871190Y-86378142D01*
X172871190Y-86523285D01*
X172822809Y-86620047D01*
X172774428Y-86668428D01*
X172677666Y-86716809D01*
X172290619Y-86716809D01*
X173209857Y-86184619D02*
X173451761Y-87200619D01*
X173645285Y-86474904D01*
X173838809Y-87200619D01*
X174080714Y-86184619D01*
X175048333Y-87200619D02*
X174709666Y-86716809D01*
X174467761Y-87200619D02*
X174467761Y-86184619D01*
X174854809Y-86184619D01*
X174951571Y-86233000D01*
X174999952Y-86281380D01*
X175048333Y-86378142D01*
X175048333Y-86523285D01*
X174999952Y-86620047D01*
X174951571Y-86668428D01*
X174854809Y-86716809D01*
X174467761Y-86716809D01*
X175241857Y-87297380D02*
X176015952Y-87297380D01*
X176741666Y-87200619D02*
X176257857Y-87200619D01*
X176257857Y-86184619D01*
X177080333Y-86668428D02*
X177419000Y-86668428D01*
X177564142Y-87200619D02*
X177080333Y-87200619D01*
X177080333Y-86184619D01*
X177564142Y-86184619D01*
X177999571Y-87200619D02*
X177999571Y-86184619D01*
X178241476Y-86184619D01*
X178386619Y-86233000D01*
X178483380Y-86329761D01*
X178531761Y-86426523D01*
X178580142Y-86620047D01*
X178580142Y-86765190D01*
X178531761Y-86958714D01*
X178483380Y-87055476D01*
X178386619Y-87152238D01*
X178241476Y-87200619D01*
X177999571Y-87200619D01*
X179547761Y-87200619D02*
X178967190Y-87200619D01*
X179257476Y-87200619D02*
X179257476Y-86184619D01*
X179160714Y-86329761D01*
X179063952Y-86426523D01*
X178967190Y-86474904D01*
X172320857Y-84152619D02*
X171982190Y-83668809D01*
X171740285Y-84152619D02*
X171740285Y-83136619D01*
X172127333Y-83136619D01*
X172224095Y-83185000D01*
X172272476Y-83233380D01*
X172320857Y-83330142D01*
X172320857Y-83475285D01*
X172272476Y-83572047D01*
X172224095Y-83620428D01*
X172127333Y-83668809D01*
X171740285Y-83668809D01*
X173288476Y-84152619D02*
X172707904Y-84152619D01*
X172998190Y-84152619D02*
X172998190Y-83136619D01*
X172901428Y-83281761D01*
X172804666Y-83378523D01*
X172707904Y-83426904D01*
X173627142Y-83136619D02*
X174256095Y-83136619D01*
X173917428Y-83523666D01*
X174062571Y-83523666D01*
X174159333Y-83572047D01*
X174207714Y-83620428D01*
X174256095Y-83717190D01*
X174256095Y-83959095D01*
X174207714Y-84055857D01*
X174159333Y-84104238D01*
X174062571Y-84152619D01*
X173772285Y-84152619D01*
X173675523Y-84104238D01*
X173627142Y-84055857D01*
X117710857Y-97741619D02*
X117372190Y-97257809D01*
X117130285Y-97741619D02*
X117130285Y-96725619D01*
X117517333Y-96725619D01*
X117614095Y-96774000D01*
X117662476Y-96822380D01*
X117710857Y-96919142D01*
X117710857Y-97064285D01*
X117662476Y-97161047D01*
X117614095Y-97209428D01*
X117517333Y-97257809D01*
X117130285Y-97257809D01*
X118049523Y-96725619D02*
X118678476Y-96725619D01*
X118339809Y-97112666D01*
X118484952Y-97112666D01*
X118581714Y-97161047D01*
X118630095Y-97209428D01*
X118678476Y-97306190D01*
X118678476Y-97548095D01*
X118630095Y-97644857D01*
X118581714Y-97693238D01*
X118484952Y-97741619D01*
X118194666Y-97741619D01*
X118097904Y-97693238D01*
X118049523Y-97644857D01*
X119017142Y-96725619D02*
X119646095Y-96725619D01*
X119307428Y-97112666D01*
X119452571Y-97112666D01*
X119549333Y-97161047D01*
X119597714Y-97209428D01*
X119646095Y-97306190D01*
X119646095Y-97548095D01*
X119597714Y-97644857D01*
X119549333Y-97693238D01*
X119452571Y-97741619D01*
X119162285Y-97741619D01*
X119065523Y-97693238D01*
X119017142Y-97644857D01*
X139237357Y-87391119D02*
X138898690Y-86907309D01*
X138656785Y-87391119D02*
X138656785Y-86375119D01*
X139043833Y-86375119D01*
X139140595Y-86423500D01*
X139188976Y-86471880D01*
X139237357Y-86568642D01*
X139237357Y-86713785D01*
X139188976Y-86810547D01*
X139140595Y-86858928D01*
X139043833Y-86907309D01*
X138656785Y-86907309D01*
X139576023Y-86375119D02*
X140204976Y-86375119D01*
X139866309Y-86762166D01*
X140011452Y-86762166D01*
X140108214Y-86810547D01*
X140156595Y-86858928D01*
X140204976Y-86955690D01*
X140204976Y-87197595D01*
X140156595Y-87294357D01*
X140108214Y-87342738D01*
X140011452Y-87391119D01*
X139721166Y-87391119D01*
X139624404Y-87342738D01*
X139576023Y-87294357D01*
X140833928Y-86375119D02*
X140930690Y-86375119D01*
X141027452Y-86423500D01*
X141075833Y-86471880D01*
X141124214Y-86568642D01*
X141172595Y-86762166D01*
X141172595Y-87004071D01*
X141124214Y-87197595D01*
X141075833Y-87294357D01*
X141027452Y-87342738D01*
X140930690Y-87391119D01*
X140833928Y-87391119D01*
X140737166Y-87342738D01*
X140688785Y-87294357D01*
X140640404Y-87197595D01*
X140592023Y-87004071D01*
X140592023Y-86762166D01*
X140640404Y-86568642D01*
X140688785Y-86471880D01*
X140737166Y-86423500D01*
X140833928Y-86375119D01*
X117710857Y-96217619D02*
X117372190Y-95733809D01*
X117130285Y-96217619D02*
X117130285Y-95201619D01*
X117517333Y-95201619D01*
X117614095Y-95250000D01*
X117662476Y-95298380D01*
X117710857Y-95395142D01*
X117710857Y-95540285D01*
X117662476Y-95637047D01*
X117614095Y-95685428D01*
X117517333Y-95733809D01*
X117130285Y-95733809D01*
X118049523Y-95201619D02*
X118678476Y-95201619D01*
X118339809Y-95588666D01*
X118484952Y-95588666D01*
X118581714Y-95637047D01*
X118630095Y-95685428D01*
X118678476Y-95782190D01*
X118678476Y-96024095D01*
X118630095Y-96120857D01*
X118581714Y-96169238D01*
X118484952Y-96217619D01*
X118194666Y-96217619D01*
X118097904Y-96169238D01*
X118049523Y-96120857D01*
X119549333Y-95540285D02*
X119549333Y-96217619D01*
X119307428Y-95153238D02*
X119065523Y-95878952D01*
X119694476Y-95878952D01*
X168740666Y-84406619D02*
X168402000Y-83922809D01*
X168160095Y-84406619D02*
X168160095Y-83390619D01*
X168547142Y-83390619D01*
X168643904Y-83439000D01*
X168692285Y-83487380D01*
X168740666Y-83584142D01*
X168740666Y-83729285D01*
X168692285Y-83826047D01*
X168643904Y-83874428D01*
X168547142Y-83922809D01*
X168160095Y-83922809D01*
X169321238Y-83826047D02*
X169224476Y-83777666D01*
X169176095Y-83729285D01*
X169127714Y-83632523D01*
X169127714Y-83584142D01*
X169176095Y-83487380D01*
X169224476Y-83439000D01*
X169321238Y-83390619D01*
X169514761Y-83390619D01*
X169611523Y-83439000D01*
X169659904Y-83487380D01*
X169708285Y-83584142D01*
X169708285Y-83632523D01*
X169659904Y-83729285D01*
X169611523Y-83777666D01*
X169514761Y-83826047D01*
X169321238Y-83826047D01*
X169224476Y-83874428D01*
X169176095Y-83922809D01*
X169127714Y-84019571D01*
X169127714Y-84213095D01*
X169176095Y-84309857D01*
X169224476Y-84358238D01*
X169321238Y-84406619D01*
X169514761Y-84406619D01*
X169611523Y-84358238D01*
X169659904Y-84309857D01*
X169708285Y-84213095D01*
X169708285Y-84019571D01*
X169659904Y-83922809D01*
X169611523Y-83874428D01*
X169514761Y-83826047D01*
X146890619Y-80433333D02*
X146406809Y-80772000D01*
X146890619Y-81013904D02*
X145874619Y-81013904D01*
X145874619Y-80626857D01*
X145923000Y-80530095D01*
X145971380Y-80481714D01*
X146068142Y-80433333D01*
X146213285Y-80433333D01*
X146310047Y-80481714D01*
X146358428Y-80530095D01*
X146406809Y-80626857D01*
X146406809Y-81013904D01*
X146890619Y-79949523D02*
X146890619Y-79756000D01*
X146842238Y-79659238D01*
X146793857Y-79610857D01*
X146648714Y-79514095D01*
X146455190Y-79465714D01*
X146068142Y-79465714D01*
X145971380Y-79514095D01*
X145923000Y-79562476D01*
X145874619Y-79659238D01*
X145874619Y-79852761D01*
X145923000Y-79949523D01*
X145971380Y-79997904D01*
X146068142Y-80046285D01*
X146310047Y-80046285D01*
X146406809Y-79997904D01*
X146455190Y-79949523D01*
X146503571Y-79852761D01*
X146503571Y-79659238D01*
X146455190Y-79562476D01*
X146406809Y-79514095D01*
X146310047Y-79465714D01*
X145366619Y-81425142D02*
X144882809Y-81763809D01*
X145366619Y-82005714D02*
X144350619Y-82005714D01*
X144350619Y-81618666D01*
X144399000Y-81521904D01*
X144447380Y-81473523D01*
X144544142Y-81425142D01*
X144689285Y-81425142D01*
X144786047Y-81473523D01*
X144834428Y-81521904D01*
X144882809Y-81618666D01*
X144882809Y-82005714D01*
X145366619Y-80457523D02*
X145366619Y-81038095D01*
X145366619Y-80747809D02*
X144350619Y-80747809D01*
X144495761Y-80844571D01*
X144592523Y-80941333D01*
X144640904Y-81038095D01*
X145366619Y-79489904D02*
X145366619Y-80070476D01*
X145366619Y-79780190D02*
X144350619Y-79780190D01*
X144495761Y-79876952D01*
X144592523Y-79973714D01*
X144640904Y-80070476D01*
X162922857Y-86341857D02*
X162874476Y-86390238D01*
X162729333Y-86438619D01*
X162632571Y-86438619D01*
X162487428Y-86390238D01*
X162390666Y-86293476D01*
X162342285Y-86196714D01*
X162293904Y-86003190D01*
X162293904Y-85858047D01*
X162342285Y-85664523D01*
X162390666Y-85567761D01*
X162487428Y-85471000D01*
X162632571Y-85422619D01*
X162729333Y-85422619D01*
X162874476Y-85471000D01*
X162922857Y-85519380D01*
X163309904Y-85519380D02*
X163358285Y-85471000D01*
X163455047Y-85422619D01*
X163696952Y-85422619D01*
X163793714Y-85471000D01*
X163842095Y-85519380D01*
X163890476Y-85616142D01*
X163890476Y-85712904D01*
X163842095Y-85858047D01*
X163261523Y-86438619D01*
X163890476Y-86438619D01*
X164519428Y-85422619D02*
X164616190Y-85422619D01*
X164712952Y-85471000D01*
X164761333Y-85519380D01*
X164809714Y-85616142D01*
X164858095Y-85809666D01*
X164858095Y-86051571D01*
X164809714Y-86245095D01*
X164761333Y-86341857D01*
X164712952Y-86390238D01*
X164616190Y-86438619D01*
X164519428Y-86438619D01*
X164422666Y-86390238D01*
X164374285Y-86341857D01*
X164325904Y-86245095D01*
X164277523Y-86051571D01*
X164277523Y-85809666D01*
X164325904Y-85616142D01*
X164374285Y-85519380D01*
X164422666Y-85471000D01*
X164519428Y-85422619D01*
X150095857Y-81933142D02*
X150144238Y-81981523D01*
X150192619Y-82126666D01*
X150192619Y-82223428D01*
X150144238Y-82368571D01*
X150047476Y-82465333D01*
X149950714Y-82513714D01*
X149757190Y-82562095D01*
X149612047Y-82562095D01*
X149418523Y-82513714D01*
X149321761Y-82465333D01*
X149225000Y-82368571D01*
X149176619Y-82223428D01*
X149176619Y-82126666D01*
X149225000Y-81981523D01*
X149273380Y-81933142D01*
X150192619Y-80965523D02*
X150192619Y-81546095D01*
X150192619Y-81255809D02*
X149176619Y-81255809D01*
X149321761Y-81352571D01*
X149418523Y-81449333D01*
X149466904Y-81546095D01*
X149176619Y-80626857D02*
X149176619Y-79949523D01*
X150192619Y-80384952D01*
X148317857Y-81425142D02*
X148366238Y-81473523D01*
X148414619Y-81618666D01*
X148414619Y-81715428D01*
X148366238Y-81860571D01*
X148269476Y-81957333D01*
X148172714Y-82005714D01*
X147979190Y-82054095D01*
X147834047Y-82054095D01*
X147640523Y-82005714D01*
X147543761Y-81957333D01*
X147447000Y-81860571D01*
X147398619Y-81715428D01*
X147398619Y-81618666D01*
X147447000Y-81473523D01*
X147495380Y-81425142D01*
X148414619Y-80457523D02*
X148414619Y-81038095D01*
X148414619Y-80747809D02*
X147398619Y-80747809D01*
X147543761Y-80844571D01*
X147640523Y-80941333D01*
X147688904Y-81038095D01*
X147834047Y-79876952D02*
X147785666Y-79973714D01*
X147737285Y-80022095D01*
X147640523Y-80070476D01*
X147592142Y-80070476D01*
X147495380Y-80022095D01*
X147447000Y-79973714D01*
X147398619Y-79876952D01*
X147398619Y-79683428D01*
X147447000Y-79586666D01*
X147495380Y-79538285D01*
X147592142Y-79489904D01*
X147640523Y-79489904D01*
X147737285Y-79538285D01*
X147785666Y-79586666D01*
X147834047Y-79683428D01*
X147834047Y-79876952D01*
X147882428Y-79973714D01*
X147930809Y-80022095D01*
X148027571Y-80070476D01*
X148221095Y-80070476D01*
X148317857Y-80022095D01*
X148366238Y-79973714D01*
X148414619Y-79876952D01*
X148414619Y-79683428D01*
X148366238Y-79586666D01*
X148317857Y-79538285D01*
X148221095Y-79489904D01*
X148027571Y-79489904D01*
X147930809Y-79538285D01*
X147882428Y-79586666D01*
X147834047Y-79683428D01*
X161683095Y-78945619D02*
X161683095Y-77929619D01*
X161925000Y-77929619D01*
X162070142Y-77978000D01*
X162166904Y-78074761D01*
X162215285Y-78171523D01*
X162263666Y-78365047D01*
X162263666Y-78510190D01*
X162215285Y-78703714D01*
X162166904Y-78800476D01*
X162070142Y-78897238D01*
X161925000Y-78945619D01*
X161683095Y-78945619D01*
X163231285Y-78945619D02*
X162650714Y-78945619D01*
X162941000Y-78945619D02*
X162941000Y-77929619D01*
X162844238Y-78074761D01*
X162747476Y-78171523D01*
X162650714Y-78219904D01*
X169567238Y-82263380D02*
X169462476Y-82211000D01*
X169357714Y-82106238D01*
X169200571Y-81949095D01*
X169095809Y-81896714D01*
X168991047Y-81896714D01*
X169043428Y-82158619D02*
X168938666Y-82106238D01*
X168833904Y-82001476D01*
X168781523Y-81791952D01*
X168781523Y-81425285D01*
X168833904Y-81215761D01*
X168938666Y-81111000D01*
X169043428Y-81058619D01*
X169252952Y-81058619D01*
X169357714Y-81111000D01*
X169462476Y-81215761D01*
X169514857Y-81425285D01*
X169514857Y-81791952D01*
X169462476Y-82001476D01*
X169357714Y-82106238D01*
X169252952Y-82158619D01*
X169043428Y-82158619D01*
X169933904Y-81163380D02*
X169986285Y-81111000D01*
X170091047Y-81058619D01*
X170352952Y-81058619D01*
X170457714Y-81111000D01*
X170510095Y-81163380D01*
X170562476Y-81268142D01*
X170562476Y-81372904D01*
X170510095Y-81530047D01*
X169881523Y-82158619D01*
X170562476Y-82158619D01*
D11*
X107569000Y-108349142D02*
X107786714Y-108421714D01*
X107859285Y-108494285D01*
X107931857Y-108639428D01*
X107931857Y-108857142D01*
X107859285Y-109002285D01*
X107786714Y-109074857D01*
X107641571Y-109147428D01*
X107061000Y-109147428D01*
X107061000Y-107623428D01*
X107569000Y-107623428D01*
X107714142Y-107696000D01*
X107786714Y-107768571D01*
X107859285Y-107913714D01*
X107859285Y-108058857D01*
X107786714Y-108204000D01*
X107714142Y-108276571D01*
X107569000Y-108349142D01*
X107061000Y-108349142D01*
X108875285Y-107623428D02*
X109165571Y-107623428D01*
X109310714Y-107696000D01*
X109455857Y-107841142D01*
X109528428Y-108131428D01*
X109528428Y-108639428D01*
X109455857Y-108929714D01*
X109310714Y-109074857D01*
X109165571Y-109147428D01*
X108875285Y-109147428D01*
X108730142Y-109074857D01*
X108585000Y-108929714D01*
X108512428Y-108639428D01*
X108512428Y-108131428D01*
X108585000Y-107841142D01*
X108730142Y-107696000D01*
X108875285Y-107623428D01*
X110471857Y-107623428D02*
X110762142Y-107623428D01*
X110907285Y-107696000D01*
X111052428Y-107841142D01*
X111125000Y-108131428D01*
X111125000Y-108639428D01*
X111052428Y-108929714D01*
X110907285Y-109074857D01*
X110762142Y-109147428D01*
X110471857Y-109147428D01*
X110326714Y-109074857D01*
X110181571Y-108929714D01*
X110109000Y-108639428D01*
X110109000Y-108131428D01*
X110181571Y-107841142D01*
X110326714Y-107696000D01*
X110471857Y-107623428D01*
X111560428Y-107623428D02*
X112431285Y-107623428D01*
X111995857Y-109147428D02*
X111995857Y-107623428D01*
X113737571Y-109147428D02*
X112866714Y-109147428D01*
X113302142Y-109147428D02*
X113302142Y-107623428D01*
X113157000Y-107841142D01*
X113011857Y-107986285D01*
X112866714Y-108058857D01*
D10*
X126449666Y-107677857D02*
X126401285Y-107726238D01*
X126256142Y-107774619D01*
X126159380Y-107774619D01*
X126014238Y-107726238D01*
X125917476Y-107629476D01*
X125869095Y-107532714D01*
X125820714Y-107339190D01*
X125820714Y-107194047D01*
X125869095Y-107000523D01*
X125917476Y-106903761D01*
X126014238Y-106807000D01*
X126159380Y-106758619D01*
X126256142Y-106758619D01*
X126401285Y-106807000D01*
X126449666Y-106855380D01*
X127417285Y-107774619D02*
X126836714Y-107774619D01*
X127127000Y-107774619D02*
X127127000Y-106758619D01*
X127030238Y-106903761D01*
X126933476Y-107000523D01*
X126836714Y-107048904D01*
X116567857Y-89704333D02*
X116616238Y-89752714D01*
X116664619Y-89897857D01*
X116664619Y-89994619D01*
X116616238Y-90139761D01*
X116519476Y-90236523D01*
X116422714Y-90284904D01*
X116229190Y-90333285D01*
X116084047Y-90333285D01*
X115890523Y-90284904D01*
X115793761Y-90236523D01*
X115697000Y-90139761D01*
X115648619Y-89994619D01*
X115648619Y-89897857D01*
X115697000Y-89752714D01*
X115745380Y-89704333D01*
X115745380Y-89317285D02*
X115697000Y-89268904D01*
X115648619Y-89172142D01*
X115648619Y-88930238D01*
X115697000Y-88833476D01*
X115745380Y-88785095D01*
X115842142Y-88736714D01*
X115938904Y-88736714D01*
X116084047Y-88785095D01*
X116664619Y-89365666D01*
X116664619Y-88736714D01*
X135720666Y-101073857D02*
X135672285Y-101122238D01*
X135527142Y-101170619D01*
X135430380Y-101170619D01*
X135285238Y-101122238D01*
X135188476Y-101025476D01*
X135140095Y-100928714D01*
X135091714Y-100735190D01*
X135091714Y-100590047D01*
X135140095Y-100396523D01*
X135188476Y-100299761D01*
X135285238Y-100203000D01*
X135430380Y-100154619D01*
X135527142Y-100154619D01*
X135672285Y-100203000D01*
X135720666Y-100251380D01*
X136059333Y-100154619D02*
X136688285Y-100154619D01*
X136349619Y-100541666D01*
X136494761Y-100541666D01*
X136591523Y-100590047D01*
X136639904Y-100638428D01*
X136688285Y-100735190D01*
X136688285Y-100977095D01*
X136639904Y-101073857D01*
X136591523Y-101122238D01*
X136494761Y-101170619D01*
X136204476Y-101170619D01*
X136107714Y-101122238D01*
X136059333Y-101073857D01*
X131783666Y-90786857D02*
X131735285Y-90835238D01*
X131590142Y-90883619D01*
X131493380Y-90883619D01*
X131348238Y-90835238D01*
X131251476Y-90738476D01*
X131203095Y-90641714D01*
X131154714Y-90448190D01*
X131154714Y-90303047D01*
X131203095Y-90109523D01*
X131251476Y-90012761D01*
X131348238Y-89916000D01*
X131493380Y-89867619D01*
X131590142Y-89867619D01*
X131735285Y-89916000D01*
X131783666Y-89964380D01*
X132654523Y-90206285D02*
X132654523Y-90883619D01*
X132412619Y-89819238D02*
X132170714Y-90544952D01*
X132799666Y-90544952D01*
X119742857Y-89704333D02*
X119791238Y-89752714D01*
X119839619Y-89897857D01*
X119839619Y-89994619D01*
X119791238Y-90139761D01*
X119694476Y-90236523D01*
X119597714Y-90284904D01*
X119404190Y-90333285D01*
X119259047Y-90333285D01*
X119065523Y-90284904D01*
X118968761Y-90236523D01*
X118872000Y-90139761D01*
X118823619Y-89994619D01*
X118823619Y-89897857D01*
X118872000Y-89752714D01*
X118920380Y-89704333D01*
X118823619Y-88785095D02*
X118823619Y-89268904D01*
X119307428Y-89317285D01*
X119259047Y-89268904D01*
X119210666Y-89172142D01*
X119210666Y-88930238D01*
X119259047Y-88833476D01*
X119307428Y-88785095D01*
X119404190Y-88736714D01*
X119646095Y-88736714D01*
X119742857Y-88785095D01*
X119791238Y-88833476D01*
X119839619Y-88930238D01*
X119839619Y-89172142D01*
X119791238Y-89268904D01*
X119742857Y-89317285D01*
X117686666Y-94596857D02*
X117638285Y-94645238D01*
X117493142Y-94693619D01*
X117396380Y-94693619D01*
X117251238Y-94645238D01*
X117154476Y-94548476D01*
X117106095Y-94451714D01*
X117057714Y-94258190D01*
X117057714Y-94113047D01*
X117106095Y-93919523D01*
X117154476Y-93822761D01*
X117251238Y-93726000D01*
X117396380Y-93677619D01*
X117493142Y-93677619D01*
X117638285Y-93726000D01*
X117686666Y-93774380D01*
X118557523Y-93677619D02*
X118364000Y-93677619D01*
X118267238Y-93726000D01*
X118218857Y-93774380D01*
X118122095Y-93919523D01*
X118073714Y-94113047D01*
X118073714Y-94500095D01*
X118122095Y-94596857D01*
X118170476Y-94645238D01*
X118267238Y-94693619D01*
X118460761Y-94693619D01*
X118557523Y-94645238D01*
X118605904Y-94596857D01*
X118654285Y-94500095D01*
X118654285Y-94258190D01*
X118605904Y-94161428D01*
X118557523Y-94113047D01*
X118460761Y-94064666D01*
X118267238Y-94064666D01*
X118170476Y-94113047D01*
X118122095Y-94161428D01*
X118073714Y-94258190D01*
X115273666Y-99676857D02*
X115225285Y-99725238D01*
X115080142Y-99773619D01*
X114983380Y-99773619D01*
X114838238Y-99725238D01*
X114741476Y-99628476D01*
X114693095Y-99531714D01*
X114644714Y-99338190D01*
X114644714Y-99193047D01*
X114693095Y-98999523D01*
X114741476Y-98902761D01*
X114838238Y-98806000D01*
X114983380Y-98757619D01*
X115080142Y-98757619D01*
X115225285Y-98806000D01*
X115273666Y-98854380D01*
X115612333Y-98757619D02*
X116289666Y-98757619D01*
X115854238Y-99773619D01*
X123679857Y-103420333D02*
X123728238Y-103468714D01*
X123776619Y-103613857D01*
X123776619Y-103710619D01*
X123728238Y-103855761D01*
X123631476Y-103952523D01*
X123534714Y-104000904D01*
X123341190Y-104049285D01*
X123196047Y-104049285D01*
X123002523Y-104000904D01*
X122905761Y-103952523D01*
X122809000Y-103855761D01*
X122760619Y-103710619D01*
X122760619Y-103613857D01*
X122809000Y-103468714D01*
X122857380Y-103420333D01*
X123196047Y-102839761D02*
X123147666Y-102936523D01*
X123099285Y-102984904D01*
X123002523Y-103033285D01*
X122954142Y-103033285D01*
X122857380Y-102984904D01*
X122809000Y-102936523D01*
X122760619Y-102839761D01*
X122760619Y-102646238D01*
X122809000Y-102549476D01*
X122857380Y-102501095D01*
X122954142Y-102452714D01*
X123002523Y-102452714D01*
X123099285Y-102501095D01*
X123147666Y-102549476D01*
X123196047Y-102646238D01*
X123196047Y-102839761D01*
X123244428Y-102936523D01*
X123292809Y-102984904D01*
X123389571Y-103033285D01*
X123583095Y-103033285D01*
X123679857Y-102984904D01*
X123728238Y-102936523D01*
X123776619Y-102839761D01*
X123776619Y-102646238D01*
X123728238Y-102549476D01*
X123679857Y-102501095D01*
X123583095Y-102452714D01*
X123389571Y-102452714D01*
X123292809Y-102501095D01*
X123244428Y-102549476D01*
X123196047Y-102646238D01*
X122282857Y-103420333D02*
X122331238Y-103468714D01*
X122379619Y-103613857D01*
X122379619Y-103710619D01*
X122331238Y-103855761D01*
X122234476Y-103952523D01*
X122137714Y-104000904D01*
X121944190Y-104049285D01*
X121799047Y-104049285D01*
X121605523Y-104000904D01*
X121508761Y-103952523D01*
X121412000Y-103855761D01*
X121363619Y-103710619D01*
X121363619Y-103613857D01*
X121412000Y-103468714D01*
X121460380Y-103420333D01*
X122379619Y-102936523D02*
X122379619Y-102743000D01*
X122331238Y-102646238D01*
X122282857Y-102597857D01*
X122137714Y-102501095D01*
X121944190Y-102452714D01*
X121557142Y-102452714D01*
X121460380Y-102501095D01*
X121412000Y-102549476D01*
X121363619Y-102646238D01*
X121363619Y-102839761D01*
X121412000Y-102936523D01*
X121460380Y-102984904D01*
X121557142Y-103033285D01*
X121799047Y-103033285D01*
X121895809Y-102984904D01*
X121944190Y-102936523D01*
X121992571Y-102839761D01*
X121992571Y-102646238D01*
X121944190Y-102549476D01*
X121895809Y-102501095D01*
X121799047Y-102452714D01*
X115043857Y-103523142D02*
X115092238Y-103571523D01*
X115140619Y-103716666D01*
X115140619Y-103813428D01*
X115092238Y-103958571D01*
X114995476Y-104055333D01*
X114898714Y-104103714D01*
X114705190Y-104152095D01*
X114560047Y-104152095D01*
X114366523Y-104103714D01*
X114269761Y-104055333D01*
X114173000Y-103958571D01*
X114124619Y-103813428D01*
X114124619Y-103716666D01*
X114173000Y-103571523D01*
X114221380Y-103523142D01*
X115140619Y-102555523D02*
X115140619Y-103136095D01*
X115140619Y-102845809D02*
X114124619Y-102845809D01*
X114269761Y-102942571D01*
X114366523Y-103039333D01*
X114414904Y-103136095D01*
X114124619Y-101926571D02*
X114124619Y-101829809D01*
X114173000Y-101733047D01*
X114221380Y-101684666D01*
X114318142Y-101636285D01*
X114511666Y-101587904D01*
X114753571Y-101587904D01*
X114947095Y-101636285D01*
X115043857Y-101684666D01*
X115092238Y-101733047D01*
X115140619Y-101829809D01*
X115140619Y-101926571D01*
X115092238Y-102023333D01*
X115043857Y-102071714D01*
X114947095Y-102120095D01*
X114753571Y-102168476D01*
X114511666Y-102168476D01*
X114318142Y-102120095D01*
X114221380Y-102071714D01*
X114173000Y-102023333D01*
X114124619Y-101926571D01*
X116567857Y-103015142D02*
X116616238Y-103063523D01*
X116664619Y-103208666D01*
X116664619Y-103305428D01*
X116616238Y-103450571D01*
X116519476Y-103547333D01*
X116422714Y-103595714D01*
X116229190Y-103644095D01*
X116084047Y-103644095D01*
X115890523Y-103595714D01*
X115793761Y-103547333D01*
X115697000Y-103450571D01*
X115648619Y-103305428D01*
X115648619Y-103208666D01*
X115697000Y-103063523D01*
X115745380Y-103015142D01*
X116664619Y-102047523D02*
X116664619Y-102628095D01*
X116664619Y-102337809D02*
X115648619Y-102337809D01*
X115793761Y-102434571D01*
X115890523Y-102531333D01*
X115938904Y-102628095D01*
X116664619Y-101079904D02*
X116664619Y-101660476D01*
X116664619Y-101370190D02*
X115648619Y-101370190D01*
X115793761Y-101466952D01*
X115890523Y-101563714D01*
X115938904Y-101660476D01*
X118091857Y-103015142D02*
X118140238Y-103063523D01*
X118188619Y-103208666D01*
X118188619Y-103305428D01*
X118140238Y-103450571D01*
X118043476Y-103547333D01*
X117946714Y-103595714D01*
X117753190Y-103644095D01*
X117608047Y-103644095D01*
X117414523Y-103595714D01*
X117317761Y-103547333D01*
X117221000Y-103450571D01*
X117172619Y-103305428D01*
X117172619Y-103208666D01*
X117221000Y-103063523D01*
X117269380Y-103015142D01*
X118188619Y-102047523D02*
X118188619Y-102628095D01*
X118188619Y-102337809D02*
X117172619Y-102337809D01*
X117317761Y-102434571D01*
X117414523Y-102531333D01*
X117462904Y-102628095D01*
X117269380Y-101660476D02*
X117221000Y-101612095D01*
X117172619Y-101515333D01*
X117172619Y-101273428D01*
X117221000Y-101176666D01*
X117269380Y-101128285D01*
X117366142Y-101079904D01*
X117462904Y-101079904D01*
X117608047Y-101128285D01*
X118188619Y-101708857D01*
X118188619Y-101079904D01*
X118218857Y-90696142D02*
X118267238Y-90744523D01*
X118315619Y-90889666D01*
X118315619Y-90986428D01*
X118267238Y-91131571D01*
X118170476Y-91228333D01*
X118073714Y-91276714D01*
X117880190Y-91325095D01*
X117735047Y-91325095D01*
X117541523Y-91276714D01*
X117444761Y-91228333D01*
X117348000Y-91131571D01*
X117299619Y-90986428D01*
X117299619Y-90889666D01*
X117348000Y-90744523D01*
X117396380Y-90696142D01*
X118315619Y-89728523D02*
X118315619Y-90309095D01*
X118315619Y-90018809D02*
X117299619Y-90018809D01*
X117444761Y-90115571D01*
X117541523Y-90212333D01*
X117589904Y-90309095D01*
X117299619Y-89389857D02*
X117299619Y-88760904D01*
X117686666Y-89099571D01*
X117686666Y-88954428D01*
X117735047Y-88857666D01*
X117783428Y-88809285D01*
X117880190Y-88760904D01*
X118122095Y-88760904D01*
X118218857Y-88809285D01*
X118267238Y-88857666D01*
X118315619Y-88954428D01*
X118315619Y-89244714D01*
X118267238Y-89341476D01*
X118218857Y-89389857D01*
X125076857Y-103396142D02*
X125125238Y-103444523D01*
X125173619Y-103589666D01*
X125173619Y-103686428D01*
X125125238Y-103831571D01*
X125028476Y-103928333D01*
X124931714Y-103976714D01*
X124738190Y-104025095D01*
X124593047Y-104025095D01*
X124399523Y-103976714D01*
X124302761Y-103928333D01*
X124206000Y-103831571D01*
X124157619Y-103686428D01*
X124157619Y-103589666D01*
X124206000Y-103444523D01*
X124254380Y-103396142D01*
X125173619Y-102428523D02*
X125173619Y-103009095D01*
X125173619Y-102718809D02*
X124157619Y-102718809D01*
X124302761Y-102815571D01*
X124399523Y-102912333D01*
X124447904Y-103009095D01*
X124496285Y-101557666D02*
X125173619Y-101557666D01*
X124109238Y-101799571D02*
X124834952Y-102041476D01*
X124834952Y-101412523D01*
X128251857Y-90061142D02*
X128300238Y-90109523D01*
X128348619Y-90254666D01*
X128348619Y-90351428D01*
X128300238Y-90496571D01*
X128203476Y-90593333D01*
X128106714Y-90641714D01*
X127913190Y-90690095D01*
X127768047Y-90690095D01*
X127574523Y-90641714D01*
X127477761Y-90593333D01*
X127381000Y-90496571D01*
X127332619Y-90351428D01*
X127332619Y-90254666D01*
X127381000Y-90109523D01*
X127429380Y-90061142D01*
X128348619Y-89093523D02*
X128348619Y-89674095D01*
X128348619Y-89383809D02*
X127332619Y-89383809D01*
X127477761Y-89480571D01*
X127574523Y-89577333D01*
X127622904Y-89674095D01*
X127332619Y-88174285D02*
X127332619Y-88658095D01*
X127816428Y-88706476D01*
X127768047Y-88658095D01*
X127719666Y-88561333D01*
X127719666Y-88319428D01*
X127768047Y-88222666D01*
X127816428Y-88174285D01*
X127913190Y-88125904D01*
X128155095Y-88125904D01*
X128251857Y-88174285D01*
X128300238Y-88222666D01*
X128348619Y-88319428D01*
X128348619Y-88561333D01*
X128300238Y-88658095D01*
X128251857Y-88706476D01*
X122790857Y-90061142D02*
X122839238Y-90109523D01*
X122887619Y-90254666D01*
X122887619Y-90351428D01*
X122839238Y-90496571D01*
X122742476Y-90593333D01*
X122645714Y-90641714D01*
X122452190Y-90690095D01*
X122307047Y-90690095D01*
X122113523Y-90641714D01*
X122016761Y-90593333D01*
X121920000Y-90496571D01*
X121871619Y-90351428D01*
X121871619Y-90254666D01*
X121920000Y-90109523D01*
X121968380Y-90061142D01*
X122887619Y-89093523D02*
X122887619Y-89674095D01*
X122887619Y-89383809D02*
X121871619Y-89383809D01*
X122016761Y-89480571D01*
X122113523Y-89577333D01*
X122161904Y-89674095D01*
X121871619Y-88222666D02*
X121871619Y-88416190D01*
X121920000Y-88512952D01*
X121968380Y-88561333D01*
X122113523Y-88658095D01*
X122307047Y-88706476D01*
X122694095Y-88706476D01*
X122790857Y-88658095D01*
X122839238Y-88609714D01*
X122887619Y-88512952D01*
X122887619Y-88319428D01*
X122839238Y-88222666D01*
X122790857Y-88174285D01*
X122694095Y-88125904D01*
X122452190Y-88125904D01*
X122355428Y-88174285D01*
X122307047Y-88222666D01*
X122258666Y-88319428D01*
X122258666Y-88512952D01*
X122307047Y-88609714D01*
X122355428Y-88658095D01*
X122452190Y-88706476D01*
X142475857Y-81044142D02*
X142524238Y-81092523D01*
X142572619Y-81237666D01*
X142572619Y-81334428D01*
X142524238Y-81479571D01*
X142427476Y-81576333D01*
X142330714Y-81624714D01*
X142137190Y-81673095D01*
X141992047Y-81673095D01*
X141798523Y-81624714D01*
X141701761Y-81576333D01*
X141605000Y-81479571D01*
X141556619Y-81334428D01*
X141556619Y-81237666D01*
X141605000Y-81092523D01*
X141653380Y-81044142D01*
X142572619Y-80076523D02*
X142572619Y-80657095D01*
X142572619Y-80366809D02*
X141556619Y-80366809D01*
X141701761Y-80463571D01*
X141798523Y-80560333D01*
X141846904Y-80657095D01*
X142572619Y-79592714D02*
X142572619Y-79399190D01*
X142524238Y-79302428D01*
X142475857Y-79254047D01*
X142330714Y-79157285D01*
X142137190Y-79108904D01*
X141750142Y-79108904D01*
X141653380Y-79157285D01*
X141605000Y-79205666D01*
X141556619Y-79302428D01*
X141556619Y-79495952D01*
X141605000Y-79592714D01*
X141653380Y-79641095D01*
X141750142Y-79689476D01*
X141992047Y-79689476D01*
X142088809Y-79641095D01*
X142137190Y-79592714D01*
X142185571Y-79495952D01*
X142185571Y-79302428D01*
X142137190Y-79205666D01*
X142088809Y-79157285D01*
X141992047Y-79108904D01*
X176638857Y-95866857D02*
X176590476Y-95915238D01*
X176445333Y-95963619D01*
X176348571Y-95963619D01*
X176203428Y-95915238D01*
X176106666Y-95818476D01*
X176058285Y-95721714D01*
X176009904Y-95528190D01*
X176009904Y-95383047D01*
X176058285Y-95189523D01*
X176106666Y-95092761D01*
X176203428Y-94996000D01*
X176348571Y-94947619D01*
X176445333Y-94947619D01*
X176590476Y-94996000D01*
X176638857Y-95044380D01*
X177025904Y-95044380D02*
X177074285Y-94996000D01*
X177171047Y-94947619D01*
X177412952Y-94947619D01*
X177509714Y-94996000D01*
X177558095Y-95044380D01*
X177606476Y-95141142D01*
X177606476Y-95237904D01*
X177558095Y-95383047D01*
X176977523Y-95963619D01*
X177606476Y-95963619D01*
X178574095Y-95963619D02*
X177993523Y-95963619D01*
X178283809Y-95963619D02*
X178283809Y-94947619D01*
X178187047Y-95092761D01*
X178090285Y-95189523D01*
X177993523Y-95237904D01*
X131299857Y-79901142D02*
X131348238Y-79949523D01*
X131396619Y-80094666D01*
X131396619Y-80191428D01*
X131348238Y-80336571D01*
X131251476Y-80433333D01*
X131154714Y-80481714D01*
X130961190Y-80530095D01*
X130816047Y-80530095D01*
X130622523Y-80481714D01*
X130525761Y-80433333D01*
X130429000Y-80336571D01*
X130380619Y-80191428D01*
X130380619Y-80094666D01*
X130429000Y-79949523D01*
X130477380Y-79901142D01*
X130477380Y-79514095D02*
X130429000Y-79465714D01*
X130380619Y-79368952D01*
X130380619Y-79127047D01*
X130429000Y-79030285D01*
X130477380Y-78981904D01*
X130574142Y-78933523D01*
X130670904Y-78933523D01*
X130816047Y-78981904D01*
X131396619Y-79562476D01*
X131396619Y-78933523D01*
X130380619Y-78594857D02*
X130380619Y-77965904D01*
X130767666Y-78304571D01*
X130767666Y-78159428D01*
X130816047Y-78062666D01*
X130864428Y-78014285D01*
X130961190Y-77965904D01*
X131203095Y-77965904D01*
X131299857Y-78014285D01*
X131348238Y-78062666D01*
X131396619Y-78159428D01*
X131396619Y-78449714D01*
X131348238Y-78546476D01*
X131299857Y-78594857D01*
X132696857Y-78261857D02*
X132648476Y-78310238D01*
X132503333Y-78358619D01*
X132406571Y-78358619D01*
X132261428Y-78310238D01*
X132164666Y-78213476D01*
X132116285Y-78116714D01*
X132067904Y-77923190D01*
X132067904Y-77778047D01*
X132116285Y-77584523D01*
X132164666Y-77487761D01*
X132261428Y-77391000D01*
X132406571Y-77342619D01*
X132503333Y-77342619D01*
X132648476Y-77391000D01*
X132696857Y-77439380D01*
X133083904Y-77439380D02*
X133132285Y-77391000D01*
X133229047Y-77342619D01*
X133470952Y-77342619D01*
X133567714Y-77391000D01*
X133616095Y-77439380D01*
X133664476Y-77536142D01*
X133664476Y-77632904D01*
X133616095Y-77778047D01*
X133035523Y-78358619D01*
X133664476Y-78358619D01*
X134535333Y-77681285D02*
X134535333Y-78358619D01*
X134293428Y-77294238D02*
X134051523Y-78019952D01*
X134680476Y-78019952D01*
X150730857Y-93072857D02*
X150682476Y-93121238D01*
X150537333Y-93169619D01*
X150440571Y-93169619D01*
X150295428Y-93121238D01*
X150198666Y-93024476D01*
X150150285Y-92927714D01*
X150101904Y-92734190D01*
X150101904Y-92589047D01*
X150150285Y-92395523D01*
X150198666Y-92298761D01*
X150295428Y-92202000D01*
X150440571Y-92153619D01*
X150537333Y-92153619D01*
X150682476Y-92202000D01*
X150730857Y-92250380D01*
X151117904Y-92250380D02*
X151166285Y-92202000D01*
X151263047Y-92153619D01*
X151504952Y-92153619D01*
X151601714Y-92202000D01*
X151650095Y-92250380D01*
X151698476Y-92347142D01*
X151698476Y-92443904D01*
X151650095Y-92589047D01*
X151069523Y-93169619D01*
X151698476Y-93169619D01*
X152617714Y-92153619D02*
X152133904Y-92153619D01*
X152085523Y-92637428D01*
X152133904Y-92589047D01*
X152230666Y-92540666D01*
X152472571Y-92540666D01*
X152569333Y-92589047D01*
X152617714Y-92637428D01*
X152666095Y-92734190D01*
X152666095Y-92976095D01*
X152617714Y-93072857D01*
X152569333Y-93121238D01*
X152472571Y-93169619D01*
X152230666Y-93169619D01*
X152133904Y-93121238D01*
X152085523Y-93072857D01*
X150730857Y-94723857D02*
X150682476Y-94772238D01*
X150537333Y-94820619D01*
X150440571Y-94820619D01*
X150295428Y-94772238D01*
X150198666Y-94675476D01*
X150150285Y-94578714D01*
X150101904Y-94385190D01*
X150101904Y-94240047D01*
X150150285Y-94046523D01*
X150198666Y-93949761D01*
X150295428Y-93853000D01*
X150440571Y-93804619D01*
X150537333Y-93804619D01*
X150682476Y-93853000D01*
X150730857Y-93901380D01*
X151117904Y-93901380D02*
X151166285Y-93853000D01*
X151263047Y-93804619D01*
X151504952Y-93804619D01*
X151601714Y-93853000D01*
X151650095Y-93901380D01*
X151698476Y-93998142D01*
X151698476Y-94094904D01*
X151650095Y-94240047D01*
X151069523Y-94820619D01*
X151698476Y-94820619D01*
X152569333Y-93804619D02*
X152375809Y-93804619D01*
X152279047Y-93853000D01*
X152230666Y-93901380D01*
X152133904Y-94046523D01*
X152085523Y-94240047D01*
X152085523Y-94627095D01*
X152133904Y-94723857D01*
X152182285Y-94772238D01*
X152279047Y-94820619D01*
X152472571Y-94820619D01*
X152569333Y-94772238D01*
X152617714Y-94723857D01*
X152666095Y-94627095D01*
X152666095Y-94385190D01*
X152617714Y-94288428D01*
X152569333Y-94240047D01*
X152472571Y-94191666D01*
X152279047Y-94191666D01*
X152182285Y-94240047D01*
X152133904Y-94288428D01*
X152085523Y-94385190D01*
X136760857Y-89897857D02*
X136712476Y-89946238D01*
X136567333Y-89994619D01*
X136470571Y-89994619D01*
X136325428Y-89946238D01*
X136228666Y-89849476D01*
X136180285Y-89752714D01*
X136131904Y-89559190D01*
X136131904Y-89414047D01*
X136180285Y-89220523D01*
X136228666Y-89123761D01*
X136325428Y-89027000D01*
X136470571Y-88978619D01*
X136567333Y-88978619D01*
X136712476Y-89027000D01*
X136760857Y-89075380D01*
X137147904Y-89075380D02*
X137196285Y-89027000D01*
X137293047Y-88978619D01*
X137534952Y-88978619D01*
X137631714Y-89027000D01*
X137680095Y-89075380D01*
X137728476Y-89172142D01*
X137728476Y-89268904D01*
X137680095Y-89414047D01*
X137099523Y-89994619D01*
X137728476Y-89994619D01*
X138067142Y-88978619D02*
X138744476Y-88978619D01*
X138309047Y-89994619D01*
X139173857Y-92691857D02*
X139125476Y-92740238D01*
X138980333Y-92788619D01*
X138883571Y-92788619D01*
X138738428Y-92740238D01*
X138641666Y-92643476D01*
X138593285Y-92546714D01*
X138544904Y-92353190D01*
X138544904Y-92208047D01*
X138593285Y-92014523D01*
X138641666Y-91917761D01*
X138738428Y-91821000D01*
X138883571Y-91772619D01*
X138980333Y-91772619D01*
X139125476Y-91821000D01*
X139173857Y-91869380D01*
X139560904Y-91869380D02*
X139609285Y-91821000D01*
X139706047Y-91772619D01*
X139947952Y-91772619D01*
X140044714Y-91821000D01*
X140093095Y-91869380D01*
X140141476Y-91966142D01*
X140141476Y-92062904D01*
X140093095Y-92208047D01*
X139512523Y-92788619D01*
X140141476Y-92788619D01*
X140722047Y-92208047D02*
X140625285Y-92159666D01*
X140576904Y-92111285D01*
X140528523Y-92014523D01*
X140528523Y-91966142D01*
X140576904Y-91869380D01*
X140625285Y-91821000D01*
X140722047Y-91772619D01*
X140915571Y-91772619D01*
X141012333Y-91821000D01*
X141060714Y-91869380D01*
X141109095Y-91966142D01*
X141109095Y-92014523D01*
X141060714Y-92111285D01*
X141012333Y-92159666D01*
X140915571Y-92208047D01*
X140722047Y-92208047D01*
X140625285Y-92256428D01*
X140576904Y-92304809D01*
X140528523Y-92401571D01*
X140528523Y-92595095D01*
X140576904Y-92691857D01*
X140625285Y-92740238D01*
X140722047Y-92788619D01*
X140915571Y-92788619D01*
X141012333Y-92740238D01*
X141060714Y-92691857D01*
X141109095Y-92595095D01*
X141109095Y-92401571D01*
X141060714Y-92304809D01*
X141012333Y-92256428D01*
X140915571Y-92208047D01*
X136633857Y-98152857D02*
X136585476Y-98201238D01*
X136440333Y-98249619D01*
X136343571Y-98249619D01*
X136198428Y-98201238D01*
X136101666Y-98104476D01*
X136053285Y-98007714D01*
X136004904Y-97814190D01*
X136004904Y-97669047D01*
X136053285Y-97475523D01*
X136101666Y-97378761D01*
X136198428Y-97282000D01*
X136343571Y-97233619D01*
X136440333Y-97233619D01*
X136585476Y-97282000D01*
X136633857Y-97330380D01*
X137020904Y-97330380D02*
X137069285Y-97282000D01*
X137166047Y-97233619D01*
X137407952Y-97233619D01*
X137504714Y-97282000D01*
X137553095Y-97330380D01*
X137601476Y-97427142D01*
X137601476Y-97523904D01*
X137553095Y-97669047D01*
X136972523Y-98249619D01*
X137601476Y-98249619D01*
X138085285Y-98249619D02*
X138278809Y-98249619D01*
X138375571Y-98201238D01*
X138423952Y-98152857D01*
X138520714Y-98007714D01*
X138569095Y-97814190D01*
X138569095Y-97427142D01*
X138520714Y-97330380D01*
X138472333Y-97282000D01*
X138375571Y-97233619D01*
X138182047Y-97233619D01*
X138085285Y-97282000D01*
X138036904Y-97330380D01*
X137988523Y-97427142D01*
X137988523Y-97669047D01*
X138036904Y-97765809D01*
X138085285Y-97814190D01*
X138182047Y-97862571D01*
X138375571Y-97862571D01*
X138472333Y-97814190D01*
X138520714Y-97765809D01*
X138569095Y-97669047D01*
X139173857Y-101327857D02*
X139125476Y-101376238D01*
X138980333Y-101424619D01*
X138883571Y-101424619D01*
X138738428Y-101376238D01*
X138641666Y-101279476D01*
X138593285Y-101182714D01*
X138544904Y-100989190D01*
X138544904Y-100844047D01*
X138593285Y-100650523D01*
X138641666Y-100553761D01*
X138738428Y-100457000D01*
X138883571Y-100408619D01*
X138980333Y-100408619D01*
X139125476Y-100457000D01*
X139173857Y-100505380D01*
X139512523Y-100408619D02*
X140141476Y-100408619D01*
X139802809Y-100795666D01*
X139947952Y-100795666D01*
X140044714Y-100844047D01*
X140093095Y-100892428D01*
X140141476Y-100989190D01*
X140141476Y-101231095D01*
X140093095Y-101327857D01*
X140044714Y-101376238D01*
X139947952Y-101424619D01*
X139657666Y-101424619D01*
X139560904Y-101376238D01*
X139512523Y-101327857D01*
X140770428Y-100408619D02*
X140867190Y-100408619D01*
X140963952Y-100457000D01*
X141012333Y-100505380D01*
X141060714Y-100602142D01*
X141109095Y-100795666D01*
X141109095Y-101037571D01*
X141060714Y-101231095D01*
X141012333Y-101327857D01*
X140963952Y-101376238D01*
X140867190Y-101424619D01*
X140770428Y-101424619D01*
X140673666Y-101376238D01*
X140625285Y-101327857D01*
X140576904Y-101231095D01*
X140528523Y-101037571D01*
X140528523Y-100795666D01*
X140576904Y-100602142D01*
X140625285Y-100505380D01*
X140673666Y-100457000D01*
X140770428Y-100408619D01*
X122210285Y-69039619D02*
X122210285Y-68023619D01*
X122210285Y-68507428D02*
X122790857Y-68507428D01*
X122790857Y-69039619D02*
X122790857Y-68023619D01*
X123855238Y-68942857D02*
X123806857Y-68991238D01*
X123661714Y-69039619D01*
X123564952Y-69039619D01*
X123419809Y-68991238D01*
X123323047Y-68894476D01*
X123274666Y-68797714D01*
X123226285Y-68604190D01*
X123226285Y-68459047D01*
X123274666Y-68265523D01*
X123323047Y-68168761D01*
X123419809Y-68072000D01*
X123564952Y-68023619D01*
X123661714Y-68023619D01*
X123806857Y-68072000D01*
X123855238Y-68120380D01*
X124290666Y-68507428D02*
X124629333Y-68507428D01*
X124774476Y-69039619D02*
X124290666Y-69039619D01*
X124290666Y-68023619D01*
X124774476Y-68023619D01*
X125790476Y-68942857D02*
X125742095Y-68991238D01*
X125596952Y-69039619D01*
X125500190Y-69039619D01*
X125355047Y-68991238D01*
X125258285Y-68894476D01*
X125209904Y-68797714D01*
X125161523Y-68604190D01*
X125161523Y-68459047D01*
X125209904Y-68265523D01*
X125258285Y-68168761D01*
X125355047Y-68072000D01*
X125500190Y-68023619D01*
X125596952Y-68023619D01*
X125742095Y-68072000D01*
X125790476Y-68120380D01*
X126758095Y-69039619D02*
X126177523Y-69039619D01*
X126467809Y-69039619D02*
X126467809Y-68023619D01*
X126371047Y-68168761D01*
X126274285Y-68265523D01*
X126177523Y-68313904D01*
X122645714Y-78667428D02*
X122307047Y-78667428D01*
X122307047Y-79199619D02*
X122307047Y-78183619D01*
X122790857Y-78183619D01*
X123177904Y-78183619D02*
X123177904Y-79006095D01*
X123226285Y-79102857D01*
X123274666Y-79151238D01*
X123371428Y-79199619D01*
X123564952Y-79199619D01*
X123661714Y-79151238D01*
X123710095Y-79102857D01*
X123758476Y-79006095D01*
X123758476Y-78183619D01*
X124193904Y-79151238D02*
X124339047Y-79199619D01*
X124580952Y-79199619D01*
X124677714Y-79151238D01*
X124726095Y-79102857D01*
X124774476Y-79006095D01*
X124774476Y-78909333D01*
X124726095Y-78812571D01*
X124677714Y-78764190D01*
X124580952Y-78715809D01*
X124387428Y-78667428D01*
X124290666Y-78619047D01*
X124242285Y-78570666D01*
X124193904Y-78473904D01*
X124193904Y-78377142D01*
X124242285Y-78280380D01*
X124290666Y-78232000D01*
X124387428Y-78183619D01*
X124629333Y-78183619D01*
X124774476Y-78232000D01*
X125209904Y-78667428D02*
X125548571Y-78667428D01*
X125693714Y-79199619D02*
X125209904Y-79199619D01*
X125209904Y-78183619D01*
X125693714Y-78183619D01*
X126661333Y-79199619D02*
X126080761Y-79199619D01*
X126371047Y-79199619D02*
X126371047Y-78183619D01*
X126274285Y-78328761D01*
X126177523Y-78425523D01*
X126080761Y-78473904D01*
X131269619Y-84243333D02*
X131269619Y-84727142D01*
X130253619Y-84727142D01*
X131269619Y-83372476D02*
X131269619Y-83953047D01*
X131269619Y-83662761D02*
X130253619Y-83662761D01*
X130398761Y-83759523D01*
X130495523Y-83856285D01*
X130543904Y-83953047D01*
D23*
X124883333Y-90148833D02*
X124798666Y-90106500D01*
X124714000Y-90021833D01*
X124587000Y-89894833D01*
X124502333Y-89852500D01*
X124417666Y-89852500D01*
X124460000Y-90064166D02*
X124375333Y-90021833D01*
X124290666Y-89937166D01*
X124248333Y-89767833D01*
X124248333Y-89471500D01*
X124290666Y-89302166D01*
X124375333Y-89217500D01*
X124460000Y-89175166D01*
X124629333Y-89175166D01*
X124714000Y-89217500D01*
X124798666Y-89302166D01*
X124841000Y-89471500D01*
X124841000Y-89767833D01*
X124798666Y-89937166D01*
X124714000Y-90021833D01*
X124629333Y-90064166D01*
X124460000Y-90064166D01*
X125687666Y-90064166D02*
X125179666Y-90064166D01*
X125433666Y-90064166D02*
X125433666Y-89175166D01*
X125349000Y-89302166D01*
X125264333Y-89386833D01*
X125179666Y-89429166D01*
D21*
X127196857Y-85578904D02*
X127120666Y-85540809D01*
X127082571Y-85502714D01*
X127044476Y-85426523D01*
X127044476Y-85197952D01*
X127082571Y-85121761D01*
X127120666Y-85083666D01*
X127196857Y-85045571D01*
X127311142Y-85045571D01*
X127387333Y-85083666D01*
X127425428Y-85121761D01*
X127463523Y-85197952D01*
X127463523Y-85426523D01*
X127425428Y-85502714D01*
X127387333Y-85540809D01*
X127311142Y-85578904D01*
X127196857Y-85578904D01*
D10*
X136355666Y-105234619D02*
X136017000Y-104750809D01*
X135775095Y-105234619D02*
X135775095Y-104218619D01*
X136162142Y-104218619D01*
X136258904Y-104267000D01*
X136307285Y-104315380D01*
X136355666Y-104412142D01*
X136355666Y-104557285D01*
X136307285Y-104654047D01*
X136258904Y-104702428D01*
X136162142Y-104750809D01*
X135775095Y-104750809D01*
X137323285Y-105234619D02*
X136742714Y-105234619D01*
X137033000Y-105234619D02*
X137033000Y-104218619D01*
X136936238Y-104363761D01*
X136839476Y-104460523D01*
X136742714Y-104508904D01*
X115013619Y-89704333D02*
X114529809Y-90043000D01*
X115013619Y-90284904D02*
X113997619Y-90284904D01*
X113997619Y-89897857D01*
X114046000Y-89801095D01*
X114094380Y-89752714D01*
X114191142Y-89704333D01*
X114336285Y-89704333D01*
X114433047Y-89752714D01*
X114481428Y-89801095D01*
X114529809Y-89897857D01*
X114529809Y-90284904D01*
X114094380Y-89317285D02*
X114046000Y-89268904D01*
X113997619Y-89172142D01*
X113997619Y-88930238D01*
X114046000Y-88833476D01*
X114094380Y-88785095D01*
X114191142Y-88736714D01*
X114287904Y-88736714D01*
X114433047Y-88785095D01*
X115013619Y-89365666D01*
X115013619Y-88736714D01*
X121363619Y-89704333D02*
X120879809Y-90043000D01*
X121363619Y-90284904D02*
X120347619Y-90284904D01*
X120347619Y-89897857D01*
X120396000Y-89801095D01*
X120444380Y-89752714D01*
X120541142Y-89704333D01*
X120686285Y-89704333D01*
X120783047Y-89752714D01*
X120831428Y-89801095D01*
X120879809Y-89897857D01*
X120879809Y-90284904D01*
X120347619Y-89365666D02*
X120347619Y-88736714D01*
X120734666Y-89075380D01*
X120734666Y-88930238D01*
X120783047Y-88833476D01*
X120831428Y-88785095D01*
X120928190Y-88736714D01*
X121170095Y-88736714D01*
X121266857Y-88785095D01*
X121315238Y-88833476D01*
X121363619Y-88930238D01*
X121363619Y-89220523D01*
X121315238Y-89317285D01*
X121266857Y-89365666D01*
X119585619Y-103420333D02*
X119101809Y-103759000D01*
X119585619Y-104000904D02*
X118569619Y-104000904D01*
X118569619Y-103613857D01*
X118618000Y-103517095D01*
X118666380Y-103468714D01*
X118763142Y-103420333D01*
X118908285Y-103420333D01*
X119005047Y-103468714D01*
X119053428Y-103517095D01*
X119101809Y-103613857D01*
X119101809Y-104000904D01*
X118908285Y-102549476D02*
X119585619Y-102549476D01*
X118521238Y-102791380D02*
X119246952Y-103033285D01*
X119246952Y-102404333D01*
X120982619Y-103420333D02*
X120498809Y-103759000D01*
X120982619Y-104000904D02*
X119966619Y-104000904D01*
X119966619Y-103613857D01*
X120015000Y-103517095D01*
X120063380Y-103468714D01*
X120160142Y-103420333D01*
X120305285Y-103420333D01*
X120402047Y-103468714D01*
X120450428Y-103517095D01*
X120498809Y-103613857D01*
X120498809Y-104000904D01*
X119966619Y-102501095D02*
X119966619Y-102984904D01*
X120450428Y-103033285D01*
X120402047Y-102984904D01*
X120353666Y-102888142D01*
X120353666Y-102646238D01*
X120402047Y-102549476D01*
X120450428Y-102501095D01*
X120547190Y-102452714D01*
X120789095Y-102452714D01*
X120885857Y-102501095D01*
X120934238Y-102549476D01*
X120982619Y-102646238D01*
X120982619Y-102888142D01*
X120934238Y-102984904D01*
X120885857Y-103033285D01*
X115781666Y-107393619D02*
X115443000Y-106909809D01*
X115201095Y-107393619D02*
X115201095Y-106377619D01*
X115588142Y-106377619D01*
X115684904Y-106426000D01*
X115733285Y-106474380D01*
X115781666Y-106571142D01*
X115781666Y-106716285D01*
X115733285Y-106813047D01*
X115684904Y-106861428D01*
X115588142Y-106909809D01*
X115201095Y-106909809D01*
X116652523Y-106377619D02*
X116459000Y-106377619D01*
X116362238Y-106426000D01*
X116313857Y-106474380D01*
X116217095Y-106619523D01*
X116168714Y-106813047D01*
X116168714Y-107200095D01*
X116217095Y-107296857D01*
X116265476Y-107345238D01*
X116362238Y-107393619D01*
X116555761Y-107393619D01*
X116652523Y-107345238D01*
X116700904Y-107296857D01*
X116749285Y-107200095D01*
X116749285Y-106958190D01*
X116700904Y-106861428D01*
X116652523Y-106813047D01*
X116555761Y-106764666D01*
X116362238Y-106764666D01*
X116265476Y-106813047D01*
X116217095Y-106861428D01*
X116168714Y-106958190D01*
X167748857Y-74373619D02*
X167410190Y-73889809D01*
X167168285Y-74373619D02*
X167168285Y-73357619D01*
X167555333Y-73357619D01*
X167652095Y-73406000D01*
X167700476Y-73454380D01*
X167748857Y-73551142D01*
X167748857Y-73696285D01*
X167700476Y-73793047D01*
X167652095Y-73841428D01*
X167555333Y-73889809D01*
X167168285Y-73889809D01*
X168716476Y-74373619D02*
X168135904Y-74373619D01*
X168426190Y-74373619D02*
X168426190Y-73357619D01*
X168329428Y-73502761D01*
X168232666Y-73599523D01*
X168135904Y-73647904D01*
X169345428Y-73357619D02*
X169442190Y-73357619D01*
X169538952Y-73406000D01*
X169587333Y-73454380D01*
X169635714Y-73551142D01*
X169684095Y-73744666D01*
X169684095Y-73986571D01*
X169635714Y-74180095D01*
X169587333Y-74276857D01*
X169538952Y-74325238D01*
X169442190Y-74373619D01*
X169345428Y-74373619D01*
X169248666Y-74325238D01*
X169200285Y-74276857D01*
X169151904Y-74180095D01*
X169103523Y-73986571D01*
X169103523Y-73744666D01*
X169151904Y-73551142D01*
X169200285Y-73454380D01*
X169248666Y-73406000D01*
X169345428Y-73357619D01*
X174987857Y-74373619D02*
X174649190Y-73889809D01*
X174407285Y-74373619D02*
X174407285Y-73357619D01*
X174794333Y-73357619D01*
X174891095Y-73406000D01*
X174939476Y-73454380D01*
X174987857Y-73551142D01*
X174987857Y-73696285D01*
X174939476Y-73793047D01*
X174891095Y-73841428D01*
X174794333Y-73889809D01*
X174407285Y-73889809D01*
X175955476Y-74373619D02*
X175374904Y-74373619D01*
X175665190Y-74373619D02*
X175665190Y-73357619D01*
X175568428Y-73502761D01*
X175471666Y-73599523D01*
X175374904Y-73647904D01*
X176342523Y-73454380D02*
X176390904Y-73406000D01*
X176487666Y-73357619D01*
X176729571Y-73357619D01*
X176826333Y-73406000D01*
X176874714Y-73454380D01*
X176923095Y-73551142D01*
X176923095Y-73647904D01*
X176874714Y-73793047D01*
X176294142Y-74373619D01*
X176923095Y-74373619D01*
X171939857Y-97106619D02*
X171601190Y-96622809D01*
X171359285Y-97106619D02*
X171359285Y-96090619D01*
X171746333Y-96090619D01*
X171843095Y-96139000D01*
X171891476Y-96187380D01*
X171939857Y-96284142D01*
X171939857Y-96429285D01*
X171891476Y-96526047D01*
X171843095Y-96574428D01*
X171746333Y-96622809D01*
X171359285Y-96622809D01*
X172907476Y-97106619D02*
X172326904Y-97106619D01*
X172617190Y-97106619D02*
X172617190Y-96090619D01*
X172520428Y-96235761D01*
X172423666Y-96332523D01*
X172326904Y-96380904D01*
X173778333Y-96429285D02*
X173778333Y-97106619D01*
X173536428Y-96042238D02*
X173294523Y-96767952D01*
X173923476Y-96767952D01*
X136125857Y-78564619D02*
X135787190Y-78080809D01*
X135545285Y-78564619D02*
X135545285Y-77548619D01*
X135932333Y-77548619D01*
X136029095Y-77597000D01*
X136077476Y-77645380D01*
X136125857Y-77742142D01*
X136125857Y-77887285D01*
X136077476Y-77984047D01*
X136029095Y-78032428D01*
X135932333Y-78080809D01*
X135545285Y-78080809D01*
X137093476Y-78564619D02*
X136512904Y-78564619D01*
X136803190Y-78564619D02*
X136803190Y-77548619D01*
X136706428Y-77693761D01*
X136609666Y-77790523D01*
X136512904Y-77838904D01*
X138012714Y-77548619D02*
X137528904Y-77548619D01*
X137480523Y-78032428D01*
X137528904Y-77984047D01*
X137625666Y-77935666D01*
X137867571Y-77935666D01*
X137964333Y-77984047D01*
X138012714Y-78032428D01*
X138061095Y-78129190D01*
X138061095Y-78371095D01*
X138012714Y-78467857D01*
X137964333Y-78516238D01*
X137867571Y-78564619D01*
X137625666Y-78564619D01*
X137528904Y-78516238D01*
X137480523Y-78467857D01*
X139300857Y-78564619D02*
X138962190Y-78080809D01*
X138720285Y-78564619D02*
X138720285Y-77548619D01*
X139107333Y-77548619D01*
X139204095Y-77597000D01*
X139252476Y-77645380D01*
X139300857Y-77742142D01*
X139300857Y-77887285D01*
X139252476Y-77984047D01*
X139204095Y-78032428D01*
X139107333Y-78080809D01*
X138720285Y-78080809D01*
X140268476Y-78564619D02*
X139687904Y-78564619D01*
X139978190Y-78564619D02*
X139978190Y-77548619D01*
X139881428Y-77693761D01*
X139784666Y-77790523D01*
X139687904Y-77838904D01*
X141139333Y-77548619D02*
X140945809Y-77548619D01*
X140849047Y-77597000D01*
X140800666Y-77645380D01*
X140703904Y-77790523D01*
X140655523Y-77984047D01*
X140655523Y-78371095D01*
X140703904Y-78467857D01*
X140752285Y-78516238D01*
X140849047Y-78564619D01*
X141042571Y-78564619D01*
X141139333Y-78516238D01*
X141187714Y-78467857D01*
X141236095Y-78371095D01*
X141236095Y-78129190D01*
X141187714Y-78032428D01*
X141139333Y-77984047D01*
X141042571Y-77935666D01*
X140849047Y-77935666D01*
X140752285Y-77984047D01*
X140703904Y-78032428D01*
X140655523Y-78129190D01*
X174225857Y-94312619D02*
X173887190Y-93828809D01*
X173645285Y-94312619D02*
X173645285Y-93296619D01*
X174032333Y-93296619D01*
X174129095Y-93345000D01*
X174177476Y-93393380D01*
X174225857Y-93490142D01*
X174225857Y-93635285D01*
X174177476Y-93732047D01*
X174129095Y-93780428D01*
X174032333Y-93828809D01*
X173645285Y-93828809D01*
X175193476Y-94312619D02*
X174612904Y-94312619D01*
X174903190Y-94312619D02*
X174903190Y-93296619D01*
X174806428Y-93441761D01*
X174709666Y-93538523D01*
X174612904Y-93586904D01*
X175532142Y-93296619D02*
X176209476Y-93296619D01*
X175774047Y-94312619D01*
X177527857Y-91772619D02*
X177189190Y-91288809D01*
X176947285Y-91772619D02*
X176947285Y-90756619D01*
X177334333Y-90756619D01*
X177431095Y-90805000D01*
X177479476Y-90853380D01*
X177527857Y-90950142D01*
X177527857Y-91095285D01*
X177479476Y-91192047D01*
X177431095Y-91240428D01*
X177334333Y-91288809D01*
X176947285Y-91288809D01*
X178495476Y-91772619D02*
X177914904Y-91772619D01*
X178205190Y-91772619D02*
X178205190Y-90756619D01*
X178108428Y-90901761D01*
X178011666Y-90998523D01*
X177914904Y-91046904D01*
X179076047Y-91192047D02*
X178979285Y-91143666D01*
X178930904Y-91095285D01*
X178882523Y-90998523D01*
X178882523Y-90950142D01*
X178930904Y-90853380D01*
X178979285Y-90805000D01*
X179076047Y-90756619D01*
X179269571Y-90756619D01*
X179366333Y-90805000D01*
X179414714Y-90853380D01*
X179463095Y-90950142D01*
X179463095Y-90998523D01*
X179414714Y-91095285D01*
X179366333Y-91143666D01*
X179269571Y-91192047D01*
X179076047Y-91192047D01*
X178979285Y-91240428D01*
X178930904Y-91288809D01*
X178882523Y-91385571D01*
X178882523Y-91579095D01*
X178930904Y-91675857D01*
X178979285Y-91724238D01*
X179076047Y-91772619D01*
X179269571Y-91772619D01*
X179366333Y-91724238D01*
X179414714Y-91675857D01*
X179463095Y-91579095D01*
X179463095Y-91385571D01*
X179414714Y-91288809D01*
X179366333Y-91240428D01*
X179269571Y-91192047D01*
X177654857Y-89613619D02*
X177316190Y-89129809D01*
X177074285Y-89613619D02*
X177074285Y-88597619D01*
X177461333Y-88597619D01*
X177558095Y-88646000D01*
X177606476Y-88694380D01*
X177654857Y-88791142D01*
X177654857Y-88936285D01*
X177606476Y-89033047D01*
X177558095Y-89081428D01*
X177461333Y-89129809D01*
X177074285Y-89129809D01*
X178622476Y-89613619D02*
X178041904Y-89613619D01*
X178332190Y-89613619D02*
X178332190Y-88597619D01*
X178235428Y-88742761D01*
X178138666Y-88839523D01*
X178041904Y-88887904D01*
X179106285Y-89613619D02*
X179299809Y-89613619D01*
X179396571Y-89565238D01*
X179444952Y-89516857D01*
X179541714Y-89371714D01*
X179590095Y-89178190D01*
X179590095Y-88791142D01*
X179541714Y-88694380D01*
X179493333Y-88646000D01*
X179396571Y-88597619D01*
X179203047Y-88597619D01*
X179106285Y-88646000D01*
X179057904Y-88694380D01*
X179009523Y-88791142D01*
X179009523Y-89033047D01*
X179057904Y-89129809D01*
X179106285Y-89178190D01*
X179203047Y-89226571D01*
X179396571Y-89226571D01*
X179493333Y-89178190D01*
X179541714Y-89129809D01*
X179590095Y-89033047D01*
X171812857Y-100408619D02*
X171474190Y-99924809D01*
X171232285Y-100408619D02*
X171232285Y-99392619D01*
X171619333Y-99392619D01*
X171716095Y-99441000D01*
X171764476Y-99489380D01*
X171812857Y-99586142D01*
X171812857Y-99731285D01*
X171764476Y-99828047D01*
X171716095Y-99876428D01*
X171619333Y-99924809D01*
X171232285Y-99924809D01*
X172199904Y-99489380D02*
X172248285Y-99441000D01*
X172345047Y-99392619D01*
X172586952Y-99392619D01*
X172683714Y-99441000D01*
X172732095Y-99489380D01*
X172780476Y-99586142D01*
X172780476Y-99682904D01*
X172732095Y-99828047D01*
X172151523Y-100408619D01*
X172780476Y-100408619D01*
X173409428Y-99392619D02*
X173506190Y-99392619D01*
X173602952Y-99441000D01*
X173651333Y-99489380D01*
X173699714Y-99586142D01*
X173748095Y-99779666D01*
X173748095Y-100021571D01*
X173699714Y-100215095D01*
X173651333Y-100311857D01*
X173602952Y-100360238D01*
X173506190Y-100408619D01*
X173409428Y-100408619D01*
X173312666Y-100360238D01*
X173264285Y-100311857D01*
X173215904Y-100215095D01*
X173167523Y-100021571D01*
X173167523Y-99779666D01*
X173215904Y-99586142D01*
X173264285Y-99489380D01*
X173312666Y-99441000D01*
X173409428Y-99392619D01*
X171939857Y-98757619D02*
X171601190Y-98273809D01*
X171359285Y-98757619D02*
X171359285Y-97741619D01*
X171746333Y-97741619D01*
X171843095Y-97790000D01*
X171891476Y-97838380D01*
X171939857Y-97935142D01*
X171939857Y-98080285D01*
X171891476Y-98177047D01*
X171843095Y-98225428D01*
X171746333Y-98273809D01*
X171359285Y-98273809D01*
X172326904Y-97838380D02*
X172375285Y-97790000D01*
X172472047Y-97741619D01*
X172713952Y-97741619D01*
X172810714Y-97790000D01*
X172859095Y-97838380D01*
X172907476Y-97935142D01*
X172907476Y-98031904D01*
X172859095Y-98177047D01*
X172278523Y-98757619D01*
X172907476Y-98757619D01*
X173875095Y-98757619D02*
X173294523Y-98757619D01*
X173584809Y-98757619D02*
X173584809Y-97741619D01*
X173488047Y-97886761D01*
X173391285Y-97983523D01*
X173294523Y-98031904D01*
X108282619Y-77488142D02*
X107798809Y-77826809D01*
X108282619Y-78068714D02*
X107266619Y-78068714D01*
X107266619Y-77681666D01*
X107315000Y-77584904D01*
X107363380Y-77536523D01*
X107460142Y-77488142D01*
X107605285Y-77488142D01*
X107702047Y-77536523D01*
X107750428Y-77584904D01*
X107798809Y-77681666D01*
X107798809Y-78068714D01*
X107363380Y-77101095D02*
X107315000Y-77052714D01*
X107266619Y-76955952D01*
X107266619Y-76714047D01*
X107315000Y-76617285D01*
X107363380Y-76568904D01*
X107460142Y-76520523D01*
X107556904Y-76520523D01*
X107702047Y-76568904D01*
X108282619Y-77149476D01*
X108282619Y-76520523D01*
X107363380Y-76133476D02*
X107315000Y-76085095D01*
X107266619Y-75988333D01*
X107266619Y-75746428D01*
X107315000Y-75649666D01*
X107363380Y-75601285D01*
X107460142Y-75552904D01*
X107556904Y-75552904D01*
X107702047Y-75601285D01*
X108282619Y-76181857D01*
X108282619Y-75552904D01*
X109806619Y-77488142D02*
X109322809Y-77826809D01*
X109806619Y-78068714D02*
X108790619Y-78068714D01*
X108790619Y-77681666D01*
X108839000Y-77584904D01*
X108887380Y-77536523D01*
X108984142Y-77488142D01*
X109129285Y-77488142D01*
X109226047Y-77536523D01*
X109274428Y-77584904D01*
X109322809Y-77681666D01*
X109322809Y-78068714D01*
X108887380Y-77101095D02*
X108839000Y-77052714D01*
X108790619Y-76955952D01*
X108790619Y-76714047D01*
X108839000Y-76617285D01*
X108887380Y-76568904D01*
X108984142Y-76520523D01*
X109080904Y-76520523D01*
X109226047Y-76568904D01*
X109806619Y-77149476D01*
X109806619Y-76520523D01*
X108790619Y-76181857D02*
X108790619Y-75552904D01*
X109177666Y-75891571D01*
X109177666Y-75746428D01*
X109226047Y-75649666D01*
X109274428Y-75601285D01*
X109371190Y-75552904D01*
X109613095Y-75552904D01*
X109709857Y-75601285D01*
X109758238Y-75649666D01*
X109806619Y-75746428D01*
X109806619Y-76036714D01*
X109758238Y-76133476D01*
X109709857Y-76181857D01*
X111330619Y-77488142D02*
X110846809Y-77826809D01*
X111330619Y-78068714D02*
X110314619Y-78068714D01*
X110314619Y-77681666D01*
X110363000Y-77584904D01*
X110411380Y-77536523D01*
X110508142Y-77488142D01*
X110653285Y-77488142D01*
X110750047Y-77536523D01*
X110798428Y-77584904D01*
X110846809Y-77681666D01*
X110846809Y-78068714D01*
X110411380Y-77101095D02*
X110363000Y-77052714D01*
X110314619Y-76955952D01*
X110314619Y-76714047D01*
X110363000Y-76617285D01*
X110411380Y-76568904D01*
X110508142Y-76520523D01*
X110604904Y-76520523D01*
X110750047Y-76568904D01*
X111330619Y-77149476D01*
X111330619Y-76520523D01*
X110653285Y-75649666D02*
X111330619Y-75649666D01*
X110266238Y-75891571D02*
X110991952Y-76133476D01*
X110991952Y-75504523D01*
X112854619Y-77488142D02*
X112370809Y-77826809D01*
X112854619Y-78068714D02*
X111838619Y-78068714D01*
X111838619Y-77681666D01*
X111887000Y-77584904D01*
X111935380Y-77536523D01*
X112032142Y-77488142D01*
X112177285Y-77488142D01*
X112274047Y-77536523D01*
X112322428Y-77584904D01*
X112370809Y-77681666D01*
X112370809Y-78068714D01*
X111935380Y-77101095D02*
X111887000Y-77052714D01*
X111838619Y-76955952D01*
X111838619Y-76714047D01*
X111887000Y-76617285D01*
X111935380Y-76568904D01*
X112032142Y-76520523D01*
X112128904Y-76520523D01*
X112274047Y-76568904D01*
X112854619Y-77149476D01*
X112854619Y-76520523D01*
X111838619Y-75601285D02*
X111838619Y-76085095D01*
X112322428Y-76133476D01*
X112274047Y-76085095D01*
X112225666Y-75988333D01*
X112225666Y-75746428D01*
X112274047Y-75649666D01*
X112322428Y-75601285D01*
X112419190Y-75552904D01*
X112661095Y-75552904D01*
X112757857Y-75601285D01*
X112806238Y-75649666D01*
X112854619Y-75746428D01*
X112854619Y-75988333D01*
X112806238Y-76085095D01*
X112757857Y-76133476D01*
X114378619Y-77488142D02*
X113894809Y-77826809D01*
X114378619Y-78068714D02*
X113362619Y-78068714D01*
X113362619Y-77681666D01*
X113411000Y-77584904D01*
X113459380Y-77536523D01*
X113556142Y-77488142D01*
X113701285Y-77488142D01*
X113798047Y-77536523D01*
X113846428Y-77584904D01*
X113894809Y-77681666D01*
X113894809Y-78068714D01*
X113459380Y-77101095D02*
X113411000Y-77052714D01*
X113362619Y-76955952D01*
X113362619Y-76714047D01*
X113411000Y-76617285D01*
X113459380Y-76568904D01*
X113556142Y-76520523D01*
X113652904Y-76520523D01*
X113798047Y-76568904D01*
X114378619Y-77149476D01*
X114378619Y-76520523D01*
X113362619Y-75649666D02*
X113362619Y-75843190D01*
X113411000Y-75939952D01*
X113459380Y-75988333D01*
X113604523Y-76085095D01*
X113798047Y-76133476D01*
X114185095Y-76133476D01*
X114281857Y-76085095D01*
X114330238Y-76036714D01*
X114378619Y-75939952D01*
X114378619Y-75746428D01*
X114330238Y-75649666D01*
X114281857Y-75601285D01*
X114185095Y-75552904D01*
X113943190Y-75552904D01*
X113846428Y-75601285D01*
X113798047Y-75649666D01*
X113749666Y-75746428D01*
X113749666Y-75939952D01*
X113798047Y-76036714D01*
X113846428Y-76085095D01*
X113943190Y-76133476D01*
X115902619Y-77488142D02*
X115418809Y-77826809D01*
X115902619Y-78068714D02*
X114886619Y-78068714D01*
X114886619Y-77681666D01*
X114935000Y-77584904D01*
X114983380Y-77536523D01*
X115080142Y-77488142D01*
X115225285Y-77488142D01*
X115322047Y-77536523D01*
X115370428Y-77584904D01*
X115418809Y-77681666D01*
X115418809Y-78068714D01*
X114983380Y-77101095D02*
X114935000Y-77052714D01*
X114886619Y-76955952D01*
X114886619Y-76714047D01*
X114935000Y-76617285D01*
X114983380Y-76568904D01*
X115080142Y-76520523D01*
X115176904Y-76520523D01*
X115322047Y-76568904D01*
X115902619Y-77149476D01*
X115902619Y-76520523D01*
X114886619Y-76181857D02*
X114886619Y-75504523D01*
X115902619Y-75939952D01*
X117299619Y-77488142D02*
X116815809Y-77826809D01*
X117299619Y-78068714D02*
X116283619Y-78068714D01*
X116283619Y-77681666D01*
X116332000Y-77584904D01*
X116380380Y-77536523D01*
X116477142Y-77488142D01*
X116622285Y-77488142D01*
X116719047Y-77536523D01*
X116767428Y-77584904D01*
X116815809Y-77681666D01*
X116815809Y-78068714D01*
X116380380Y-77101095D02*
X116332000Y-77052714D01*
X116283619Y-76955952D01*
X116283619Y-76714047D01*
X116332000Y-76617285D01*
X116380380Y-76568904D01*
X116477142Y-76520523D01*
X116573904Y-76520523D01*
X116719047Y-76568904D01*
X117299619Y-77149476D01*
X117299619Y-76520523D01*
X116719047Y-75939952D02*
X116670666Y-76036714D01*
X116622285Y-76085095D01*
X116525523Y-76133476D01*
X116477142Y-76133476D01*
X116380380Y-76085095D01*
X116332000Y-76036714D01*
X116283619Y-75939952D01*
X116283619Y-75746428D01*
X116332000Y-75649666D01*
X116380380Y-75601285D01*
X116477142Y-75552904D01*
X116525523Y-75552904D01*
X116622285Y-75601285D01*
X116670666Y-75649666D01*
X116719047Y-75746428D01*
X116719047Y-75939952D01*
X116767428Y-76036714D01*
X116815809Y-76085095D01*
X116912571Y-76133476D01*
X117106095Y-76133476D01*
X117202857Y-76085095D01*
X117251238Y-76036714D01*
X117299619Y-75939952D01*
X117299619Y-75746428D01*
X117251238Y-75649666D01*
X117202857Y-75601285D01*
X117106095Y-75552904D01*
X116912571Y-75552904D01*
X116815809Y-75601285D01*
X116767428Y-75649666D01*
X116719047Y-75746428D01*
X118950619Y-77488142D02*
X118466809Y-77826809D01*
X118950619Y-78068714D02*
X117934619Y-78068714D01*
X117934619Y-77681666D01*
X117983000Y-77584904D01*
X118031380Y-77536523D01*
X118128142Y-77488142D01*
X118273285Y-77488142D01*
X118370047Y-77536523D01*
X118418428Y-77584904D01*
X118466809Y-77681666D01*
X118466809Y-78068714D01*
X118031380Y-77101095D02*
X117983000Y-77052714D01*
X117934619Y-76955952D01*
X117934619Y-76714047D01*
X117983000Y-76617285D01*
X118031380Y-76568904D01*
X118128142Y-76520523D01*
X118224904Y-76520523D01*
X118370047Y-76568904D01*
X118950619Y-77149476D01*
X118950619Y-76520523D01*
X118950619Y-76036714D02*
X118950619Y-75843190D01*
X118902238Y-75746428D01*
X118853857Y-75698047D01*
X118708714Y-75601285D01*
X118515190Y-75552904D01*
X118128142Y-75552904D01*
X118031380Y-75601285D01*
X117983000Y-75649666D01*
X117934619Y-75746428D01*
X117934619Y-75939952D01*
X117983000Y-76036714D01*
X118031380Y-76085095D01*
X118128142Y-76133476D01*
X118370047Y-76133476D01*
X118466809Y-76085095D01*
X118515190Y-76036714D01*
X118563571Y-75939952D01*
X118563571Y-75746428D01*
X118515190Y-75649666D01*
X118466809Y-75601285D01*
X118370047Y-75552904D01*
X139173857Y-96217619D02*
X138835190Y-95733809D01*
X138593285Y-96217619D02*
X138593285Y-95201619D01*
X138980333Y-95201619D01*
X139077095Y-95250000D01*
X139125476Y-95298380D01*
X139173857Y-95395142D01*
X139173857Y-95540285D01*
X139125476Y-95637047D01*
X139077095Y-95685428D01*
X138980333Y-95733809D01*
X138593285Y-95733809D01*
X139512523Y-95201619D02*
X140141476Y-95201619D01*
X139802809Y-95588666D01*
X139947952Y-95588666D01*
X140044714Y-95637047D01*
X140093095Y-95685428D01*
X140141476Y-95782190D01*
X140141476Y-96024095D01*
X140093095Y-96120857D01*
X140044714Y-96169238D01*
X139947952Y-96217619D01*
X139657666Y-96217619D01*
X139560904Y-96169238D01*
X139512523Y-96120857D01*
X141109095Y-96217619D02*
X140528523Y-96217619D01*
X140818809Y-96217619D02*
X140818809Y-95201619D01*
X140722047Y-95346761D01*
X140625285Y-95443523D01*
X140528523Y-95491904D01*
X150730857Y-96471619D02*
X150392190Y-95987809D01*
X150150285Y-96471619D02*
X150150285Y-95455619D01*
X150537333Y-95455619D01*
X150634095Y-95504000D01*
X150682476Y-95552380D01*
X150730857Y-95649142D01*
X150730857Y-95794285D01*
X150682476Y-95891047D01*
X150634095Y-95939428D01*
X150537333Y-95987809D01*
X150150285Y-95987809D01*
X151069523Y-95455619D02*
X151698476Y-95455619D01*
X151359809Y-95842666D01*
X151504952Y-95842666D01*
X151601714Y-95891047D01*
X151650095Y-95939428D01*
X151698476Y-96036190D01*
X151698476Y-96278095D01*
X151650095Y-96374857D01*
X151601714Y-96423238D01*
X151504952Y-96471619D01*
X151214666Y-96471619D01*
X151117904Y-96423238D01*
X151069523Y-96374857D01*
X152085523Y-95552380D02*
X152133904Y-95504000D01*
X152230666Y-95455619D01*
X152472571Y-95455619D01*
X152569333Y-95504000D01*
X152617714Y-95552380D01*
X152666095Y-95649142D01*
X152666095Y-95745904D01*
X152617714Y-95891047D01*
X152037142Y-96471619D01*
X152666095Y-96471619D01*
X132031619Y-98539904D02*
X131547809Y-98878571D01*
X132031619Y-99120476D02*
X131015619Y-99120476D01*
X131015619Y-98733428D01*
X131064000Y-98636666D01*
X131112380Y-98588285D01*
X131209142Y-98539904D01*
X131354285Y-98539904D01*
X131451047Y-98588285D01*
X131499428Y-98636666D01*
X131547809Y-98733428D01*
X131547809Y-99120476D01*
X132031619Y-98104476D02*
X131015619Y-98104476D01*
X131741333Y-97765809D01*
X131015619Y-97427142D01*
X132031619Y-97427142D01*
X132031619Y-96411142D02*
X132031619Y-96991714D01*
X132031619Y-96701428D02*
X131015619Y-96701428D01*
X131160761Y-96798190D01*
X131257523Y-96894952D01*
X131305904Y-96991714D01*
X132031619Y-94094904D02*
X131547809Y-94433571D01*
X132031619Y-94675476D02*
X131015619Y-94675476D01*
X131015619Y-94288428D01*
X131064000Y-94191666D01*
X131112380Y-94143285D01*
X131209142Y-94094904D01*
X131354285Y-94094904D01*
X131451047Y-94143285D01*
X131499428Y-94191666D01*
X131547809Y-94288428D01*
X131547809Y-94675476D01*
X132031619Y-93659476D02*
X131015619Y-93659476D01*
X131741333Y-93320809D01*
X131015619Y-92982142D01*
X132031619Y-92982142D01*
X131112380Y-92546714D02*
X131064000Y-92498333D01*
X131015619Y-92401571D01*
X131015619Y-92159666D01*
X131064000Y-92062904D01*
X131112380Y-92014523D01*
X131209142Y-91966142D01*
X131305904Y-91966142D01*
X131451047Y-92014523D01*
X132031619Y-92595095D01*
X132031619Y-91966142D01*
D11*
X107169857Y-117983000D02*
X107242428Y-117765285D01*
X107242428Y-117402428D01*
X107169857Y-117257285D01*
X107097285Y-117184714D01*
X106952142Y-117112142D01*
X106807000Y-117112142D01*
X106661857Y-117184714D01*
X106589285Y-117257285D01*
X106516714Y-117402428D01*
X106444142Y-117692714D01*
X106371571Y-117837857D01*
X106299000Y-117910428D01*
X106153857Y-117983000D01*
X106008714Y-117983000D01*
X105863571Y-117910428D01*
X105791000Y-117837857D01*
X105718428Y-117692714D01*
X105718428Y-117329857D01*
X105791000Y-117112142D01*
X105718428Y-116604142D02*
X107242428Y-116241285D01*
X106153857Y-115951000D01*
X107242428Y-115660714D01*
X105718428Y-115297857D01*
X107242428Y-114717285D02*
X105718428Y-114717285D01*
X105718428Y-114354428D01*
X105791000Y-114136714D01*
X105936142Y-113991571D01*
X106081285Y-113919000D01*
X106371571Y-113846428D01*
X106589285Y-113846428D01*
X106879571Y-113919000D01*
X107024714Y-113991571D01*
X107169857Y-114136714D01*
X107242428Y-114354428D01*
X107242428Y-114717285D01*
X107242428Y-112395000D02*
X107242428Y-113265857D01*
X107242428Y-112830428D02*
X105718428Y-112830428D01*
X105936142Y-112975571D01*
X106081285Y-113120714D01*
X106153857Y-113265857D01*
D10*
X134353904Y-106885619D02*
X134353904Y-107708095D01*
X134402285Y-107804857D01*
X134450666Y-107853238D01*
X134547428Y-107901619D01*
X134740952Y-107901619D01*
X134837714Y-107853238D01*
X134886095Y-107804857D01*
X134934476Y-107708095D01*
X134934476Y-106885619D01*
X135950476Y-107901619D02*
X135369904Y-107901619D01*
X135660190Y-107901619D02*
X135660190Y-106885619D01*
X135563428Y-107030761D01*
X135466666Y-107127523D01*
X135369904Y-107175904D01*
D24*
X130776738Y-105286023D02*
X130746500Y-105255785D01*
X130716261Y-105195309D01*
X130716261Y-105044119D01*
X130746500Y-104983642D01*
X130776738Y-104953404D01*
X130837214Y-104923166D01*
X130897690Y-104923166D01*
X130988404Y-104953404D01*
X131351261Y-105316261D01*
X131351261Y-104923166D01*
X130716261Y-104530071D02*
X130716261Y-104469595D01*
X130746500Y-104409119D01*
X130776738Y-104378880D01*
X130837214Y-104348642D01*
X130958166Y-104318404D01*
X131109357Y-104318404D01*
X131230309Y-104348642D01*
X131290785Y-104378880D01*
X131321023Y-104409119D01*
X131351261Y-104469595D01*
X131351261Y-104530071D01*
X131321023Y-104590547D01*
X131290785Y-104620785D01*
X131230309Y-104651023D01*
X131109357Y-104681261D01*
X130958166Y-104681261D01*
X130837214Y-104651023D01*
X130776738Y-104620785D01*
X130746500Y-104590547D01*
X130716261Y-104530071D01*
X130988404Y-103955547D02*
X130958166Y-104016023D01*
X130927928Y-104046261D01*
X130867452Y-104076500D01*
X130837214Y-104076500D01*
X130776738Y-104046261D01*
X130746500Y-104016023D01*
X130716261Y-103955547D01*
X130716261Y-103834595D01*
X130746500Y-103774119D01*
X130776738Y-103743880D01*
X130837214Y-103713642D01*
X130867452Y-103713642D01*
X130927928Y-103743880D01*
X130958166Y-103774119D01*
X130988404Y-103834595D01*
X130988404Y-103955547D01*
X131018642Y-104016023D01*
X131048880Y-104046261D01*
X131109357Y-104076500D01*
X131230309Y-104076500D01*
X131290785Y-104046261D01*
X131321023Y-104016023D01*
X131351261Y-103955547D01*
X131351261Y-103834595D01*
X131321023Y-103774119D01*
X131290785Y-103743880D01*
X131230309Y-103713642D01*
X131109357Y-103713642D01*
X131048880Y-103743880D01*
X131018642Y-103774119D01*
X130988404Y-103834595D01*
X131351261Y-103441500D02*
X130927928Y-103441500D01*
X130988404Y-103441500D02*
X130958166Y-103411261D01*
X130927928Y-103350785D01*
X130927928Y-103260071D01*
X130958166Y-103199595D01*
X131018642Y-103169357D01*
X131351261Y-103169357D01*
X131018642Y-103169357D02*
X130958166Y-103139119D01*
X130927928Y-103078642D01*
X130927928Y-102987928D01*
X130958166Y-102927452D01*
X131018642Y-102897214D01*
X131351261Y-102897214D01*
X131351261Y-102594833D02*
X130927928Y-102594833D01*
X130716261Y-102594833D02*
X130746500Y-102625071D01*
X130776738Y-102594833D01*
X130746500Y-102564595D01*
X130716261Y-102594833D01*
X130776738Y-102594833D01*
X131351261Y-102201738D02*
X131321023Y-102262214D01*
X131260547Y-102292452D01*
X130716261Y-102292452D01*
D25*
X130205238Y-105948238D02*
X130253619Y-105803095D01*
X130253619Y-105561190D01*
X130205238Y-105464428D01*
X130156857Y-105416047D01*
X130060095Y-105367666D01*
X129963333Y-105367666D01*
X129866571Y-105416047D01*
X129818190Y-105464428D01*
X129769809Y-105561190D01*
X129721428Y-105754714D01*
X129673047Y-105851476D01*
X129624666Y-105899857D01*
X129527904Y-105948238D01*
X129431142Y-105948238D01*
X129334380Y-105899857D01*
X129286000Y-105851476D01*
X129237619Y-105754714D01*
X129237619Y-105512809D01*
X129286000Y-105367666D01*
X129237619Y-104738714D02*
X129237619Y-104545190D01*
X129286000Y-104448428D01*
X129382761Y-104351666D01*
X129576285Y-104303285D01*
X129914952Y-104303285D01*
X130108476Y-104351666D01*
X130205238Y-104448428D01*
X130253619Y-104545190D01*
X130253619Y-104738714D01*
X130205238Y-104835476D01*
X130108476Y-104932238D01*
X129914952Y-104980619D01*
X129576285Y-104980619D01*
X129382761Y-104932238D01*
X129286000Y-104835476D01*
X129237619Y-104738714D01*
X129866571Y-103867857D02*
X129866571Y-103093761D01*
X129673047Y-102464809D02*
X129624666Y-102561571D01*
X129576285Y-102609952D01*
X129479523Y-102658333D01*
X129431142Y-102658333D01*
X129334380Y-102609952D01*
X129286000Y-102561571D01*
X129237619Y-102464809D01*
X129237619Y-102271285D01*
X129286000Y-102174523D01*
X129334380Y-102126142D01*
X129431142Y-102077761D01*
X129479523Y-102077761D01*
X129576285Y-102126142D01*
X129624666Y-102174523D01*
X129673047Y-102271285D01*
X129673047Y-102464809D01*
X129721428Y-102561571D01*
X129769809Y-102609952D01*
X129866571Y-102658333D01*
X130060095Y-102658333D01*
X130156857Y-102609952D01*
X130205238Y-102561571D01*
X130253619Y-102464809D01*
X130253619Y-102271285D01*
X130205238Y-102174523D01*
X130156857Y-102126142D01*
X130060095Y-102077761D01*
X129866571Y-102077761D01*
X129769809Y-102126142D01*
X129721428Y-102174523D01*
X129673047Y-102271285D01*
D10*
X128003904Y-99773619D02*
X128003904Y-100596095D01*
X128052285Y-100692857D01*
X128100666Y-100741238D01*
X128197428Y-100789619D01*
X128390952Y-100789619D01*
X128487714Y-100741238D01*
X128536095Y-100692857D01*
X128584476Y-100596095D01*
X128584476Y-99773619D01*
X129019904Y-99870380D02*
X129068285Y-99822000D01*
X129165047Y-99773619D01*
X129406952Y-99773619D01*
X129503714Y-99822000D01*
X129552095Y-99870380D01*
X129600476Y-99967142D01*
X129600476Y-100063904D01*
X129552095Y-100209047D01*
X128971523Y-100789619D01*
X129600476Y-100789619D01*
X136766904Y-84025619D02*
X136766904Y-84848095D01*
X136815285Y-84944857D01*
X136863666Y-84993238D01*
X136960428Y-85041619D01*
X137153952Y-85041619D01*
X137250714Y-84993238D01*
X137299095Y-84944857D01*
X137347476Y-84848095D01*
X137347476Y-84025619D01*
X137734523Y-84025619D02*
X138363476Y-84025619D01*
X138024809Y-84412666D01*
X138169952Y-84412666D01*
X138266714Y-84461047D01*
X138315095Y-84509428D01*
X138363476Y-84606190D01*
X138363476Y-84848095D01*
X138315095Y-84944857D01*
X138266714Y-84993238D01*
X138169952Y-85041619D01*
X137879666Y-85041619D01*
X137782904Y-84993238D01*
X137734523Y-84944857D01*
X145783904Y-89994619D02*
X145783904Y-90817095D01*
X145832285Y-90913857D01*
X145880666Y-90962238D01*
X145977428Y-91010619D01*
X146170952Y-91010619D01*
X146267714Y-90962238D01*
X146316095Y-90913857D01*
X146364476Y-90817095D01*
X146364476Y-89994619D01*
X147332095Y-89994619D02*
X146848285Y-89994619D01*
X146799904Y-90478428D01*
X146848285Y-90430047D01*
X146945047Y-90381666D01*
X147186952Y-90381666D01*
X147283714Y-90430047D01*
X147332095Y-90478428D01*
X147380476Y-90575190D01*
X147380476Y-90817095D01*
X147332095Y-90913857D01*
X147283714Y-90962238D01*
X147186952Y-91010619D01*
X146945047Y-91010619D01*
X146848285Y-90962238D01*
X146799904Y-90913857D01*
D26*
X145303142Y-89182857D02*
X145303142Y-88668571D01*
X146203142Y-88925714D02*
X145303142Y-88925714D01*
X146160285Y-88411428D02*
X146203142Y-88282857D01*
X146203142Y-88068571D01*
X146160285Y-87982857D01*
X146117428Y-87940000D01*
X146031714Y-87897142D01*
X145946000Y-87897142D01*
X145860285Y-87940000D01*
X145817428Y-87982857D01*
X145774571Y-88068571D01*
X145731714Y-88240000D01*
X145688857Y-88325714D01*
X145646000Y-88368571D01*
X145560285Y-88411428D01*
X145474571Y-88411428D01*
X145388857Y-88368571D01*
X145346000Y-88325714D01*
X145303142Y-88240000D01*
X145303142Y-88025714D01*
X145346000Y-87897142D01*
X146160285Y-87554285D02*
X146203142Y-87425714D01*
X146203142Y-87211428D01*
X146160285Y-87125714D01*
X146117428Y-87082857D01*
X146031714Y-87040000D01*
X145946000Y-87040000D01*
X145860285Y-87082857D01*
X145817428Y-87125714D01*
X145774571Y-87211428D01*
X145731714Y-87382857D01*
X145688857Y-87468571D01*
X145646000Y-87511428D01*
X145560285Y-87554285D01*
X145474571Y-87554285D01*
X145388857Y-87511428D01*
X145346000Y-87468571D01*
X145303142Y-87382857D01*
X145303142Y-87168571D01*
X145346000Y-87040000D01*
X145303142Y-86482857D02*
X145303142Y-86311428D01*
X145346000Y-86225714D01*
X145431714Y-86140000D01*
X145603142Y-86097142D01*
X145903142Y-86097142D01*
X146074571Y-86140000D01*
X146160285Y-86225714D01*
X146203142Y-86311428D01*
X146203142Y-86482857D01*
X146160285Y-86568571D01*
X146074571Y-86654285D01*
X145903142Y-86697142D01*
X145603142Y-86697142D01*
X145431714Y-86654285D01*
X145346000Y-86568571D01*
X145303142Y-86482857D01*
X146203142Y-85711428D02*
X145303142Y-85711428D01*
X145303142Y-85368571D01*
X145346000Y-85282857D01*
X145388857Y-85240000D01*
X145474571Y-85197142D01*
X145603142Y-85197142D01*
X145688857Y-85240000D01*
X145731714Y-85282857D01*
X145774571Y-85368571D01*
X145774571Y-85711428D01*
X145388857Y-84854285D02*
X145346000Y-84811428D01*
X145303142Y-84725714D01*
X145303142Y-84511428D01*
X145346000Y-84425714D01*
X145388857Y-84382857D01*
X145474571Y-84340000D01*
X145560285Y-84340000D01*
X145688857Y-84382857D01*
X146203142Y-84897142D01*
X146203142Y-84340000D01*
X145303142Y-83782857D02*
X145303142Y-83697142D01*
X145346000Y-83611428D01*
X145388857Y-83568571D01*
X145474571Y-83525714D01*
X145646000Y-83482857D01*
X145860285Y-83482857D01*
X146031714Y-83525714D01*
X146117428Y-83568571D01*
X146160285Y-83611428D01*
X146203142Y-83697142D01*
X146203142Y-83782857D01*
X146160285Y-83868571D01*
X146117428Y-83911428D01*
X146031714Y-83954285D01*
X145860285Y-83997142D01*
X145646000Y-83997142D01*
X145474571Y-83954285D01*
X145388857Y-83911428D01*
X145346000Y-83868571D01*
X145303142Y-83782857D01*
D10*
X148668619Y-90242571D02*
X148620238Y-90339333D01*
X148571857Y-90387714D01*
X148475095Y-90436095D01*
X148184809Y-90436095D01*
X148088047Y-90387714D01*
X148039666Y-90339333D01*
X147991285Y-90242571D01*
X147991285Y-90097428D01*
X148039666Y-90000666D01*
X148088047Y-89952285D01*
X148184809Y-89903904D01*
X148475095Y-89903904D01*
X148571857Y-89952285D01*
X148620238Y-90000666D01*
X148668619Y-90097428D01*
X148668619Y-90242571D01*
X145783904Y-98249619D02*
X145783904Y-99072095D01*
X145832285Y-99168857D01*
X145880666Y-99217238D01*
X145977428Y-99265619D01*
X146170952Y-99265619D01*
X146267714Y-99217238D01*
X146316095Y-99168857D01*
X146364476Y-99072095D01*
X146364476Y-98249619D01*
X147283714Y-98249619D02*
X147090190Y-98249619D01*
X146993428Y-98298000D01*
X146945047Y-98346380D01*
X146848285Y-98491523D01*
X146799904Y-98685047D01*
X146799904Y-99072095D01*
X146848285Y-99168857D01*
X146896666Y-99217238D01*
X146993428Y-99265619D01*
X147186952Y-99265619D01*
X147283714Y-99217238D01*
X147332095Y-99168857D01*
X147380476Y-99072095D01*
X147380476Y-98830190D01*
X147332095Y-98733428D01*
X147283714Y-98685047D01*
X147186952Y-98636666D01*
X146993428Y-98636666D01*
X146896666Y-98685047D01*
X146848285Y-98733428D01*
X146799904Y-98830190D01*
D26*
X144795142Y-97437857D02*
X144795142Y-96923571D01*
X145695142Y-97180714D02*
X144795142Y-97180714D01*
X145652285Y-96666428D02*
X145695142Y-96537857D01*
X145695142Y-96323571D01*
X145652285Y-96237857D01*
X145609428Y-96195000D01*
X145523714Y-96152142D01*
X145438000Y-96152142D01*
X145352285Y-96195000D01*
X145309428Y-96237857D01*
X145266571Y-96323571D01*
X145223714Y-96495000D01*
X145180857Y-96580714D01*
X145138000Y-96623571D01*
X145052285Y-96666428D01*
X144966571Y-96666428D01*
X144880857Y-96623571D01*
X144838000Y-96580714D01*
X144795142Y-96495000D01*
X144795142Y-96280714D01*
X144838000Y-96152142D01*
X145652285Y-95809285D02*
X145695142Y-95680714D01*
X145695142Y-95466428D01*
X145652285Y-95380714D01*
X145609428Y-95337857D01*
X145523714Y-95295000D01*
X145438000Y-95295000D01*
X145352285Y-95337857D01*
X145309428Y-95380714D01*
X145266571Y-95466428D01*
X145223714Y-95637857D01*
X145180857Y-95723571D01*
X145138000Y-95766428D01*
X145052285Y-95809285D01*
X144966571Y-95809285D01*
X144880857Y-95766428D01*
X144838000Y-95723571D01*
X144795142Y-95637857D01*
X144795142Y-95423571D01*
X144838000Y-95295000D01*
X144795142Y-94737857D02*
X144795142Y-94566428D01*
X144838000Y-94480714D01*
X144923714Y-94395000D01*
X145095142Y-94352142D01*
X145395142Y-94352142D01*
X145566571Y-94395000D01*
X145652285Y-94480714D01*
X145695142Y-94566428D01*
X145695142Y-94737857D01*
X145652285Y-94823571D01*
X145566571Y-94909285D01*
X145395142Y-94952142D01*
X145095142Y-94952142D01*
X144923714Y-94909285D01*
X144838000Y-94823571D01*
X144795142Y-94737857D01*
X145695142Y-93966428D02*
X144795142Y-93966428D01*
X144795142Y-93623571D01*
X144838000Y-93537857D01*
X144880857Y-93495000D01*
X144966571Y-93452142D01*
X145095142Y-93452142D01*
X145180857Y-93495000D01*
X145223714Y-93537857D01*
X145266571Y-93623571D01*
X145266571Y-93966428D01*
X144880857Y-93109285D02*
X144838000Y-93066428D01*
X144795142Y-92980714D01*
X144795142Y-92766428D01*
X144838000Y-92680714D01*
X144880857Y-92637857D01*
X144966571Y-92595000D01*
X145052285Y-92595000D01*
X145180857Y-92637857D01*
X145695142Y-93152142D01*
X145695142Y-92595000D01*
X144795142Y-92037857D02*
X144795142Y-91952142D01*
X144838000Y-91866428D01*
X144880857Y-91823571D01*
X144966571Y-91780714D01*
X145138000Y-91737857D01*
X145352285Y-91737857D01*
X145523714Y-91780714D01*
X145609428Y-91823571D01*
X145652285Y-91866428D01*
X145695142Y-91952142D01*
X145695142Y-92037857D01*
X145652285Y-92123571D01*
X145609428Y-92166428D01*
X145523714Y-92209285D01*
X145352285Y-92252142D01*
X145138000Y-92252142D01*
X144966571Y-92209285D01*
X144880857Y-92166428D01*
X144838000Y-92123571D01*
X144795142Y-92037857D01*
D10*
X148668619Y-98497571D02*
X148620238Y-98594333D01*
X148571857Y-98642714D01*
X148475095Y-98691095D01*
X148184809Y-98691095D01*
X148088047Y-98642714D01*
X148039666Y-98594333D01*
X147991285Y-98497571D01*
X147991285Y-98352428D01*
X148039666Y-98255666D01*
X148088047Y-98207285D01*
X148184809Y-98158904D01*
X148475095Y-98158904D01*
X148571857Y-98207285D01*
X148620238Y-98255666D01*
X148668619Y-98352428D01*
X148668619Y-98497571D01*
X145275904Y-106758619D02*
X145275904Y-107581095D01*
X145324285Y-107677857D01*
X145372666Y-107726238D01*
X145469428Y-107774619D01*
X145662952Y-107774619D01*
X145759714Y-107726238D01*
X145808095Y-107677857D01*
X145856476Y-107581095D01*
X145856476Y-106758619D01*
X146243523Y-106758619D02*
X146920857Y-106758619D01*
X146485428Y-107774619D01*
X143080619Y-99132571D02*
X143032238Y-99229333D01*
X142983857Y-99277714D01*
X142887095Y-99326095D01*
X142596809Y-99326095D01*
X142500047Y-99277714D01*
X142451666Y-99229333D01*
X142403285Y-99132571D01*
X142403285Y-98987428D01*
X142451666Y-98890666D01*
X142500047Y-98842285D01*
X142596809Y-98793904D01*
X142887095Y-98793904D01*
X142983857Y-98842285D01*
X143032238Y-98890666D01*
X143080619Y-98987428D01*
X143080619Y-99132571D01*
D26*
X144922142Y-105832857D02*
X144922142Y-105318571D01*
X145822142Y-105575714D02*
X144922142Y-105575714D01*
X145779285Y-105061428D02*
X145822142Y-104932857D01*
X145822142Y-104718571D01*
X145779285Y-104632857D01*
X145736428Y-104590000D01*
X145650714Y-104547142D01*
X145565000Y-104547142D01*
X145479285Y-104590000D01*
X145436428Y-104632857D01*
X145393571Y-104718571D01*
X145350714Y-104890000D01*
X145307857Y-104975714D01*
X145265000Y-105018571D01*
X145179285Y-105061428D01*
X145093571Y-105061428D01*
X145007857Y-105018571D01*
X144965000Y-104975714D01*
X144922142Y-104890000D01*
X144922142Y-104675714D01*
X144965000Y-104547142D01*
X145779285Y-104204285D02*
X145822142Y-104075714D01*
X145822142Y-103861428D01*
X145779285Y-103775714D01*
X145736428Y-103732857D01*
X145650714Y-103690000D01*
X145565000Y-103690000D01*
X145479285Y-103732857D01*
X145436428Y-103775714D01*
X145393571Y-103861428D01*
X145350714Y-104032857D01*
X145307857Y-104118571D01*
X145265000Y-104161428D01*
X145179285Y-104204285D01*
X145093571Y-104204285D01*
X145007857Y-104161428D01*
X144965000Y-104118571D01*
X144922142Y-104032857D01*
X144922142Y-103818571D01*
X144965000Y-103690000D01*
X144922142Y-103132857D02*
X144922142Y-102961428D01*
X144965000Y-102875714D01*
X145050714Y-102790000D01*
X145222142Y-102747142D01*
X145522142Y-102747142D01*
X145693571Y-102790000D01*
X145779285Y-102875714D01*
X145822142Y-102961428D01*
X145822142Y-103132857D01*
X145779285Y-103218571D01*
X145693571Y-103304285D01*
X145522142Y-103347142D01*
X145222142Y-103347142D01*
X145050714Y-103304285D01*
X144965000Y-103218571D01*
X144922142Y-103132857D01*
X145822142Y-102361428D02*
X144922142Y-102361428D01*
X144922142Y-102018571D01*
X144965000Y-101932857D01*
X145007857Y-101890000D01*
X145093571Y-101847142D01*
X145222142Y-101847142D01*
X145307857Y-101890000D01*
X145350714Y-101932857D01*
X145393571Y-102018571D01*
X145393571Y-102361428D01*
X145007857Y-101504285D02*
X144965000Y-101461428D01*
X144922142Y-101375714D01*
X144922142Y-101161428D01*
X144965000Y-101075714D01*
X145007857Y-101032857D01*
X145093571Y-100990000D01*
X145179285Y-100990000D01*
X145307857Y-101032857D01*
X145822142Y-101547142D01*
X145822142Y-100990000D01*
X144922142Y-100432857D02*
X144922142Y-100347142D01*
X144965000Y-100261428D01*
X145007857Y-100218571D01*
X145093571Y-100175714D01*
X145265000Y-100132857D01*
X145479285Y-100132857D01*
X145650714Y-100175714D01*
X145736428Y-100218571D01*
X145779285Y-100261428D01*
X145822142Y-100347142D01*
X145822142Y-100432857D01*
X145779285Y-100518571D01*
X145736428Y-100561428D01*
X145650714Y-100604285D01*
X145479285Y-100647142D01*
X145265000Y-100647142D01*
X145093571Y-100604285D01*
X145007857Y-100561428D01*
X144965000Y-100518571D01*
X144922142Y-100432857D01*
D10*
X122264714Y-76659619D02*
X122264714Y-75643619D01*
X122264714Y-76127428D02*
X122845285Y-76127428D01*
X122845285Y-76659619D02*
X122845285Y-75643619D01*
X123329095Y-76659619D02*
X123329095Y-75643619D01*
X123329095Y-76127428D02*
X123909666Y-76127428D01*
X123909666Y-76659619D02*
X123909666Y-75643619D01*
X124393476Y-76659619D02*
X124393476Y-75643619D01*
X124780523Y-75643619D01*
X124877285Y-75692000D01*
X124925666Y-75740380D01*
X124974047Y-75837142D01*
X124974047Y-75982285D01*
X124925666Y-76079047D01*
X124877285Y-76127428D01*
X124780523Y-76175809D01*
X124393476Y-76175809D01*
X125409476Y-76659619D02*
X125409476Y-75643619D01*
X125651380Y-75643619D01*
X125796523Y-75692000D01*
X125893285Y-75788761D01*
X125941666Y-75885523D01*
X125990047Y-76079047D01*
X125990047Y-76224190D01*
X125941666Y-76417714D01*
X125893285Y-76514476D01*
X125796523Y-76611238D01*
X125651380Y-76659619D01*
X125409476Y-76659619D01*
X126957666Y-76659619D02*
X126377095Y-76659619D01*
X126667380Y-76659619D02*
X126667380Y-75643619D01*
X126570619Y-75788761D01*
X126473857Y-75885523D01*
X126377095Y-75933904D01*
X122282857Y-71579619D02*
X122282857Y-70563619D01*
X122282857Y-71047428D02*
X122863428Y-71047428D01*
X122863428Y-71579619D02*
X122863428Y-70563619D01*
X123298857Y-71531238D02*
X123444000Y-71579619D01*
X123685904Y-71579619D01*
X123782666Y-71531238D01*
X123831047Y-71482857D01*
X123879428Y-71386095D01*
X123879428Y-71289333D01*
X123831047Y-71192571D01*
X123782666Y-71144190D01*
X123685904Y-71095809D01*
X123492380Y-71047428D01*
X123395619Y-70999047D01*
X123347238Y-70950666D01*
X123298857Y-70853904D01*
X123298857Y-70757142D01*
X123347238Y-70660380D01*
X123395619Y-70612000D01*
X123492380Y-70563619D01*
X123734285Y-70563619D01*
X123879428Y-70612000D01*
X124895428Y-71482857D02*
X124847047Y-71531238D01*
X124701904Y-71579619D01*
X124605142Y-71579619D01*
X124460000Y-71531238D01*
X124363238Y-71434476D01*
X124314857Y-71337714D01*
X124266476Y-71144190D01*
X124266476Y-70999047D01*
X124314857Y-70805523D01*
X124363238Y-70708761D01*
X124460000Y-70612000D01*
X124605142Y-70563619D01*
X124701904Y-70563619D01*
X124847047Y-70612000D01*
X124895428Y-70660380D01*
X125814666Y-71579619D02*
X125330857Y-71579619D01*
X125330857Y-70563619D01*
X126685523Y-71579619D02*
X126104952Y-71579619D01*
X126395238Y-71579619D02*
X126395238Y-70563619D01*
X126298476Y-70708761D01*
X126201714Y-70805523D01*
X126104952Y-70853904D01*
X122258666Y-74119619D02*
X122258666Y-73103619D01*
X122258666Y-73587428D02*
X122839238Y-73587428D01*
X122839238Y-74119619D02*
X122839238Y-73103619D01*
X123274666Y-74071238D02*
X123419809Y-74119619D01*
X123661714Y-74119619D01*
X123758476Y-74071238D01*
X123806857Y-74022857D01*
X123855238Y-73926095D01*
X123855238Y-73829333D01*
X123806857Y-73732571D01*
X123758476Y-73684190D01*
X123661714Y-73635809D01*
X123468190Y-73587428D01*
X123371428Y-73539047D01*
X123323047Y-73490666D01*
X123274666Y-73393904D01*
X123274666Y-73297142D01*
X123323047Y-73200380D01*
X123371428Y-73152000D01*
X123468190Y-73103619D01*
X123710095Y-73103619D01*
X123855238Y-73152000D01*
X124290666Y-74119619D02*
X124290666Y-73103619D01*
X124532571Y-73103619D01*
X124677714Y-73152000D01*
X124774476Y-73248761D01*
X124822857Y-73345523D01*
X124871238Y-73539047D01*
X124871238Y-73684190D01*
X124822857Y-73877714D01*
X124774476Y-73974476D01*
X124677714Y-74071238D01*
X124532571Y-74119619D01*
X124290666Y-74119619D01*
X125258285Y-73829333D02*
X125742095Y-73829333D01*
X125161523Y-74119619D02*
X125500190Y-73103619D01*
X125838857Y-74119619D01*
X126709714Y-74119619D02*
X126129142Y-74119619D01*
X126419428Y-74119619D02*
X126419428Y-73103619D01*
X126322666Y-73248761D01*
X126225904Y-73345523D01*
X126129142Y-73393904D01*
D12*
X152829380Y-88906047D02*
X153010809Y-88966523D01*
X153313190Y-88966523D01*
X153434142Y-88906047D01*
X153494619Y-88845571D01*
X153555095Y-88724619D01*
X153555095Y-88603666D01*
X153494619Y-88482714D01*
X153434142Y-88422238D01*
X153313190Y-88361761D01*
X153071285Y-88301285D01*
X152950333Y-88240809D01*
X152889857Y-88180333D01*
X152829380Y-88059380D01*
X152829380Y-87938428D01*
X152889857Y-87817476D01*
X152950333Y-87757000D01*
X153071285Y-87696523D01*
X153373666Y-87696523D01*
X153555095Y-87757000D01*
X154099380Y-88966523D02*
X154099380Y-87696523D01*
X154583190Y-87696523D01*
X154704142Y-87757000D01*
X154764619Y-87817476D01*
X154825095Y-87938428D01*
X154825095Y-88119857D01*
X154764619Y-88240809D01*
X154704142Y-88301285D01*
X154583190Y-88361761D01*
X154099380Y-88361761D01*
X155369380Y-88966523D02*
X155369380Y-87696523D01*
X156095095Y-88966523D02*
X155550809Y-88240809D01*
X156095095Y-87696523D02*
X155369380Y-88422238D01*
X157304619Y-88966523D02*
X156578904Y-88966523D01*
X156941761Y-88966523D02*
X156941761Y-87696523D01*
X156820809Y-87877952D01*
X156699857Y-87998904D01*
X156578904Y-88059380D01*
D11*
X159874857Y-79096571D02*
X159874857Y-77935428D01*
X160455428Y-78516000D02*
X159294285Y-78516000D01*
D10*
X169375666Y-78945619D02*
X169037000Y-78461809D01*
X168795095Y-78945619D02*
X168795095Y-77929619D01*
X169182142Y-77929619D01*
X169278904Y-77978000D01*
X169327285Y-78026380D01*
X169375666Y-78123142D01*
X169375666Y-78268285D01*
X169327285Y-78365047D01*
X169278904Y-78413428D01*
X169182142Y-78461809D01*
X168795095Y-78461809D01*
X169714333Y-77929619D02*
X170391666Y-77929619D01*
X169956238Y-78945619D01*
X171945904Y-88724619D02*
X171945904Y-89547095D01*
X171994285Y-89643857D01*
X172042666Y-89692238D01*
X172139428Y-89740619D01*
X172332952Y-89740619D01*
X172429714Y-89692238D01*
X172478095Y-89643857D01*
X172526476Y-89547095D01*
X172526476Y-88724619D01*
X173445714Y-89063285D02*
X173445714Y-89740619D01*
X173203809Y-88676238D02*
X172961904Y-89401952D01*
X173590857Y-89401952D01*
D27*
X170235571Y-88336380D02*
X170140333Y-88288761D01*
X170092714Y-88241142D01*
X170045095Y-88145904D01*
X170045095Y-87860190D01*
X170092714Y-87764952D01*
X170140333Y-87717333D01*
X170235571Y-87669714D01*
X170378428Y-87669714D01*
X170473666Y-87717333D01*
X170521285Y-87764952D01*
X170568904Y-87860190D01*
X170568904Y-88145904D01*
X170521285Y-88241142D01*
X170473666Y-88288761D01*
X170378428Y-88336380D01*
X170235571Y-88336380D01*
D10*
X170083238Y-102241047D02*
X170264666Y-102301523D01*
X170567047Y-102301523D01*
X170688000Y-102241047D01*
X170748476Y-102180571D01*
X170808952Y-102059619D01*
X170808952Y-101938666D01*
X170748476Y-101817714D01*
X170688000Y-101757238D01*
X170567047Y-101696761D01*
X170325142Y-101636285D01*
X170204190Y-101575809D01*
X170143714Y-101515333D01*
X170083238Y-101394380D01*
X170083238Y-101273428D01*
X170143714Y-101152476D01*
X170204190Y-101092000D01*
X170325142Y-101031523D01*
X170627523Y-101031523D01*
X170808952Y-101092000D01*
X171232285Y-101031523D02*
X171534666Y-102301523D01*
X171776571Y-101394380D01*
X172018476Y-102301523D01*
X172320857Y-101031523D01*
X172804666Y-102301523D02*
X172804666Y-101031523D01*
X173228000Y-101031523D02*
X173953714Y-101031523D01*
X173590857Y-102301523D02*
X173590857Y-101031523D01*
X175102761Y-102180571D02*
X175042285Y-102241047D01*
X174860857Y-102301523D01*
X174739904Y-102301523D01*
X174558476Y-102241047D01*
X174437523Y-102120095D01*
X174377047Y-101999142D01*
X174316571Y-101757238D01*
X174316571Y-101575809D01*
X174377047Y-101333904D01*
X174437523Y-101212952D01*
X174558476Y-101092000D01*
X174739904Y-101031523D01*
X174860857Y-101031523D01*
X175042285Y-101092000D01*
X175102761Y-101152476D01*
X175647047Y-102301523D02*
X175647047Y-101031523D01*
X175647047Y-101636285D02*
X176372761Y-101636285D01*
X176372761Y-102301523D02*
X176372761Y-101031523D01*
X177642761Y-102301523D02*
X176917047Y-102301523D01*
X177279904Y-102301523D02*
X177279904Y-101031523D01*
X177158952Y-101212952D01*
X177038000Y-101333904D01*
X176917047Y-101394380D01*
X174703619Y-105403952D02*
X174703619Y-105210428D01*
X174752000Y-105113666D01*
X174848761Y-105016904D01*
X175042285Y-104968523D01*
X175380952Y-104968523D01*
X175574476Y-105016904D01*
X175671238Y-105113666D01*
X175719619Y-105210428D01*
X175719619Y-105403952D01*
X175671238Y-105500714D01*
X175574476Y-105597476D01*
X175380952Y-105645857D01*
X175042285Y-105645857D01*
X174848761Y-105597476D01*
X174752000Y-105500714D01*
X174703619Y-105403952D01*
X175719619Y-104533095D02*
X174703619Y-104533095D01*
X175719619Y-103952523D01*
X174703619Y-103952523D01*
X177104523Y-110641190D02*
X177104523Y-110399285D01*
X177165000Y-110278333D01*
X177285952Y-110157380D01*
X177527857Y-110096904D01*
X177951190Y-110096904D01*
X178193095Y-110157380D01*
X178314047Y-110278333D01*
X178374523Y-110399285D01*
X178374523Y-110641190D01*
X178314047Y-110762142D01*
X178193095Y-110883095D01*
X177951190Y-110943571D01*
X177527857Y-110943571D01*
X177285952Y-110883095D01*
X177165000Y-110762142D01*
X177104523Y-110641190D01*
X178374523Y-109552619D02*
X177104523Y-109552619D01*
X178374523Y-108826904D01*
X177104523Y-108826904D01*
X168734619Y-103849714D02*
X168734619Y-104430285D01*
X168734619Y-104140000D02*
X167718619Y-104140000D01*
X167863761Y-104236761D01*
X167960523Y-104333523D01*
X168008904Y-104430285D01*
X172544619Y-103849714D02*
X172544619Y-104430285D01*
X172544619Y-104140000D02*
X171528619Y-104140000D01*
X171673761Y-104236761D01*
X171770523Y-104333523D01*
X171818904Y-104430285D01*
X171625380Y-105700285D02*
X171577000Y-105651904D01*
X171528619Y-105555142D01*
X171528619Y-105313238D01*
X171577000Y-105216476D01*
X171625380Y-105168095D01*
X171722142Y-105119714D01*
X171818904Y-105119714D01*
X171964047Y-105168095D01*
X172544619Y-105748666D01*
X172544619Y-105119714D01*
X171528619Y-107018666D02*
X171528619Y-106389714D01*
X171915666Y-106728380D01*
X171915666Y-106583238D01*
X171964047Y-106486476D01*
X172012428Y-106438095D01*
X172109190Y-106389714D01*
X172351095Y-106389714D01*
X172447857Y-106438095D01*
X172496238Y-106486476D01*
X172544619Y-106583238D01*
X172544619Y-106873523D01*
X172496238Y-106970285D01*
X172447857Y-107018666D01*
X171867285Y-107756476D02*
X172544619Y-107756476D01*
X171480238Y-107998380D02*
X172205952Y-108240285D01*
X172205952Y-107611333D01*
X168057285Y-107756476D02*
X168734619Y-107756476D01*
X167670238Y-107998380D02*
X168395952Y-108240285D01*
X168395952Y-107611333D01*
M02*
